<svg id="Layer_1" data-name="Layer 1" xmlns="http://www.w3.org/2000/svg" viewBox="0 0 704.53514 153.76921"><defs><style>.cls-1{fill:#ba0913;}</style></defs><path class="cls-1" d="M406.35875,116.01605c-5.47892,5.77242-10.86,11.54484-16.43672,17.21944-1.07623,1.17407-2.83729,1.66326-4.30486,2.446a19.87719,19.87719,0,0,1-.97838-4.794c0-2.0546.587-4.10919,1.17407-7.33783-1.85891,1.66326-2.83729,2.64163-3.81567,3.52217-5.38107,5.18538-10.46864,10.6643-16.04538,15.654-6.75079,5.96811-14.08862,5.87027-20.64376-.19568-10.17512-9.58809-16.24107-27.78591-.88053-41.581,8.414-7.53351,18.29566-12.32755,28.76428-16.14322,5.08757-1.85891,7.14214-.09784,6.26161,5.28323-.68488,3.91351-2.15244,7.72918-3.32648,11.54484-.68487-.09784-1.36972-.2935-2.0546-.39134v-7.827c-5.67457,1.95675-10.86,3.033-15.36053,5.47892a58.67211,58.67211,0,0,0-13.30594,9.68592c-9.19674,8.90324-4.207,27.29672,8.31621,30.42754,2.93513.78269,7.63133-.2935,9.78377-2.3481,8.90324-8.41405,17.31729-17.51294,25.6335-26.61187,2.05459-2.3481,2.93513-5.77242,4.30485-8.60971,8.0227-17.31728,15.84972-34.73239,24.06808-52.04966,1.07623-2.25027,3.91351-3.71784,5.96811-5.57675.2935,2.93513,1.46757,6.06594.68488,8.70755a178.84214,178.84214,0,0,1-24.65512,53.12587,75.78153,75.78153,0,0,0-7.92486,15.94754c10.95784-7.04433,18.1-19.274,32.28645-21.72,1.36972,5.18539,0,8.8054-2.93514,11.93622a134.4882,134.4882,0,0,0-9.88161,11.34918c-1.46757,1.95675-3.13082,6.16376-2.25026,7.14214,1.95676,2.0546,5.38108,2.93513,8.31621,3.91351.88053.2935,2.15244-.2935,3.42432-.587-3.62-12.034,3.91351-20.15458,9.58808-28.86213a50.3249,50.3249,0,0,1,6.35946-7.33783c8.9032-9.49027,19.07835-8.41405,26.02481,3.32648,3.9135-3.22864,7.7292-6.4573,11.93621-9.97946,2.05457,5.47892,1.56538,9.29458-2.15244,13.0124a128.032,128.032,0,0,0-14.67566,17.1216c-1.66325,2.44595-1.27188,6.7508-.587,9.97946.19568.88054,5.47889,1.76107,7.7292.78269,10.273-4.40269,19.274-10.6643,24.75293-20.93726a9.28781,9.28781,0,0,1,.97838-1.66326,3.74939,3.74939,0,0,1,1.07619-.48918c3.13082,3.62,2.83732,7.53351.68488,11.447a81.05928,81.05928,0,0,0-5.77245,11.25134c14.18647-7.63133,23.481-20.93727,35.61295-31.50376,2.93513,5.38108,2.83732,9.97946-.19569,14.57781a110.28729,110.28729,0,0,0-6.55514,10.86c-1.76106,3.52216-.39137,5.77242,3.62,5.57676,2.25026-.09784,5.18539-.78269,6.75083-2.25026,7.92483-7.63133,15.75185-15.36053,23.18755-23.48105,1.85894-1.95675,2.34813-5.28323,3.22863-8.0227,7.14214-23.28537,17.02379-45.201,31.99295-64.67074a46.02176,46.02176,0,0,1,5.87026-6.4573,5.42766,5.42766,0,0,1,4.30488-1.17405c.78269.19568,1.76107,2.446,1.56538,3.62-.68487,4.40269-.97837,9.09891-2.73944,13.11024-9.58808,22.11133-22.01349,42.65726-36.10214,62.127-4.30489,5.87026-5.28326,12.4254-5.57676,19.274-.19569,4.30485,2.05456,5.67457,5.47888,3.22863,9.0989-6.45729,18.00217-13.30593,26.80756-20.25242,1.46757-1.17406,2.25026-3.52216,3.03295-5.47892a45.88248,45.88248,0,0,1,13.99078-18.98051c1.17407-.88053,2.83732-1.07622,4.30488-1.56541.29351,1.36972,1.17407,2.73945.97838,4.01135-.2935,2.15245-.68487,4.59839-1.95675,6.26161-4.1092,5.77242-8.70758,11.25134-13.01241,17.02376-.78269,1.07622-1.95675,3.13082-1.56538,3.62a6.63493,6.63493,0,0,0,4.01133,2.0546c6.653.587,10.37077-1.76107,13.50159-7.827a146.96538,146.96538,0,0,1,8.70758-14.57782c.97838-1.46756,3.42432-1.85891,5.18539-2.73944.78269,1.85891,2.15244,3.62,2.25025,5.38107.39138,9.00109-4.50051,15.45835-11.34915,20.35024-3.81569,2.73944-6.75083,5.38107-5.18539,10.273,1.56538,4.59838,5.96808,5.18539,10.07728,5.38107,15.16484.68488,30.23188,1.17407,45.39672,1.85891,9.58809.39135,19.17617.97838,28.76432,1.27188,9.58808.2935,15.16484,7.63133,22.1113,12.81675a5.31044,5.31044,0,0,1-1.76107,0c-9.78377-5.28323-20.44811-5.96811-31.21026-6.35945-20.35023-.587-40.70046-1.36973-61.05076-2.15244a35.7394,35.7394,0,0,1-7.24-.88054c-6.94646-1.56541-9.78377-5.18539-9.97946-12.32756,0-1.27188-.09782-2.54378-.19569-3.81566-13.79509,0-13.79509,0-17.7086-4.98973q-10.12624,7.48459-20.25242,14.96916a41.92717,41.92717,0,0,1-6.653,4.10919c-5.18538,2.446-9.00108.39135-9.88158-5.28323a32.60719,32.60719,0,0,1-.19569-5.38107v-5.96811c-4.89188,4.89189-8.90321,9.0989-13.11028,13.01241a54.16239,54.16239,0,0,1-8.51189,6.45729c-4.207,2.54379-8.70758,3.13082-12.7189-.19569-3.71783-3.13081-2.64163-7.33782-1.56538-11.25133.48918-1.95676,1.27187-3.91351,1.95675-5.87027-.587-.48919-1.07619-.88053-1.66325-1.36972-2.93513,3.42432-5.57676,7.04433-8.8054,10.07727a80.356,80.356,0,0,1-13.3059,10.46865c-6.16377,3.71782-8.414,2.54379-10.95784-4.207-4.59838,1.56541-9.00108,3.42432-13.69728,4.59839-10.07727,2.44594-14.67566-2.0546-12.7189-12.22972a15.26634,15.26634,0,0,0,.39137-6.066,68.22566,68.22566,0,0,1-7.53352,6.55514c-5.9681,4.207-11.93621,8.31621-18.19782,12.13187a19.56739,19.56739,0,0,1-7.92486,2.25026c-12.13187,1.27188-18.1-6.84864-13.50159-18.00214.88053-2.05459,1.95675-4.01135,3.033-5.9681A6.11362,6.11362,0,0,1,406.35875,116.01605Zm21.8178,12.4254a13.06727,13.06727,0,0,0,3.22863-1.17406c8.21837-6.84865,16.33888-13.79513,24.26378-20.93727.88056-.78269,1.07619-3.52216.48918-4.6962-2.15244-4.207-10.66433-6.35945-13.59946-2.83729a300.82542,300.82542,0,0,0-18.19782,24.94862C422.502,126.58254,424.75223,128.148,428.17655,128.44145Zm132.17876-40.407C571.998,71.30423,582.56449,53.987,589.70663,34.81077A146.542,146.542,0,0,0,560.35531,88.03448Z" transform="translate(-8.44707 -2.23079)"/><path class="cls-1" d="M99.14831,2.23079c.97838,7.33783-1.85891,12.42539-5.28323,17.513C78.30889,42.7356,62.94836,65.82531,47.49,88.915a20.70429,20.70429,0,0,0-2.73946,5.28323c24.26375-21.72,49.99508-41.38536,79.63991-55.27831a16.59571,16.59571,0,0,0,1.36972.97837c-.97838,1.36973-1.56541,3.22865-2.83729,4.01136A441.31439,441.31439,0,0,0,56.09972,95.07875c-5.08756,4.6962-9.09891,10.56646-12.71891,16.43673-3.81567,6.2616-1.66324,11.05565,5.1854,13.893,7.33783,3.13082,14.96918,2.73945,20.83944-2.15244,7.92486-6.55514,14.96918-14.28431,22.11133-21.72.97838-1.07622,1.66324-3.91351.97838-4.794a5.96646,5.96646,0,0,0-4.98973-1.85892c-9.19674,2.54379-18.19782,5.57677-27.39456,8.41405-1.85892.587-3.71784,1.07623-6.06594,1.76107.48919-5.08757,2.05459-7.827,6.16378-9.19674,8.02269-2.54379,15.84971-5.87026,24.06809-7.92486,7.92486-2.0546,10.6643,0,13.30593,7.72917.39135,1.07623,2.0546,2.15245,3.32648,2.54379,3.42432,1.07622,6.55512,2.25026,5.87026,6.84864-.39134.19569-.7827.587-1.174.587-9.88161-1.95675-15.45836,4.01136-20.54592,10.95784-3.32647,4.50054-2.54378,7.63133,2.64162,9.97946,7.04431,3.13082,14.38214,2.93513,20.44807-1.66325,5.96811-4.4027,10.86-9.97946,16.73026-15.45835-1.66324-.97838-2.44594-1.46757-3.1308-1.95676-1.85891-1.56541-4.794-3.033-5.08756-4.89188-.29352-1.95676,1.66324-5.87027,3.1308-6.16377,2.64162-.48918,6.84864.19569,8.21836,2.0546,2.73946,3.71782,5.87027,3.91351,9.39243,3.22863,9.19674-1.76106,18.3935-3.9135,27.59024-5.9681,3.52216-.78269,7.04431-1.76107,10.86-2.64163.39134,2.44594.587,4.10919.88053,5.87026,5.67459-1.95675,10.86-4.01135,16.33891-5.47892,7.24-1.95675,8.8054-.48919,10.07728,6.7508,1.27187,7.33783-1.07622,13.30593-5.77242,18.78485-2.93514,3.52217-6.16377,7.04433-6.35946,13.5016,13.2081-4.6962,23.5789-12.034,33.06914-20.44808,9.39243-8.31621,17.61079-17.80648,26.90537-27.39456,1.17407,5.28323,1.66326,9.58808-1.85891,13.30593-2.93513,3.033-6.45729,5.67458-8.90323,9.00109a60.50871,60.50871,0,0,0-6.84864,12.62106c-.587,1.46756.19568,4.40269,1.36972,5.57676.88053.78269,4.01135.39134,5.28323-.587,7.14214-5.57676,14.18647-11.25133,20.93726-17.31728,4.50055-4.1092,8.41405-9.00109,12.71891-13.40378a34.26354,34.26354,0,0,1,4.40269-3.13082c1.36973,5.57676.29351,9.68593-3.62,13.11025-3.81567,3.32647-7.33783,6.84864-10.86,10.46864-6.35945,6.4573-6.55513,13.01241-.587,19.861,4.98973,5.77242,11.25134,10.3708,18.78486,11.54484,5.9681.88053,10.56646,2.25025,12.034,8.70755-11.25133,7.14214-37.08049-11.93621-40.60265-30.81888-2.93513,1.95675-5.57676,4.01135-8.51189,5.67457-3.62,2.0546-7.43568,4.89189-11.74053,2.3481-4.207-2.54378-3.91351-7.14214-3.71782-11.34918v-3.42432c-1.95676,1.27188-3.32648,2.15244-4.59839,3.033-7.14214,4.794-14.28431,9.68592-21.42645,14.48a25.88421,25.88421,0,0,1-5.18539,2.64163c-7.92486,3.32647-10.46863,2.0546-12.42538-6.35945-5.47892,3.32647-10.86,6.55513-16.3389,9.68592-4.207,2.44595-8.31621,5.18539-12.81675,6.7508-5.1854,1.85891-8.21836-.88053-8.02269-6.35945.19567-3.033-.19567-5.38108-2.73946-7.72917a6.48709,6.48709,0,0,1-1.27189-5.77242,89.52262,89.52262,0,0,1,6.653-13.79513c1.56541-2.73944,4.10918-4.89188,7.14215-8.3162-6.06593,1.27187-10.95782,3.13081-15.654,2.93513-9.29458-.39135-14.96918,3.91351-20.15458,11.05565-6.45729,9.09889-15.55619,14.7735-27.00321,15.55619-7.5335.48919-13.79513-1.76107-16.73026-8.90324-5.57675,2.44594-10.86,4.98973-16.43674,7.04433-5.77243,2.15244-11.64269.97837-17.1216-1.46757-5.57675-2.54378-8.414-6.94648-8.12053-13.20809.09783-2.0546.48918-4.1092.88054-7.53352-11.447,10.56647-19.46971,22.69837-28.76429,33.85186-1.56541-4.50054-.29352-7.92486,2.05459-11.34918q32.4332-47.98942,64.76857-96.07664C83.005,26.59226,89.85368,15.92794,96.80017,5.36146A18.09484,18.09484,0,0,1,99.14831,2.23079Zm55.7675,127.58038c8.8054.78269,15.75188,1.85891,21.62214-4.01135,6.35946-6.26161,12.81675-12.4254,19.56755-18.29567,2.3481-1.95675,4.01135-3.9135,2.3481-6.35945-.88054-1.27188-4.1092-1.76106-5.96811-1.36972-12.22971,2.64163-21.91564,9.49027-29.8405,18.98051C160.1012,121.88631,158.04662,125.40847,154.91581,129.81117Zm-4.30487-1.27188c2.64162-4.89188,5.18541-9.49027,8.02269-14.7735C151.0023,119.63606,148.26284,124.62578,150.61094,128.53929Z" transform="translate(-8.44707 -2.23079)"/></svg>