<?xml version="1.0" encoding="utf-8"?>
<!-- Generator: Adobe Illustrator 25.2.0, SVG Export Plug-In . SVG Version: 6.00 Build 0)  -->
<svg version="1.1" id="Layer_1" xmlns="http://www.w3.org/2000/svg" xmlns:xlink="http://www.w3.org/1999/xlink" x="0px" y="0px"
	 viewBox="0 0 340 340" style="enable-background:new 0 0 340 340;" xml:space="preserve">
<style type="text/css">
	.st0{fill:#BA0913;}
	.st1{fill:#FFFFFF;}
</style>
<g id="Layer_1_1_">
</g>
<g id="Layer_2_1_">
</g>
<g id="Layer_3">
</g>
<g id="Layer_4">
</g>
<g id="Layer_5">
</g>
<g id="Layer_6">
</g>
<g id="Layer_7">
	<ellipse class="st0" cx="170" cy="170" rx="170" ry="170"/>
	<g>
		<path class="st1" d="M62.7,254.3l64.6-73.7l42.7,26.7l42.7-26.7l64.6,73.7H62.7L62.7,254.3z M51,248.5c-2.2-2.6-3.6-5.9-3.6-9.5
			V119.2l68.9,52.7L51,248.5L51,248.5z M289,248.5l-65.3-76.7l69-52.7v119.8C292.7,242.6,291.2,245.9,289,248.5L289,248.5z
			 M170,177.6L47.3,100.9c0-8.5,6.8-15.3,15.3-15.3h214.7c8.4,0,15.3,6.8,15.3,15.3L170,177.6L170,177.6z"/>
	</g>
</g>
<g id="Layer_8">
</g>
</svg>
