<?xml version="1.0" encoding="utf-8"?>
<!-- Generator: Adobe Illustrator 25.2.0, SVG Export Plug-In . SVG Version: 6.00 Build 0)  -->
<svg version="1.1" id="Layer_1" xmlns="http://www.w3.org/2000/svg" xmlns:xlink="http://www.w3.org/1999/xlink" x="0px" y="0px"
	 viewBox="0 0 1984.3 1552.3" style="enable-background:new 0 0 1984.3 1552.3;" xml:space="preserve">
<style type="text/css">
	.st0{opacity:3.000000e-02;}
	.st1{fill:#020202;}
	.st2{fill:#F8F9F9;}
	.st3{fill:#FE0000;}
	.st4{fill:#FFFFFF;}
	.st5{fill:#010000;}
	.st6{fill:#FBFBFB;}
</style>
<g class="st0">
	<path class="st1" d="M992,1453.1c-11.6-0.3-23.4-0.5-35.1-1.1c-9.1-0.4-18.2-1.1-27.3-1.9c-7.6-0.7-15.2-1.6-22.7-2.5
		c-6.1-0.7-12.2-1.4-18.2-2.4c-8.2-1.3-16.4-2.6-24.5-4.1c-11.5-2.2-23-4.7-34.5-7.4c-18.4-4.4-36.5-9.6-54.4-15.5
		c-59.6-19.8-115.4-47.1-167.5-82.2c-47-31.6-89.5-68.4-127.4-110.4c-42.1-46.6-77.3-98-105.4-154.2c-17.5-34.9-31.8-71-43.1-108.3
		c-6.2-20.5-11.4-41.2-15.6-62.1c-2.1-10.2-3.9-20.5-5.5-30.8c-1.5-10-2.9-20-4-30c-1.3-11.9-2.3-23.7-3-35.7
		c-1.2-19.9-1.4-39.7-1-59.6c0.2-10.1,0.8-20.2,1.4-30.3c0.3-5.6,1-11.2,1.5-16.8c0.4-4.5,0.8-8.9,1.3-13.4
		c0.4-3.5,0.7-6.9,1.2-10.4c1.5-10.7,3-21.3,4.9-31.9c4.9-26.9,11.2-53.5,19.1-79.6c16.7-54.7,39.9-106.6,69.5-155.5
		c22.2-36.7,47.6-71,76.2-102.9c41.5-46.3,88.3-86.4,140.5-120.1c42.3-27.3,87-49.7,134.3-67.2c26.1-9.7,52.7-17.7,79.8-24.1
		c11.9-2.8,23.9-5.3,36-7.5c7-1.3,14-2.3,21.1-3.4c6.1-0.9,12.1-1.9,18.2-2.6c7.9-0.9,15.8-1.7,23.7-2.4c6.3-0.6,12.6-1,18.8-1.5
		c0.7-0.1,1.3-0.1,2-0.1c10.6-0.4,21.2-0.8,31.8-1.1c15.1-0.3,30.2,0.3,45.2,1c6.9,0.3,13.9,1,20.8,1.5c5,0.4,9.9,0.8,14.9,1.3
		c3.8,0.4,7.6,0.8,11.4,1.3c3.6,0.5,7.2,1,10.8,1.5c8.4,1.1,16.7,2.5,25,3.9c11.6,2,23.1,4.4,34.5,7c21.3,4.9,42.3,10.8,63,17.7
		c73.1,24.3,140.1,60,201.2,106.8c62.8,48.1,115.8,105.4,159,171.7c30,46,54.1,94.9,72.3,146.6c9,25.6,16.5,51.7,22.4,78.2
		c2.8,12.8,5.4,25.6,7.5,38.5c1.7,10.6,3.3,21.3,4.4,32c0.8,8.4,1.8,16.8,2.5,25.2c0.6,7.4,0.9,14.9,1.3,22.3
		c0.7,13.2,0.9,26.5,0.8,39.8c-0.1,11.3-0.6,22.5-1.2,33.8c-0.4,8.3-1.1,16.5-1.9,24.8c-1,9.9-2.1,19.8-3.5,29.6
		c-1.3,9.4-2.7,18.7-4.4,28c-3.3,18.4-7.4,36.7-12.2,54.8c-13.9,52-33.6,101.8-59.2,149.2c-21.9,40.5-47.6,78.4-77,113.8
		c-31.2,37.5-65.9,71.3-104.3,101.4c-43,33.8-89.4,62.1-139.2,84.9c-34.4,15.7-69.8,28.5-106.3,38.4c-14.9,4-29.8,7.5-44.9,10.5
		c-10.4,2.1-20.8,3.9-31.3,5.5c-8.8,1.3-17.7,2.6-26.6,3.4c-8.6,0.8-17.1,1.7-25.7,2.5c-5.6,0.5-11.2,0.9-16.9,1.1
		C1015.4,1452.5,1003.8,1452.8,992,1453.1z M1635.6,764.1c-0.4-14-0.5-27.4-1.4-40.8c-0.7-9.9-1.4-19.8-2.5-29.7
		c-1-9.1-2.2-18.1-3.5-27.1c-1.6-10.5-3.4-20.9-5.5-31.3c-4-19.6-8.9-39.1-14.7-58.2c-15.1-49.7-35.8-96.8-62.3-141.4
		c-43.1-72.4-98.2-134-165.2-184.9c-45.2-34.3-94.2-62.1-146.8-83.5c-25.8-10.5-52.2-19.2-79.1-26.2c-12.2-3.2-24.4-6.1-36.8-8.4
		c-6.3-1.2-12.7-2.4-19-3.6c-4.7-0.8-9.5-1.6-14.2-2.2c-6.4-0.9-12.8-1.5-19.2-2.4c-8.5-1.1-17.1-1.8-25.7-2.5
		c-9.6-0.7-19.2-1.2-28.8-1.4c-16.4-0.4-32.8-0.1-49.2,0.4c-1.2,0-2.3,0.1-3.5,0.2c-6.8,0.5-13.5,1.1-20.3,1.5
		c-8.1,0.5-16.2,1.5-24.2,2.4c-8.2,1-16.4,2.2-24.6,3.5c-11.4,1.8-22.8,4-34.2,6.4c-16.3,3.6-32.5,7.8-48.5,12.6
		c-42.1,12.7-82.5,29.5-121.1,50.6c-78.9,43.1-146,100.1-201.2,171c-46.7,59.9-81.5,126.1-104.7,198.4
		c-5.7,17.7-10.5,35.5-14.6,53.6c-2.4,10.7-4.5,21.4-6.4,32.1c-1.2,6.7-2.2,13.4-3.1,20.1c-0.9,6.6-1.5,13.2-2.4,19.7
		c-1.2,9-1.9,18.1-2.4,27.2c-0.7,10.9-1.3,21.8-1.3,32.8c-0.1,17.7,0.1,35.5,1.2,53.2c0.1,1.2,0.2,2.3,0.3,3.5
		c0.5,5.6,1,11.2,1.5,16.8c0.4,4.5,0.8,8.9,1.4,13.3c1.1,8.4,2.4,16.7,3.6,25.1c1.7,11.6,3.9,23.2,6.4,34.7
		c4.3,19.9,9.5,39.6,15.7,59c15.7,49.3,37,96,64.1,140.1c37.1,60.6,83,113.6,137.5,159.1c44,36.7,92.1,67,144.1,90.9
		c30.3,13.9,61.5,25.3,93.6,34.3c13.4,3.7,26.9,7.1,40.5,9.9c9.7,2.1,19.5,3.9,29.3,5.5c6.4,1.1,12.8,1.9,19.2,2.8
		c3.4,0.5,6.9,0.9,10.4,1.3c4.4,0.5,8.9,0.9,13.4,1.3c5.8,0.5,11.5,1.2,17.3,1.5c12.9,0.8,25.8,1.4,38.8,1.4c13.9,0,27.8,0.1,41.7-1
		c7.1-0.5,14.2-0.8,21.3-1.4c7.6-0.7,15.1-1.7,22.7-2.5c9.1-1,18-2.5,27-3.9c9.6-1.6,19.2-3.4,28.8-5.5
		c21.8-4.8,43.4-10.6,64.6-17.6c47.4-15.6,92.3-36.4,134.8-62.5c56.2-34.5,106-76.6,149.3-126.3c31.5-36.1,58.6-75.2,81.4-117.4
		c20.1-37.3,36.4-76.1,48.8-116.6c5.6-18.4,10.4-37,14.4-55.7c2.1-9.7,3.9-19.5,5.4-29.3c0.7-4.9,1.6-9.8,2.2-14.7
		c0.9-6.6,1.7-13.1,2.5-19.7c0.6-5.1,1-10.2,1.4-15.3c0.5-6.9,1.2-13.9,1.5-20.8C1635.1,785.4,1635.3,774.5,1635.6,764.1z"/>
	<path class="st2" d="M1635.6,764.1c-0.3,10.4-0.5,21.3-0.9,32.2c-0.3,6.9-0.9,13.9-1.5,20.8c-0.4,5.1-0.8,10.2-1.4,15.3
		c-0.7,6.6-1.6,13.2-2.5,19.7c-0.7,4.9-1.5,9.8-2.2,14.7c-1.4,9.8-3.3,19.6-5.4,29.3c-4,18.8-8.8,37.4-14.4,55.7
		c-12.4,40.5-28.7,79.4-48.8,116.6c-22.8,42.2-49.9,81.3-81.4,117.4c-43.4,49.7-93.1,91.8-149.3,126.3
		c-42.5,26.1-87.4,46.9-134.8,62.5c-21.2,7-42.8,12.8-64.6,17.6c-9.5,2.1-19.1,3.9-28.8,5.5c-9,1.5-18,2.9-27,3.9
		c-7.6,0.9-15.1,1.8-22.7,2.5c-7.1,0.6-14.2,0.9-21.3,1.4c-13.9,1-27.8,0.9-41.7,1c-12.9,0-25.9-0.6-38.8-1.4
		c-5.8-0.4-11.6-1-17.3-1.5c-4.5-0.4-8.9-0.8-13.4-1.3c-3.5-0.4-6.9-0.8-10.4-1.3c-6.4-0.9-12.8-1.8-19.2-2.8
		c-9.8-1.7-19.6-3.5-29.3-5.5c-13.6-2.9-27.1-6.2-40.5-9.9c-32.1-8.9-63.3-20.4-93.6-34.3c-52.1-23.9-100.1-54.1-144.1-90.9
		c-54.6-45.5-100.4-98.6-137.5-159.1c-27-44.1-48.3-90.8-64.1-140.1c-6.2-19.4-11.4-39.1-15.7-59c-2.5-11.5-4.7-23-6.4-34.7
		c-1.2-8.4-2.5-16.7-3.6-25.1c-0.6-4.4-0.9-8.9-1.4-13.3c-0.5-5.6-1-11.2-1.5-16.8c-0.1-1.2-0.2-2.3-0.3-3.5
		c-1.2-17.7-1.4-35.4-1.2-53.2c0.1-10.9,0.6-21.9,1.3-32.8c0.6-9.1,1.3-18.2,2.4-27.2c0.8-6.6,1.5-13.2,2.4-19.7
		c0.9-6.7,2-13.4,3.1-20.1c1.9-10.8,4.1-21.5,6.4-32.1c4.1-18.1,8.9-36,14.6-53.6c23.2-72.3,58.1-138.5,104.7-198.4
		c55.2-70.9,122.3-127.9,201.2-171c38.6-21.1,79-37.9,121.1-50.6c16-4.8,32.2-9,48.5-12.6c11.3-2.5,22.7-4.6,34.2-6.4
		c8.2-1.3,16.4-2.5,24.6-3.5c8.1-1,16.1-1.9,24.2-2.4c6.8-0.4,13.6-1,20.3-1.5c1.2-0.1,2.3-0.1,3.5-0.2c16.4-0.5,32.8-0.8,49.2-0.4
		c9.6,0.2,19.2,0.8,28.8,1.4c8.6,0.6,17.2,1.3,25.7,2.5c6.4,0.9,12.8,1.5,19.2,2.4c4.8,0.6,9.5,1.4,14.2,2.2
		c6.4,1.1,12.7,2.4,19,3.6c12.4,2.3,24.6,5.2,36.8,8.4c26.9,7,53.3,15.8,79.1,26.2c52.6,21.4,101.6,49.1,146.8,83.5
		c67.1,50.9,122.2,112.6,165.2,184.9c26.5,44.6,47.3,91.8,62.3,141.4c5.8,19.2,10.7,38.6,14.7,58.2c2.1,10.4,3.9,20.8,5.5,31.3
		c1.4,9,2.6,18,3.5,27.1c1.1,9.9,1.8,19.8,2.5,29.7C1635.1,736.7,1635.1,750.1,1635.6,764.1z M1622.3,763.9
		c-0.1-15.1-0.4-30.2-1.5-45.2c-0.7-9.1-1.5-18.2-2.5-27.2c-1.2-10.7-2.7-21.4-4.4-32c-1.8-11.3-4.1-22.5-6.6-33.6
		c-5.4-24.4-12.3-48.4-20.7-72c-38.3-107.4-101.1-198-188-271.8c-55-46.7-116.5-82.7-184-108.3c-24.9-9.4-50.4-17.2-76.4-23.3
		c-11.3-2.6-22.6-5.1-34-7.1c-8.2-1.4-16.3-2.9-24.5-3.9c-3.1-0.4-6.2-0.9-9.4-1.3c-4.3-0.5-8.5-1.1-12.8-1.5
		c-5.3-0.5-10.6-0.9-15.8-1.4c-9.7-0.9-19.5-1.5-29.3-1.6c-11.9-0.2-23.9-0.1-35.8-0.1c-4.3,0-8.6,0.1-12.9,0.4
		c-11.2,0.7-22.5,1.3-33.7,2.5c-9.6,1-19.1,2.1-28.6,3.4c-9,1.3-18,2.8-26.9,4.5c-14.8,2.8-29.5,6.1-44,10
		c-43.2,11.4-84.7,27.2-124.4,47.6c-88.7,45.5-162.6,108.4-221.7,188.6c-41.7,56.5-72.9,118.3-93.8,185.2
		c-5.8,18.7-10.8,37.5-14.8,56.7c-2.2,10.7-4.3,21.4-5.9,32.2c-0.7,4.9-1.5,9.8-2.1,14.8c-0.9,7.1-1.8,14.1-2.5,21.2
		c-0.6,5.8-0.9,11.6-1.4,17.3c-0.9,11.4-1.5,22.8-1.6,34.3c-0.1,8.5,0,16.9,0,25.4c0,3.3,0.1,6.6,0.3,9.9c0.5,8.3,0.6,16.6,1.4,24.8
		c0.5,5.3,0.8,10.6,1.4,15.8c1,9.2,2.1,18.4,3.5,27.6c1.7,11.3,3.7,22.5,5.9,33.8c4.3,21.6,9.8,42.9,16.5,63.9
		c26.1,82,67.2,155.8,123.3,221c51.8,60.2,112.9,108.9,183,146.2c39.9,21.2,81.6,37.8,125.1,50c17.5,4.9,35.3,9,53.2,12.3
		c10.3,1.9,20.5,3.7,30.9,4.9c3.1,0.4,6.2,0.9,9.4,1.2c4.4,0.5,8.9,1.1,13.3,1.5c5.4,0.5,10.9,0.9,16.3,1.3
		c10.9,0.9,21.8,1.5,32.8,1.6c9.1,0.1,18.2,0.1,27.3,0c5,0,9.9-0.4,14.9-0.6c7.3-0.3,14.6-0.6,21.8-1.3c5.1-0.5,10.2-0.8,15.3-1.3
		c6.7-0.7,13.5-1.7,20.2-2.5c9.4-1.1,18.7-2.7,28-4.4c11.7-2.2,23.4-4.7,35-7.5c29.5-7.1,58.3-16.3,86.4-27.7
		c68.2-27.5,129.8-65.8,184.6-114.9c68.9-61.7,121.9-135,158.8-219.9c14-32.2,25.2-65.5,33.5-99.6c2.8-11.4,5.3-22.9,7.5-34.5
		c1.3-6.8,2.3-13.7,3.4-20.6c0.9-5.6,1.6-11.1,2.3-16.7c0.6-4.4,1.1-8.9,1.5-13.3c0.5-5.1,1-10.2,1.3-15.4
		c0.6-8.3,1.2-16.5,1.5-24.8C1622.1,780.4,1622.1,772.2,1622.3,763.9z"/>
	<path class="st1" d="M1622.3,763.9c-0.1,8.3-0.2,16.6-0.5,24.9c-0.3,8.3-1,16.5-1.5,24.8c-0.4,5.1-0.8,10.2-1.3,15.4
		c-0.4,4.4-1,8.9-1.5,13.3c-0.7,5.6-1.5,11.2-2.3,16.7c-1.1,6.9-2.1,13.8-3.4,20.6c-2.2,11.5-4.7,23-7.5,34.5
		c-8.3,34.2-19.5,67.4-33.5,99.6c-36.9,84.8-89.9,158.1-158.8,219.9c-54.8,49.1-116.4,87.4-184.6,114.9
		c-28.1,11.3-56.9,20.6-86.4,27.7c-11.6,2.8-23.2,5.3-35,7.5c-9.3,1.7-18.6,3.3-28,4.4c-6.7,0.8-13.5,1.8-20.2,2.5
		c-5.1,0.6-10.2,0.9-15.3,1.3c-7.3,0.7-14.5,1-21.8,1.3c-5,0.2-9.9,0.5-14.9,0.6c-9.1,0.1-18.2,0.1-27.3,0
		c-10.9-0.2-21.9-0.7-32.8-1.6c-5.4-0.5-10.9-0.8-16.3-1.3c-4.5-0.4-8.9-1-13.3-1.5c-3.1-0.4-6.2-0.8-9.4-1.2
		c-10.4-1.3-20.6-3.1-30.9-4.9c-17.9-3.3-35.6-7.4-53.2-12.3c-43.5-12.2-85.2-28.8-125.1-50c-70.1-37.3-131.2-86-183-146.2
		c-56.2-65.2-97.3-138.9-123.3-221c-6.7-21-12.2-42.3-16.5-63.9c-2.2-11.2-4.2-22.5-5.9-33.8c-1.4-9.2-2.4-18.4-3.5-27.6
		c-0.6-5.3-0.8-10.6-1.4-15.8c-0.8-8.3-0.9-16.5-1.4-24.8c-0.2-3.3-0.3-6.6-0.3-9.9c-0.1-8.5-0.1-16.9,0-25.4
		c0.1-11.4,0.7-22.9,1.6-34.3c0.5-5.8,0.8-11.6,1.4-17.3c0.7-7.1,1.6-14.2,2.5-21.2c0.6-4.9,1.4-9.8,2.1-14.8
		c1.6-10.8,3.7-21.5,5.9-32.2c4-19.1,9-38,14.8-56.7c20.9-67,52.1-128.8,93.8-185.2c59.2-80.2,133.1-143.1,221.7-188.6
		c39.7-20.4,81.2-36.2,124.4-47.6c14.6-3.8,29.2-7.2,44-10c8.9-1.7,17.9-3.2,26.9-4.5c9.5-1.4,19-2.5,28.6-3.4
		c11.2-1.1,22.5-1.8,33.7-2.5c4.3-0.3,8.6-0.3,12.9-0.4c11.9,0,23.9-0.1,35.8,0.1c9.8,0.1,19.5,0.8,29.3,1.6
		c5.3,0.5,10.6,0.8,15.8,1.4c4.3,0.4,8.6,1,12.8,1.5c3.1,0.4,6.2,0.9,9.4,1.3c8.2,1,16.4,2.4,24.5,3.9c11.4,2,22.7,4.4,34,7.1
		c26,6.1,51.4,13.9,76.4,23.3c67.5,25.6,129,61.5,184,108.3c86.9,73.8,149.7,164.4,188,271.8c8.4,23.6,15.2,47.6,20.7,72
		c2.5,11.2,4.7,22.4,6.6,33.6c1.7,10.6,3.2,21.3,4.4,32c1,9.1,1.9,18.1,2.5,27.2C1621.9,733.7,1622.2,748.8,1622.3,763.9z
		 M589.6,470.4l0.1,0.3l0.3,0c0,0.3,0.2,0.5,0.5,0.4c0.2,0.2,0.5,0.4,0.7,0.6l0,0.1l-0.2,0c1.8,1.8,3.6,3.6,5.8,4.9
		c0.1,0.4,0.2,0.7,0.7,0.7l0,0.3c0,0,0.3,0,0.3,0c-0.1,0.4-0.2,0.8-0.3,1.2c-3.5-1.1-7.1-1.6-10.6-2.4c-15-3.2-30.1-6.4-45.1-9.5
		c-12.5-2.6-24.9-5.2-37.4-7.8c-3.4-0.7-6.8-1.4-10.2-2.1c-1.3-0.3-1.9,0-2.5,1c-3.7,6.2-7.5,12.5-11.2,18.7
		c-0.2,0.3-0.3,0.6-0.4,0.9c0,0.3-0.1,0.7,0.1,0.9c0.8,1.1,1.6,2.1,2.4,3.1c19.8,23.3,39.6,46.7,59.5,70c1.7,2,3.5,4,5.1,6.1
		c2.9,3.6,2.7,3,4.9-0.5c1.4-2.3,2.7-4.5,4.1-6.8c1.8-3.1,3.6-6.3,5.5-9.4c-1.7-3.4-4.7-5.9-7-8.9c-0.7-0.9-1.5-1.8-2.1-2.7
		c-0.2-0.2-0.2-0.7-0.1-0.9c0.5-1,1-2.1,1.6-3.1c4.9-8.2,9.8-16.5,14.7-24.7c3.2-5.3,1.8-4.7,8.1-3.6c0.3,0.1,0.6,0.2,1,0.3
		c2.4,0.5,4.9,1,7.3,1.4c1.1,0.2,1.9,0,2.5-1.1c3.2-5.4,6.4-10.8,9.6-16.2c0.2-0.3,0.2-0.6,0.3-0.9c0.6-0.9,1.3-1.9,1.9-2.8
		c0.6-0.2,1-0.6,1.1-1.2c0.5-0.1,0.7-0.3,0.7-0.8l0.3,0l0-0.3c0.4,0,0.6-0.3,0.6-0.7c0.3,0,0.5-0.2,0.4-0.5l0.3-0.1l-0.2-0.1
		c4-3.7,7.3-8.1,10.9-12.2c0.4-0.4,0.3-0.9,0-1.3c-0.7-0.7-1.4-1.4-2.1-2.1c-5.7-5-11.5-10-17.2-15.1c-2.3-2.1-5-3.8-6.9-6.4
		c-0.4-0.6-0.1-0.9,6-7.7c0.3-0.4,0.6-0.8,1-1.1c0.4-0.3,0.9-0.5,1.3-0.5c1,0,2,0.2,3,0.3c7.3,1.4,14.6,2.9,21.9,4.3
		c4.2,0.8,8.4,1.7,12.7,2.5c3.5,0.6,3.1,1,5.5-1.8c4-4.6,8-9.3,12.1-13.8c2.5-2.8,2-3-0.9-3.4c-3.1-0.5-6.2-1.2-9.2-1.8
		c-8.8-1.7-17.5-3.4-26.3-5.2c-1.1-0.2-2.3-0.3-3.2-1.3c0.5-1.2,0.9-2.4,1.4-3.7c1.5-4,1.9-8,1-12.2c-0.6-2.8-1.7-5.4-3.1-7.8
		c-1.5-2.6-3.4-4.9-5.6-6.9c-3.6-3.2-7.1-6.4-10.8-9.5c-3-2.4-6.3-4.2-9.9-5.5c-5.6-2-11.1-1.7-16.4,0.7c-3,1.4-5.8,3.3-8.2,5.5
		c-1.7,1.6-3.3,3.3-4.8,5c-10.2,11.6-20.3,23.2-30.4,34.8c-0.5,0.6-1.1,1.2-1.6,1.9c-0.8,1-0.7,1.5,0.3,2.5c0.4,0.3,0.7,0.7,1.1,1
		c21,18.3,41.9,36.6,62.9,54.9c0.6,0.5,1.3,1,2,1.4C588.9,470.2,589.1,470.4,589.6,470.4z M1379.2,985.2c1,0.1,1.5-0.4,2-1.2
		c2.9-5.4,6-10.7,8.8-16.1c9.3-17.8,17.2-36.2,23.9-55.1c6.2-17.3,11.3-35,15.2-52.9c2.1-9.5,3.9-19.1,5.4-28.8
		c0.9-5.6,1.6-11.1,2.2-16.7c0.5-4.8,0.8-9.6,1.3-14.3c1-9.6,1.2-19.2,1.5-28.8c0.5-15.2-0.2-30.5-1.5-45.7
		c-0.5-6.4-1.2-12.9-2-19.3c-1.1-8.7-2.4-17.4-4-26c-3.2-17.4-7.5-34.6-12.8-51.5c-11.6-37-27.8-71.9-48.4-104.7
		c-14.8-23.5-31.6-45.4-50.5-65.7c-15.6-16.8-32.3-32.3-50.3-46.6c-24.5-19.4-50.7-36.1-78.7-50.1c-27.8-13.8-56.7-24.7-86.8-32.4
		c-16.4-4.2-32.9-7.6-49.6-9.8c-3.1-0.4-6.2-0.9-9.4-1.2c-4.9-0.6-9.9-1.1-14.8-1.6c-2.5-0.2-4.9-0.5-7.4-0.6
		c-2.8-0.2-5.6-0.5-8.4-0.2c-3.5-0.2-6.9-0.4-10.4-0.7c-8.2-0.6-16.5-0.5-24.7,0c-3.5,0.2-6.9,0.4-10.4,0.7c-0.8,0-1.7-0.2-2.5-0.1
		c-3.5,0.2-6.9,0.6-10.4,0.8c-6.6,0.4-13.2,1.2-19.8,2c-8.9,1-17.7,2.5-26.5,4.1c-16.3,2.9-32.4,6.9-48.2,11.7
		c-29.4,8.9-57.6,20.8-84.6,35.5c-34.9,19.1-66.7,42.5-95.5,70.1c-13.5,13-26.1,26.8-38,41.4c-20,24.7-37.2,51.2-51.5,79.5
		c-16,31.6-28.1,64.6-36.2,99.2c-3.9,16.6-6.9,33.4-8.8,50.4c-0.4,3.6-0.7,7.3-1.1,10.9c-0.8,7.1-1.3,14.2-1.5,21.3
		c-0.3,8.6-0.3,17.2-0.3,25.8c0,6.8,0.1,13.6,0.5,20.4c0.6,9.1,1.2,18.2,2.5,27.2c0.9,6.1,1.5,12.2,2.4,18.2
		c1.6,10.1,3.6,20.2,5.9,30.2c8.5,36.3,21.2,71,38.4,104.1c2.5,4.8,5.2,9.6,7.8,14.4c0.3,0.6,0.7,1.1,1,1.7c0.5,1,1.3,0.7,2.1,0.4
		c0,0.4,0,0.7,0,1.1c-0.2,0.8-0.3,1.6,0.1,2.4c0.4,0.7,0.8,1.4,1.2,2.2c20.8,34.9,45.8,66.6,75.1,94.7
		c14.4,13.8,29.6,26.6,45.6,38.4c34,25,70.8,44.7,110.4,59.3c20.9,7.7,42.2,13.8,64,18.1c12.2,2.4,24.4,4.6,36.8,5.9
		c3.5,0.4,6.9,0.7,10.4,1.1c7.1,0.8,14.2,1.2,21.3,1.6c3.6,0.2,7.3,0.2,10.9,0.3c18.4,0.3,36.8,0,55.1-2c9.1-0.9,18.1-2,27.1-3.5
		c12.3-2,24.4-4.5,36.5-7.5c37.8-9.3,73.8-23.4,107.9-42.3c43.6-24.1,82.2-54.6,115.7-91.4c16.4-18.1,31.3-37.3,44.5-57.8
		c3.3-5.1,6.5-10.4,9.7-15.6c0.8-1.3,1.6-2.5,1.5-4.1C1379.3,985.5,1379.2,985.4,1379.2,985.2z M1527.9,834c8.9,0.5,17.9,1,26.8,1.5
		c7,0.4,13.9,0.7,20.9,1.1c0.5,0,1,0,1.5,0.1c0.2,0,0.3,0,0.5,0c1,0,1.5-0.5,1.6-1.5c0.3-6.3,0.7-12.6,1-18.9c0-0.5,0-1,0-1.5
		c0-1.1-0.6-1.7-1.9-1.8c-6.8-0.3-13.6-0.7-20.4-1c-9.6-0.5-19.2-0.9-28.8-1.4c-1.2-0.1-2.3-0.1-3.5-0.3c-0.5,0-1-0.2-1.4-0.3
		c-0.2,0-0.4-0.2-0.4-0.3c0.1-0.3,0.2-0.7,0.5-0.8c1.1-0.7,2.3-1.3,3.5-1.9c15.8-8.1,31.5-16.1,47.3-24.1c1.9-1,3.8-2,5.7-2.9
		c0.8-0.4,1.2-1.1,1.2-2c0.3-6.3,0.7-12.6,1-18.9c0-0.5,0-1,0-1.5c0-1-0.4-1.6-1.4-1.6c-4.8-0.3-9.6-0.6-14.4-0.8
		c-3-0.2-6-0.2-8.9-0.4c-9.6-0.5-19.2-1.1-28.8-1.5c-9.4-0.5-18.9-0.9-28.3-1.3c-1.3-0.1-2.6-0.2-4-0.3c-5.1-0.2-10.3-0.4-15.4-0.6
		c-0.7,0-1.2,0.5-1.3,1.2c-0.3,6.5-0.7,12.9-1,19.4c0,0.5-0.1,1,0,1.5c0.1,0.5,0.3,1,0.8,1.1c0.6,0.1,1.3,0.2,2,0.2
		c10.8,0.6,21.5,1.1,32.3,1.7c7,0.4,13.9,0.7,20.9,1.1c0.1,0,0.2,0.2,0.3,0.3c0.3,0.4,0.2,0.6-0.2,0.8c-1.2,0.6-2.3,1.3-3.5,1.9
		c-16.6,8.5-33.3,17-49.9,25.6c-1.2,0.6-2.4,1.2-3.5,1.8c-0.6,0.3-1,0.9-1,1.6c-0.3,6.5-0.7,12.9-1,19.4c0,0.5,0,1,0,1.5
		c0,0.9,0.6,1.5,1.6,1.5c7,0.4,13.9,0.7,20.9,1.1C1508.7,833.1,1518.3,833.6,1527.9,834z M1348.5,1106.3c-1.9-0.1-3.9,0.3-5.8,0.8
		c-2.9,0.8-5.6,2.1-8,3.8c-2.2,1.5-4.3,3.1-6.2,4.9c-11.9,11-23.8,22.1-35.7,33.1c-0.5,0.4-1,0.9-1.4,1.4c-0.1,0.2-0.2,0.7,0,0.8
		c0.9,1.2,1.9,2.3,2.9,3.4c14,15.1,27.9,30.1,41.9,45.2c7,7.5,14,15,21,22.6c0.8,0.8,1.6,1.7,2.4,2.5c0.8,0.8,1.4,0.9,2.1,0.2
		c5-4.6,10-9.2,14.9-13.9c0.2-0.2,0.5-0.5,0.6-0.8c0.1-0.3,0.2-0.7,0-0.9c-0.6-0.8-1.2-1.6-1.9-2.3c-6.2-6.7-12.4-13.4-18.6-20
		c-1-1.1-2-2.2-3-3.3c-0.3-0.3-0.3-1.1,0-1.4c1.9-1.8,3.8-3.7,5.8-5.5c2.4-2.2,2.3-2.9,6-1.5c0.8,0.3,1.6,0.4,2.4,0.7
		c11.1,3.4,22.1,6.8,33.2,10.3c1,0.3,1.9,0.2,2.7-0.6c5.3-5,10.7-9.9,16-14.9c0.2-0.2,0.5-0.5,0.5-0.8c0-0.3-0.1-0.7-0.3-0.8
		c-0.4-0.3-0.9-0.4-1.4-0.5c-11.8-3.7-23.7-7.3-35.5-11c-0.8-0.2-1.5-0.6-2.3-1c-0.2-0.1-0.4-0.6-0.3-0.8c0.6-1.2,1.2-2.3,1.8-3.5
		c2.8-6,3-12.1,0.5-18.3c-1-2.5-2.3-4.8-3.9-6.9c-3.9-5.1-8.3-9.9-13.1-14.2c-2.2-2-4.7-3.7-7.4-4.9
		C1355.1,1107,1351.9,1106.1,1348.5,1106.3z M1091.5,1326.1c0.1,0.4-0.1-0.2-0.2-0.8c-1.1-5-2.1-10-3.2-15.1c0-0.2,0.2-0.7,0.4-0.8
		c1.8-0.8,9.3-2.5,11.1-2.5c0.4,0,1,0.3,1.3,0.6c1,0.9,1.8,1.9,2.7,2.9c7.4,8.1,14.7,16.2,22.1,24.3c0.8,0.9,1.5,1.7,2.4,2.5
		c0.5,0.5,1.1,0.6,1.8,0.5c5-1.1,10-2.2,15-3.3c2.3-0.5,4.5-1,6.8-1.5c0.9-0.2,1.1-1,0.4-1.8c-0.8-0.9-1.6-1.7-2.3-2.6
		c-7.2-8-14.5-16-21.7-24c-1-1.1-2-2.2-3-3.4c-0.4-0.4-0.3-0.9,0.2-1.2c1.1-0.7,2.3-1.4,3.4-2.1c4.7-3.2,7.8-7.5,9.2-13.1
		c1.1-4.3,1-8.6,0.3-12.8c-0.7-4.4-1.7-8.8-2.8-13.1c-1-4.2-2.7-8.2-5.2-11.7c-2.9-4-6.7-6.9-11.4-8.3c-3.8-1.1-7.8-1.5-11.8-1
		c-2.5,0.3-4.9,0.8-7.3,1.3c-11.5,2.4-23,4.9-34.5,7.4c-4.4,0.9-8.7,1.9-13.1,2.9c-0.7,0.2-1.1,0.8-0.9,1.5
		c2.8,12.8,5.5,25.6,8.3,38.3c2.8,13.1,5.7,26.2,8.5,39.3c1.4,6.6,2.9,13.3,4.3,19.9c0.2,0.9,1,1.4,1.8,1.2c5.3-1.2,10.7-2.3,16-3.5
		c1.5-0.3,2.9-0.6,4.3-1c0.6-0.2,1-0.9,0.8-1.5C1094.1,1338.2,1092.9,1332.7,1091.5,1326.1z M1319.7,351.6c2.5,0.1,5.4-0.6,8.2-1.8
		c1.8-0.8,3.5-1.9,5.1-3.1c2.4-1.8,4.6-3.9,6.3-6.3c2.8-3.7,5.5-7.5,8.1-11.3c2.1-3,3.6-6.3,4.5-9.9c1.4-5.5,1.1-10.8-1.5-15.9
		c-1.3-2.5-3-4.8-4.9-6.8c-2.1-2.2-4.4-4.1-6.8-5.8c-12.9-9.3-25.8-18.5-38.8-27.8c-0.7-0.5-1.4-0.9-2.1-1.3
		c-0.5-0.4-0.9-0.1-1.2,0.3c-0.7,0.9-1.4,1.8-2.1,2.8c-18.4,25.7-36.8,51.4-55.2,77.2c-0.5,0.7-0.9,1.4-1.3,2.1
		c-0.1,0.2,0,0.6,0.2,0.9c0.1,0.3,0.4,0.5,0.7,0.7c5.4,3.9,10.8,7.7,16.2,11.6c0.3,0.2,0.6,0.4,0.9,0.4c0.3,0.1,0.7,0.1,0.9-0.1
		c0.8-0.8,1.5-1.7,2.2-2.7c5.3-7.4,10.6-14.8,15.9-22.2c0.8-1.1,1.6-2.1,2.3-3.2c0.4-0.6,1.1-0.6,1.7-0.2c2.6,1.8,5.1,3.7,7.7,5.5
		c1.1,0.8,1.4,1.7,1.2,3c-0.5,4.9-0.9,9.9-1.4,14.8c-0.8,7.9-1.6,15.8-2.4,23.7c-0.1,1.1,0.2,1.9,1.1,2.5
		c5.9,4.2,11.9,8.5,17.8,12.7c0.3,0.2,0.6,0.4,0.9,0.4c0.2,0,0.7-0.2,0.7-0.4c0.7-6.4,1.4-12.8,2.1-19.3c0.5-4.8,0.9-9.6,1.3-14.3
		c0.2-2.3,0.5-4.6,0.8-6.9c0.1-0.8,0.5-1.2,1.2-1c0.8,0.2,1.6,0.4,2.4,0.7C1314.6,351.5,1316.9,351.6,1319.7,351.6z M506,1006
		c2.5,0,4.9-0.2,7.4-0.9c7.2-2,14-5,20.5-8.7c2.3-1.3,4.4-3,6.2-4.9c4.8-5,6.7-10.9,6.2-17.7c-0.4-4.5-1.7-8.8-3.4-12.9
		c-6.3-14.8-12.6-29.5-18.9-44.3c-0.3-0.6-0.6-1.2-0.9-1.8c-0.2-0.3-0.9-0.6-1.3-0.4c-1.1,0.4-2.1,0.9-3.2,1.3
		c-24.2,10.3-48.3,20.7-72.5,31.1c-5.8,2.5-11.7,4.6-17.2,7.6c-0.5,0.3,0,1.6,7.1,17.8c0.3,0.6,0.5,1.2,0.8,1.8
		c0.1,0.3,0.3,0.6,0.5,0.9c0.3,0.4,0.6,0.8,1.2,0.6c0.9-0.3,1.9-0.7,2.8-1.1c7-3,14-6,21-9c2.9-1.2,5.6-2.8,8.7-3.4
		c0.6-0.1,1.3,1.2,4.4,8.7c0.2,0.5,0.3,0.9,0.6,1.4c0.3,0.7,0.1,1.3-0.3,1.8c-0.9,1.2-1.8,2.4-2.6,3.6c-6.2,8.4-12.5,16.7-18.8,25.1
		c-0.8,1.1-1.6,2.1-2.4,3.2c-0.7,0.9-0.7,1.8-0.2,2.8c2.2,5,4.3,10,6.5,15c0.8,1.8,1.6,3.6,2.4,5.4c0.2,0.4,0.9,0.5,1.2,0.1
		c0.9-1.2,1.9-2.3,2.8-3.5c6.7-8.9,13.3-17.8,20-26.6c0.7-0.9,1.4-1.8,2.2-2.7c0.2-0.3,0.5-0.2,0.8,0.1c0.9,0.9,1.8,1.9,2.7,2.9
		C494.4,1003.8,499.7,1006.1,506,1006z M659.1,403.3c3.8,0.2,7.2-0.9,10.6-2.5c3.2-1.5,6.1-3.4,8.8-5.6c5.7-4.6,11.4-9.1,17-13.7
		c1.7-1.4,3.3-2.8,4.8-4.3c2-2,3.7-4.3,5.1-6.7c2.1-3.7,3-7.7,2.8-11.9c-0.1-3.6-1.1-6.8-2.7-10c-1.5-3.1-3.5-6-5.7-8.7
		c-6-7.5-12-15-18-22.5c-0.4-0.5-0.9-1-1.3-1.5c-0.3-0.3-1-0.4-1.4-0.1c-0.5,0.4-1.1,0.8-1.6,1.2c-9.4,7.6-18.9,15.1-28.3,22.7
		c-0.5,0.4-1,0.8-1.5,1.3c-0.6,0.5-0.6,1.1-0.1,1.7c1.3,1.5,2.7,2.9,4,4.4c2.7,2.9,5.4,5.8,8.1,8.7c0.7,0.8,1.2,0.8,2.1,0
		c1-0.8,2.1-1.6,3.1-2.5c2.7-2.2,5.4-4.4,8.2-6.5c0.8-0.6,1.5-0.6,2.1,0.2c2.3,2.8,4.6,5.7,6.8,8.5c1,1.3,1.8,2.8,2.3,4.4
		c0.6,1.8,0.2,3.3-1,4.6c-0.7,0.9-1.7,1.6-2.6,2.3c-4.4,3.5-8.8,7-13.2,10.6c-0.8,0.6-1.6,1.2-2.3,1.9c-1.7,1.4-4.4,1.5-6.5,0.1
		c-1.5-1.1-2.7-2.4-3.9-3.8c-2.4-3-4.8-5.9-7.1-8.9c-6.3-7.9-12.7-15.8-18.9-23.7c-1.1-1.4-2.1-2.9-3.1-4.5
		c-0.7-1.1-0.9-2.5-0.8-3.8c0.1-1,0.4-1.9,1.2-2.7c0.4-0.3,0.7-0.7,1.1-1c5.6-4.5,11.1-8.9,16.7-13.4c2.6-2.1,5.4-1.4,7.3,0.1
		c0.8,0.6,1.5,1.3,2.2,2c0.8,0.8,1.5,1.8,2.2,2.7c0.6,0.7,1.3,0.7,2.1,0c0.1-0.1,0.2-0.2,0.4-0.4c4.7-4.2,9.3-8.5,14-12.7
		c0.2-0.2,0.5-0.5,0.7-0.7c0.7-0.7,0.8-1.5,0.2-2.2c-1.9-2.1-3.7-4.2-5.7-6.2c-1.4-1.4-3.1-2.5-4.7-3.6c-6.1-3.8-12.7-4.5-19.5-2.1
		c-4.3,1.5-8,3.9-11.6,6.7c-5.8,4.6-11.7,9.3-17.4,14c-1.8,1.5-3.5,3.1-5.1,4.7c-2.1,2.1-3.8,4.6-5.2,7.3c-2.4,5-3,10.1-1.5,15.5
		c0.7,2.4,1.6,4.7,2.8,6.9c1.3,2.5,3,4.8,4.7,7c9.1,11.4,18.2,22.8,27.4,34.1c1.3,1.7,2.8,3.3,4.3,4.8c2,2,4.2,3.7,6.7,5.1
		C651.6,402.4,655.2,403.5,659.1,403.3z M398.7,790.2C398.7,790.2,398.7,790.2,398.7,790.2c0.3,5.3,0.6,10.6,1,15.9
		c0.3,4,1.2,7.8,2.9,11.5c2.7,6.1,7.2,10.2,13.6,12.2c4.5,1.4,9.1,1.9,13.7,1.6c2.3-0.1,4.6-0.4,6.9-0.6c3-0.2,5.9-1,8.7-2
		c8.3-3.1,13.2-9.1,14.9-17.7c0.8-3.9,0.9-7.9,0.7-11.9c-0.4-6.4-0.8-12.9-1.1-19.3c-0.1-1-0.1-2,0-3c0.2-1.6,1-2.8,2.4-3.5
		c0.9-0.5,1.8-0.9,2.8-1.1c3.4-0.5,6.9-0.8,10.4-0.3c2.7,0.4,4.5,2.3,4.7,5c0.4,5.9,0.7,11.9,1,17.9c0.1,1.5,0.1,3,0.2,4.5
		c0.1,2.5-1.2,4.1-3.4,5c-0.8,0.3-1.6,0.5-2.4,0.7c-1.5,0.2-3,0.4-4.4,0.5c-1.4,0.2-1.8,0.7-1.6,1.9c0.3,2.1,0.5,4.3,0.8,6.4
		c0.6,4.6,1.2,9.2,1.8,13.8c0.1,0.8,0.6,1.2,1.3,1.2c5,0.1,9.9-1,14.5-2.9c6.7-2.8,10.9-7.9,12.9-14.8c0.8-2.7,1.3-5.5,1.2-8.3
		c-0.1-3.6-0.2-7.3-0.3-10.9c-0.2-4.5-0.5-8.9-0.8-13.4c-0.2-3-0.5-5.9-0.9-8.9c-0.5-3.1-1.5-6.1-3-8.9c-2.6-4.9-6.4-8.4-11.6-10.4
		c-3.1-1.2-6.3-2-9.7-2c-3.3,0-6.6-0.1-9.9,0.2c-4.1,0.3-8.2,1.1-12.1,2.7c-7.1,2.9-11.5,8.1-13.5,15.5c-0.9,3.4-1.2,6.9-1.1,10.3
		c0.2,4.8,0.5,9.6,0.7,14.4c0.2,3.5,0.4,6.9,0.5,10.4c0.1,2.4-1.2,4.1-3.4,5c-0.3,0.1-0.6,0.2-0.9,0.3c-3.6,1.1-7.2,1-10.8,0.7
		c-0.5,0-1-0.2-1.4-0.4c-2-0.7-3.4-2.1-3.6-4.3c-0.2-2-0.4-4-0.5-5.9c-0.3-4.8-0.6-9.6-0.8-14.4c0-0.8-0.1-1.7-0.1-2.5
		c0-2.3,1.4-4.2,3.5-5c1.6-0.6,3.1-1,4.8-1.1c1,0,2-0.1,3-0.3c0.2,0,0.6-0.5,0.6-0.7c0-1.2,0-2.3-0.2-3.5
		c-0.7-5.9-1.4-11.8-2.1-17.7c-0.1-0.6-0.8-1.2-1.4-1.2c-2.5,0.2-5,0.3-7.4,0.7c-2.6,0.5-5.1,1.2-7.6,2.4
		c-6.3,2.9-10.3,7.6-12.3,14.1c-1.2,4-1.5,8.1-1.4,12.3C398.3,783.6,398.5,786.9,398.7,790.2z M832.4,201.1c-0.7,0-0.9,0-1.1,0
		c-3.7,0-7.2,0.7-10.7,1.8c-7.7,2.5-15.5,4.9-23.1,7.4c-2.3,0.8-4.6,1.9-6.8,3c-2.5,1.3-4.8,2.9-6.8,5c-2.7,2.8-4.6,6-5.6,9.8
		c-1.1,3.9-1,7.9-0.3,11.8c0.9,5.1,2.4,10,4.5,14.7c1.3,3.1,3,5.9,5.2,8.4c2.8,3.2,6.1,5.6,10.2,6.8c3.9,1.2,7.8,1.4,11.8,0.7
		c2.9-0.5,5.8-1.2,8.7-2.1c6-2,12-3.8,18-5.7c0.9-0.3,1.9-0.6,2.9-0.8c2.4-0.5,4.2,0.3,5.6,2.3c1.8,2.6,3.7,8.6,3.7,11.7
		c0,0.5-0.1,1-0.1,1.5c-0.2,1.6-1.1,2.8-2.5,3.5c-0.9,0.4-1.8,0.8-2.8,1.1c-5.7,1.8-11.3,3.7-17,5.5c-0.9,0.3-1.9,0.5-2.9,0.8
		c-2,0.6-3.6-0.1-4.9-1.6c-0.7-0.7-1.2-1.6-1.7-2.5c-0.5-1-0.8-2.2-1.3-3.2c-0.2-0.6-0.5-1.2-0.7-1.8c-0.2-0.5-0.8-0.8-1.2-0.6
		c-6.6,2.6-13.3,5.1-19.9,7.7c-0.1,0.1-0.3,0.2-0.4,0.3c-0.2,0.3-0.5,0.6-0.4,0.9c1.8,5.9,4.2,11.5,8.6,16c0.2,0.2,0.5,0.5,0.7,0.7
		c3.8,3.5,8.3,5.4,13.4,5.7c4.5,0.2,8.9-0.3,13.2-1.7c7.7-2.5,15.5-4.9,23.1-7.4c2.3-0.8,4.6-1.9,6.8-2.9c2.5-1.2,4.8-2.9,6.8-4.9
		c4.1-4,6.2-8.9,6.5-14.6c0.2-3.2-0.1-6.3-0.8-9.4c-1-4.4-2.4-8.6-4.1-12.7c-1.2-2.8-2.7-5.3-4.6-7.6c-3.2-4-7.3-6.6-12.4-7.8
		c-3.6-0.8-7.2-0.8-10.9-0.2c-2.8,0.5-5.5,1.2-8.2,2.1c-4.2,1.4-8.5,2.8-12.7,4.1c-2.4,0.8-4.7,1.6-7.1,2.2c-3,0.8-5.1-0.2-6.7-2.8
		c-0.1-0.1-0.2-0.3-0.2-0.4c-1.4-2.7-2.3-5.5-2.9-8.4c-0.3-1.3-0.1-2.6-0.1-4c0.1-1.2,0.8-2.2,1.8-2.9c0.7-0.5,1.4-0.8,2.2-1.1
		c1.7-0.6,3.5-1.1,5.2-1.6c5.2-1.7,10.4-3.3,15.6-5c2.2-0.7,3.9,0.2,5.3,1.7c1.3,1.3,1.9,3.1,2.5,4.8c0.4,0.9,0.7,1.9,1.1,2.7
		c0.1,0.2,0.5,0.4,0.8,0.4c0.3,0,0.7-0.1,1-0.2c6.3-2.5,12.6-4.9,18.9-7.4c0.1-0.1,0.3-0.2,0.4-0.3c0.4-0.3,0.7-0.7,0.6-1.3
		c-1.1-3.5-2.4-6.9-4.2-10c-1.1-1.9-2.4-3.6-3.8-5.2c-2.9-3.1-6.4-5.2-10.5-6.3C836.2,201.1,834,201.1,832.4,201.1z M970.4,209.5
		c3.6-0.5,7-1,10.5-1.5c0.9-0.1,1.5-0.8,1.4-1.7c-0.3-4.7-1.2-9.2-3-13.5c-0.3-0.8-0.7-1.5-1.1-2.2c-2.8-5-6.8-8.5-12.2-10.3
		c-5-1.7-10-2-15.2-1.6c-3.6,0.3-7.3,0.6-10.9,0.9c-4,0.3-7.9,0.6-11.9,1c-2.1,0.2-4.3,0.5-6.4,1c-2.7,0.7-5.4,1.6-7.9,2.9
		c-4.4,2.4-7.7,5.8-9.7,10.3c-1.2,2.7-2,5.6-2.2,8.6c-0.5,6.1-0.1,12.3,1.1,18.3c0.6,2.8,1.5,5.4,2.8,7.9c2.7,5.1,6.6,8.6,12,10.6
		c2.8,1,5.7,1.8,8.7,1.8c3.1,0,6.3,0,9.4-0.2c5.6-0.4,11.2-1,16.8-1.5c1.2-0.1,2.3-0.2,3.5-0.2c2,0,3.5,1,4.4,2.7
		c0.3,0.6,0.6,1.2,0.8,1.8c1,3.4,1.3,6.9,0.9,10.3c-0.4,3.9-2.3,5.1-5.2,5.7c-0.5,0.1-1,0.1-1.5,0.1c-6.4,0.5-12.9,0.9-19.3,1.5
		c-3.6,0.3-5.9-0.8-6.9-4.8c-0.3-1.3-0.5-2.6-0.7-3.9c-0.1-0.7-0.1-1.3-0.2-2c0-0.3-0.7-0.8-1.1-0.8c-0.7,0-1.3,0-2,0.1
		c-5.7,0.8-11.5,1.6-17.2,2.5c-0.7,0.1-1.3,0.3-1.9,0.5c-0.5,0.1-0.9,0.6-0.9,1c0.1,1.7,0.2,3.3,0.4,4.9c0.6,3.8,1.6,7.4,3.4,10.8
		c2.7,5.2,6.9,8.8,12.5,10.7c2.3,0.8,4.8,1.3,7.3,1.5c4.1,0.2,8.3,0,12.4-0.3c6.6-0.5,13.2-1.2,19.8-1.8c3.8-0.3,7.5-1.3,11-2.9
		c6.2-2.8,10.4-7.4,12.4-14c1.3-4.3,1.7-8.8,1.4-13.3c-0.2-2.3-0.4-4.6-0.7-6.9c-0.6-4.3-1.7-8.4-3.8-12.3c-2.8-5-6.8-8.5-12.2-10.3
		c-4.1-1.4-8.4-2-12.7-1.7c-5,0.3-9.9,0.8-14.9,1.2c-3.5,0.3-6.9,0.5-10.4,0.7c-2,0.1-3.5-0.9-4.4-2.7c-0.5-0.9-0.9-1.8-1-2.8
		c-0.3-2.5-0.6-4.9-0.7-7.4c0-1.3,0.2-2.7,0.6-3.9c0.6-1.9,1.9-3.1,3.9-3.4c0.3,0,0.7-0.1,1-0.1c6.4-0.6,12.9-1.2,19.3-1.7
		c1-0.1,2-0.1,3-0.1c2,0,3.5,1,4.4,2.7c0.6,1.2,1.1,2.4,1.2,3.8c0.1,1.3,0.3,2.6,0.5,3.9c0.1,1,0.8,1.4,1.7,1.3
		C964.1,210.5,967.3,210,970.4,209.5z M829.3,1241.7c0.2-7-2.5-12.8-7.7-17.5c-2-1.8-4.2-3.3-6.5-4.5c-2.1-1-4.2-2.1-6.3-2.9
		c-6.7-2.8-13.5-5.6-20.2-8.3c-4.3-1.7-8.8-2.8-13.5-2.8c-6.1,0-11.3,2.3-15.6,6.5c-2.4,2.3-4.2,5.1-5.8,8c-1.6,3.1-2.9,6.3-4.1,9.6
		c-1.1,3-1.8,6-2.2,9.1c-1,8,1.5,14.7,7.5,20.1c1.8,1.7,3.9,3.1,6.1,4.3c2.2,1.1,4.5,2.2,6.7,3.2c5.6,2.4,11.3,4.7,17,7
		c1.1,0.4,2.1,0.9,3.1,1.5c1.2,0.7,2,1.8,2.1,3.2c0.1,1,0.1,2-0.1,3c-0.7,3.5-2.1,6.6-3.9,9.6c-0.2,0.3-0.4,0.5-0.6,0.8
		c-1.5,1.8-3.4,2.5-5.8,1.9c-0.9-0.3-1.9-0.7-2.8-1c-5.4-2.2-10.7-4.4-16-6.6c-0.8-0.3-1.5-0.6-2.3-1c-2.2-1-3.2-2.8-3-5.2
		c0.1-1.5,0.4-3,1-4.3c1.9-4.9,1.8-4-2.7-5.6c-5.4-2-11-3.7-16.4-5.6c-1-0.3-1.7-0.1-2,0.8c-0.6,1.5-1.2,3.1-1.7,4.6
		c-1.5,4.5-2.1,9-1.6,13.7c0.1,1.1,0.4,2.3,0.7,3.4c1.2,4.3,3.7,7.7,7,10.6c2.4,2.1,5,3.8,7.9,5.1c9.1,4.1,18.2,7.9,27.5,11.3
		c3.9,1.5,8,2,12.2,1.8c5.4-0.2,9.9-2.3,13.8-5.9c2.7-2.5,4.8-5.5,6.5-8.8c1.9-3.7,3.5-7.5,4.8-11.4c1.2-3.6,1.7-7.4,1.6-11.3
		c-0.2-5.7-2.4-10.6-6.4-14.7c-2.2-2.3-4.8-4.1-7.6-5.6c-2.2-1.2-4.5-2.2-6.7-3.1c-5.6-2.4-11.3-4.7-17-7c-0.9-0.4-1.9-0.7-2.7-1.2
		c-0.9-0.5-1.5-1.2-1.9-2.2c-0.5-1.1-0.7-2.2-0.4-3.4c0.8-3.6,2.1-7,4-10.1c0.3-0.6,0.8-1.1,1.3-1.5c1.4-1.5,3.1-1.9,5-1.5
		c0.6,0.1,1.2,0.5,1.8,0.7c6,2.4,11.9,4.9,17.9,7.3c0.9,0.4,1.8,0.8,2.6,1.3c1.1,0.8,1.9,1.9,2,3.3c0.1,1.7,0,3.3-0.6,4.9
		c-0.4,1.1-0.8,2.2-1.3,3.2c-0.5,1.3,0,1.8,1.2,2.2c6.4,2.2,12.8,4.4,19.2,6.6c0.6,0.2,1.4-0.1,1.7-0.7
		C827.8,1251.9,829.3,1247,829.3,1241.7z M1569.3,881.1c0-1.2,0.1-2.3,0-3.5c-0.4-6.3-3-11.4-7.8-15.5c-2.3-1.9-4.9-3.3-7.7-4.5
		c-2.7-1.2-5.6-2-8.5-2.7c-14-3.3-28-6.6-42-9.8c-3.4-0.8-6.8-1.4-10.3-1.3c-9.4,0.2-16.5,4.4-20.9,12.7c-0.9,1.6-1.6,3.3-2.2,5
		c-0.7,2-1.3,4.1-1.8,6.2c-1.7,6.9-3.3,13.8-4.9,20.8c-0.9,3.9-1.5,7.8-1.2,11.8c0.6,8.2,4.2,14.5,11.2,18.8
		c2.1,1.3,4.4,2.3,6.7,3.1c2.2,0.7,4.4,1.4,6.7,1.9c12.6,3,25.1,5.9,37.7,8.8c3.1,0.7,6.2,1.3,9.3,1.8c4.2,0.7,8.3,0.4,12.3-0.8
		c5.5-1.6,9.6-5.1,12.6-9.9c2.3-3.7,3.7-7.7,4.8-11.9c1.7-6.9,3.3-13.8,4.9-20.8C1568.8,888,1569.5,884.6,1569.3,881.1z
		 M1226.2,1204.8c-0.1,2.9,0.6,5.6,1.5,8.3c1.1,3.5,2.8,6.7,4.8,9.8c7.9,12.4,15.9,24.8,23.8,37.2c2.1,3.2,4.4,6.2,7.3,8.7
		c2.4,2.1,5,3.8,8,4.9c3,1,6.1,1.7,9.3,1.2c3.1-0.4,6.2-1,9.1-2.5c2.2-1.1,4.5-2.2,6.6-3.5c6.3-3.9,12.6-8,18.8-12.1
		c2.2-1.4,4.3-3.1,6.3-4.8c2.3-1.9,4.2-4.2,5.7-6.8c2.5-4.3,3.6-8.9,2.9-13.8c-0.4-2.8-1.1-5.5-2.3-8.1c-1.1-2.6-2.5-5-4-7.4
		c-7.8-12.1-15.5-24.3-23.3-36.4c-1.5-2.4-3.3-4.6-5.1-6.7c-1.8-2.2-4-4-6.4-5.4c-3.9-2.4-8.2-3.6-12.8-3.2
		c-3.1,0.3-6.2,0.9-9.1,2.3c-2.2,1.1-4.5,2.1-6.6,3.4c-6.7,4.2-13.4,8.5-20.1,12.8c-2.6,1.7-5.1,3.7-7.3,6c-1.8,1.9-3.4,4-4.6,6.4
		C1227.1,1198.3,1226.3,1201.5,1226.2,1204.8z M964.7,1302.3C964.7,1302.3,964.7,1302.3,964.7,1302.3c0.3,8.1,0.6,16.2,0.8,24.3
		c0,0.5,0,1,0.1,1.5c0.4,4.1,1.1,8.2,2.8,12c2.6,5.9,6.9,10,13,12.2c2.3,0.8,4.7,1.5,7.2,1.6c2.1,0.1,4.3,0.3,6.4,0.3
		c7.1-0.1,14.2-0.3,21.3-0.6c4.3-0.1,8.6-0.6,12.7-1.9c7.6-2.4,12.9-7.2,15.5-14.8c0.8-2.5,1.5-5.1,1.5-7.8c0.1-2.6,0.1-5.3,0.1-7.9
		c-0.4-13.6-0.8-27.1-1.3-40.7c-0.1-2.8-0.4-5.6-0.8-8.4c-0.5-3.1-1.5-6.1-3-8.9c-2.2-4.2-5.5-7.4-9.8-9.5c-2.5-1.2-5.2-2-8-2.4
		c-3.8-0.5-7.6-0.7-11.4-0.4c-4,0.3-7.9,0.3-11.9,0.4c-2.6,0.1-5.3,0.1-7.9,0.2c-3.8,0.2-7.6,0.7-11.2,1.9
		c-8,2.6-13.2,7.9-15.4,16.1c-1.1,3.9-1.3,7.8-1.2,11.8C964.3,1288.4,964.5,1295.3,964.7,1302.3z M1051.3,200.8
		C1051.3,200.9,1051.3,200.9,1051.3,200.8c4,0.4,7.9,0.8,11.9,1.2c4,0.4,7.9,0.7,11.9,1c0.4,0,1-0.5,1.1-0.8c0.1-0.5,0.3-1,0.3-1.4
		c0.5-5.4,1-10.9,1.4-16.3c0-0.3,0.1-0.7-0.1-1c-0.2-0.4-0.6-0.8-1-0.9c-0.4-0.2-1-0.1-1.5-0.2c-4.9-0.4-9.9-0.8-14.8-1.3
		c-6.9-0.6-13.9-1.2-20.8-1.9c-5.1-0.5-10.2-1-15.3-1.5c-5.4-0.5-10.9-0.9-16.3-1.4c-2.9-0.2-3.1,0.1-3.4,2.8
		c-0.2,1.5-0.2,3-0.4,4.5c-0.5,5.3-0.9,10.6-1.4,15.8c-0.5,5.4-1,10.9-1.5,16.3c-0.5,5.3-0.9,10.6-1.3,15.8
		c-0.6,6.6-1.2,13.2-1.8,19.8c-0.5,5.3-1,10.5-1.5,15.8c-0.3,3.3-0.5,6.6-0.8,9.9c0,0.4,0.8,1.3,1.2,1.4c0.7,0.1,1.3,0.2,2,0.2
		c2.1,0.2,4.3,0.3,6.4,0.5c5.9,0.5,11.9,1.1,17.8,1.6c4.9,0.4,9.9,0.9,14.8,1.3c3.8,0.3,7.6,0.7,11.4,1c5.3,0.5,10.5,1,15.8,1.5
		c3.4,0.3,3.4,0.2,3.6-2.9c0.4-5.1,1-10.2,1.5-15.3c0-0.3,0.1-0.7,0-1c-0.2-0.4-0.5-0.9-0.9-1c-1-0.3-2-0.3-2.9-0.4
		c-2.3-0.2-4.6-0.3-6.9-0.6c-5.4-0.5-10.9-1-16.3-1.5c-5.3-0.5-10.6-0.9-15.8-1.4c-1.8-0.2-3.6-0.4-5.4-0.7c-0.4-0.1-0.9-0.6-0.9-1
		c0-0.2,0-0.3,0-0.5c0.5-5.6,1-11.2,1.5-16.8c0-0.2,0.1-0.3,0.1-0.5c0.2-0.9,0.8-1.4,1.8-1.3c6.4,0.5,12.9,1,19.3,1.6
		c5.3,0.5,10.5,1,15.8,1.5c1.2,0.1,2.3,0.1,3.5,0.2c0.3,0,0.7,0.1,1,0c0.5-0.1,0.9-0.3,1-0.9c1-6.1,1.2-12.2,1.7-18.3
		c0-0.4-0.3-0.9-0.9-1c-1-0.2-2-0.4-2.9-0.5c-4.8-0.4-9.6-0.9-14.3-1.3c-5.3-0.5-10.6-0.9-15.8-1.3c-2.1-0.2-4.3-0.5-6.4-0.7
		c-1.2-0.1-1.6-0.6-1.5-2c0.4-5.4,0.9-10.9,1.3-16.3c0.1-1.5,0.7-2.1,2.2-1.9C1036.1,199.5,1043.7,200.2,1051.3,200.8z M462.3,912.7
		c3.3-0.8,6.5-1.5,9.7-2.3c2.1-0.5,4.2-1,6.3-1.5c0.6-0.1,1-0.9,0.9-1.6c-0.1-0.5-0.1-1-0.2-1.5c-1.8-7.6-3.6-15.1-5.4-22.7
		c-1.1-4.8-2.2-9.7-3.4-14.5c-0.2-0.9,0.3-1.7,1.2-1.9c5.2-1.2,10.3-2.3,15.5-3.6c2.9-0.7,2.9-0.7,3.6,2.2c0.2,0.6,0.4,1.3,0.5,1.9
		c3.1,13.2,6.1,26.4,9.2,39.6c0.3,1.1,0.6,2.2,1,3.3c0.1,0.2,0.5,0.4,0.8,0.4c0.5,0,1-0.1,1.5-0.2c5.2-1.2,10.3-2.4,15.5-3.5
		c0.3-0.1,0.6-0.2,0.9-0.3c0.7-0.2,1.1-0.8,1-1.5c-0.1-0.5-0.2-1-0.3-1.5c-2.9-12.4-5.8-24.8-8.7-37.2c-2.3-10-4.7-20-7-30
		c-0.2-0.9-0.9-1.4-1.8-1.2c-2.7,0.6-5.5,1.2-8.2,1.9c-16.3,3.8-32.5,7.6-48.8,11.5c-13.2,3.1-26.4,6.1-39.6,9.2
		c-0.3,0.1-0.6,0.2-0.9,0.4c-0.3,0.1-0.8,0.9-0.8,1.2c0.1,0.3,0.1,0.7,0.2,1c5.2,22.4,10.5,44.8,15.7,67.2c0.1,0.3,0.2,0.6,0.3,0.9
		c0.2,0.5,1,1,1.6,0.9c0.2,0,0.3,0,0.5-0.1c5.5-1.3,10.9-2.6,16.4-3.9c0.3-0.1,0.6-0.2,0.9-0.3c0.4-0.1,0.7-0.7,0.6-1.2
		c-0.3-1.5-0.6-2.9-1-4.4c-3.1-13.2-6.2-26.4-9.3-39.6c-0.2-0.8-0.3-1.6-0.4-2.5c-0.1-0.6,0.3-0.9,0.8-1.1c0.4-0.2,0.9-0.4,1.4-0.5
		c4.8-1.1,9.7-2.3,14.5-3.4c0.6-0.1,1.3-0.3,2-0.2c0.4,0,0.9,0.4,1.2,0.7c0.2,0.2,0.2,0.6,0.3,0.9c2.6,11.3,5.3,22.6,7.9,33.8
		c0.4,1.6,0.8,3.2,1.3,4.8c0.1,0.2,0.5,0.4,0.8,0.4C461,913,461.7,912.8,462.3,912.7z M715.7,1265c-0.1-0.1-0.1-0.3-0.2-0.4
		c-1.1-0.8-2.1-1.6-3.2-2.3c-11.1-6.9-22.2-13.8-33.3-20.8c-1.1-0.7-2.2-1.4-3.4-2.1c-1.9-1.2-1.5-1.5-0.8-2.7
		c2.8-4.5,5.6-9,8.4-13.5c0.3-0.4,0.6-0.8,0.8-1.2c0.4-0.5,1.1-0.7,1.8-0.3c1.1,0.7,2.3,1.4,3.4,2.1c8.7,5.4,17.4,10.9,26.1,16.3
		c1.1,0.7,2.2,1.4,3.4,2.1c0.4,0.3,0.9,0.5,1.3,0.7c0.6,0.3,1-0.1,1.2-0.4c0.9-1.2,1.7-2.5,2.5-3.7c2.4-3.8,4.7-7.6,7.1-11.4
		c0.7-1.1,0.5-1.5-0.4-2.1c-1.4-0.9-2.8-1.8-4.2-2.7c-9.1-5.7-18.3-11.4-27.4-17.1c-0.8-0.5-1.6-1.1-2.4-1.7c-0.3-0.2-0.5-1-0.2-1.3
		c3.2-5.1,6.3-10.1,9.5-15.2c0.5-0.8,1.2-1,2.1-0.4c4.4,2.7,8.7,5.4,13.1,8.1c7.9,4.9,15.7,9.8,23.6,14.7c1,0.6,2,1.2,2.9,1.8
		c0.8,0.5,1.6,0.3,2.1-0.4c3.1-5.1,6.3-10.1,9.4-15.2c0.1-0.1,0.2-0.3,0.2-0.5c0-0.3,0-0.7-0.2-0.8c-0.8-0.6-1.6-1.2-2.4-1.7
		c-18.7-11.7-37.3-23.3-56-35c-0.7-0.4-1.4-0.8-2.1-1.2c-0.4-0.2-1.1-0.1-1.3,0.2c-0.6,0.8-1.2,1.6-1.7,2.4
		c-16.9,27.1-33.8,54.2-50.7,81.3c-0.3,0.6-0.7,1.1-1,1.7c-0.2,0.4,0,1,0.4,1.3c0.7,0.5,1.3,1,2,1.4c18.7,11.7,37.4,23.3,56,34.9
		c0.7,0.4,1.4,0.9,2.1,1.3c0.6,0.4,1.3,0.2,1.7-0.4c0.1-0.1,0.2-0.3,0.3-0.4c3.1-4.9,6.1-9.8,9.2-14.7
		C715.5,1265.7,715.6,1265.3,715.7,1265z M786.4,311c0.1-3.9-0.9-7.6-2.3-11.1c-1-2.6-2.3-5.1-3.7-7.6c-10.3-19.2-20.7-38.5-31-57.7
		c-0.4-0.7-0.8-1.4-1.2-2.2c-0.2-0.4-0.5-0.9-0.7-1.3c-0.5-0.9-1.2-1.1-2-0.7c-5.2,2.8-10.5,5.7-15.7,8.5c-0.7,0.4-1.5,0.8-2.2,1.2
		c-1,0.6-1.2,1.3-0.6,2.5c0.5,1,1.1,2,1.7,3c10.3,19.1,20.5,38.2,30.8,57.3c0.9,1.7,1.7,3.6,2.6,5.4c0.5,1.1,0.6,2.2,0.6,3.4
		c0,1.4-0.6,2.6-1.6,3.5c-0.8,0.6-1.6,1.1-2.5,1.6c-5.5,3-11.1,6-16.6,8.9c-0.9,0.5-1.8,0.8-2.7,1.2c-1.5,0.6-3,0.2-4.2-0.7
		c-1-0.8-1.9-1.8-2.7-2.9c-0.9-1.4-1.7-2.8-2.5-4.3c-9.7-17.9-19.3-35.8-28.9-53.8c-1-1.9-2-3.8-3.1-5.7c-0.2-0.4-0.5-0.9-0.8-1.3
		c-0.6-1-1-1.1-2-0.6c-5.3,2.8-10.5,5.6-15.8,8.4c-0.9,0.5-1.7,1-2.6,1.5c-0.6,0.4-0.8,1.1-0.4,1.7c2.5,4.7,5,9.3,7.5,14
		c8.6,16,17.3,32,25.9,48.1c1.6,2.9,3.2,5.8,5.3,8.4c1.8,2.2,3.8,4.2,6.1,5.8c5.2,3.6,10.8,4.7,17,3.5c4.1-0.8,7.9-2.2,11.6-4.2
		c6.7-3.6,13.4-7.2,20.1-10.8c2.5-1.3,4.8-2.9,7-4.6c2.3-1.9,4.4-4,6-6.6C785.2,319.2,786.4,315.3,786.4,311z M1219.3,332.7
		c5.9,0.2,10.9-1.9,15.3-5.9c2-1.8,3.7-3.8,5.1-6.1c1.3-2.1,2.5-4.3,3.6-6.5c9.9-20.9,19.7-41.9,29.6-62.9c0.4-0.7,0.7-1.5,0.9-2.3
		c0.1-0.2-0.1-0.7-0.2-0.9c-0.3-0.3-0.8-0.6-1.2-0.8c-5.8-2.8-11.7-5.5-17.5-8.2c-0.3-0.1-0.6-0.2-0.9-0.3c-0.4-0.1-1.1,0.1-1.3,0.5
		c-0.4,0.7-0.8,1.5-1.1,2.2c-6.8,14.4-13.5,28.7-20.3,43.1c-3,6.4-6,12.9-9.1,19.3c-0.8,1.7-1.6,3.3-2.8,4.6
		c-1.6,1.8-3.8,2.9-6.7,1.4c-0.3-0.1-0.6-0.3-0.9-0.4c-5.8-2.7-11.7-5.5-17.5-8.2c-0.7-0.4-1.5-0.7-2.2-1.2c-1-0.7-1.7-1.6-2-2.8
		c-0.2-1-0.3-1.9-0.1-2.9c0.4-2,1.2-3.8,2-5.6c5.9-12.6,11.8-25.2,17.7-37.7c4.1-8.7,8.2-17.4,12.2-26.1c0.3-0.6,0-1.5-0.5-1.7
		c-0.4-0.2-0.9-0.4-1.4-0.6c-4.8-2.3-9.6-4.5-14.4-6.8c-1.2-0.6-2.4-1.1-3.6-1.7c-0.4-0.2-1,0.1-1.3,0.5c-0.3,0.6-0.6,1.2-0.9,1.8
		c-9.9,21-19.7,41.9-29.5,62.9c-0.9,1.9-1.7,3.9-2.5,6c-1.4,3.8-2,7.7-1.8,11.7c0.2,5,2,9.3,5.3,13.1c1.7,2,3.7,3.8,6,5.2
		c2.1,1.3,4.2,2.6,6.5,3.7c6.7,3.2,13.5,6.3,20.2,9.5c1.5,0.7,3,1.3,4.6,1.9C1212,331.9,1215.6,332.8,1219.3,332.7z M1446.7,1139.5
		c-0.6-0.9-1.1-1.9-1.8-2.8c-1.8-2.8-3.7-5.5-5.5-8.3c-0.9-1.4-1-1.9-0.1-3.1c7-9.3,13.9-18.5,20.9-27.8c0.8-1.1,1.3-1.2,2.5-0.9
		c3.1,1,6.3,2,9.4,3.1c0.8,0.3,1.6,0.5,2.4,0.7c0.8,0.2,1.6,0.1,2.2-0.6c0.4-0.5,0.8-1,1.2-1.6c3.3-4.4,6.6-8.7,9.8-13.1
		c0.5-0.7,1-1.3,1.4-2c0.3-0.4,0-1.1-0.4-1.3c-1.4-0.5-2.8-1-4.2-1.4c-24.9-8.1-49.7-16.1-74.6-24.2c-7.4-2.4-14.8-4.8-22.2-7.2
		c-0.7-0.2-1.3,0-1.8,0.5c-0.5,0.6-1,1.3-1.5,2c-3.6,4.8-7.2,9.5-10.7,14.3c-0.4,0.5-0.8,1.1-1.2,1.6c-0.6,0.7-0.7,1.5-0.2,2.3
		c0.6,1,1.3,1.9,1.9,2.9c4.3,6.3,8.6,12.6,12.8,18.9c14,20.7,28.1,41.4,42.1,62.1c0.8,1.2,1.7,2.5,2.5,3.7c0.4,0.6,1.2,0.6,1.7,0
		c4.2-5.6,8.4-11.1,12.5-16.7C1446.4,1140.3,1446.5,1139.9,1446.7,1139.5z M1228.6,1248.1c-0.2-2-0.3-4.8-1.1-7.6
		c-1.9-6.4-4.5-12.4-7.5-18.3c-1.4-2.7-3.1-5.1-5.3-7.2c-3.9-3.9-8.5-6.2-14.1-6.6c-3.2-0.2-6.3,0.1-9.4,0.8
		c-2.9,0.7-5.7,1.7-8.4,2.9c-14.2,5.9-28.4,11.8-42.6,17.7c-0.9,0.4-1.8,0.8-2.7,1.3c-0.2,0.1-0.5,0.6-0.4,0.8
		c0.2,0.9,0.6,1.9,0.9,2.8c8.9,21.5,17.8,43.1,26.8,64.6c3.5,8.4,7,16.8,10.5,25.2c0.6,1.3,1,1.5,2.2,1c6.1-2.5,12.2-5,18.3-7.5
		c0.3-0.1,0.6-0.3,0.8-0.5c0.3-0.2,0.6-0.9,0.5-1.3c-0.2-0.6-0.5-1.2-0.7-1.8c-3.6-8.7-7.2-17.4-10.8-26.1c-0.5-1.2-1-2.5-1.5-3.7
		c-0.2-0.6,0.1-1.4,0.7-1.7c3.3-1.4,6.7-2.8,10-4.2c5-2.1,10.1-4.1,15.1-6.2c4.1-1.8,8-4,11.3-7.1
		C1226.2,1260.7,1228.6,1255.3,1228.6,1248.1z M938.9,1287C938.9,1287,938.9,1287,938.9,1287c3.5,0.3,6.9,0.6,10.4,0.8
		c0.6,0,1.2-0.4,1.4-1.2c0.9-4.1,1.3-8.2,1.5-12.3c0.1-2.8-0.2-5.6-0.9-8.4c-1.6-6.5-5.4-11.3-11.2-14.5c-3.8-2.1-8-3.3-12.2-3.9
		c-8.2-1.2-16.4-2.3-24.6-3.5c-3.6-0.5-7.2-0.4-10.9,0.2c-8.2,1.4-13.9,5.8-17.4,13.3c-1.4,3-2.4,6.2-2.9,9.5
		c-0.8,4.7-1.4,9.5-2.1,14.3c-0.8,5.7-1.7,11.5-2.5,17.2c-0.7,5.1-1.5,10.2-2.2,15.2c-0.4,3.3-0.5,6.6-0.1,9.9
		c0.9,8.3,4.9,14.6,12.4,18.5c3.7,1.9,7.7,3.1,11.8,3.7c8.2,1.3,16.4,2.3,24.6,3.5c3.7,0.5,7.2,0.4,10.9-0.2
		c7.4-1.2,12.8-5.1,16.4-11.6c1.6-2.9,2.7-6,3.4-9.3c0.6-3.3,1.1-6.5,1.6-9.8c0.1-0.7-0.3-1.4-0.9-1.5c-1.6-0.4-3.2-0.8-4.8-1.1
		c-5.3-1.1-10.7-2.3-16-3.4c-0.3-0.1-1.1,0.4-1.1,0.8c-0.2,0.8-0.4,1.6-0.5,2.4c-0.4,2.3-0.6,4.6-1.1,6.9c-0.2,1.1-0.6,2.2-1.1,3.3
		c-1.1,2.3-3.2,3.4-5.7,3.1c-6.7-0.9-13.4-1.9-20.2-2.9c-1-0.1-1.9-0.4-2.9-0.7c-1.5-0.5-2.5-1.7-2.9-3.2c-0.4-1.4-0.5-2.9-0.3-4.4
		c0.2-2,0.4-4,0.7-5.9c0.8-5.7,1.7-11.5,2.5-17.2c1.1-7.4,2.1-14.8,3.2-22.1c0.3-1.8,0.7-3.6,1.7-5.1c1.2-1.8,2.8-2.8,5-2.6
		c1.8,0.2,3.6,0.5,5.4,0.8c5.2,0.7,10.5,1.5,15.7,2.2c0.7,0.1,1.3,0.3,1.9,0.5c1.5,0.4,2.6,1.4,3.1,2.9c0.3,0.9,0.6,1.9,0.6,2.9
		c0,1.5-0.2,3-0.4,4.4c-0.2,2.1-0.5,4.3-0.8,6.4c-0.1,0.6,0.5,1.3,1.1,1.4C932,1286.4,935.4,1286.7,938.9,1287z M1132.6,299
		c2-0.1,4.5-0.1,6.9-0.7c5.2-1.4,9.2-4.3,12.3-8.7c2-2.8,3.6-6,4.6-9.3c1-3.2,1.8-6.4,2.7-9.5c0.2-0.6-0.2-1.4-0.8-1.6
		c-6.6-2.2-13.2-4.3-19.8-6.5c-0.2-0.1-0.4-0.2-0.5-0.1c-0.4,0.2-1.1,0.4-1.2,0.7c-0.8,2.5-1.5,5.1-2.1,7.7
		c-0.4,1.5-0.9,2.8-1.7,4.1c-1.5,2.4-3.5,3.3-6.3,2.7c-0.5-0.1-0.9-0.3-1.4-0.4c-3.4-0.9-6.7-1.7-10.1-2.6c-3.4-0.9-6.7-1.8-10-2.8
		c-2.1-0.6-3.3-2.2-3.4-4.4c-0.2-2,0.1-3.9,0.7-5.9c2.6-9.9,5.2-19.8,7.8-29.8c1.1-4.2,2.2-8.3,3.3-12.5c0.4-1.5,0.9-2.9,1.7-4.1
		c1.8-2.8,3.9-3.3,6.3-2.7c5.3,1.4,10.5,2.8,15.8,4.2c1.9,0.5,3.9,0.9,5.7,1.6c2.1,0.7,3.2,2.2,3.5,4.4c0.2,1.8,0,3.6-0.5,5.4
		c-0.7,2.4-1.2,4.8-1.8,7.2c-0.2,0.6,0.3,1.4,0.9,1.5c6.8,1.3,13.6,2.7,20.4,4c0.6,0.1,1.5-0.4,1.6-0.8c1.1-4.1,2.3-8.3,2.9-12.6
		c0.6-4,0.4-7.9-0.8-11.8c-1.6-5.3-4.8-9.4-9.4-12.4c-3.5-2.3-7.3-3.8-11.3-4.9c-7.3-2-14.7-3.9-22.1-5.8c-4.4-1.2-8.8-1.6-13.3-1.3
		c-5.9,0.4-10.9,2.7-14.9,7c-1.8,2-3.2,4.2-4.4,6.6c-1.3,2.7-2.3,5.5-3.1,8.4c-3.3,12.6-6.6,25.3-9.9,37.9c-0.9,3.5-1.9,7-2.5,10.6
		c-0.6,3.8-0.6,7.6,0.3,11.3c1.2,5.2,3.9,9.4,8.2,12.7c3.7,2.9,8,4.7,12.5,5.9c7.7,2.1,15.4,4,23,6
		C1125.5,298.6,1128.8,299,1132.6,299z M681,1153.7c0-4.3-1-7.7-2.5-10.8c-1.6-3.3-3.8-6.3-6.5-8.8c-7.2-6.6-14.5-13.1-21.8-19.6
		c-2.9-2.5-6.2-4.3-9.9-5.6c-5.6-1.9-11.1-1.7-16.4,0.7c-2.7,1.2-5.3,2.8-7.5,4.9c-2,1.8-3.8,3.7-5.6,5.6
		c-9.3,10.3-18.6,20.7-27.9,31.1c-1.6,1.9-3.2,3.8-4.6,5.8c-1.7,2.3-2.9,4.8-3.9,7.5c-1.4,4-1.9,8-0.9,12.2c0.8,3.4,2.3,6.5,4.4,9.4
		c1.9,2.7,4.2,5.1,6.7,7.3c5.3,4.8,10.6,9.5,15.9,14.3c1.5,1.3,3,2.6,4.6,3.8c2.5,1.9,5.3,3.4,8.3,4.5c4.2,1.4,8.3,1.9,12.7,0.8
		c2.9-0.8,5.6-2,8.1-3.6c2.8-1.8,5.3-4,7.5-6.5c1.8-2.1,4.1-3.8,5.2-6.5c-1.7-1.8-3.4-3.6-5.1-5.4c-2.9-3-5.8-5.9-8.7-8.9
		c-0.6-0.6-1.2-1.1-1.9-1.6c-0.2-0.1-0.7-0.1-0.8,0.1c-1.7,1.8-3.4,3.7-5.1,5.4c-1.2,1.2-2.4,2.3-3.7,3.3c-2.1,1.5-4.6,1.7-6.8-0.3
		c-0.4-0.3-0.8-0.6-1.1-1c-4.7-4.2-9.4-8.4-14.1-12.6c-0.5-0.4-1-0.9-1.5-1.4c-1.6-1.6-2-3.6-1-6c0.4-1.1,1.1-2,1.8-3
		c0.7-0.9,1.5-1.8,2.3-2.6c9-10,17.9-20,26.9-30c0.7-0.7,1.3-1.5,2-2.2c0.7-0.7,1.5-1.3,2.3-1.9c2.3-1.7,5.2-1.8,7.3,0.2
		c0.2,0.2,0.5,0.4,0.7,0.7c4.8,4.3,9.6,8.6,14.5,12.9c0.6,0.6,1.2,1.2,1.7,1.8c0.7,0.8,1,1.7,1,2.7c0.1,1.2-0.1,2.4-0.7,3.4
		c-0.9,1.4-1.9,2.7-2.9,4c-1.5,1.8-3.1,3.5-4.6,5.2c-0.4,0.5-0.3,1.4,0.2,1.8c5.5,4.3,10.9,8.6,16.4,12.9c0.6,0.5,1.3,0.4,1.8-0.1
		c2.8-3,5.7-6,8-9.5c1.6-2.3,3-4.8,3.9-7.5C680.4,1158.2,681,1155.7,681,1153.7z M495.6,697.7c0.1-0.1,0.2-0.2,0.3-0.4
		c0.2-1.7-0.7-3.2-1.1-4.8c-3.3-11.4-6.7-22.9-10.1-34.3c-0.5-1.9-0.5-2.1,1.1-3.3c1.4-1.1,2.9-2.2,4.4-3.3
		c8.4-6.4,16.9-12.8,25.3-19.3c0.8-0.6,1.5-1.3,2.2-2c0.1-0.1,0.1-0.3,0-0.4c-0.1-0.1-0.2-0.3-0.4-0.3c-0.8-0.1-1.6-0.3-2.4-0.3
		c-6.6-0.2-13.3-0.3-19.9-0.5c-6.1-0.2-12.3-0.4-18.4-0.6c-1.1,0-1.8-0.6-2.2-1.7c-2.4-6.9-4.8-13.7-7.2-20.6
		c-2-5.8-4-11.6-6.1-17.3c-0.1-0.3-0.3-0.5-0.5-0.7c-0.4,0.3-0.8,0.6-1,1c-0.3,0.4-0.3,0.9-0.5,1.4c-3.9,11.1-7.9,22.1-11.9,33.2
		c-0.4,1.2-0.9,2.5-1.4,3.7c-0.2,0.4-0.7,0.7-1.1,0.8c-1.1,0.2-2.3,0.2-3.5,0.2c-11.8,0.3-23.5,0.5-35.3,0.8c-1,0-2,0.1-3,0.1
		c-0.1,0-0.2,0.2-0.2,0.4c0,0.1-0.1,0.4,0,0.4c0.5,0.5,0.9,0.9,1.4,1.3c9.6,7.4,19.1,14.8,28.7,22.2c0.9,0.7,1.8,1.4,2.7,2.2
		c0.4,0.3,0.6,0.8,0.5,1.3c-0.1,0.5-0.3,0.9-0.4,1.4c-3.6,12-7.2,24.1-10.8,36.1c-0.2,0.6-0.4,1.3-0.4,1.9c0,0.3,0.2,0.6,0.3,0.9
		c0,0.1,0.3,0,0.5-0.1c1.1-0.7,2.3-1.4,3.3-2.1c9.2-6.3,18.3-12.5,27.5-18.8c1.1-0.7,2.2-1.5,3.3-2.2c0.6-0.4,1.2-0.3,1.8,0.1
		c1.2,0.8,2.5,1.7,3.7,2.5c8.9,6.1,17.7,12.3,26.6,18.4c1.2,0.8,2.5,1.6,3.7,2.4C495.3,697.7,495.5,697.7,495.6,697.7z
		 M1488.1,696.2c0,0-0.1,0.2-0.1,0.3c0,0.3,0.1,0.6,0.2,0.9c0,0,0.3,0,0.5-0.1c1.3-0.8,2.5-1.5,3.8-2.4c9.2-6.2,18.3-12.5,27.5-18.8
		c1.1-0.7,2.2-1.5,3.3-2.2c0.4-0.3,0.9-0.3,1.4,0c1.1,0.7,2.2,1.5,3.3,2.2c9,6.2,18,12.4,27,18.6c1.1,0.8,2.2,1.5,3.3,2.3
		c0.4,0.3,0.9,0.5,1.3,0.2c0.2-0.1,0.2-0.6,0.1-0.9c-0.2-1-0.5-1.9-0.8-2.9c-3.3-11.3-6.6-22.5-9.9-33.8c-0.1-0.5-0.3-0.9-0.4-1.4
		c-0.4-1.4-0.4-2.6,1-3.5c0.7-0.4,1.3-1,2-1.5c8.6-6.5,17.1-13,25.7-19.6c1.1-0.8,2.1-1.6,3.2-2.4c0.4-0.3,0.7-0.6,1.1-1
		c0.1-0.1,0.2-0.4,0.2-0.4c-0.2-0.2-0.5-0.6-0.7-0.6c-4.6-0.2-9.3-0.4-13.9-0.6c-7.9-0.2-15.9-0.4-23.8-0.7
		c-5.3-0.2-4.2,0.2-5.8-4.3c-4-11.2-7.9-22.5-11.9-33.7c-0.3-0.8-0.7-1.5-1-2.2c-0.1-0.1-0.2-0.2-0.4-0.3c-0.1,0-0.3,0.1-0.3,0.2
		c-0.4,1.1-0.9,2.1-1.3,3.2c-4,11.1-7.9,22.1-11.9,33.2c-0.3,0.9-0.7,1.8-1.1,2.8c-0.2,0.5-0.6,0.8-1.1,0.8c-1,0.1-2,0.1-3,0.2
		c-11.9,0.3-23.8,0.6-35.8,0.8c-1,0-2,0.1-3,0.1c-0.1,0-0.2,0.3-0.2,0.4c0,0.1-0.1,0.4,0,0.4c0.6,0.6,1.1,1.2,1.8,1.7
		c8.8,6.8,17.6,13.5,26.3,20.3c6.6,5.2,5.7,2.8,3.4,10.8C1494.9,673.9,1491.5,685,1488.1,696.2z M564.6,1006.2
		c-0.1-0.4-0.1-0.7-0.3-1c-2.3-3.6-4.7-7.2-7-10.8c-1.5-2.4-3.1-4.7-4.7-7c-0.2-0.4-0.9-0.3-1.2,0.1c-0.8,1-1.7,2-2.5,3.1
		c-16.7,21.4-33.4,42.9-50,64.3c-4.1,5.2-8.1,10.4-12.2,15.7c-1.1,1.4-1.1,1.7-0.3,3.1c3.9,6,7.8,11.9,11.7,17.9
		c0.1,0.1,0.2,0.3,0.3,0.4c0.4,0.6,1.1,0.8,1.7,0.7c1.1-0.2,2.3-0.5,3.4-0.7c15.1-3.8,30.1-7.6,45.2-11.4
		c17.3-4.4,34.6-8.8,51.9-13.1c0.8-0.2,1.6-0.5,2.4-0.7c0.7-0.2,0.9-0.9,0.4-1.6c-3.1-4.7-6.1-9.4-9.2-14.2
		c-0.7-1.1-1.4-2.2-2.2-3.3c-0.4-0.6-1-0.9-1.7-0.7c-0.2,0-0.3,0.1-0.5,0.1c-18.6,4.7-37.2,9.5-55.8,14.2c-4.3,1.1-8.7,2.2-13,3.2
		c-0.2,0.1-0.5-0.2-0.8-0.3c0,0,0-0.3,0.1-0.5c0.7-0.9,1.3-1.9,2-2.8c10.8-13.9,21.6-27.7,32.4-41.6c3.1-3.9,6.1-7.8,9.1-11.8
		C564.2,1007,564.4,1006.6,564.6,1006.2z M1456.9,970.1c-0.2-0.4-0.3-0.8-0.5-0.9c-5.4-2.9-10.8-5.8-16.2-8.7
		c-0.5-0.2-1.1-0.1-1.3,0.3c-0.5,0.9-1,1.7-1.5,2.6c-11.4,21.3-22.8,42.6-34.2,63.9c-0.3,0.6-0.6,1.2-0.9,1.7
		c-0.9,1.8-0.9,2.2,0.8,3.1c2.2,1.2,4.4,2.4,6.6,3.5c2.9,1.6,5.8,3.1,8.8,4.7c0.3,0.2,1.1-0.1,1.3-0.4c0.4-0.7,0.8-1.4,1.2-2.2
		c3.3-6.1,6.6-12.3,9.8-18.4c0.5-0.9,0.9-1.8,1.4-2.6c0.3-0.6,1.1-0.8,1.7-0.5c0.7,0.4,1.5,0.8,2.2,1.2
		c21.3,11.4,42.6,22.8,63.9,34.2c0.9,0.5,1.8,0.9,2.6,1.4c0.4,0.2,0.9,0.5,1.3,0.7c0.9,0.4,1.6,0.2,2-0.7c3.2-6,6.4-12,9.6-18
		c0.4-0.8,0.2-1.7-0.5-2.1c-1.3-0.7-2.6-1.4-3.9-2.1c-20.7-11.1-41.5-22.1-62.2-33.2c-1.3-0.7-2.6-1.4-3.9-2.1
		c-0.5-0.3-0.8-1.1-0.5-1.7c1.5-2.9,3.1-5.9,4.6-8.8c2.4-4.5,4.9-9,7.3-13.6C1456.7,971,1456.8,970.5,1456.9,970.1z M1349.8,437.3
		c0.2,1.2,0.9,1.8,1.6,2.6c3.9,4.5,7.8,9.1,11.6,13.6c0.3,0.4,0.7,0.7,1,1.1c0.3,0.3,1,0.4,1.3,0.2c0.8-0.6,1.6-1.2,2.3-1.9
		c7.1-6,14.1-12.1,21.1-18.1c11.8-10.1,23.7-20.3,35.5-30.4c0.4-0.3,0.7-0.7,1.1-1c1.4-1.2,1.8-1.2,2.8,0.1
		c4.2,4.9,8.4,9.8,12.6,14.7c1.3,1.5,2.6,3,3.9,4.5c0.5,0.5,1.3,0.6,1.8,0.2c4.5-3.9,9.1-7.7,13.6-11.6c0.1-0.1,0.2-0.3,0.3-0.4
		c0.3-0.3,0.3-1,0-1.4c-0.5-0.6-1-1.3-1.6-1.9c-15.8-18.5-31.7-37-47.5-55.5c-0.5-0.6-1.1-1.3-1.6-1.9c-0.7-0.8-1.3-0.8-2.1-0.2
		c-4.4,3.8-8.8,7.5-13.2,11.3c-0.2,0.2-0.5,0.5-0.6,0.8c-0.1,0.3-0.2,0.7,0,0.9c0.4,0.7,1,1.3,1.5,2c4.4,5.2,8.8,10.3,13.3,15.5
		c0.8,0.9,1.5,1.8,2.2,2.7c0.5,0.6,0.5,1.3,0,1.8c-0.7,0.7-1.5,1.3-2.2,2c-18.5,15.8-37,31.7-55.5,47.5
		C1352,435.4,1350.9,436.4,1349.8,437.3z M1486.8,475.7c0,0.1,0,0.1,0,0.2c-4.8,0-9.6,0-14.4,0c-0.7,0-1.3-0.1-2-0.1
		c-0.4,0-0.7-0.8-0.5-1.2c4.3-7.8,8.7-15.6,13-23.4c0.7-1.3,1.4-2.6,2.2-3.9c0.4-0.7,0.2-1.2-0.1-1.8c-3.8-6.4-7.6-12.8-11.4-19.2
		c-0.1-0.1-0.2-0.2-0.3-0.4c-0.3-0.4-1.1-0.4-1.3,0c-0.7,1.3-1.5,2.6-2.2,3.9c-8.4,15-16.8,30-25.2,45c-1.2,2.2-2.8,3.9-5.1,5.2
		c-11.6,6.8-23,13.7-34.6,20.5c-1.3,0.8-2.6,1.5-3.8,2.3c-0.6,0.4-0.8,1.1-0.5,1.7c3.5,5.8,6.9,11.7,10.4,17.5
		c0.2,0.3,0.4,0.5,0.6,0.8c0.3,0.4,0.9,0.5,1.3,0.3c1.3-0.7,2.6-1.5,3.8-2.3c11.8-7,23.6-14,35.4-21.1c1.6-1,3.2-1.5,5.1-1.5
		c6,0,11.9-0.3,17.9-0.3c11.8-0.1,23.5-0.2,35.3-0.4c1.3,0,2.6,0,4-0.1c0.7,0,1-0.8,0.7-1.4c-3.9-6.5-7.8-13.1-11.7-19.6
		c-0.4-0.7-1.1-0.7-1.7-0.8C1496.8,475.7,1491.8,475.7,1486.8,475.7z M547.2,1154.2c0.1-0.1,0.3-0.1,0.4-0.2
		c0.8-0.6,1.6-1.2,2.3-1.9c20.1-17.3,40.1-34.6,60.2-51.9c3.9-3.4,7.8-6.7,11.6-10.1c0.9-0.8,2.4-1.3,2.4-2.9
		c-3.8-5-8.1-9.6-12.1-14.4c-0.5-0.6-1.1-1.3-1.6-1.9c-0.7-0.7-1.4-0.8-2.2-0.2c-0.8,0.6-1.5,1.3-2.3,1.9
		c-23.9,20.6-47.9,41.3-71.8,61.9c-0.4,0.3-0.8,0.6-1.1,1c-0.2,0.2-0.5,0.5-0.7,0.7c-0.3,0.3-0.4,0.9,0,1.3
		c4.5,5.3,9,10.6,13.6,15.8c0.2,0.2,0.5,0.4,0.8,0.5C546.8,1154.1,547,1154.1,547.2,1154.2z M1546.3,965.5c0.5-1.7,0.4-2.1-0.4-2.5
		c-0.9-0.4-1.8-0.7-2.8-1.1c-18.4-6.9-36.8-13.9-55.2-20.8c-11.7-4.4-23.5-8.8-35.2-13.3c-1.4-0.5-1.8-0.4-2.3,0.8
		c-2.5,6.5-4.9,13-7.4,19.5c-0.2,0.4,0.1,1.1,0.5,1.2c0.8,0.3,1.5,0.7,2.3,1c30,11.3,59.9,22.6,89.9,33.9c0.6,0.2,1.2,0.5,1.9,0.7
		c0.6,0.2,1.4-0.2,1.6-0.8c1.8-4.6,3.5-9.3,5.2-13.9C1545.2,968.4,1546,966.5,1546.3,965.5z M1393.9,337c-0.5-0.6-0.9-1.1-1.3-1.6
		c-4.7-4.4-9.5-8.7-14.3-13.1c-0.2-0.2-0.5-0.4-0.8-0.6c-0.3-0.3-1-0.2-1.4,0.1c-0.5,0.5-0.9,0.9-1.4,1.4
		c-21.7,23.7-43.4,47.4-65.1,71c-0.7,0.7-1.3,1.5-2,2.3c0.5,0.6,0.9,1.1,1.4,1.5c4.7,4.4,9.5,8.7,14.3,13.1c0.2,0.2,0.5,0.4,0.8,0.6
		c0.3,0.2,1.1,0.2,1.4-0.1c0.6-0.6,1.2-1.2,1.7-1.8c21.6-23.6,43.2-47.1,64.8-70.7C1392.6,338.6,1393.2,337.8,1393.9,337z"/>
	<path class="st3" d="M1379.3,985.7c0.1,1.6-0.7,2.9-1.5,4.1c-3.2,5.2-6.4,10.5-9.7,15.6c-13.3,20.5-28.1,39.8-44.5,57.8
		c-33.5,36.9-72.1,67.4-115.7,91.4c-34.1,18.8-70.1,32.9-107.9,42.3c-12.1,3-24.2,5.5-36.5,7.5c-9,1.4-18,2.5-27.1,3.5
		c-18.3,1.9-36.7,2.3-55.1,2c-3.6-0.1-7.3-0.1-10.9-0.3c-7.1-0.4-14.2-0.8-21.3-1.6c-3.5-0.4-6.9-0.7-10.4-1.1
		c-12.4-1.3-24.6-3.5-36.8-5.9c-21.8-4.4-43.1-10.5-64-18.1c-39.6-14.5-76.4-34.3-110.4-59.3c-16.1-11.8-31.2-24.6-45.6-38.4
		c-29.3-28.2-54.3-59.8-75.1-94.7c-0.4-0.7-0.8-1.4-1.2-2.2c-0.5-0.8-0.3-1.6-0.1-2.4c1.9,0.7,3.9,0.4,5.9,0.4c84,0,168,0,251.9,0
		c1.3,0,2.7,0,4,0c0.5,0,1,0,1.5-0.2c0.5-0.1,0.9-0.3,1.1-0.9c0.2-0.6,0.6-1.2,0.8-1.8c6.2-15.9,12.5-31.7,18.7-47.6
		c0.3-0.8,0.5-1.6,0.7-2.4c0.1-0.3-0.4-1.1-0.7-1.1c-1.6-0.1-3.3-0.2-4.9-0.2c-26,0-52,0-78,0c-1.7,0-3.3-0.1-5-0.1
		c-0.4,0-0.9-0.7-0.8-1c0.2-0.8,0.5-1.6,0.8-2.4c3.5-8.9,7-17.9,10.5-26.8c17.1-43.6,34.3-87.2,51.5-130.7c1-2.6,2.2-5.2,3.3-7.7
		c1.7,0,3.3,0,5,0c80.2,0,160.4,0,240.6,0c1.8,0,3.6,0,5.5,0c1.1,1.3,1.5,2.9,2.1,4.5c11.2,28.3,22.3,56.7,33.5,85
		c9.8,25,19.6,49.9,29.4,74.9c0.4,1.1,0.8,2.2,1.2,3.3c0.1,0.3-0.4,1-0.8,1c-1.5,0-3,0.1-4.5,0.1c-16.1,0-32.1,0-48.2,0
		c-10.4,0-20.9,0-31.3,0c-1.5,0-3,0.1-4.4,0.2c-0.4,0-0.8,0.8-0.6,1.2c0.2,0.6,0.4,1.3,0.6,1.9c6.2,15.9,12.5,31.7,18.7,47.6
		c1.3,3.3,1.3,3.3,4.6,3.3c1,0,2,0,3,0c84.2,0,168.4,0,252.5,0c1.5,0,3,0,4.5-0.1C1378.4,986.2,1378.8,985.9,1379.3,985.7z"/>
	<path class="st4" d="M1117.7,763.3c-1.8,0-3.6,0-5.5,0c-80.2,0-160.4,0-240.6,0c-1.7,0-3.3,0-5,0c0.3-1,0.5-1.9,0.8-2.8
		c1.3-3.4,2.7-6.8,4-10.2c11.7-29.7,23.4-59.4,35.1-89.1c0.3-0.8,0.6-1.5,0.9-2.3c0.9-2.2,0.6-2.7-1.1-3.6c-0.7-0.4-1.4-0.8-2.2-1.2
		c-38.4-21.3-72.1-58.8-86.4-109.3c-3.2-11.3-5.2-22.9-6.2-34.6c-0.5-6.4-0.5-12.9-0.4-19.4c0.2-9.5,1.2-18.8,3-28.1
		c0.6-3.2,1.2-6.5,1.8-9.7c0.6-2,1.5-4,1.4-6.2l-0.1,0.1c1.1-0.8,0.9-2,1-3.1l0,0.1c0.4-0.6,0.8-1.2,0.7-2c0.7-2,1.5-4,2.2-6
		c17-49,56.8-93,114.2-112.1c10.5-3.5,21.3-6.1,32.3-7.4c0.6-0.1,1.2-0.4,1.8-0.6c3.5-0.2,6.9-0.4,10.4-0.7c8.2-0.5,16.5-0.5,24.7,0
		c3.5,0.2,6.9,0.4,10.4,0.7c0.6,0.2,1.2,0.5,1.8,0.6c3.1,0.5,6.2,0.8,9.3,1.4c14.3,2.8,28.2,7.2,41.5,13.3
		c44.2,20.2,81.6,59.4,97.7,111.3c0.2,0.8,0.6,1.5,0.9,2.3c0.3,2.8,1.3,5.4,1.9,8.1c0.2,0.9,0.1,2,0.9,2.7c0.2,1.6,0.4,3.3,0.7,4.9
		c2,9.9,3.1,19.9,3.4,30.1c0.2,7,0,13.9-0.6,20.8c-0.8,8.6-2.1,17.1-4,25.5c-7.3,31.3-21.9,58.7-43.7,82.3
		c-12.9,14-27.7,25.6-44.3,34.9c-1.3,0.7-2.6,1.5-3.8,2.3c-0.2,0.1-0.4,0.6-0.4,0.9c0.2,0.9,0.6,1.9,0.9,2.8
		c4.4,11.1,8.7,22.1,13.1,33.2c8.9,22.6,17.8,45.2,26.7,67.8C1117.4,761.7,1117.8,762.5,1117.7,763.3z M896.3,495.9
		c0.2,52.8,42.4,95.8,95.8,95.8c55.4,0,95.9-45.2,96-95.6c0.1-52.7-43-96.1-96-96.1C941.2,400.1,896.6,441,896.3,495.9z"/>
	<path class="st3" d="M969.5,315.8c-0.6,0.2-1.2,0.5-1.8,0.6c-11,1.3-21.8,3.9-32.3,7.4c-57.3,19.1-97.1,63.1-114.2,112.1
		c-0.7,2-1.5,4-2.2,6c-0.2,0.7-0.5,1.3-0.7,2c0,0,0-0.1,0-0.1c-0.8,0.9-0.8,2-1,3.1c0,0,0.1-0.1,0.1-0.1c-0.2,0.2-0.6,0.4-0.7,0.6
		c-0.7,1.8-1.3,3.6-2,5.4c-0.5,1.1-1,2.1-1.4,3.2c-12.4,31.6-24.9,63.1-37.3,94.7c-10.4,26.5-20.9,53-31.3,79.5
		c-14.3,36.4-28.6,72.7-42.9,109.1c-10.2,25.9-20.4,51.7-30.6,77.6c-15.6,39.6-31.2,79.2-46.7,118.8c-5.9,14.9-11.8,29.9-17.7,44.8
		c-0.5,1.4-1.4,2.7-1.3,4.2c-0.8,0.3-1.6,0.6-2.1-0.4c-0.3-0.6-0.7-1.1-1-1.7c-2.6-4.8-5.3-9.6-7.8-14.4
		c-17.2-33.1-29.9-67.8-38.4-104.1c-2.3-10-4.3-20.1-5.9-30.2c-1-6-1.6-12.1-2.4-18.2c-1.3-9-1.9-18.1-2.5-27.2
		c-0.4-6.8-0.5-13.6-0.5-20.4c0-8.6,0-17.2,0.3-25.8c0.3-7.1,0.7-14.2,1.5-21.3c0.4-3.6,0.7-7.2,1.1-10.9c1.8-17,4.9-33.7,8.8-50.4
		c8.1-34.5,20.2-67.6,36.2-99.2c14.3-28.3,31.5-54.8,51.5-79.5c11.8-14.6,24.4-28.4,38-41.4c28.8-27.5,60.6-50.9,95.5-70.1
		c27-14.8,55.2-26.6,84.6-35.5c15.9-4.8,31.9-8.7,48.2-11.7c8.8-1.6,17.6-3,26.5-4.1c6.6-0.8,13.2-1.6,19.8-2
		c3.5-0.2,6.9-0.5,10.4-0.8C967.9,315.6,968.7,315.7,969.5,315.8z"/>
	<path class="st3" d="M1166.3,444.7c-0.3-0.8-0.7-1.5-0.9-2.3c-16.1-52-53.5-91.1-97.7-111.3c-13.3-6.1-27.2-10.5-41.5-13.3
		c-3.1-0.6-6.2-0.9-9.3-1.4c-0.6-0.1-1.2-0.4-1.8-0.6c2.8-0.3,5.6,0,8.4,0.2c2.5,0.2,5,0.4,7.4,0.6c4.9,0.5,9.9,1,14.8,1.6
		c3.1,0.4,6.2,0.8,9.4,1.2c16.8,2.2,33.3,5.6,49.6,9.8c30.1,7.7,59,18.6,86.8,32.4c28,13.9,54.2,30.6,78.7,50.1
		c18,14.2,34.7,29.8,50.3,46.6c18.9,20.3,35.7,42.2,50.5,65.7c20.7,32.8,36.9,67.7,48.4,104.7c5.3,16.9,9.6,34.1,12.8,51.5
		c1.6,8.6,3,17.3,4,26c0.8,6.4,1.4,12.8,2,19.3c1.3,15.2,2,30.4,1.5,45.7c-0.3,9.6-0.5,19.2-1.5,28.8c-0.5,4.8-0.8,9.6-1.3,14.3
		c-0.6,5.6-1.3,11.2-2.2,16.7c-1.5,9.6-3.4,19.2-5.4,28.8c-3.9,18-9,35.6-15.2,52.9c-6.7,18.9-14.7,37.3-23.9,55.1
		c-2.8,5.4-5.9,10.8-8.8,16.1c-0.4,0.8-1,1.3-2,1.2c-0.5-1.6-1-3.1-1.6-4.7c-4.1-10.5-8.2-21-12.3-31.4
		c-15.7-39.9-31.4-79.8-47.1-119.6c-11.3-28.8-22.7-57.6-34-86.4c-21.6-54.8-43.1-109.6-64.7-164.5c-14.7-37.4-29.4-74.8-44.2-112.3
		c-1.6-4.2-3.4-8.3-5.1-12.4C1169.3,450.7,1168,447.6,1166.3,444.7z"/>
	<path class="st5" d="M1170.1,453.9c1.7,4.1,3.5,8.2,5.1,12.4c14.7,37.4,29.4,74.8,44.2,112.3c21.6,54.8,43.1,109.6,64.7,164.5
		c11.3,28.8,22.7,57.6,34,86.4c15.7,39.9,31.4,79.8,47.1,119.6c4.1,10.5,8.2,20.9,12.3,31.4c0.6,1.5,1.1,3.1,1.6,4.7
		c0,0.2,0.1,0.4,0.1,0.6c-0.5,0.2-0.9,0.4-1.4,0.4c-1.5,0.1-3,0.1-4.5,0.1c-84.2,0-168.4,0-252.5,0c-1,0-2,0-3,0
		c-3.3,0-3.4,0-4.6-3.3c-6.3-15.9-12.5-31.7-18.7-47.6c-0.2-0.6-0.4-1.2-0.6-1.9c-0.1-0.4,0.3-1.1,0.6-1.2c1.5-0.1,3-0.2,4.4-0.2
		c10.4,0,20.9,0,31.3,0c16.1,0,32.1,0,48.2,0c1.5,0,3-0.1,4.5-0.1c0.4,0,1-0.7,0.8-1c-0.4-1.1-0.7-2.2-1.2-3.3
		c-9.8-25-19.6-49.9-29.4-74.9c-11.2-28.3-22.3-56.7-33.5-85c-0.6-1.5-1-3.2-2.1-4.5c0.1-0.9-0.2-1.6-0.6-2.4
		c-8.9-22.6-17.8-45.2-26.7-67.8c-4.4-11.1-8.7-22.1-13.1-33.2c-0.4-0.9-0.7-1.8-0.9-2.8c-0.1-0.2,0.2-0.7,0.4-0.9
		c1.2-0.8,2.5-1.6,3.8-2.3c16.6-9.3,31.4-20.9,44.3-34.9c21.8-23.6,36.5-51,43.7-82.3c1.9-8.4,3.2-16.9,4-25.5
		c0.6-6.9,0.8-13.9,0.6-20.8c-0.3-10.1-1.4-20.1-3.4-30.1c-0.3-1.6-0.5-3.3-0.7-4.9C1169.5,455,1169.8,454.5,1170.1,453.9z"/>
	<path class="st5" d="M605.4,984.8c0-1.6,0.8-2.9,1.3-4.2c5.8-15,11.8-29.9,17.7-44.8c15.6-39.6,31.2-79.2,46.7-118.8
		c10.2-25.9,20.4-51.7,30.6-77.6c14.3-36.4,28.6-72.7,42.9-109.1c10.4-26.5,20.9-53,31.3-79.5c12.4-31.6,24.9-63.2,37.3-94.7
		c0.4-1.1,0.9-2.1,1.4-3.2c0.4,0,0.9,0.1,1.3,0.1c-0.6,3.2-1.2,6.5-1.8,9.7c-1.8,9.3-2.8,18.7-3,28.1c-0.1,6.5-0.1,12.9,0.4,19.4
		c1,11.7,3,23.3,6.2,34.6c14.2,50.5,47.9,88,86.4,109.3c0.7,0.4,1.4,0.8,2.2,1.2c1.7,0.9,2.1,1.3,1.1,3.6c-0.3,0.8-0.6,1.5-0.9,2.3
		c-11.7,29.7-23.4,59.4-35.1,89.1c-1.3,3.4-2.7,6.8-4,10.2c-0.4,0.9-0.5,1.9-0.8,2.8c-1.1,2.6-2.3,5.1-3.3,7.7
		c-17.2,43.6-34.3,87.2-51.5,130.7c-3.5,8.9-7,17.9-10.5,26.8c-0.3,0.8-0.5,1.6-0.8,2.4c-0.1,0.3,0.5,1,0.8,1c1.7,0,3.3,0.1,5,0.1
		c26,0,52,0,78,0c1.6,0,3.3,0.1,4.9,0.2c0.3,0,0.8,0.8,0.7,1.1c-0.2,0.8-0.4,1.6-0.7,2.4c-6.2,15.9-12.5,31.7-18.7,47.6
		c-0.2,0.6-0.6,1.2-0.8,1.8c-0.2,0.5-0.7,0.7-1.1,0.9c-0.5,0.1-1,0.2-1.5,0.2c-1.3,0-2.7,0-4,0c-84,0-168,0-251.9,0
		c-2,0-4,0.3-5.9-0.4C605.4,985.5,605.4,985.1,605.4,984.8z"/>
	<path class="st6" d="M1527.9,834c-9.6-0.5-19.2-0.9-28.8-1.4c-7-0.3-13.9-0.7-20.9-1.1c-1-0.1-1.6-0.7-1.6-1.5c0-0.5,0-1,0-1.5
		c0.3-6.5,0.7-12.9,1-19.4c0-0.7,0.4-1.2,1-1.6c1.2-0.6,2.3-1.2,3.5-1.8c16.6-8.5,33.3-17,49.9-25.6c1.2-0.6,2.3-1.3,3.5-1.9
		c0.4-0.2,0.5-0.5,0.2-0.8c-0.1-0.1-0.2-0.3-0.3-0.3c-6.9-0.4-13.9-0.7-20.9-1.1c-10.8-0.6-21.5-1.1-32.3-1.7c-0.7,0-1.3-0.1-2-0.2
		c-0.5-0.1-0.8-0.6-0.8-1.1c-0.1-0.5,0-1,0-1.5c0.3-6.5,0.7-12.9,1-19.4c0-0.7,0.6-1.2,1.3-1.2c5.1,0.2,10.3,0.4,15.4,0.6
		c1.3,0.1,2.6,0.2,4,0.3c9.4,0.5,18.9,0.9,28.3,1.3c9.6,0.5,19.2,1,28.8,1.5c3,0.2,6,0.2,8.9,0.4c4.8,0.3,9.6,0.6,14.4,0.8
		c1,0.1,1.4,0.6,1.4,1.6c0,0.5,0,1,0,1.5c-0.3,6.3-0.7,12.6-1,18.9c0,0.9-0.4,1.6-1.2,2c-1.9,1-3.8,2-5.7,2.9
		c-15.8,8.1-31.5,16.1-47.3,24.1c-1.2,0.6-2.4,1.2-3.5,1.9c-0.2,0.1-0.3,0.5-0.5,0.8c0,0,0.2,0.2,0.4,0.3c0.5,0.1,0.9,0.3,1.4,0.3
		c1.2,0.1,2.3,0.2,3.5,0.3c9.6,0.5,19.2,0.9,28.8,1.4c6.8,0.3,13.6,0.7,20.4,1c1.3,0.1,1.9,0.6,1.9,1.8c0,0.5,0,1,0,1.5
		c-0.3,6.3-0.7,12.6-1,18.9c-0.1,1-0.6,1.5-1.6,1.5c-0.2,0-0.3,0-0.5,0c-0.5,0-1,0-1.5-0.1c-7-0.4-13.9-0.7-20.9-1.1
		C1545.8,835,1536.9,834.5,1527.9,834z"/>
	<path class="st6" d="M1348.5,1106.3c3.5-0.2,6.6,0.8,9.7,2.1c2.7,1.2,5.2,2.9,7.4,4.9c4.8,4.3,9.2,9.1,13.1,14.2
		c1.6,2.1,2.9,4.4,3.9,6.9c2.5,6.2,2.4,12.3-0.5,18.3c-0.6,1.2-1.2,2.3-1.8,3.5c-0.1,0.2,0.1,0.7,0.3,0.8c0.7,0.4,1.5,0.7,2.3,1
		c11.8,3.7,23.7,7.3,35.5,11c0.5,0.1,1,0.3,1.4,0.5c0.2,0.1,0.4,0.6,0.3,0.8c0,0.3-0.3,0.6-0.5,0.8c-5.3,5-10.7,9.9-16,14.9
		c-0.8,0.8-1.7,0.9-2.7,0.6c-11.1-3.4-22.1-6.8-33.2-10.3c-0.8-0.2-1.6-0.4-2.4-0.7c-3.7-1.5-3.6-0.8-6,1.5c-2,1.8-3.9,3.6-5.8,5.5
		c-0.3,0.3-0.3,1,0,1.4c1,1.1,2,2.2,3,3.3c6.2,6.7,12.4,13.3,18.6,20c0.7,0.7,1.3,1.5,1.9,2.3c0.1,0.2,0.1,0.6,0,0.9
		c-0.1,0.3-0.4,0.5-0.6,0.8c-5,4.6-9.9,9.2-14.9,13.9c-0.7,0.6-1.3,0.6-2.1-0.2c-0.8-0.8-1.6-1.7-2.4-2.5c-7-7.5-14-15-21-22.6
		c-14-15.1-28-30.1-41.9-45.2c-1-1.1-2-2.2-2.9-3.4c-0.1-0.2-0.1-0.7,0-0.8c0.4-0.5,0.9-1,1.4-1.4c11.9-11,23.8-22.1,35.7-33.1
		c1.9-1.8,4.1-3.4,6.2-4.9c2.4-1.7,5.1-3,8-3.8C1344.6,1106.5,1346.5,1106.2,1348.5,1106.3z M1338.9,1167.7c0.3-0.2,0.6-0.4,0.8-0.6
		c6.3-5.8,12.6-11.7,18.9-17.5c0.5-0.4,1-0.9,1.3-1.5c0.8-1.3,1.3-2.6,0.7-4.2c-0.5-1.4-1.1-2.8-2.1-3.9c-2.5-2.7-5-5.3-7.4-8
		c-0.3-0.4-0.7-0.7-1.1-0.9c-3.2-2.3-5.3-2.5-8.4,0.4c-6.2,5.8-12.4,11.5-18.5,17.3c-0.8,0.7-0.8,1.5-0.2,2.1
		c4.9,5.3,9.9,10.7,14.9,16C1338.1,1167.2,1338.5,1167.4,1338.9,1167.7z"/>
	<path class="st6" d="M1091.5,1326.1c1.4,6.6,2.6,12.1,3.7,17.6c0.1,0.7-0.2,1.4-0.8,1.5c-1.4,0.4-2.9,0.7-4.3,1
		c-5.3,1.2-10.7,2.4-16,3.5c-0.9,0.2-1.6-0.3-1.8-1.2c-1.4-6.6-2.9-13.3-4.3-19.9c-2.8-13.1-5.7-26.2-8.5-39.3
		c-2.8-12.8-5.5-25.6-8.3-38.3c-0.1-0.7,0.2-1.3,0.9-1.5c4.4-1,8.7-2,13.1-2.9c11.5-2.5,23-4.9,34.5-7.4c2.4-0.5,4.9-1,7.3-1.3
		c4-0.5,8-0.2,11.8,1c4.8,1.4,8.6,4.3,11.4,8.3c2.5,3.6,4.2,7.5,5.2,11.7c1.1,4.3,2.1,8.7,2.8,13.1c0.7,4.3,0.7,8.6-0.3,12.8
		c-1.4,5.6-4.5,9.9-9.2,13.1c-1.1,0.7-2.2,1.4-3.4,2.1c-0.5,0.3-0.5,0.8-0.2,1.2c1,1.1,2,2.2,3,3.4c7.2,8,14.5,16,21.7,24
		c0.8,0.9,1.6,1.7,2.3,2.6c0.7,0.8,0.5,1.6-0.4,1.8c-2.3,0.5-4.5,1-6.8,1.5c-5,1.1-10,2.2-15,3.3c-0.7,0.2-1.3,0-1.8-0.5
		c-0.8-0.8-1.6-1.7-2.4-2.5c-7.4-8.1-14.7-16.2-22.1-24.3c-0.9-1-1.8-2-2.7-2.9c-0.3-0.3-0.9-0.6-1.3-0.6c-1.8,0-9.3,1.7-11.1,2.5
		c-0.2,0.1-0.4,0.6-0.4,0.8c1,5,2.1,10,3.2,15.1C1091.4,1325.9,1091.6,1326.6,1091.5,1326.1z M1114.9,1278c0-1.2,0-1.7,0-2.2
		c-0.5-4.1-1.5-8.1-2.6-12.1c-0.3-0.9-0.8-1.8-1.3-2.6c-1.2-1.8-3-2.6-5.1-2.2c-2.4,0.5-4.9,1-7.3,1.5c-6.3,1.4-12.6,2.7-18.9,4.1
		c-0.6,0.1-1.2,0.8-1.1,1.4c0.4,1.9,0.8,3.9,1.2,5.8c1.1,5.2,2.2,10.3,3.3,15.5c0,0.2,0.1,0.3,0.1,0.5c0.2,0.8,1,1.2,1.9,1
		c6.3-1.4,12.6-2.7,18.9-4.1c2.4-0.5,4.9-1,7.3-1.6c2.1-0.6,3.3-2,3.6-4.3C1114.9,1278.3,1114.9,1277.9,1114.9,1278z"/>
	<path class="st6" d="M1319.7,351.6c-2.8,0-5.1-0.1-7.4-1c-0.8-0.3-1.6-0.5-2.4-0.7c-0.7-0.2-1.2,0.2-1.2,1
		c-0.3,2.3-0.5,4.6-0.8,6.9c-0.5,4.8-0.9,9.6-1.3,14.3c-0.6,6.4-1.3,12.8-2.1,19.3c0,0.2-0.5,0.4-0.7,0.4c-0.3,0-0.6-0.2-0.9-0.4
		c-5.9-4.2-11.9-8.5-17.8-12.7c-0.9-0.6-1.3-1.4-1.1-2.5c0.8-7.9,1.6-15.8,2.4-23.7c0.5-4.9,0.9-9.9,1.4-14.8c0.1-1.3-0.2-2.3-1.2-3
		c-2.6-1.8-5.1-3.6-7.7-5.5c-0.6-0.5-1.3-0.4-1.7,0.2c-0.8,1.1-1.6,2.1-2.3,3.2c-5.3,7.4-10.6,14.8-15.9,22.2
		c-0.7,0.9-1.4,1.8-2.2,2.7c-0.2,0.2-0.6,0.1-0.9,0.1c-0.3-0.1-0.6-0.2-0.9-0.4c-5.4-3.9-10.8-7.7-16.2-11.6
		c-0.3-0.2-0.5-0.4-0.7-0.7c-0.1-0.3-0.3-0.7-0.2-0.9c0.4-0.7,0.8-1.4,1.3-2.1c18.4-25.7,36.8-51.4,55.2-77.2
		c0.7-0.9,1.4-1.9,2.1-2.8c0.3-0.4,0.7-0.6,1.2-0.3c0.7,0.5,1.4,0.9,2.1,1.3c12.9,9.2,25.9,18.5,38.8,27.8c2.4,1.7,4.7,3.6,6.8,5.8
		c1.9,2.1,3.6,4.3,4.9,6.8c2.6,5.1,2.9,10.5,1.5,15.9c-0.9,3.6-2.4,6.9-4.5,9.9c-2.6,3.8-5.3,7.6-8.1,11.3c-1.8,2.4-3.9,4.5-6.3,6.3
		c-1.6,1.2-3.3,2.2-5.1,3.1C1325.1,351.1,1322.2,351.7,1319.7,351.6z M1315,328.8c1.5,0,2.6-0.2,3.5-0.9c0.8-0.6,1.6-1.2,2.2-2
		c2.4-3.2,4.7-6.4,6.9-9.7c0.6-0.9,1-2.1,1.3-3.2c0.6-1.7,0-3.3-1.2-4.6c-0.7-0.7-1.5-1.3-2.3-1.9c-6.3-4.5-12.6-9.1-19-13.6
		c-0.5-0.4-1.1-0.8-1.7-1c-0.2-0.1-0.6,0-0.9,0.1c-0.3,0.1-0.5,0.4-0.7,0.7c-4.2,5.9-8.5,11.8-12.7,17.8c-0.1,0.1-0.2,0.3-0.2,0.4
		c0,0.3,0,0.7,0.2,0.9c0.4,0.5,0.9,0.9,1.4,1.3c6.5,4.6,12.9,9.2,19.4,13.8c0.5,0.4,1,0.9,1.6,1.1
		C1313.7,328.5,1314.5,328.7,1315,328.8z"/>
	<path class="st6" d="M588.9,469.8c-0.7-0.5-1.4-0.9-2-1.4c-21-18.3-41.9-36.6-62.9-54.9c-0.4-0.3-0.8-0.7-1.1-1
		c-1.1-1-1.2-1.5-0.3-2.5c0.5-0.6,1.1-1.3,1.6-1.9c10.1-11.6,20.3-23.2,30.4-34.8c1.5-1.7,3.2-3.4,4.8-5c2.4-2.3,5.1-4.2,8.2-5.5
		c5.4-2.4,10.8-2.7,16.4-0.7c3.6,1.3,7,3.1,9.9,5.5c3.7,3,7.3,6.3,10.8,9.5c2.2,2,4.1,4.4,5.6,6.9c1.5,2.4,2.6,5,3.1,7.8
		c0.8,4.2,0.4,8.2-1,12.2c-0.5,1.2-0.9,2.5-1.4,3.7c0.9,0.9,2.1,1,3.2,1.3c8.8,1.8,17.5,3.5,26.3,5.2c3.1,0.6,6.1,1.3,9.2,1.8
		c3,0.5,3.5,0.6,0.9,3.4c-4.1,4.6-8.1,9.2-12.1,13.8c-2.4,2.8-2,2.4-5.5,1.8c-4.2-0.7-8.4-1.6-12.7-2.5c-7.3-1.4-14.6-2.9-21.9-4.3
		c-1-0.2-2-0.3-3-0.3c-0.4,0-0.9,0.3-1.3,0.5c-0.4,0.3-0.7,0.7-1,1.1c-6.1,6.7-6.4,7.1-6,7.7c1.9,2.6,4.5,4.3,6.9,6.4
		c5.7,5.1,11.5,10,17.2,15.1c0.7,0.7,1.5,1.3,2.1,2.1c0.3,0.4,0.4,0.9,0,1.3c-3.6,4.1-6.9,8.4-10.9,12.2c0,0-0.1,0.2-0.1,0.2
		c0.1,0.3-0.1,0.5-0.4,0.5c-0.3,0.2-0.5,0.4-0.6,0.7l0,0.3c0,0-0.3,0-0.3,0c-0.2,0.3-0.5,0.5-0.7,0.8c-0.1,0.6-0.5,1-1.1,1.2
		c-0.5,0-1,0-1.6-0.1l-0.3,0c0,0,0-0.3,0-0.3c-0.2-0.2-0.5-0.5-0.7-0.7c-2.2-1.3-4-3.1-5.8-4.9c0,0,0.2,0,0.2,0
		c-0.2-0.2-0.5-0.4-0.7-0.6c-0.1-0.2-0.3-0.3-0.5-0.4l-0.3,0c0,0-0.1-0.3-0.1-0.3C589.4,470.1,589.2,469.9,588.9,469.8z
		 M590.8,398.9c-0.1-1-0.2-2-0.8-2.8c-0.7-0.9-1.3-1.9-2.1-2.7c-2.6-2.3-5.2-4.6-7.8-6.9c-1-0.8-2.2-1.5-3.4-2
		c-1.8-0.6-3.6-0.5-5.1,0.9c-0.5,0.4-1,0.9-1.4,1.4c-5.6,6.4-11.1,12.7-16.6,19.1c-0.7,0.8-0.6,1.4,0.1,2.1
		c4.7,4.1,9.5,8.3,14.2,12.4c0.9,0.8,1.8,1.5,2.7,2.2c0.4,0.3,1,0.3,1.3,0c0.5-0.5,0.9-0.9,1.4-1.4c5.1-5.9,10.2-11.7,15.3-17.6
		c0.5-0.6,1.1-1.3,1.6-1.9C590.6,400.9,590.8,399.9,590.8,398.9z"/>
	<path class="st6" d="M506,1006c-6.3,0.2-11.6-2.2-16-6.6c-0.9-0.9-1.8-1.9-2.7-2.9c-0.3-0.3-0.6-0.3-0.8-0.1
		c-0.7,0.9-1.5,1.8-2.2,2.7c-6.7,8.9-13.3,17.8-20,26.6c-0.9,1.2-1.8,2.3-2.8,3.5c-0.3,0.4-1,0.3-1.2-0.1c-0.8-1.8-1.6-3.6-2.4-5.4
		c-2.2-5-4.3-10-6.5-15c-0.4-1-0.4-1.9,0.2-2.8c0.8-1.1,1.6-2.1,2.4-3.2c6.3-8.4,12.5-16.7,18.8-25.1c0.9-1.2,1.8-2.4,2.6-3.6
		c0.4-0.5,0.6-1.2,0.3-1.8c-0.2-0.4-0.4-0.9-0.6-1.4c-3.1-7.5-3.8-8.8-4.4-8.7c-3.1,0.6-5.8,2.2-8.7,3.4c-7,2.9-14,6-21,9
		c-0.9,0.4-1.8,0.8-2.8,1.1c-0.6,0.2-0.9-0.2-1.2-0.6c-0.2-0.3-0.4-0.6-0.5-0.9c-0.3-0.6-0.5-1.2-0.8-1.8c-7-16.2-7.6-17.5-7.1-17.8
		c5.5-3.1,11.4-5.2,17.2-7.6c24.1-10.4,48.3-20.7,72.5-31.1c1.1-0.5,2.1-0.9,3.2-1.3c0.4-0.2,1.1,0.1,1.3,0.4
		c0.3,0.6,0.6,1.2,0.9,1.8c6.3,14.7,12.6,29.5,18.9,44.3c1.8,4.1,3.1,8.4,3.4,12.9c0.5,6.8-1.4,12.7-6.2,17.7
		c-1.9,1.9-3.9,3.6-6.2,4.9c-6.5,3.7-13.3,6.6-20.5,8.7C510.9,1005.8,508.5,1005.9,506,1006z M505.9,982.4c1.3-0.2,2.7-0.3,3.9-0.7
		c3.4-1.3,6.7-2.8,10-4.3c1.2-0.6,2.3-1.4,3.2-2.3c1.4-1.4,1.9-3.1,1.2-5c-0.4-1.1-0.8-2.2-1.2-3.2c-2.9-6.7-5.7-13.4-8.6-20
		c-0.3-0.6-0.5-1.2-0.8-1.8c-0.3-0.6-1.1-0.9-1.7-0.6c-6.7,2.9-13.4,5.7-20,8.6c-0.3,0.1-0.6,0.3-0.8,0.5c-0.2,0.2-0.3,0.5-0.3,0.8
		c0,0.3,0.2,0.6,0.3,0.9c3.3,7.8,6.6,15.5,9.9,23.2c0.2,0.5,0.4,0.9,0.6,1.3C502.4,981.3,503.8,982.3,505.9,982.4z"/>
	<path class="st6" d="M659.1,403.3c-3.9,0.2-7.5-0.9-10.9-2.8c-2.5-1.4-4.7-3.1-6.7-5.1c-1.5-1.5-3-3.1-4.3-4.8
		c-9.1-11.4-18.3-22.7-27.4-34.1c-1.8-2.2-3.4-4.5-4.7-7c-1.2-2.2-2.1-4.5-2.8-6.9c-1.5-5.4-0.9-10.5,1.5-15.5
		c1.3-2.7,3.1-5.1,5.2-7.3c1.6-1.7,3.3-3.3,5.1-4.7c5.8-4.7,11.6-9.4,17.4-14c3.5-2.8,7.3-5.2,11.6-6.7c6.9-2.4,13.4-1.7,19.5,2.1
		c1.7,1,3.3,2.2,4.7,3.6c2,1.9,3.9,4.1,5.7,6.2c0.6,0.7,0.5,1.4-0.2,2.2c-0.2,0.2-0.5,0.5-0.7,0.7c-4.7,4.2-9.3,8.5-14,12.7
		c-0.1,0.1-0.2,0.2-0.4,0.4c-0.8,0.7-1.5,0.7-2.1,0c-0.8-0.9-1.4-1.8-2.2-2.7c-0.7-0.7-1.4-1.4-2.2-2c-1.9-1.5-4.7-2.2-7.3-0.1
		c-5.5,4.5-11.1,8.9-16.7,13.4c-0.4,0.3-0.7,0.7-1.1,1c-0.8,0.7-1.1,1.7-1.2,2.7c-0.1,1.4,0.1,2.7,0.8,3.8c1,1.5,2,3.1,3.1,4.5
		c6.3,7.9,12.6,15.8,18.9,23.7c2.4,3,4.8,6,7.1,8.9c1.1,1.4,2.4,2.7,3.9,3.8c2.1,1.4,4.7,1.3,6.5-0.1c0.8-0.6,1.6-1.2,2.3-1.9
		c4.4-3.5,8.8-7,13.2-10.6c0.9-0.7,1.8-1.4,2.6-2.3c1.1-1.3,1.5-2.9,1-4.6c-0.5-1.6-1.3-3-2.3-4.4c-2.3-2.9-4.6-5.7-6.8-8.5
		c-0.6-0.7-1.4-0.8-2.1-0.2c-2.7,2.2-5.4,4.3-8.2,6.5c-1,0.8-2.1,1.7-3.1,2.5c-0.9,0.7-1.4,0.7-2.1,0c-2.7-2.9-5.4-5.8-8.1-8.7
		c-1.4-1.5-2.7-2.9-4-4.4c-0.5-0.6-0.5-1.2,0.1-1.7c0.5-0.4,1-0.9,1.5-1.3c9.4-7.6,18.9-15.1,28.3-22.7c0.5-0.4,1.1-0.8,1.6-1.2
		c0.3-0.2,1.1-0.2,1.4,0.1c0.4,0.5,0.9,1,1.3,1.5c6,7.5,12,15,18,22.5c2.2,2.7,4.2,5.6,5.7,8.7c1.5,3.2,2.5,6.5,2.7,10
		c0.2,4.2-0.7,8.2-2.8,11.9c-1.4,2.5-3.1,4.7-5.1,6.7c-1.5,1.5-3.1,3-4.8,4.3c-5.7,4.6-11.4,9.1-17,13.7c-2.7,2.2-5.6,4.1-8.8,5.6
		C666.3,402.4,662.9,403.5,659.1,403.3z"/>
	<path class="st6" d="M398.7,790.2c-0.2-3.3-0.4-6.6-0.5-9.9c-0.1-4.2,0.1-8.3,1.4-12.3c2-6.5,6.1-11.3,12.3-14.1
		c2.4-1.1,5-1.9,7.6-2.4c2.4-0.5,4.9-0.5,7.4-0.7c0.6,0,1.3,0.6,1.4,1.2c0.7,5.9,1.4,11.8,2.1,17.7c0.1,1.1,0.2,2.3,0.2,3.5
		c0,0.3-0.3,0.7-0.6,0.7c-1,0.2-2,0.2-3,0.3c-1.7,0-3.3,0.5-4.8,1.1c-2.1,0.8-3.4,2.7-3.5,5c0,0.8,0,1.7,0.1,2.5
		c0.3,4.8,0.5,9.6,0.8,14.4c0.1,2,0.3,4,0.5,5.9c0.2,2.2,1.6,3.6,3.6,4.3c0.5,0.2,0.9,0.4,1.4,0.4c3.6,0.3,7.3,0.3,10.8-0.7
		c0.3-0.1,0.6-0.2,0.9-0.3c2.2-0.8,3.5-2.6,3.4-5c-0.1-3.5-0.3-6.9-0.5-10.4c-0.2-4.8-0.5-9.6-0.7-14.4c-0.1-3.5,0.1-6.9,1.1-10.3
		c2-7.4,6.5-12.5,13.5-15.5c3.9-1.6,7.9-2.3,12.1-2.7c3.3-0.3,6.6-0.2,9.9-0.2c3.3,0,6.6,0.8,9.7,2c5.1,2,9,5.5,11.6,10.4
		c1.5,2.8,2.5,5.8,3,8.9c0.4,2.9,0.7,5.9,0.9,8.9c0.3,4.5,0.6,8.9,0.8,13.4c0.2,3.6,0.2,7.3,0.3,10.9c0.1,2.8-0.5,5.6-1.2,8.3
		c-2,6.9-6.2,12-12.9,14.8c-4.6,1.9-9.5,3-14.5,2.9c-0.7,0-1.2-0.4-1.3-1.2c-0.6-4.6-1.2-9.2-1.8-13.8c-0.3-2.1-0.5-4.3-0.8-6.4
		c-0.1-1.2,0.3-1.7,1.6-1.9c1.5-0.2,3-0.3,4.4-0.5c0.8-0.1,1.6-0.3,2.4-0.7c2.2-0.9,3.5-2.5,3.4-5c0-1.5-0.1-3-0.2-4.5
		c-0.3-6-0.7-11.9-1-17.9c-0.2-2.7-1.9-4.6-4.7-5c-3.5-0.6-6.9-0.2-10.4,0.3c-1,0.1-1.9,0.6-2.8,1.1c-1.4,0.7-2.3,1.9-2.4,3.5
		c-0.1,1-0.1,2,0,3c0.4,6.4,0.7,12.9,1.1,19.3c0.2,4,0.1,7.9-0.7,11.9c-1.7,8.7-6.6,14.7-14.9,17.7c-2.8,1-5.7,1.8-8.7,2
		c-2.3,0.2-4.6,0.4-6.9,0.6c-4.7,0.3-9.3-0.2-13.7-1.6c-6.4-2-10.9-6.1-13.6-12.2c-1.6-3.7-2.6-7.5-2.9-11.5
		C399.2,800.8,399,795.5,398.7,790.2C398.7,790.2,398.7,790.2,398.7,790.2z"/>
	<path class="st6" d="M832.4,201.1c1.6,0.1,3.7,0.1,5.8,0.6c4.1,1.1,7.6,3.2,10.5,6.3c1.5,1.6,2.7,3.3,3.8,5.2
		c1.9,3.2,3.2,6.5,4.2,10c0.2,0.5-0.1,0.9-0.6,1.3c-0.1,0.1-0.3,0.2-0.4,0.3c-6.3,2.5-12.6,4.9-18.9,7.4c-0.3,0.1-0.7,0.3-1,0.2
		c-0.3,0-0.7-0.2-0.8-0.4c-0.4-0.9-0.7-1.8-1.1-2.7c-0.7-1.7-1.3-3.4-2.5-4.8c-1.4-1.5-3.1-2.4-5.3-1.7c-5.2,1.7-10.4,3.3-15.6,5
		c-1.7,0.6-3.5,1-5.2,1.6c-0.8,0.3-1.5,0.6-2.2,1.1c-1,0.7-1.7,1.7-1.8,2.9c-0.1,1.3-0.2,2.7,0.1,4c0.6,2.9,1.5,5.8,2.9,8.4
		c0.1,0.1,0.1,0.3,0.2,0.4c1.6,2.7,3.7,3.6,6.7,2.8c2.4-0.6,4.7-1.4,7.1-2.2c4.3-1.4,8.5-2.7,12.7-4.1c2.7-0.9,5.4-1.6,8.2-2.1
		c3.6-0.6,7.2-0.6,10.9,0.2c5.1,1.1,9.1,3.8,12.4,7.8c1.9,2.3,3.4,4.9,4.6,7.6c1.8,4.1,3.1,8.4,4.1,12.7c0.7,3.1,1,6.2,0.8,9.4
		c-0.3,5.7-2.4,10.6-6.5,14.6c-2,2-4.3,3.7-6.8,4.9c-2.2,1.1-4.5,2.2-6.8,2.9c-7.7,2.5-15.4,4.9-23.1,7.4c-4.3,1.4-8.7,1.9-13.2,1.7
		c-5.2-0.3-9.6-2.2-13.4-5.7c-0.2-0.2-0.5-0.5-0.7-0.7c-4.5-4.5-6.9-10.1-8.6-16c-0.1-0.2,0.2-0.6,0.4-0.9c0.1-0.1,0.2-0.3,0.4-0.3
		c6.6-2.6,13.3-5.1,19.9-7.7c0.4-0.2,1,0.1,1.2,0.6c0.3,0.6,0.5,1.2,0.7,1.8c0.4,1.1,0.7,2.2,1.3,3.2c0.4,0.9,1,1.7,1.7,2.5
		c1.3,1.4,2.9,2.1,4.9,1.6c1-0.3,1.9-0.5,2.9-0.8c5.7-1.8,11.3-3.7,17-5.5c0.9-0.3,1.9-0.6,2.8-1.1c1.4-0.7,2.3-1.9,2.5-3.5
		c0.1-0.5,0.1-1,0.1-1.5c0-3.1-2-9.1-3.7-11.7c-1.4-2-3.2-2.8-5.6-2.3c-1,0.2-1.9,0.5-2.9,0.8c-6,1.9-12,3.7-18,5.7
		c-2.8,1-5.7,1.6-8.7,2.1c-4,0.7-7.9,0.5-11.8-0.7c-4.1-1.2-7.4-3.6-10.2-6.8c-2.2-2.5-3.8-5.4-5.2-8.4c-2-4.7-3.6-9.6-4.5-14.7
		c-0.7-3.9-0.7-7.9,0.3-11.8c1-3.8,2.9-7,5.6-9.8c2-2,4.3-3.7,6.8-5c2.2-1.1,4.5-2.2,6.8-3c7.7-2.6,15.4-5,23.1-7.4
		c3.5-1.1,7.1-1.8,10.7-1.8C831.5,201.1,831.7,201.1,832.4,201.1z"/>
	<path class="st6" d="M970.4,209.5c-3.1,0.5-6.4,1-9.7,1.5c-0.9,0.1-1.6-0.3-1.7-1.3c-0.2-1.3-0.4-2.6-0.5-3.9
		c-0.1-1.4-0.6-2.6-1.2-3.8c-0.9-1.7-2.4-2.8-4.4-2.7c-1,0-2,0-3,0.1c-6.4,0.6-12.9,1.1-19.3,1.7c-0.3,0-0.7,0.1-1,0.1
		c-2,0.3-3.3,1.5-3.9,3.4c-0.4,1.3-0.6,2.6-0.6,3.9c0.1,2.5,0.4,5,0.7,7.4c0.1,1,0.6,1.9,1,2.8c0.9,1.7,2.4,2.8,4.4,2.7
		c3.5-0.2,6.9-0.4,10.4-0.7c5-0.4,9.9-0.9,14.9-1.2c4.3-0.3,8.6,0.3,12.7,1.7c5.4,1.8,9.5,5.3,12.2,10.3c2.1,3.8,3.2,8,3.8,12.3
		c0.3,2.3,0.5,4.6,0.7,6.9c0.3,4.5-0.1,8.9-1.4,13.3c-2,6.6-6.2,11.2-12.4,14c-3.5,1.6-7.2,2.6-11,2.9c-6.6,0.6-13.2,1.2-19.8,1.8
		c-4.1,0.3-8.3,0.5-12.4,0.3c-2.5-0.1-4.9-0.7-7.3-1.5c-5.6-1.9-9.8-5.5-12.5-10.7c-1.8-3.4-2.8-7.1-3.4-10.8
		c-0.2-1.6-0.3-3.3-0.4-4.9c0-0.5,0.4-0.9,0.9-1c0.6-0.2,1.3-0.4,1.9-0.5c5.7-0.8,11.5-1.7,17.2-2.5c0.7-0.1,1.3-0.1,2-0.1
		c0.4,0,1.1,0.5,1.1,0.8c0.1,0.7,0.1,1.3,0.2,2c0.2,1.3,0.4,2.6,0.7,3.9c1,4,3.3,5.1,6.9,4.8c6.4-0.6,12.9-1,19.3-1.5
		c0.5,0,1-0.1,1.5-0.1c3-0.5,4.8-1.8,5.2-5.7c0.3-3.5,0.1-7-0.9-10.3c-0.2-0.6-0.5-1.2-0.8-1.8c-1-1.7-2.4-2.7-4.4-2.7
		c-1.2,0-2.3,0.1-3.5,0.2c-5.6,0.5-11.2,1.1-16.8,1.5c-3.1,0.2-6.3,0.2-9.4,0.2c-3,0-5.9-0.7-8.7-1.8c-5.4-2-9.3-5.6-12-10.6
		c-1.3-2.5-2.3-5.2-2.8-7.9c-1.2-6-1.6-12.1-1.1-18.3c0.2-3,1-5.9,2.2-8.6c2-4.6,5.3-7.9,9.7-10.3c2.5-1.4,5.2-2.3,7.9-2.9
		c2.1-0.5,4.2-0.8,6.4-1c4-0.4,7.9-0.7,11.9-1c3.6-0.3,7.3-0.6,10.9-0.9c5.2-0.4,10.2-0.1,15.2,1.6c5.4,1.9,9.4,5.3,12.2,10.3
		c0.4,0.7,0.8,1.5,1.1,2.2c1.8,4.3,2.7,8.9,3,13.5c0.1,0.9-0.5,1.6-1.4,1.7C977.5,208.5,974.1,209,970.4,209.5z"/>
	<path class="st6" d="M829.3,1241.7c0,5.3-1.6,10.2-3.7,14.9c-0.3,0.6-1,0.9-1.7,0.7c-6.4-2.2-12.8-4.4-19.2-6.6
		c-1.1-0.4-1.7-0.9-1.2-2.2c0.4-1.1,0.9-2.1,1.3-3.2c0.6-1.6,0.7-3.2,0.6-4.9c-0.1-1.4-0.8-2.5-2-3.3c-0.8-0.6-1.7-1-2.6-1.3
		c-6-2.5-11.9-4.9-17.9-7.3c-0.6-0.2-1.2-0.6-1.8-0.7c-1.9-0.4-3.6,0-5,1.5c-0.5,0.5-0.9,1-1.3,1.5c-1.9,3.2-3.3,6.5-4,10.1
		c-0.2,1.2,0,2.3,0.4,3.4c0.4,1,1.1,1.7,1.9,2.2c0.9,0.5,1.8,0.8,2.7,1.2c5.7,2.3,11.3,4.6,17,7c2.3,1,4.6,2,6.7,3.1
		c2.8,1.5,5.3,3.3,7.6,5.6c4,4.1,6.2,8.9,6.4,14.7c0.1,3.9-0.4,7.6-1.6,11.3c-1.3,3.9-2.9,7.8-4.8,11.4c-1.7,3.3-3.8,6.2-6.5,8.8
		c-3.9,3.7-8.5,5.7-13.8,5.9c-4.2,0.2-8.3-0.3-12.2-1.8c-9.3-3.5-18.5-7.3-27.5-11.3c-2.9-1.3-5.5-3-7.9-5.1
		c-3.3-2.9-5.8-6.4-7-10.6c-0.3-1.1-0.5-2.3-0.7-3.4c-0.5-4.7,0.1-9.3,1.6-13.7c0.5-1.6,1.1-3.1,1.7-4.6c0.3-0.8,1-1.1,2-0.8
		c5.5,1.8,11,3.6,16.4,5.6c4.6,1.7,4.6,0.7,2.7,5.6c-0.5,1.4-0.9,2.9-1,4.3c-0.2,2.3,0.8,4.2,3,5.2c0.8,0.3,1.5,0.6,2.3,1
		c5.3,2.2,10.7,4.4,16,6.6c0.9,0.4,1.8,0.8,2.8,1c2.3,0.7,4.2,0,5.8-1.9c0.2-0.3,0.4-0.5,0.6-0.8c1.8-3,3.3-6.1,3.9-9.6
		c0.2-1,0.2-2,0.1-3c-0.1-1.4-0.9-2.5-2.1-3.2c-1-0.6-2.1-1.1-3.1-1.5c-5.6-2.3-11.3-4.6-17-7c-2.3-1-4.5-2-6.7-3.2
		c-2.2-1.1-4.2-2.6-6.1-4.3c-6-5.4-8.4-12.1-7.5-20.1c0.4-3.1,1.1-6.2,2.2-9.1c1.2-3.3,2.5-6.5,4.1-9.6c1.6-2.9,3.4-5.7,5.8-8
		c4.3-4.3,9.5-6.5,15.6-6.5c4.7,0,9.2,1.1,13.5,2.8c6.7,2.7,13.5,5.5,20.2,8.3c2.1,0.9,4.2,1.9,6.3,2.9c2.4,1.2,4.5,2.7,6.5,4.5
		C826.9,1228.9,829.6,1234.7,829.3,1241.7z"/>
	<path class="st6" d="M1569.3,881.1c0.2,3.5-0.5,6.9-1.3,10.3c-1.6,6.9-3.2,13.9-4.9,20.8c-1,4.2-2.4,8.2-4.8,11.9
		c-3,4.8-7.1,8.3-12.6,9.9c-4,1.2-8.1,1.5-12.3,0.8c-3.1-0.5-6.2-1.1-9.3-1.8c-12.6-2.9-25.1-5.9-37.7-8.8c-2.3-0.5-4.5-1.2-6.7-1.9
		c-2.4-0.8-4.6-1.8-6.7-3.1c-7.1-4.3-10.7-10.6-11.2-18.8c-0.3-4,0.4-7.9,1.2-11.8c1.5-6.9,3.2-13.9,4.9-20.8
		c0.5-2.1,1.1-4.2,1.8-6.2c0.6-1.7,1.3-3.4,2.2-5c4.5-8.4,11.5-12.5,20.9-12.7c3.5-0.1,6.9,0.5,10.3,1.3c14,3.2,28,6.5,42,9.8
		c2.9,0.7,5.8,1.5,8.5,2.7c2.8,1.2,5.4,2.6,7.7,4.5c4.8,4.1,7.4,9.2,7.8,15.5C1569.4,878.8,1569.3,879.9,1569.3,881.1z
		 M1535.9,911.3c1.5,0,2,0,2.5,0c2.2-0.2,3.7-1.3,4.5-3.4c0.2-0.6,0.4-1.3,0.5-1.9c1.4-5.8,2.7-11.6,4.1-17.4
		c0.3-1.1,0.6-2.2,0.8-3.4c0.3-2.2-0.5-3.9-2.3-5.1c-1.2-0.9-2.6-1.4-4.1-1.8c-3.1-0.7-6.1-1.5-9.2-2.2c-11.4-2.7-22.9-5.3-34.3-8.1
		c-1.8-0.4-3.6-0.6-5.4-0.5c-2.2,0.2-3.7,1.2-4.5,3.4c-0.2,0.6-0.5,1.2-0.6,1.9c-1.6,6.8-3.1,13.5-4.7,20.3
		c-0.6,2.5,0.3,4.6,2.6,5.9c1.1,0.6,2.4,1.1,3.7,1.5c3,0.8,6.1,1.5,9.2,2.2c11.4,2.7,22.9,5.4,34.3,8
		C1534.2,911.1,1535.6,911.3,1535.9,911.3z"/>
	<path class="st6" d="M1226.2,1204.8c0.1-3.4,0.9-6.5,2.4-9.5c1.2-2.4,2.8-4.5,4.6-6.4c2.2-2.3,4.6-4.3,7.3-6
		c6.7-4.3,13.3-8.6,20.1-12.8c2.1-1.3,4.4-2.3,6.6-3.4c2.9-1.4,6-2,9.1-2.3c4.6-0.4,8.8,0.8,12.8,3.2c2.4,1.5,4.6,3.3,6.4,5.4
		c1.8,2.1,3.6,4.4,5.1,6.7c7.8,12.1,15.5,24.2,23.3,36.4c1.5,2.4,2.9,4.8,4,7.4c1.1,2.6,1.9,5.3,2.3,8.1c0.7,4.9-0.4,9.5-2.9,13.8
		c-1.5,2.6-3.4,4.9-5.7,6.8c-2,1.7-4.1,3.3-6.3,4.8c-6.2,4.1-12.5,8.1-18.8,12.1c-2.1,1.3-4.4,2.4-6.6,3.5c-2.8,1.4-5.9,2-9.1,2.5
		c-3.2,0.4-6.3-0.2-9.3-1.2c-3-1-5.6-2.8-8-4.9c-2.9-2.6-5.2-5.5-7.3-8.7c-8-12.4-15.9-24.8-23.8-37.2c-2-3.1-3.7-6.3-4.8-9.8
		C1226.8,1210.4,1226.2,1207.7,1226.2,1204.8z M1250,1203.7c0,1.2,0.1,2.3,0.6,3.4c0.9,1.6,1.7,3.2,2.6,4.8
		c7.2,11.3,14.5,22.6,21.7,33.9c0.7,1.1,1.4,2.2,2.2,3.3c0.8,1.1,1.7,2,2.9,2.7c1.5,0.9,3.1,1.1,4.7,0.3c0.7-0.4,1.4-0.8,2.1-1.3
		c5.3-3.4,10.6-6.8,15.9-10.2c0.7-0.4,1.4-0.9,2-1.4c1.5-1.3,2.1-3,1.7-4.9c-0.2-1.1-0.6-2.2-1.2-3.3c-0.7-1.3-1.5-2.6-2.3-3.8
		c-7.1-11-14.1-22-21.2-33c-0.8-1.3-1.6-2.5-2.5-3.7c-0.8-1.1-1.7-2-2.9-2.7c-1.5-0.9-3.1-1.1-4.7-0.3c-0.6,0.3-1.2,0.6-1.7,1
		c-5.6,3.6-11.2,7.1-16.7,10.7c-0.8,0.5-1.6,1.2-2.3,1.9C1250.4,1201.7,1250,1202.6,1250,1203.7z"/>
	<path class="st6" d="M964.7,1302.3c-0.2-6.9-0.5-13.9-0.6-20.8c-0.1-4,0.2-7.9,1.2-11.8c2.2-8.2,7.4-13.5,15.4-16.1
		c3.6-1.2,7.4-1.8,11.2-1.9c2.6-0.1,5.3-0.1,7.9-0.2c4-0.1,7.9-0.2,11.9-0.4c3.8-0.2,7.6-0.1,11.4,0.4c2.8,0.4,5.5,1.2,8,2.4
		c4.3,2.1,7.6,5.2,9.8,9.5c1.5,2.8,2.5,5.8,3,8.9c0.4,2.8,0.7,5.6,0.8,8.4c0.5,13.6,0.9,27.1,1.3,40.7c0.1,2.6,0,5.3-0.1,7.9
		c-0.1,2.7-0.7,5.2-1.5,7.8c-2.5,7.7-7.8,12.5-15.5,14.8c-4.1,1.3-8.4,1.7-12.7,1.9c-7.1,0.2-14.2,0.4-21.3,0.6
		c-2.1,0-4.3-0.2-6.4-0.3c-2.5-0.1-4.9-0.8-7.2-1.6c-6.1-2.2-10.4-6.3-13-12.2c-1.7-3.8-2.4-7.9-2.8-12c0-0.5,0-1-0.1-1.5
		C965.3,1318.5,965,1310.4,964.7,1302.3C964.7,1302.3,964.7,1302.3,964.7,1302.3z M988.4,1302.5c-0.1,0-0.1,0-0.2,0
		c0.3,7.4,0.6,14.9,0.9,22.3c0.1,1.5,0.2,3,0.5,4.4c0.7,3,2.7,4.5,5.7,4.6c0.5,0,1,0,1.5,0c6.6-0.2,13.2-0.5,19.8-0.7
		c0.3,0,0.7,0,1-0.1c2.2-0.2,4-1.8,4.5-4c0.5-1.9,0.7-3.9,0.5-5.9c-0.2-3.1-0.3-6.3-0.4-9.4c-0.4-11.1-0.7-22.2-1.1-33.2
		c0-0.8,0-1.7-0.2-2.5c-0.3-1.3-0.6-2.6-1.2-3.8c-0.8-1.6-2.1-2.5-3.9-2.7c-0.8-0.1-1.7-0.1-2.5,0c-6.8,0.3-13.6,0.5-20.3,0.8
		c-0.3,0-0.7,0.1-1,0.1c-1.6,0.2-2.8,1.1-3.5,2.5c-0.7,1.3-1.1,2.8-1.1,4.3c0,1.5,0,3,0,4.5C987.8,1289.9,988.1,1296.2,988.4,1302.5
		z"/>
	<path class="st6" d="M1051.3,200.8c-7.6-0.7-15.2-1.3-22.8-1.9c-1.5-0.1-2.1,0.4-2.2,1.9c-0.5,5.4-0.9,10.9-1.3,16.3
		c-0.1,1.5,0.2,1.9,1.5,2c2.1,0.2,4.3,0.5,6.4,0.7c5.3,0.5,10.6,0.9,15.8,1.3c4.8,0.4,9.6,0.8,14.3,1.3c1,0.1,2,0.3,2.9,0.5
		c0.6,0.1,0.9,0.6,0.9,1c-0.5,6.1-0.8,12.2-1.7,18.3c-0.1,0.6-0.6,0.8-1,0.9c-0.3,0.1-0.7,0-1,0c-1.2-0.1-2.3-0.1-3.5-0.2
		c-5.3-0.5-10.5-1-15.8-1.5c-6.4-0.6-12.9-1.1-19.3-1.6c-0.9-0.1-1.6,0.5-1.8,1.3c0,0.2-0.1,0.3-0.1,0.5c-0.5,5.6-1,11.2-1.5,16.8
		c0,0.2,0,0.3,0,0.5c0,0.4,0.5,0.9,0.9,1c1.8,0.2,3.6,0.5,5.4,0.7c5.3,0.5,10.6,0.9,15.8,1.4c5.4,0.5,10.9,1,16.3,1.5
		c2.3,0.2,4.6,0.4,6.9,0.6c1,0.1,2,0.2,2.9,0.4c0.4,0.1,0.7,0.6,0.9,1c0.1,0.3,0.1,0.6,0,1c-0.5,5.1-1,10.2-1.5,15.3
		c-0.3,3.1-0.2,3.2-3.6,2.9c-5.3-0.5-10.5-1-15.8-1.5c-3.8-0.4-7.6-0.7-11.4-1c-4.9-0.4-9.9-0.8-14.8-1.3
		c-5.9-0.5-11.9-1.1-17.8-1.6c-2.1-0.2-4.3-0.3-6.4-0.5c-0.7-0.1-1.3-0.1-2-0.2c-0.5-0.1-1.3-1-1.2-1.4c0.2-3.3,0.5-6.6,0.8-9.9
		c0.5-5.3,1-10.5,1.5-15.8c0.6-6.6,1.2-13.2,1.8-19.8c0.5-5.3,0.9-10.6,1.3-15.8c0.5-5.4,1-10.9,1.5-16.3c0.5-5.3,0.9-10.6,1.4-15.8
		c0.1-1.5,0.2-3,0.4-4.5c0.3-2.8,0.5-3.1,3.4-2.8c5.4,0.5,10.9,0.9,16.3,1.4c5.1,0.5,10.2,1,15.3,1.5c6.9,0.6,13.8,1.3,20.8,1.9
		c4.9,0.4,9.9,0.8,14.8,1.3c0.5,0,1,0,1.5,0.2c0.4,0.2,0.8,0.5,1,0.9c0.2,0.2,0.1,0.6,0.1,1c-0.5,5.4-0.9,10.9-1.4,16.3
		c0,0.5-0.2,1-0.3,1.4c-0.1,0.4-0.7,0.9-1.1,0.8c-4-0.3-7.9-0.7-11.9-1C1059.2,201.7,1055.2,201.3,1051.3,200.8
		C1051.3,200.9,1051.3,200.9,1051.3,200.8z"/>
	<path class="st6" d="M462.3,912.7c-0.6,0.1-1.3,0.3-1.9,0.3c-0.3,0-0.7-0.2-0.8-0.4c-0.5-1.6-0.9-3.2-1.3-4.8
		c-2.7-11.3-5.3-22.6-7.9-33.8c-0.1-0.3-0.1-0.7-0.3-0.9c-0.3-0.3-0.8-0.7-1.2-0.7c-0.6-0.1-1.3,0.1-2,0.2
		c-4.8,1.1-9.7,2.2-14.5,3.4c-0.5,0.1-1,0.3-1.4,0.5c-0.5,0.2-0.8,0.5-0.8,1.1c0.1,0.8,0.2,1.6,0.4,2.5c3.1,13.2,6.2,26.4,9.3,39.6
		c0.3,1.4,0.7,2.9,1,4.4c0.1,0.5-0.2,1.1-0.6,1.2c-0.3,0.1-0.6,0.2-0.9,0.3c-5.5,1.3-10.9,2.6-16.4,3.9c-0.2,0-0.3,0-0.5,0.1
		c-0.6,0.1-1.4-0.4-1.6-0.9c-0.1-0.3-0.2-0.6-0.3-0.9c-5.2-22.4-10.5-44.8-15.7-67.2c-0.1-0.3-0.1-0.6-0.2-1c-0.1-0.3,0.4-1,0.8-1.2
		c0.3-0.1,0.6-0.3,0.9-0.4c13.2-3.1,26.4-6.1,39.6-9.2c16.3-3.8,32.5-7.6,48.8-11.5c2.7-0.6,5.5-1.3,8.2-1.9
		c0.9-0.2,1.6,0.2,1.8,1.2c2.3,10,4.7,20,7,30c2.9,12.4,5.8,24.8,8.7,37.2c0.1,0.5,0.2,1,0.3,1.5c0.1,0.7-0.3,1.2-1,1.5
		c-0.3,0.1-0.6,0.3-0.9,0.3c-5.2,1.2-10.3,2.4-15.5,3.5c-0.5,0.1-1,0.2-1.5,0.2c-0.3,0-0.7-0.2-0.8-0.4c-0.4-1.1-0.8-2.2-1-3.3
		c-3.1-13.2-6.1-26.4-9.2-39.6c-0.1-0.6-0.3-1.3-0.5-1.9c-0.7-2.9-0.7-2.9-3.6-2.2c-5.1,1.3-10.3,2.4-15.5,3.6
		c-0.9,0.2-1.4,1-1.2,1.9c1.1,4.8,2.2,9.7,3.4,14.5c1.8,7.6,3.6,15.1,5.4,22.7c0.1,0.5,0.2,1,0.2,1.5c0.1,0.6-0.4,1.4-0.9,1.6
		c-2.1,0.5-4.2,1-6.3,1.5C468.8,911.2,465.5,911.9,462.3,912.7z"/>
	<path class="st6" d="M715.7,1265c-0.1,0.3-0.2,0.6-0.4,0.9c-3.1,4.9-6.1,9.8-9.2,14.7c-0.1,0.1-0.2,0.3-0.3,0.4
		c-0.4,0.6-1.1,0.8-1.7,0.4c-0.7-0.4-1.4-0.8-2.1-1.3c-18.7-11.6-37.4-23.3-56-34.9c-0.7-0.4-1.4-0.9-2-1.4
		c-0.4-0.3-0.6-0.9-0.4-1.3c0.3-0.6,0.6-1.2,1-1.7c16.9-27.1,33.8-54.2,50.7-81.3c0.5-0.8,1.1-1.6,1.7-2.4c0.2-0.3,0.9-0.5,1.3-0.2
		c0.7,0.4,1.4,0.8,2.1,1.2c18.7,11.6,37.4,23.3,56,35c0.8,0.5,1.6,1.1,2.4,1.7c0.2,0.1,0.2,0.5,0.2,0.8c0,0.1-0.1,0.3-0.2,0.5
		c-3.1,5.1-6.3,10.1-9.4,15.2c-0.5,0.7-1.3,0.9-2.1,0.4c-1-0.6-2-1.2-2.9-1.8c-7.9-4.9-15.7-9.8-23.6-14.7
		c-4.4-2.7-8.7-5.4-13.1-8.1c-0.9-0.6-1.6-0.4-2.1,0.4c-3.2,5-6.3,10.1-9.5,15.2c-0.2,0.4-0.1,1.1,0.2,1.3c0.8,0.6,1.6,1.2,2.4,1.7
		c9.1,5.7,18.3,11.4,27.4,17.1c1.4,0.9,2.8,1.8,4.2,2.7c0.9,0.6,1,1,0.4,2.1c-2.3,3.8-4.7,7.6-7.1,11.4c-0.8,1.3-1.6,2.5-2.5,3.7
		c-0.2,0.3-0.7,0.8-1.2,0.4c-0.4-0.3-0.9-0.5-1.3-0.7c-1.1-0.7-2.2-1.4-3.4-2.1c-8.7-5.4-17.4-10.9-26.1-16.3
		c-1.1-0.7-2.3-1.4-3.4-2.1c-0.6-0.4-1.4-0.2-1.8,0.3c-0.3,0.4-0.6,0.8-0.8,1.2c-2.8,4.5-5.6,9-8.4,13.5c-0.8,1.2-1.1,1.5,0.8,2.7
		c1.1,0.7,2.2,1.4,3.4,2.1c11.1,6.9,22.2,13.8,33.3,20.8c1.1,0.7,2.2,1.5,3.2,2.3C715.6,1264.7,715.6,1264.9,715.7,1265z"/>
	<path class="st6" d="M786.4,311c0,4.2-1.2,8.2-3.5,11.7c-1.6,2.5-3.7,4.7-6,6.6c-2.2,1.8-4.5,3.3-7,4.6
		c-6.7,3.6-13.4,7.2-20.1,10.8c-3.7,2-7.5,3.4-11.6,4.2c-6.2,1.2-11.8,0-17-3.5c-2.3-1.6-4.3-3.6-6.1-5.8c-2.1-2.6-3.7-5.5-5.3-8.4
		c-8.6-16-17.3-32.1-25.9-48.1c-2.5-4.7-5-9.3-7.5-14c-0.4-0.7-0.2-1.4,0.4-1.7c0.9-0.5,1.7-1,2.6-1.5c5.2-2.8,10.5-5.6,15.8-8.4
		c1-0.5,1.4-0.4,2,0.6c0.3,0.4,0.5,0.8,0.8,1.3c1,1.9,2,3.8,3.1,5.7c9.6,17.9,19.3,35.8,28.9,53.8c0.8,1.5,1.5,2.9,2.5,4.3
		c0.7,1.1,1.7,2.1,2.7,2.9c1.2,0.9,2.7,1.3,4.2,0.7c0.9-0.4,1.8-0.7,2.7-1.2c5.5-3,11.1-5.9,16.6-8.9c0.9-0.5,1.8-1,2.5-1.6
		c1.1-0.9,1.6-2,1.6-3.5c0-1.2-0.1-2.3-0.6-3.4c-0.9-1.8-1.7-3.6-2.6-5.4c-10.3-19.1-20.5-38.2-30.8-57.3c-0.5-1-1.1-2-1.7-3
		c-0.6-1.2-0.4-1.9,0.6-2.5c0.7-0.4,1.5-0.8,2.2-1.2c5.2-2.8,10.5-5.7,15.7-8.5c0.8-0.4,1.5-0.2,2,0.7c0.2,0.4,0.5,0.9,0.7,1.3
		c0.4,0.7,0.8,1.4,1.2,2.2c10.4,19.2,20.7,38.5,31,57.7c1.3,2.5,2.6,5,3.7,7.6C785.5,303.4,786.5,307.1,786.4,311z"/>
	<path class="st6" d="M1219.3,332.7c-3.8,0.1-7.3-0.8-10.7-2c-1.5-0.6-3.1-1.2-4.6-1.9c-6.8-3.1-13.5-6.3-20.2-9.5
		c-2.2-1.1-4.4-2.4-6.5-3.7c-2.2-1.4-4.2-3.2-6-5.2c-3.3-3.8-5.1-8.1-5.3-13.1c-0.2-4,0.4-7.9,1.8-11.7c0.7-2,1.6-4,2.5-6
		c9.8-21,19.7-41.9,29.5-62.9c0.3-0.6,0.6-1.2,0.9-1.8c0.2-0.4,0.9-0.7,1.3-0.5c1.2,0.5,2.4,1.1,3.6,1.7c4.8,2.3,9.6,4.5,14.4,6.8
		c0.4,0.2,0.9,0.4,1.4,0.6c0.5,0.3,0.8,1.2,0.5,1.7c-4.1,8.7-8.2,17.4-12.2,26.1c-5.9,12.6-11.8,25.2-17.7,37.7
		c-0.8,1.8-1.7,3.6-2,5.6c-0.2,1-0.2,2,0.1,2.9c0.3,1.2,1,2.1,2,2.8c0.7,0.5,1.4,0.8,2.2,1.2c5.8,2.7,11.7,5.5,17.5,8.2
		c0.3,0.1,0.6,0.2,0.9,0.4c2.9,1.4,5.1,0.3,6.7-1.4c1.2-1.4,2.1-3,2.8-4.6c3-6.4,6-12.9,9.1-19.3c6.8-14.4,13.5-28.7,20.3-43.1
		c0.4-0.7,0.7-1.5,1.1-2.2c0.2-0.4,0.9-0.6,1.3-0.5c0.3,0.1,0.6,0.2,0.9,0.3c5.8,2.7,11.7,5.5,17.5,8.2c0.4,0.2,0.9,0.5,1.2,0.8
		c0.2,0.2,0.3,0.6,0.2,0.9c-0.2,0.8-0.6,1.5-0.9,2.3c-9.9,21-19.7,41.9-29.6,62.9c-1.1,2.2-2.3,4.4-3.6,6.5
		c-1.4,2.3-3.1,4.3-5.1,6.1C1230.3,330.8,1225.2,332.9,1219.3,332.7z"/>
	<path class="st6" d="M597.5,480.5c-0.1,0.3-0.1,0.7-0.3,0.9c-3.2,5.4-6.4,10.8-9.6,16.2c-0.6,1-1.5,1.3-2.5,1.1
		c-2.4-0.5-4.9-0.9-7.3-1.4c-0.3-0.1-0.6-0.2-1-0.3c-6.3-1.1-4.8-1.8-8.1,3.6c-5,8.2-9.8,16.5-14.7,24.7c-0.6,1-1.1,2-1.6,3.1
		c-0.1,0.2,0,0.7,0.1,0.9c0.7,0.9,1.4,1.8,2.1,2.7c2.3,3,5.3,5.5,7,8.9c-1.8,3.1-3.6,6.3-5.5,9.4c-1.3,2.3-2.7,4.5-4.1,6.8
		c-2.1,3.6-1.9,4.1-4.9,0.5c-1.7-2-3.4-4-5.1-6.1c-19.8-23.3-39.6-46.7-59.5-70c-0.9-1-1.7-2.1-2.4-3.1c-0.2-0.2-0.1-0.6-0.1-0.9
		c0-0.3,0.2-0.6,0.4-0.9c3.7-6.3,7.5-12.5,11.2-18.7c0.6-1,1.3-1.2,2.5-1c3.4,0.7,6.8,1.4,10.2,2.1c12.5,2.6,24.9,5.2,37.4,7.8
		c15,3.2,30.1,6.4,45.1,9.5c3.6,0.7,7.2,1.3,10.6,2.4C597.5,479.4,597.5,480,597.5,480.5z M531.8,487.7
		C531.8,487.7,531.8,487.7,531.8,487.7c-2.4-0.5-4.8-1.1-7.2-1.6c-3.1-0.6-6.1-1.2-9.2-1.8c-0.1,0-0.3,0.1-0.4,0.2
		c-0.1,0.1-0.1,0.3,0,0.5c0.1,0.3,0.3,0.6,0.5,0.8c7,8.3,14.1,16.6,21.2,24.9c0.1,0.1,0.2,0.3,0.3,0.4c0.5,0.5,1.3,0.5,1.7-0.1
		c3.6-6.1,7.3-12.2,10.9-18.3c0.1-0.1,0.2-0.3,0.1-0.5c-0.1-0.3-0.2-0.6-0.4-0.8c-0.4-0.3-0.9-0.4-1.4-0.5
		C542.5,489.9,537.1,488.8,531.8,487.7z"/>
	<path class="st6" d="M1446.7,1139.5c-0.2,0.4-0.3,0.8-0.5,1c-4.2,5.6-8.3,11.1-12.5,16.7c-0.4,0.6-1.3,0.6-1.7,0
		c-0.9-1.2-1.7-2.5-2.5-3.7c-14-20.7-28.1-41.4-42.1-62.1c-4.3-6.3-8.6-12.6-12.8-18.9c-0.7-1-1.3-1.9-1.9-2.9
		c-0.5-0.8-0.4-1.6,0.2-2.3c0.4-0.5,0.8-1.1,1.2-1.6c3.6-4.8,7.2-9.5,10.7-14.3c0.5-0.7,1-1.3,1.5-2c0.5-0.6,1.1-0.8,1.8-0.5
		c7.4,2.4,14.8,4.8,22.2,7.2c24.9,8.1,49.7,16.1,74.6,24.2c1.4,0.5,2.8,0.9,4.2,1.4c0.4,0.1,0.6,0.9,0.4,1.3c-0.5,0.7-0.9,1.4-1.4,2
		c-3.3,4.4-6.6,8.7-9.8,13.1c-0.4,0.5-0.8,1-1.2,1.6c-0.6,0.8-1.4,0.9-2.2,0.6c-0.8-0.2-1.6-0.5-2.4-0.7c-3.1-1-6.3-2-9.4-3.1
		c-1.2-0.4-1.7-0.2-2.5,0.9c-7,9.3-14,18.5-20.9,27.8c-0.9,1.2-0.9,1.7,0.1,3.1c1.8,2.8,3.7,5.5,5.5,8.3
		C1445.6,1137.6,1446.2,1138.6,1446.7,1139.5z M1439.9,1089.9c-0.1-0.1-0.1-0.3-0.2-0.4c-0.4-0.3-0.8-0.6-1.3-0.8
		c-10.3-3.4-20.7-6.8-31-10.1c-0.2-0.1-0.3-0.1-0.5-0.1c-0.3,0.1-0.6,0.2-0.8,0.4c-0.1,0,0,0.3,0.1,0.5c6.3,9.3,12.5,18.6,18.8,27.9
		c0.6,0.9,1.3,1,2,0.2c4.2-5.5,8.3-11.1,12.5-16.6C1439.7,1090.6,1439.8,1090.2,1439.9,1089.9z"/>
	<path class="st6" d="M1228.6,1248.1c0,7.2-2.4,12.7-7.2,17.1c-3.3,3.1-7.2,5.3-11.3,7.1c-5,2.1-10.1,4.2-15.1,6.2
		c-3.4,1.4-6.7,2.8-10,4.2c-0.6,0.2-0.9,1.1-0.7,1.7c0.5,1.2,0.9,2.5,1.5,3.7c3.6,8.7,7.2,17.4,10.8,26.1c0.3,0.6,0.5,1.2,0.7,1.8
		c0.1,0.4-0.1,1.1-0.5,1.3c-0.3,0.2-0.5,0.4-0.8,0.5c-6.1,2.5-12.2,5-18.3,7.5c-1.3,0.5-1.7,0.3-2.2-1c-3.5-8.4-7-16.8-10.5-25.2
		c-8.9-21.5-17.9-43.1-26.8-64.6c-0.4-0.9-0.7-1.8-0.9-2.8c-0.1-0.2,0.2-0.7,0.4-0.8c0.9-0.5,1.8-0.9,2.7-1.3
		c14.2-5.9,28.4-11.8,42.6-17.7c2.8-1.1,5.5-2.2,8.4-2.9c3.1-0.7,6.2-1,9.4-0.8c5.6,0.4,10.2,2.7,14.1,6.6c2.1,2.1,3.9,4.5,5.3,7.2
		c3,5.9,5.6,12,7.5,18.3C1228.3,1243.2,1228.4,1246,1228.6,1248.1z M1194,1230.1c-0.8,0.2-2,0.4-3,0.9c-7.8,3.2-15.6,6.5-23.3,9.7
		c-1,0.4-1.2,1-0.8,2c2.6,6.4,5.3,12.8,8,19.2c0.2,0.5,0.3,1,0.7,1.3c0.3,0.3,0.8,0.5,1.3,0.5c0.5,0,1-0.2,1.4-0.4
		c7.3-3,14.7-6.1,22-9.1c0.8-0.3,1.5-0.6,2.2-1.1c1-0.6,1.7-1.5,2.1-2.6c0.4-1.1,0.5-2.3,0.2-3.4c-1.2-4.7-3.2-9-5.4-13.3
		c-0.4-0.9-1.2-1.6-1.9-2.3C1196.7,1230.5,1195.5,1230.3,1194,1230.1z"/>
	<path class="st6" d="M938.9,1287c-3.5-0.3-6.9-0.6-10.4-0.8c-0.6,0-1.2-0.8-1.1-1.4c0.3-2.1,0.6-4.3,0.8-6.4c0.2-1.5,0.4-3,0.4-4.4
		c0-1-0.3-1.9-0.6-2.9c-0.5-1.5-1.6-2.5-3.1-2.9c-0.6-0.2-1.3-0.4-1.9-0.5c-5.2-0.8-10.5-1.5-15.7-2.2c-1.8-0.3-3.6-0.6-5.4-0.8
		c-2.2-0.2-3.9,0.7-5,2.6c-1,1.6-1.5,3.3-1.7,5.1c-1.1,7.4-2.1,14.8-3.2,22.1c-0.8,5.7-1.7,11.5-2.5,17.2c-0.3,2-0.5,3.9-0.7,5.9
		c-0.2,1.5-0.1,3,0.3,4.4c0.4,1.5,1.4,2.6,2.9,3.2c0.9,0.3,1.9,0.6,2.9,0.7c6.7,1,13.4,2,20.2,2.9c2.5,0.3,4.6-0.8,5.7-3.1
		c0.5-1,0.9-2.1,1.1-3.3c0.4-2.3,0.7-4.6,1.1-6.9c0.1-0.8,0.3-1.6,0.5-2.4c0.1-0.4,0.8-0.9,1.1-0.8c5.3,1.1,10.7,2.3,16,3.4
		c1.6,0.3,3.2,0.7,4.8,1.1c0.6,0.2,1,0.9,0.9,1.5c-0.5,3.3-1,6.6-1.6,9.8c-0.6,3.3-1.7,6.4-3.4,9.3c-3.6,6.5-9,10.4-16.4,11.6
		c-3.6,0.6-7.2,0.7-10.9,0.2c-8.2-1.2-16.4-2.2-24.6-3.5c-4.1-0.6-8.1-1.8-11.8-3.7c-7.6-3.9-11.5-10.2-12.4-18.5
		c-0.4-3.3-0.3-6.6,0.1-9.9c0.7-5.1,1.5-10.2,2.2-15.2c0.8-5.7,1.7-11.5,2.5-17.2c0.7-4.8,1.3-9.5,2.1-14.3c0.5-3.3,1.5-6.4,2.9-9.5
		c3.5-7.4,9.2-11.9,17.4-13.3c3.6-0.6,7.2-0.7,10.9-0.2c8.2,1.2,16.4,2.3,24.6,3.5c4.3,0.6,8.4,1.9,12.2,3.9
		c5.9,3.2,9.6,8,11.2,14.5c0.7,2.7,1,5.6,0.9,8.4c-0.2,4.1-0.6,8.3-1.5,12.3c-0.2,0.7-0.7,1.2-1.4,1.2
		C945.8,1287.6,942.4,1287.3,938.9,1287C938.9,1287,938.9,1287,938.9,1287z"/>
	<path class="st6" d="M1132.6,299c-3.8,0-7.1-0.5-10.3-1.3c-7.7-2-15.4-4-23-6c-4.5-1.2-8.7-3.1-12.5-5.9c-4.2-3.3-7-7.4-8.2-12.7
		c-0.9-3.8-0.9-7.5-0.3-11.3c0.6-3.6,1.5-7.1,2.5-10.6c3.3-12.6,6.6-25.3,9.9-37.9c0.8-2.9,1.8-5.7,3.1-8.4c1.2-2.4,2.6-4.6,4.4-6.6
		c4-4.3,9-6.7,14.9-7c4.5-0.3,8.9,0.2,13.3,1.3c7.4,1.9,14.7,3.8,22.1,5.8c4,1.1,7.8,2.6,11.3,4.9c4.6,3,7.9,7.1,9.4,12.4
		c1.1,3.9,1.3,7.8,0.8,11.8c-0.6,4.3-1.8,8.4-2.9,12.6c-0.1,0.5-1,1-1.6,0.8c-6.8-1.3-13.6-2.7-20.4-4c-0.6-0.1-1.1-0.9-0.9-1.5
		c0.6-2.4,1.1-4.8,1.8-7.2c0.5-1.8,0.7-3.6,0.5-5.4c-0.2-2.2-1.4-3.7-3.5-4.4c-1.9-0.6-3.8-1-5.7-1.6c-5.3-1.4-10.6-2.8-15.8-4.2
		c-2.4-0.6-4.5-0.1-6.3,2.7c-0.8,1.3-1.3,2.7-1.7,4.1c-1.1,4.2-2.2,8.3-3.3,12.5c-2.6,9.9-5.1,19.9-7.8,29.8c-0.5,2-0.8,3.9-0.7,5.9
		c0.2,2.2,1.3,3.8,3.4,4.4c3.3,1,6.7,1.9,10,2.8c3.4,0.9,6.7,1.7,10.1,2.6c0.5,0.1,0.9,0.3,1.4,0.4c2.8,0.6,4.9-0.2,6.3-2.7
		c0.8-1.3,1.3-2.7,1.7-4.1c0.6-2.6,1.3-5.1,2.1-7.7c0.1-0.3,0.8-0.5,1.2-0.7c0.1,0,0.3,0.1,0.5,0.1c6.6,2.2,13.2,4.3,19.8,6.5
		c0.6,0.2,1,1,0.8,1.6c-0.9,3.2-1.7,6.4-2.7,9.5c-1,3.3-2.6,6.5-4.6,9.3c-3.1,4.3-7.2,7.3-12.3,8.7
		C1137.1,298.9,1134.6,299,1132.6,299z"/>
	<path class="st6" d="M681,1153.7c0,1.9-0.6,4.5-1.5,7c-0.9,2.7-2.3,5.1-3.9,7.5c-2.4,3.4-5.2,6.4-8,9.5c-0.5,0.5-1.2,0.5-1.8,0.1
		c-5.5-4.3-10.9-8.6-16.4-12.9c-0.5-0.4-0.6-1.3-0.2-1.8c1.5-1.7,3.1-3.4,4.6-5.2c1.1-1.3,2-2.6,2.9-4c0.6-1,0.8-2.2,0.7-3.4
		c-0.1-1-0.3-2-1-2.7c-0.6-0.6-1.1-1.2-1.7-1.8c-4.8-4.3-9.6-8.6-14.5-12.9c-0.2-0.2-0.5-0.4-0.7-0.7c-2.1-2-5-1.9-7.3-0.2
		c-0.8,0.6-1.5,1.2-2.3,1.9c-0.7,0.7-1.4,1.4-2,2.2c-9,10-17.9,20-26.9,30c-0.8,0.9-1.6,1.7-2.3,2.6c-0.7,0.9-1.3,1.9-1.8,3
		c-1,2.3-0.6,4.3,1,6c0.5,0.5,1,0.9,1.5,1.4c4.7,4.2,9.4,8.4,14.1,12.6c0.4,0.3,0.8,0.6,1.1,1c2.2,1.9,4.8,1.7,6.8,0.3
		c1.3-1,2.5-2.1,3.7-3.3c1.7-1.8,3.4-3.6,5.1-5.4c0.2-0.2,0.7-0.2,0.8-0.1c0.7,0.5,1.3,1.1,1.9,1.6c2.9,2.9,5.8,5.9,8.7,8.9
		c1.7,1.8,3.4,3.6,5.1,5.4c-1.1,2.7-3.4,4.4-5.2,6.5c-2.2,2.5-4.7,4.7-7.5,6.5c-2.5,1.7-5.2,2.9-8.1,3.6c-4.3,1.2-8.5,0.6-12.7-0.8
		c-3-1-5.7-2.6-8.3-4.5c-1.6-1.2-3.1-2.4-4.6-3.8c-5.3-4.7-10.6-9.5-15.9-14.3c-2.5-2.2-4.8-4.6-6.7-7.3c-2-2.9-3.5-5.9-4.4-9.4
		c-1-4.2-0.5-8.2,0.9-12.2c0.9-2.7,2.2-5.2,3.9-7.5c1.5-2,3-4,4.6-5.8c9.3-10.4,18.5-20.8,27.9-31.1c1.8-2,3.7-3.8,5.6-5.6
		c2.2-2,4.7-3.6,7.5-4.9c5.4-2.4,10.9-2.6,16.4-0.7c3.7,1.3,7,3.1,9.9,5.6c7.4,6.4,14.6,13,21.8,19.6c2.7,2.5,4.8,5.5,6.5,8.8
		C680,1146.1,681,1149.4,681,1153.7z"/>
	<path class="st6" d="M495.6,697.7c-0.2,0-0.3,0-0.5-0.1c-1.3-0.8-2.5-1.6-3.7-2.4c-8.9-6.1-17.7-12.3-26.6-18.4
		c-1.2-0.8-2.5-1.7-3.7-2.5c-0.6-0.4-1.2-0.5-1.8-0.1c-1.1,0.7-2.2,1.5-3.3,2.2c-9.2,6.3-18.3,12.5-27.5,18.8
		c-1.1,0.7-2.2,1.4-3.3,2.1c-0.1,0.1-0.4,0.1-0.5,0.1c-0.1-0.3-0.3-0.6-0.3-0.9c0.1-0.7,0.3-1.3,0.4-1.9c3.6-12,7.2-24.1,10.8-36.1
		c0.1-0.5,0.3-0.9,0.4-1.4c0.1-0.5-0.1-1-0.5-1.3c-0.9-0.7-1.8-1.5-2.7-2.2c-9.6-7.4-19.2-14.8-28.7-22.2c-0.5-0.4-1-0.9-1.4-1.3
		c-0.1-0.1,0-0.3,0-0.4c0-0.1,0.1-0.4,0.2-0.4c1-0.1,2-0.1,3-0.1c11.8-0.3,23.5-0.5,35.3-0.8c1.2,0,2.3-0.1,3.5-0.2
		c0.4-0.1,1-0.4,1.1-0.8c0.5-1.2,1-2.5,1.4-3.7c4-11.1,7.9-22.1,11.9-33.2c0.2-0.5,0.2-1,0.5-1.4c0.2-0.4,0.7-0.7,1-1
		c0.2,0.2,0.4,0.5,0.5,0.7c2,5.8,4.1,11.6,6.1,17.3c2.4,6.9,4.8,13.7,7.2,20.6c0.4,1,1.1,1.6,2.2,1.7c6.1,0.2,12.3,0.4,18.4,0.6
		c6.6,0.2,13.3,0.3,19.9,0.5c0.8,0,1.6,0.2,2.4,0.3c0.1,0,0.3,0.2,0.4,0.3c0.1,0.1,0,0.3,0,0.4c-0.7,0.7-1.4,1.4-2.2,2
		c-8.4,6.4-16.9,12.9-25.3,19.3c-1.4,1.1-2.9,2.2-4.4,3.3c-1.6,1.2-1.7,1.4-1.1,3.3c3.4,11.4,6.8,22.8,10.1,34.3
		c0.4,1.6,1.3,3.1,1.1,4.8C495.9,697.5,495.7,697.6,495.6,697.7z"/>
	<path class="st6" d="M1488.1,696.2c3.4-11.2,6.8-22.3,10-33.4c2.3-8,3.2-5.6-3.4-10.8c-8.7-6.8-17.6-13.5-26.3-20.3
		c-0.6-0.5-1.2-1.1-1.8-1.7c-0.1-0.1-0.1-0.3,0-0.4c0-0.2,0.1-0.4,0.2-0.4c1-0.1,2-0.1,3-0.1c11.9-0.3,23.8-0.6,35.8-0.8
		c1,0,2,0,3-0.2c0.5-0.1,0.9-0.3,1.1-0.8c0.3-0.9,0.7-1.8,1.1-2.8c4-11.1,7.9-22.1,11.9-33.2c0.4-1.1,0.8-2.2,1.3-3.2
		c0-0.1,0.2-0.2,0.3-0.2c0.1,0.1,0.3,0.2,0.4,0.3c0.4,0.7,0.8,1.5,1,2.2c4,11.2,7.9,22.5,11.9,33.7c1.6,4.5,0.5,4.1,5.8,4.3
		c7.9,0.3,15.9,0.4,23.8,0.7c4.6,0.1,9.3,0.4,13.9,0.6c0.2,0,0.5,0.3,0.7,0.6c0,0.1-0.1,0.3-0.2,0.4c-0.3,0.3-0.7,0.7-1.1,1
		c-1,0.8-2.1,1.6-3.2,2.4c-8.6,6.5-17.1,13-25.7,19.6c-0.7,0.5-1.3,1-2,1.5c-1.4,0.9-1.5,2.1-1,3.5c0.2,0.5,0.3,0.9,0.4,1.4
		c3.3,11.3,6.6,22.5,9.9,33.8c0.3,1,0.5,1.9,0.8,2.9c0.1,0.3,0.1,0.8-0.1,0.9c-0.4,0.3-0.9,0.1-1.3-0.2c-1.1-0.7-2.2-1.5-3.3-2.3
		c-9-6.2-18-12.4-27-18.6c-1.1-0.8-2.2-1.5-3.3-2.2c-0.4-0.3-0.9-0.3-1.4,0c-1.1,0.7-2.2,1.5-3.3,2.2c-9.2,6.3-18.3,12.5-27.5,18.8
		c-1.2,0.8-2.5,1.6-3.8,2.4c-0.1,0.1-0.5,0.1-0.5,0.1c-0.1-0.3-0.2-0.6-0.2-0.9C1488,696.4,1488.1,696.2,1488.1,696.2z"/>
	<path class="st6" d="M564.6,1006.2c-0.2,0.4-0.5,0.8-0.8,1.2c-3,3.9-6.1,7.9-9.1,11.8c-10.8,13.9-21.6,27.7-32.4,41.6
		c-0.7,0.9-1.4,1.9-2,2.8c-0.1,0.1-0.2,0.4-0.1,0.5c0.2,0.2,0.6,0.4,0.8,0.3c4.3-1,8.7-2.1,13-3.2c18.6-4.7,37.2-9.5,55.8-14.2
		c0.2,0,0.3-0.1,0.5-0.1c0.7-0.2,1.3,0.1,1.7,0.7c0.8,1.1,1.5,2.2,2.2,3.3c3.1,4.7,6.1,9.4,9.2,14.2c0.4,0.7,0.2,1.4-0.4,1.6
		c-0.8,0.2-1.6,0.5-2.4,0.7c-17.3,4.4-34.6,8.8-51.9,13.1c-15.1,3.8-30.1,7.6-45.2,11.4c-1.1,0.3-2.3,0.6-3.4,0.7
		c-0.7,0.1-1.3-0.2-1.7-0.7c-0.1-0.1-0.2-0.3-0.3-0.4c-3.9-6-7.8-11.9-11.7-17.9c-0.9-1.3-0.8-1.7,0.3-3.1
		c4.1-5.2,8.1-10.5,12.2-15.7c16.7-21.4,33.4-42.9,50-64.3c0.8-1,1.7-2.1,2.5-3.1c0.3-0.4,1-0.4,1.2-0.1c1.6,2.3,3.2,4.7,4.7,7
		c2.4,3.6,4.7,7.2,7,10.8C564.5,1005.5,564.5,1005.8,564.6,1006.2z"/>
	<path class="st6" d="M1456.9,970.1c-0.1,0.4-0.2,0.9-0.5,1.3c-2.4,4.5-4.8,9-7.3,13.6c-1.6,2.9-3.1,5.9-4.6,8.8
		c-0.3,0.6-0.1,1.4,0.5,1.7c1.3,0.7,2.6,1.4,3.9,2.1c20.7,11.1,41.5,22.1,62.2,33.2c1.3,0.7,2.6,1.4,3.9,2.1c0.7,0.4,1,1.3,0.5,2.1
		c-3.2,6-6.4,12-9.6,18c-0.5,0.9-1.2,1.1-2,0.7c-0.4-0.2-0.9-0.4-1.3-0.7c-0.9-0.5-1.8-0.9-2.6-1.4c-21.3-11.4-42.6-22.8-63.9-34.2
		c-0.7-0.4-1.5-0.8-2.2-1.2c-0.5-0.3-1.3,0-1.7,0.5c-0.5,0.9-0.9,1.8-1.4,2.6c-3.3,6.1-6.6,12.3-9.8,18.4c-0.4,0.7-0.8,1.4-1.2,2.2
		c-0.2,0.3-1,0.6-1.3,0.4c-2.9-1.5-5.8-3.1-8.8-4.7c-2.2-1.2-4.4-2.3-6.6-3.5c-1.7-0.9-1.8-1.3-0.8-3.1c0.3-0.6,0.6-1.2,0.9-1.7
		c11.4-21.3,22.8-42.6,34.2-63.9c0.5-0.9,1-1.7,1.5-2.6c0.2-0.4,0.8-0.5,1.3-0.3c5.4,2.9,10.8,5.8,16.2,8.7
		C1456.7,969.3,1456.7,969.8,1456.9,970.1z"/>
	<path class="st6" d="M1349.8,437.3c1.1-0.9,2.2-1.9,3.3-2.9c18.5-15.8,37-31.7,55.5-47.5c0.8-0.6,1.5-1.3,2.2-2
		c0.5-0.5,0.5-1.2,0-1.8c-0.7-0.9-1.5-1.8-2.2-2.7c-4.4-5.2-8.9-10.3-13.3-15.5c-0.5-0.6-1.1-1.3-1.5-2c-0.1-0.2-0.1-0.6,0-0.9
		c0.1-0.3,0.4-0.6,0.6-0.8c4.4-3.8,8.8-7.5,13.2-11.3c0.8-0.7,1.4-0.6,2.1,0.2c0.6,0.6,1.1,1.3,1.6,1.9c15.8,18.5,31.7,37,47.5,55.5
		c0.5,0.6,1.1,1.3,1.6,1.9c0.3,0.4,0.3,1.1,0,1.4c-0.1,0.1-0.2,0.3-0.3,0.4c-4.5,3.9-9.1,7.7-13.6,11.6c-0.5,0.4-1.3,0.4-1.8-0.2
		c-1.3-1.5-2.6-3-3.9-4.5c-4.2-4.9-8.4-9.8-12.6-14.7c-1.1-1.2-1.5-1.2-2.8-0.1c-0.4,0.3-0.7,0.7-1.1,1
		c-11.8,10.1-23.7,20.3-35.5,30.4c-7,6-14.1,12.1-21.1,18.1c-0.8,0.6-1.5,1.3-2.3,1.9c-0.3,0.3-1,0.2-1.3-0.2
		c-0.3-0.4-0.7-0.7-1-1.1c-3.9-4.5-7.8-9.1-11.6-13.6C1350.8,439.1,1350,438.5,1349.8,437.3z"/>
	<path class="st6" d="M1486.8,475.7c5,0,9.9,0,14.9,0c0.7,0,1.3,0.1,1.7,0.8c3.9,6.5,7.8,13.1,11.7,19.6c0.4,0.6,0,1.4-0.7,1.4
		c-1.3,0-2.6,0.1-4,0.1c-11.8,0.1-23.5,0.2-35.3,0.4c-6,0.1-11.9,0.3-17.9,0.3c-1.9,0-3.5,0.5-5.1,1.5c-11.8,7-23.6,14.1-35.4,21.1
		c-1.3,0.8-2.6,1.5-3.8,2.3c-0.4,0.2-1,0-1.3-0.3c-0.2-0.3-0.4-0.5-0.6-0.8c-3.5-5.8-6.9-11.7-10.4-17.5c-0.3-0.6-0.1-1.3,0.5-1.7
		c1.3-0.8,2.6-1.5,3.8-2.3c11.5-6.9,23-13.8,34.6-20.5c2.2-1.3,3.8-3,5.1-5.2c8.4-15,16.8-30,25.2-45c0.7-1.3,1.5-2.6,2.2-3.9
		c0.2-0.4,1-0.3,1.3,0c0.1,0.1,0.2,0.2,0.3,0.4c3.8,6.4,7.6,12.8,11.4,19.2c0.4,0.6,0.5,1.2,0.1,1.8c-0.7,1.3-1.4,2.6-2.2,3.9
		c-4.3,7.8-8.7,15.6-13,23.4c-0.2,0.4,0.1,1.1,0.5,1.2c0.7,0,1.3,0.1,2,0.1c4.8,0,9.6,0,14.4,0
		C1486.8,475.8,1486.8,475.8,1486.8,475.7z"/>
	<path class="st6" d="M547.2,1154.2c-0.2,0-0.3,0-0.5-0.1c-0.3-0.2-0.6-0.3-0.8-0.5c-4.5-5.3-9.1-10.5-13.6-15.8
		c-0.3-0.4-0.3-1,0-1.3c0.2-0.2,0.5-0.5,0.7-0.7c0.4-0.3,0.8-0.6,1.1-1c23.9-20.6,47.9-41.3,71.8-61.9c0.8-0.6,1.5-1.3,2.3-1.9
		c0.7-0.6,1.5-0.5,2.2,0.2c0.6,0.6,1.1,1.2,1.6,1.9c4,4.8,8.4,9.4,12.1,14.4c0,1.6-1.5,2.1-2.4,2.9c-3.8,3.4-7.8,6.7-11.6,10.1
		c-20,17.3-40.1,34.6-60.2,51.9c-0.7,0.6-1.5,1.3-2.3,1.9C547.5,1154.1,547.3,1154.1,547.2,1154.2z"/>
	<path class="st6" d="M1546.3,965.5c-0.4,1-1.1,2.8-1.8,4.7c-1.7,4.6-3.5,9.3-5.2,13.9c-0.2,0.6-1,1-1.6,0.8
		c-0.6-0.2-1.2-0.5-1.9-0.7c-30-11.3-60-22.6-89.9-33.9c-0.8-0.3-1.5-0.6-2.3-1c-0.4-0.2-0.7-0.8-0.5-1.2c2.4-6.5,4.9-13,7.4-19.5
		c0.5-1.2,0.9-1.4,2.3-0.8c11.7,4.4,23.5,8.8,35.2,13.3c18.4,6.9,36.8,13.9,55.2,20.8c0.9,0.3,1.8,0.7,2.8,1.1
		C1546.7,963.4,1546.9,963.8,1546.3,965.5z"/>
	<path class="st6" d="M1393.9,337c-0.7,0.8-1.3,1.6-1.9,2.3c-21.6,23.6-43.2,47.1-64.8,70.7c-0.6,0.6-1.1,1.2-1.7,1.8
		c-0.3,0.3-1.1,0.4-1.4,0.1c-0.3-0.2-0.5-0.4-0.8-0.6c-4.8-4.4-9.5-8.7-14.3-13.1c-0.5-0.4-0.9-1-1.4-1.5c0.7-0.8,1.3-1.6,2-2.3
		c21.7-23.7,43.4-47.4,65.1-71c0.4-0.5,0.9-1,1.4-1.4c0.3-0.3,1-0.4,1.4-0.1c0.3,0.2,0.5,0.4,0.8,0.6c4.8,4.4,9.5,8.7,14.3,13.1
		C1393,335.9,1393.4,336.4,1393.9,337z"/>
	<path class="st2" d="M597.5,480.5c0-0.6,0-1.1,0.1-1.7c0.1-0.4,0.2-0.8,0.3-1.2c0.5,0,1,0,1.6,0.1
		C598.7,478.7,598.1,479.6,597.5,480.5z"/>
	<path class="st2" d="M591.2,471.8c0,0-0.2,0-0.2,0C591.1,471.8,591.2,471.9,591.2,471.8L591.2,471.8z"/>
	<path class="st2" d="M600.5,476.5c0.2-0.3,0.5-0.5,0.7-0.8C601.2,476.2,600.9,476.5,600.5,476.5z"/>
	<polygon class="st2" points="602.5,474.2 602.6,474.1 602.8,474.2 	"/>
	<path class="st2" d="M590,470.8c0.2,0.1,0.4,0.3,0.5,0.4C590.2,471.3,590,471.1,590,470.8z"/>
	<path class="st2" d="M601.5,475.4c0.1-0.3,0.3-0.5,0.6-0.7C602.1,475.2,601.9,475.4,601.5,475.4z"/>
	<path class="st2" d="M588.9,469.8c0.3,0.1,0.6,0.3,0.7,0.7C589.1,470.4,588.9,470.2,588.9,469.8z"/>
	<path class="st2" d="M596.8,476.7c0.2,0.2,0.5,0.5,0.7,0.7C597.1,477.4,596.9,477.1,596.8,476.7z"/>
	<path class="st1" d="M896.3,495.9c0.3-54.9,44.9-95.9,95.7-95.9c53.1,0,96.1,43.4,96,96.1c-0.1,50.4-40.6,95.6-96,95.6
		C938.7,591.7,896.5,548.7,896.3,495.9z M1030,495.8c20.7,0.4,38-17,38.1-37.6c0.1-20.6-16.8-38-37.6-38.2
		c-21.2-0.2-38.4,17.3-38.4,38C992.2,478.7,1009.5,496.1,1030,495.8z"/>
	<path class="st1" d="M1170.1,453.9c-0.3,0.5-0.7,1.1-1,1.6c-0.8-0.8-0.7-1.8-0.9-2.7c-0.7-2.7-1.7-5.3-1.9-8.1
		C1168,447.6,1169.3,450.7,1170.1,453.9z"/>
	<path class="st1" d="M816,453c-0.4,0-0.9-0.1-1.3-0.1c0.7-1.8,1.3-3.6,2-5.4c0.1-0.3,0.5-0.4,0.7-0.6
		C817.5,449.1,816.6,451,816,453z"/>
	<path class="st1" d="M817.3,447c0.2-1.1,0.2-2.2,1-3.1C818.2,445,818.4,446.2,817.3,447z"/>
	<path class="st1" d="M818.3,444c0.2-0.7,0.5-1.3,0.7-2C819.1,442.7,818.7,443.3,818.3,444z"/>
	<path class="st1" d="M1338.9,1167.7c-0.4-0.3-0.9-0.5-1.2-0.8c-5-5.3-9.9-10.7-14.9-16c-0.6-0.7-0.5-1.4,0.2-2.1
		c6.2-5.8,12.4-11.5,18.5-17.3c3.1-2.9,5.2-2.7,8.4-0.4c0.4,0.3,0.8,0.6,1.1,0.9c2.5,2.6,5,5.3,7.4,8c1,1.1,1.6,2.4,2.1,3.9
		c0.5,1.6,0.1,2.9-0.7,4.2c-0.3,0.6-0.9,1-1.3,1.5c-6.3,5.9-12.6,11.7-18.9,17.5C1339.5,1167.4,1339.2,1167.5,1338.9,1167.7z"/>
	<path class="st1" d="M1114.9,1278c0-0.2,0,0.3-0.1,0.8c-0.2,2.2-1.5,3.7-3.6,4.3c-2.4,0.7-4.8,1.1-7.3,1.6
		c-6.3,1.4-12.6,2.7-18.9,4.1c-0.9,0.2-1.7-0.2-1.9-1c0-0.2-0.1-0.3-0.1-0.5c-1.1-5.2-2.2-10.3-3.3-15.5c-0.4-1.9-0.8-3.9-1.2-5.8
		c-0.1-0.6,0.4-1.3,1.1-1.4c6.3-1.4,12.6-2.7,18.9-4.1c2.4-0.5,4.8-1.1,7.3-1.5c2.2-0.4,3.9,0.5,5.1,2.2c0.6,0.8,1.1,1.7,1.3,2.6
		c1.1,4,2.1,8,2.6,12.1C1115,1276.4,1114.9,1276.9,1114.9,1278z"/>
	<path class="st1" d="M1315,328.8c-0.5-0.2-1.4-0.3-2.1-0.7c-0.6-0.3-1.1-0.7-1.6-1.1c-6.5-4.6-12.9-9.2-19.4-13.8
		c-0.5-0.4-1-0.8-1.4-1.3c-0.2-0.2-0.2-0.6-0.2-0.9c0-0.1,0.2-0.3,0.2-0.4c4.2-5.9,8.5-11.8,12.7-17.8c0.2-0.3,0.4-0.5,0.7-0.7
		c0.3-0.1,0.7-0.2,0.9-0.1c0.6,0.3,1.1,0.7,1.7,1c6.3,4.5,12.6,9,19,13.6c0.8,0.6,1.6,1.1,2.3,1.9c1.2,1.3,1.8,2.8,1.2,4.6
		c-0.3,1.1-0.7,2.3-1.3,3.2c-2.2,3.3-4.5,6.5-6.9,9.7c-0.6,0.8-1.4,1.3-2.2,2C1317.6,328.6,1316.5,328.8,1315,328.8z"/>
	<path class="st1" d="M590.8,398.9c0,1-0.2,2-0.8,2.8c-0.5,0.7-1,1.3-1.6,1.9c-5.1,5.9-10.2,11.7-15.3,17.6c-0.4,0.5-0.9,1-1.4,1.4
		c-0.3,0.3-0.9,0.4-1.3,0c-0.9-0.7-1.8-1.5-2.7-2.2c-4.7-4.1-9.5-8.3-14.2-12.4c-0.8-0.7-0.8-1.3-0.1-2.1
		c5.5-6.4,11.1-12.7,16.6-19.1c0.4-0.5,0.9-1,1.4-1.4c1.5-1.4,3.3-1.5,5.1-0.9c1.2,0.4,2.4,1.1,3.4,2c2.7,2.2,5.3,4.5,7.8,6.9
		c0.8,0.8,1.5,1.8,2.1,2.7C590.6,396.9,590.7,397.9,590.8,398.9z"/>
	<path class="st1" d="M505.9,982.4c-2.1-0.1-3.5-1-4.5-2.7c-0.3-0.4-0.4-0.9-0.6-1.3c-3.3-7.7-6.6-15.5-9.9-23.2
		c-0.1-0.3-0.3-0.6-0.3-0.9c0-0.3,0.1-0.6,0.3-0.8c0.2-0.2,0.5-0.4,0.8-0.5c6.7-2.9,13.4-5.7,20-8.6c0.6-0.2,1.4,0.1,1.7,0.6
		c0.3,0.6,0.5,1.2,0.8,1.8c2.9,6.7,5.7,13.4,8.6,20c0.5,1.1,0.9,2.1,1.2,3.2c0.7,1.9,0.2,3.6-1.2,5c-0.9,0.9-2,1.8-3.2,2.3
		c-3.3,1.6-6.6,3-10,4.3C508.6,982.1,507.2,982.1,505.9,982.4z"/>
	<path class="st1" d="M1535.9,911.3c-0.3-0.1-1.6-0.2-2.9-0.5c-11.4-2.7-22.9-5.4-34.3-8c-3.1-0.7-6.1-1.4-9.2-2.2
		c-1.3-0.3-2.5-0.8-3.7-1.5c-2.2-1.3-3.2-3.4-2.6-5.9c1.5-6.8,3.1-13.5,4.7-20.3c0.1-0.6,0.4-1.3,0.6-1.9c0.8-2.1,2.3-3.2,4.5-3.4
		c1.8-0.2,3.6,0.1,5.4,0.5c11.4,2.7,22.9,5.4,34.3,8.1c3.1,0.7,6.1,1.5,9.2,2.2c1.5,0.3,2.8,0.9,4.1,1.8c1.8,1.2,2.6,2.9,2.3,5.1
		c-0.2,1.1-0.5,2.3-0.8,3.4c-1.4,5.8-2.7,11.6-4.1,17.4c-0.2,0.6-0.3,1.3-0.5,1.9c-0.8,2-2.3,3.1-4.5,3.4
		C1537.9,911.4,1537.4,911.3,1535.9,911.3z"/>
	<path class="st1" d="M1250,1203.7c0-1,0.4-2,1.1-2.7c0.7-0.7,1.5-1.4,2.3-1.9c5.6-3.6,11.1-7.1,16.7-10.7c0.6-0.4,1.1-0.7,1.7-1
		c1.6-0.8,3.2-0.6,4.7,0.3c1.2,0.7,2.1,1.6,2.9,2.7c0.9,1.2,1.7,2.5,2.5,3.7c7.1,11,14.1,22,21.2,33c0.8,1.3,1.6,2.5,2.3,3.8
		c0.5,1,0.9,2.1,1.2,3.3c0.4,1.9-0.2,3.6-1.7,4.9c-0.6,0.5-1.3,1-2,1.4c-5.3,3.4-10.6,6.8-15.9,10.2c-0.7,0.4-1.4,0.9-2.1,1.3
		c-1.6,0.8-3.2,0.6-4.7-0.3c-1.2-0.7-2.1-1.6-2.9-2.7c-0.8-1.1-1.5-2.2-2.2-3.3c-7.2-11.3-14.5-22.6-21.7-33.9
		c-1-1.5-1.8-3.2-2.6-4.8C1250,1206,1250,1204.8,1250,1203.7z"/>
	<path class="st1" d="M988.4,1302.5c-0.3-6.3-0.5-12.6-0.8-18.8c-0.1-1.5-0.1-3,0-4.5c0-1.5,0.4-3,1.1-4.3c0.7-1.4,1.9-2.3,3.5-2.5
		c0.3,0,0.7-0.1,1-0.1c6.8-0.3,13.6-0.6,20.3-0.8c0.8,0,1.7-0.1,2.5,0c1.8,0.2,3.2,1.1,3.9,2.7c0.6,1.2,0.9,2.5,1.2,3.8
		c0.2,0.8,0.1,1.6,0.2,2.5c0.4,11.1,0.7,22.2,1.1,33.2c0.1,3.1,0.2,6.3,0.4,9.4c0.1,2-0.1,4-0.5,5.9c-0.5,2.2-2.4,3.8-4.5,4
		c-0.3,0-0.7,0-1,0.1c-6.6,0.2-13.2,0.5-19.8,0.7c-0.5,0-1,0-1.5,0c-3-0.1-5-1.6-5.7-4.6c-0.3-1.4-0.4-2.9-0.5-4.4
		c-0.3-7.4-0.6-14.9-0.9-22.3C988.3,1302.5,988.3,1302.5,988.4,1302.5z"/>
	<path class="st1" d="M531.8,487.7c5.3,1.1,10.7,2.2,16,3.3c0.5,0.1,1,0.3,1.4,0.5c0.2,0.1,0.3,0.5,0.4,0.8c0,0.1,0,0.3-0.1,0.5
		c-3.6,6.1-7.3,12.2-10.9,18.3c-0.3,0.6-1.2,0.6-1.7,0.1c-0.1-0.1-0.2-0.2-0.3-0.4c-7.1-8.3-14.1-16.6-21.2-24.9
		c-0.2-0.2-0.4-0.5-0.5-0.8c-0.1-0.1-0.1-0.4,0-0.5c0.1-0.1,0.3-0.2,0.4-0.2c3.1,0.6,6.1,1.2,9.2,1.8
		C527,486.6,529.4,487.2,531.8,487.7C531.8,487.7,531.8,487.7,531.8,487.7z"/>
	<path class="st1" d="M1439.9,1089.9c-0.1,0.3-0.2,0.6-0.4,0.9c-4.2,5.6-8.3,11.1-12.5,16.6c-0.6,0.8-1.3,0.8-2-0.2
		c-6.3-9.3-12.6-18.6-18.8-27.9c-0.1-0.1-0.1-0.4-0.1-0.5c0.2-0.2,0.5-0.3,0.8-0.4c0.1,0,0.3,0,0.5,0.1c10.3,3.4,20.7,6.7,31,10.1
		c0.5,0.1,0.9,0.5,1.3,0.8C1439.8,1089.6,1439.9,1089.8,1439.9,1089.9z"/>
	<path class="st1" d="M1194,1230.1c1.5,0.2,2.6,0.4,3.5,1.3c0.7,0.7,1.4,1.4,1.9,2.3c2.2,4.3,4.2,8.6,5.4,13.3
		c0.3,1.2,0.2,2.3-0.2,3.4c-0.4,1.2-1.1,2-2.1,2.6c-0.7,0.4-1.5,0.8-2.2,1.1c-7.3,3-14.6,6.1-22,9.1c-0.5,0.2-0.9,0.4-1.4,0.4
		c-0.4,0-1-0.2-1.3-0.5c-0.3-0.3-0.5-0.9-0.7-1.3c-2.7-6.4-5.3-12.8-8-19.2c-0.4-1-0.2-1.6,0.8-2c7.8-3.2,15.5-6.5,23.3-9.7
		C1192.1,1230.5,1193.2,1230.3,1194,1230.1z"/>
	<path class="st4" d="M1030,495.8c-20.6,0.3-37.8-17.1-37.8-37.9c0-20.6,17.2-38.2,38.4-38c20.8,0.2,37.7,17.6,37.6,38.2
		C1068,478.8,1050.8,496.2,1030,495.8z"/>
</g>
</svg>
