<?xml version="1.0" encoding="utf-8"?>
<!-- Generator: Adobe Illustrator 25.2.0, SVG Export Plug-In . SVG Version: 6.00 Build 0)  -->
<svg version="1.1" id="Layer_1" xmlns="http://www.w3.org/2000/svg" xmlns:xlink="http://www.w3.org/1999/xlink" x="0px" y="0px"
	 viewBox="0 0 1893.3 1624" style="enable-background:new 0 0 1893.3 1624;" xml:space="preserve">
<style type="text/css">
	.st0{opacity:3.000000e-02;}
	.st1{fill:none;stroke:#FFFFFF;stroke-width:10;stroke-miterlimit:10;}
	.st2{fill:#ED1C24;}
	.st3{fill:#FFFFFF;}
	.st4{fill:#ED1F24;}
</style>
<g>
	<g id="Background" class="st0">
		<circle cx="946.6" cy="812" r="719.4"/>
		<circle class="st1" cx="942.2" cy="812" r="666"/>
		<circle class="st2" cx="942.2" cy="812" r="463.4"/>
		<path class="st3" d="M515.8,514l-21.5,32.7l9.7,12.5l-13.1,20L423,491.7l14-21.3l107.4,27.5l-13.2,20L515.8,514z M480.8,529.2
			l13.6-20.7l-37-9.5L480.8,529.2z"/>
		<path class="st3" d="M467.2,427l35.9-38.2c13.7-14.5,27.8-15,42.4-1.3l5.5,5.1c11.9,11.2,14.4,22.7,7.3,34.5l43.2,10.2l-17.8,18.9
			l-42.1-9.9l-8.8,9.4l27.3,25.7l-16.4,17.5L467.2,427z M498.9,423.9l18.6,17.4l19.5-20.7c2.7-2.9,1.9-6.4-2.4-10.5l-5.5-5.1
			c-4.4-4.1-7.9-4.7-10.6-1.8L498.9,423.9z"/>
		<path class="st3" d="M624.4,366.8L610,377.6l-13.8-15.8l34.7-26.1l19.8,26.3c12,16,10,29.9-5.9,42l-18,13.5c-16,12-30,10-42-5.9
			l-27-35.9c-12-16-10-30,5.9-42l18-13.5c16-12,30-10,42,5.9l1.3,1.8l-18.2,15.7l-2.3-3c-3.6-4.8-7-6-10.2-3.6l-18,13.5
			c-3.2,2.4-3,6,0.6,10.8l27,35.9c3.6,4.8,7,6,10.2,3.6l18-13.5c3.2-2.4,3-6-0.6-10.8L624.4,366.8z"/>
		<path class="st3" d="M660.1,355.3l-33.9-66.8l21.4-10.9l33.9,66.8c2.7,5.3,5.9,7.1,9.4,5.3l20-10.2c3.6-1.8,4-5.4,1.3-10.7
			l-33.9-66.8l21.5-10.9l33.9,66.8c9.1,17.8,4.7,31.2-13.1,40.3l-20,10.2C682.6,377.5,669.1,373.1,660.1,355.3z"/>
		<path class="st3" d="M809.6,246.2l0.7,2.1l-22.5,8.4l-1.1-3.6c-1.7-5.7-4.5-8-8.3-6.9l-21.5,6.5c-3.8,1.2-4.9,4.6-3.1,10.3
			l0.9,2.9c1.7,5.7,4.5,8,8.3,6.9l21.5-6.5c19.1-5.8,31.6,0.9,37.4,20l0.9,2.9c5.8,19.1-0.9,31.6-20,37.4l-21.5,6.5
			c-19.1,5.8-31.6-0.9-37.4-20l-0.7-2.1l22.5-8.4l1.1,3.6c1.7,5.7,4.5,8,8.3,6.9l21.5-6.5c3.8-1.2,4.9-4.6,3.1-10.3l-0.9-2.9
			c-1.7-5.7-4.5-8-8.3-6.9L769,293c-19.1,5.8-31.6-0.9-37.4-20l-0.9-2.9c-5.8-19.1,0.9-31.6,20-37.4l21.5-6.5
			C791.4,220.4,803.9,227.1,809.6,246.2z"/>
		<path class="st3" d="M941.6,231l0.1,2.2l-23.8,3l-0.2-3.7c-0.4-6-2.6-8.9-6.6-8.6l-22.4,1.5c-4,0.3-5.8,3.4-5.4,9.4l0.2,3
			c0.4,6,2.6,8.9,6.6,8.6l22.4-1.5c19.9-1.3,30.5,8.1,31.8,28l0.2,3c1.3,19.9-8,30.5-28,31.8l-22.4,1.4c-19.9,1.3-30.6-8-31.8-28
			l-0.1-2.2l23.8-3l0.2,3.7c0.4,6,2.6,8.9,6.6,8.6l22.4-1.4c4-0.2,5.8-3.4,5.4-9.4l-0.2-3c-0.4-6-2.6-8.9-6.5-8.6l-22.4,1.4
			c-19.9,1.3-30.5-8-31.8-28l-0.2-3c-1.3-19.9,8-30.5,28-31.8l22.4-1.4C929.8,201.8,940.4,211.1,941.6,231z"/>
		<path class="st3" d="M979.1,287.2l50.7,5.2l-2.1,20.9l-74.5-7.6l10.7-104.3l74.5,7.6l-2.1,20.9l-50.7-5.2l-2.1,20.9l43.2,4.4
			l-2.1,20.9l-43.2-4.4L979.1,287.2z"/>
		<path class="st3" d="M1094.4,299l2.3-8.7l22.8,7.7l-1.9,7.2c-5.2,19.3-17.4,26.3-36.7,21.2l-21.7-5.8
			c-19.3-5.2-26.3-17.4-21.2-36.7l11.7-43.4c5.2-19.3,17.4-26.3,36.7-21.2l21.7,5.8c19.3,5.2,26.3,17.4,21.2,36.7l-1.9,7.2
			l-23.5-4.8l2.3-8.7c1.5-5.8,0.4-9.2-3.5-10.2l-21.7-5.8c-3.9-1-6.6,1.3-8.1,7.1l-11.7,43.3c-1.5,5.8-0.4,9.2,3.5,10.2l21.7,5.8
			C1090.2,307.1,1092.9,304.8,1094.4,299z"/>
		<path class="st3" d="M1128.5,308.5l31.8-67.8l21.7,10.2l-31.8,67.8c-2.6,5.4-2,9,1.6,10.7l20.3,9.5c3.6,1.7,6.7-0.2,9.2-5.6
			l31.8-67.8l21.7,10.2l-31.8,67.8c-8.5,18.1-21.8,22.9-39.8,14.4l-20.3-9.5C1124.8,339.9,1120,326.6,1128.5,308.5z"/>
		<path class="st3" d="M1256.4,287.5l42.8,30.2c16.3,11.5,18.7,25.4,7.2,41.8l-4.3,6.1c-9.4,13.4-20.5,17.4-33.2,12.1l-4,44.2
			l-21.2-14.9l3.9-43.1l-10.5-7.4l-21.6,30.6l-19.6-13.8L1256.4,287.5z M1263.9,318.4l-14.7,20.8l23.3,16.4c3.3,2.3,6.6,1,10.1-3.9
			l4.3-6.1c3.5-4.9,3.5-8.5,0.3-10.8L1263.9,318.4z"/>
		<path class="st3" d="M1286.6,442.8l-17.8-16.1l70.3-77.8l17.8,16L1286.6,442.8z"/>
		<path class="st3" d="M1392.2,432.3l-63.3,55l-15.7-18.1l63.3-55l-19.2-22l15.8-13.8l54,62.2l-15.8,13.8L1392.2,432.3z"/>
		<path class="st3" d="M1408,508.7l29.8-54.9l13.6,22.1l-16.5,30.4l34.6-0.9l13.5,22.1l-62.5,1.7l-43.2,26.5l-12.5-20.4L1408,508.7z
			"/>
		<path class="st3" d="M415.3,912.1l-2.2,0.3l-4.3-23.6l3.7-0.4c6-0.7,8.7-3,8.2-7l-2.6-22.3c-0.5-4-3.7-5.6-9.6-4.9l-3,0.3
			c-6,0.7-8.7,3-8.2,7l2.6,22.3c2.3,19.8-6.4,30.9-26.3,33.2l-3,0.3c-19.8,2.3-30.9-6.4-33.2-26.3l-2.6-22.3
			c-2.3-19.8,6.4-30.9,26.3-33.2l2.2-0.3l4.3,23.6l-3.7,0.4c-5.9,0.7-8.7,3-8.2,7l2.6,22.3c0.5,4,3.7,5.6,9.6,4.9l3-0.3
			c5.9-0.7,8.7-3,8.2-7l-2.6-22.3c-2.3-19.8,6.4-30.9,26.3-33.2l3-0.3c19.8-2.3,30.9,6.4,33.2,26.3l2.6,22.3
			C443.9,898.7,435.2,909.8,415.3,912.1z"/>
		<path class="st3" d="M372.3,961.7l14.3,48.9l-20.1,5.9l-21.1-71.9L446,915l21.1,71.9l-20.1,5.9L432.6,944l-20.1,5.9l12.2,41.7
			l-20.1,5.9l-12.2-41.7L372.3,961.7z"/>
		<path class="st3" d="M468.6,993.3l23,47.1c8.8,17.9,4.2,31.3-13.7,40.1l-6.7,3.3c-14.7,7.2-26.3,5.4-34.9-5.4l-24.8,36.8
			l-11.4-23.3l24.1-35.9l-5.6-11.6l-33.6,16.5l-10.5-21.5L468.6,993.3z M460.3,1024l-22.9,11.2l12.5,25.6c1.8,3.6,5.3,4.1,10.7,1.4
			l6.7-3.3c5.4-2.7,7.2-5.8,5.4-9.3L460.3,1024z"/>
		<path class="st3" d="M471.7,1146.1l72.9-22.1l14,19.4l-106.1,32.2l-14.9-20.6l64-90.5l14,19.4L471.7,1146.1z"/>
		<path class="st3" d="M501.4,1233.4l-16.3-17.5l76.8-71.4l16.3,17.6L501.4,1233.4z"/>
		<path class="st3" d="M578.9,1264.1l5.8-6.9l17.3,16.6l-4.8,5.7c-12.9,15.3-26.9,16.5-42.2,3.6l-17.2-14.5
			c-15.3-12.9-16.5-27-3.6-42.2l29-34.3c12.9-15.3,27-16.5,42.2-3.6l17.2,14.5c15.3,12.9,16.5,27,3.6,42.2l-4.8,5.7l-19.3-14.3
			l5.8-6.9c3.9-4.6,4.3-8.2,1.2-10.7l-17.2-14.5c-3-2.6-6.5-1.6-10.4,3l-29,34.3c-3.9,4.6-4.3,8.2-1.2,10.7l17.2,14.5
			C571.6,1269.7,575,1268.7,578.9,1264.1z"/>
		<path class="st3" d="M628.7,1310.8l43.9,25.9l-10.7,18.1l-64.5-38l53.2-90.4l64.5,38l-10.7,18.1l-43.9-25.8l-10.7,18.1l37.4,22.1
			l-10.7,18.1l-37.4-22.1L628.7,1310.8z"/>
		<path class="st3" d="M782.9,1324.1l-0.8,2.1l-22.9-7.3l1.4-3.5c2.2-5.6,1.4-9.1-2.3-10.6l-20.9-8.2c-3.7-1.5-6.7,0.6-8.8,6.2
			l-1.1,2.8c-2.2,5.6-1.4,9.1,2.3,10.6l20.9,8.2c18.6,7.3,24.3,20.2,17,38.8l-1.1,2.8c-7.3,18.6-20.2,24.3-38.8,17l-20.9-8.2
			c-18.6-7.3-24.3-20.2-17-38.8l0.9-2l22.9,7.3l-1.4,3.5c-2.2,5.6-1.4,9.1,2.3,10.6l20.9,8.2c3.7,1.4,6.7-0.6,8.8-6.2l1.1-2.8
			c2.2-5.6,1.4-9.1-2.3-10.6l-20.9-8.2c-18.6-7.3-24.3-20.2-17-38.8l1.1-2.8c7.3-18.6,20.2-24.3,38.8-17l20.9,8.2
			C784.5,1292.6,790.1,1305.5,782.9,1324.1z"/>
		<path class="st3" d="M873.2,1387.9l1.3-8.9l23.5,4.9l-1.1,7.4c-2.8,19.8-14.1,28.3-33.9,25.4l-22.2-3.2
			c-19.8-2.8-28.3-14.1-25.5-33.9l6.3-44.5c2.8-19.8,14.1-28.2,33.9-25.4l22.2,3.2c19.8,2.8,28.2,14.1,25.5,33.9l-1.1,7.4l-23.9-1.9
			l1.3-8.9c0.8-5.9-0.7-9.2-4.7-9.7l-22.3-3.2c-4-0.6-6.4,2.1-7.2,8.1l-6.3,44.5c-0.8,5.9,0.7,9.2,4.7,9.8l22.2,3.2
			C870,1396.5,872.4,1393.9,873.2,1387.9z"/>
		<path class="st3" d="M916.2,1393l-1.4-44.9c-0.7-20,9-30.3,29-30.9l22.5-0.7c20-0.7,30.3,9,30.9,29l1.4,44.9
			c0.7,20-9,30.3-29,30.9l-22.5,0.7C927.1,1422.6,916.8,1412.9,916.2,1393z M938.6,1347.3l1.4,44.9c0.2,6,2.3,8.9,6.3,8.8l22.5-0.7
			c4-0.1,5.9-3.2,5.7-9.2l-1.5-44.9c-0.2-6-2.3-8.9-6.3-8.8l-22.5,0.7C940.4,1338.2,938.5,1341.3,938.6,1347.3z"/>
		<path class="st3" d="M1002.3,1315.4l51.3-10.8c19.5-4.1,31.4,3.6,35.5,23.2l1.5,7.3c3.3,16-1.3,26.8-13.8,32.5l29.6,33.1
			l-25.4,5.3l-28.9-32.2l-12.6,2.6l7.7,36.7l-23.5,4.9L1002.3,1315.4z M1030.1,1331l5.2,24.9l27.8-5.8c3.9-0.8,5.2-4.2,4-10
			l-1.5-7.3c-1.2-5.9-3.8-8.4-7.7-7.6L1030.1,1331z"/>
		<path class="st3" d="M1089,1297.4l48.6-19.6c18.5-7.5,31.5-1.9,39,16.6l2.8,7c7.5,18.5,1.9,31.5-16.6,39l-26.4,10.6l14,34.7
			l-22.2,8.9L1089,1297.4z M1119.1,1307.8l9.5,23.6l26.4-10.6c3.7-1.5,4.4-5,2.2-10.6l-2.8-6.9c-2.2-5.6-5.2-7.6-8.9-6.1
			L1119.1,1307.8z"/>
		<path class="st3" d="M1209.3,1328.7l-23.7-38.2c-10.5-17-7.3-30.7,9.7-41.3l19.1-11.8c17-10.5,30.7-7.3,41.2,9.7l23.7,38.2
			c10.5,17,7.3,30.7-9.7,41.3l-19.1,11.8C1233.6,1348.9,1219.9,1345.7,1209.3,1328.7z M1206,1277.9l23.7,38.2
			c3.2,5.1,6.4,6.6,9.8,4.5l19.1-11.8c3.4-2.1,3.5-5.7,0.4-10.8l-23.7-38.2c-3.2-5.1-6.4-6.6-9.8-4.5l-19.1,11.8
			C1202.9,1269.2,1202.8,1272.8,1206,1277.9L1206,1277.9z"/>
		<path class="st3" d="M1245.2,1218.4l39.1-35c14.9-13.3,29-12.6,42.3,2.3l5,5.6c10.9,12.2,12.4,23.9,4.3,35l42.1,13.8l-19.3,17.3
			l-41.1-13.4l-9.6,8.6l25,27.9l-17.9,16L1245.2,1218.4z M1277,1218l17,19l21.2-19c3-2.7,2.5-6.2-1.5-10.7l-5-5.6
			c-4-4.5-7.5-5.4-10.5-2.7L1277,1218z"/>
		<path class="st3" d="M1419.5,1167.2l-24.2,30.7l8.6,13.3l-14.8,18.8l-60.2-93.1l15.8-20l104.6,36.6l-14.8,18.8L1419.5,1167.2z
			 M1383.3,1179.3l15.3-19.4l-36.1-12.7L1383.3,1179.3z"/>
		<path class="st3" d="M1403,1065.6l72.8,41.7l-11.9,20.8l-72.8-41.7l-14.5,25.3l-18.2-10.4l40.9-71.5l18.2,10.4L1403,1065.6z"/>
		<path class="st3" d="M1507.7,1040.6l-9.3,22.1l-96.7-40.6l9.3-22.1L1507.7,1040.6z"/>
		<path class="st3" d="M1487.9,1013.4l-43.2-12.2c-19.2-5.4-26.1-17.8-20.7-37l6.1-21.6c5.4-19.2,17.8-26.1,37-20.7l43.2,12.2
			c19.2,5.4,26.1,17.8,20.7,37l-6.1,21.6C1519.4,1012,1507.1,1018.9,1487.9,1013.4z M1451.2,978.1l43.2,12.2
			c5.8,1.6,9.2,0.5,10.3-3.3l6.1-21.6c1.1-3.8-1.2-6.6-7-8.2l-43.3-12.2c-5.8-1.6-9.2-0.5-10.3,3.3l-6.1,21.6
			C1443.1,973.8,1445.4,976.5,1451.2,978.1z"/>
		<path class="st3" d="M1487.2,888.5l59.6,6l-2.4,23.8L1440,907.9l2.4-23.8l63-28.4l-59.6-6l2.4-23.8l104.4,10.5l-2.4,23.8
			L1487.2,888.5z"/>
		<polygon class="st3" points="390.2,625.6 403.4,666.3 446.1,666.3 411.6,691.4 424.8,732.1 390.2,707 355.6,732.1 368.8,691.4 
			334.2,666.3 377,666.3 		"/>
		<polygon class="st3" points="1485.5,625.6 1498.7,666.3 1541.5,666.3 1506.9,691.4 1520.1,732.1 1485.5,707 1450.9,732.1 
			1464.1,691.4 1429.5,666.3 1472.3,666.3 		"/>
		<path d="M987,484.2c-0.1,0.1-0.2,0.2-0.4,0.3l0,0c-0.4,0.2-0.9,0.2-1.3,0c-0.5,0.5-1.1,0.9-1.7,1.2c-2.4,1-5.1,0.1-6.4-2.1
			c-0.1-0.2-0.6-0.9-0.4-0.6l-0.1-0.1c-0.6-0.7-1.2-1.4-1.7-2.1c-0.9-1.4-1.4-3-1.6-4.6c-1.5-0.8-2.7-2-3.6-3.4
			c-0.4-0.6-0.7-1.3-1-2c-0.7-0.3-1.3-0.7-1.9-1.2c-2.3-1.7-4.1-4.1-5.2-6.8c-2.2-4.6-6-8.3-10-11.6c-4.5-3.8-8.9-7.4-10.6-13.4
			c-0.1-0.4-0.2-0.8-0.3-1.2c0,0,0-0.1,0-0.1l-0.3-0.6l-0.2-0.4l-0.8-0.2c-3.9-1.2-7.6-3.4-11.1-5.5l-0.2-0.1h-0.1l-1.4-0.5
			c-1-0.3-1.9-0.6-2.8-1c-1.3-0.5-2.5-1.1-3.7-1.7l-0.2,0.5c-1.5,2.4-4.6,3.2-7.1,1.8c-5.8-3.2-10.5-7.8-15.5-12
			c-0.8-0.4-1.6-0.8-2.5-1.1c-0.6,2.1-2.6,3.5-4.8,3.3c-3.8-0.4-7.5-1.6-10.7-3.5c-2.6-1.5-5-3.3-7.7-4.7c-0.4-0.2-0.8-0.4-1.2-0.6
			h0c-0.7-0.3-1.4-0.5-2.2-0.7c-0.1,0-0.9-0.1-0.9-0.2c-0.2,0-0.4,0-0.5,0c-0.4,0-0.8,0-1.1,0h-0.3c-0.4,0.1-1.2,0.5-0.2,0
			c-0.2,0.1-0.4,0.2-0.6,0.3l-0.3,0.2c-0.1,0.1-0.3,0.2-0.4,0.3c-1.1,1-2.2,1.9-3.4,2.8c-2.5,1.6-5.4,2.6-8.4,2.9
			c-1.4,0.1-2.8,0.4-4.2,0.7l-0.6,0.2h0L847,417l-0.1,0.1c-0.2,0.2-0.4,0.5-0.7,0.7l0,0c2.3,2.8,4,6.1,4.9,9.6c1.3,5,1,9.6,0,14.7
			c-0.1,0.5-0.2,0.9-0.3,1.3c1.9,2.3,2,6.1-1.3,7.8l-1.6,0.8c0,0.1-0.1,0.2-0.1,0.4c-1.3,3.2-2.3,6.4-3.4,9.7
			c-1.2,3.5-2.6,6.9-4.1,10.2c-0.2,0.4-0.4,0.8-0.6,1.2l0.6-0.1c2.2-0.3,4.5,1.8,5,3.9c0.6,2.3-0.4,4.6-2.5,5.8
			c-1.8,0.8-3.6,1.6-5.4,2.4c3.4,4,5.3,9,5.3,14.3c0,5.2-2.3,11.5-6.2,15.2c0.5,1.8,0.8,3.7,0.7,5.6c-0.1,5.7-2.3,11.2-6.3,15.3
			c-0.4,0.4-0.7,0.7-1.1,1c2.5,1.2,4,4.6,1.5,7.2c-0.5,0.5-1.1,0.9-1.8,1.1c0,0.2-0.1,0.4-0.2,0.5c-0.1,0.1-0.3,0.2-0.5,0.2
			l239.5,563.1l156-66.4L987,484.2z"/>
		<path d="M1065.2,521.5c-0.1-0.1-0.2-0.3-0.2-0.5c-0.7-0.2-1.3-0.6-1.8-1.1c-2.5-2.5-1-6,1.5-7.2c-0.4-0.3-0.8-0.7-1.1-1
			c-4-4.1-6.2-9.6-6.3-15.3c-0.1-1.9,0.2-3.8,0.7-5.6c-3.9-3.7-6.2-9.9-6.2-15.2c0.1-5.2,2-10.3,5.3-14.3c-1.8-0.8-3.6-1.6-5.4-2.4
			c-2-1.2-3-3.5-2.4-5.8c0.5-2,2.8-4.1,5-3.8l0.6,0.1c-0.2-0.4-0.4-0.8-0.6-1.2c-1.5-3.3-2.9-6.7-4.1-10.2c-1.1-3.2-2.1-6.5-3.4-9.7
			l-0.2-0.4l-1.6-0.8c-3.3-1.6-3.2-5.4-1.3-7.8c-0.1-0.4-0.2-0.9-0.3-1.3c-1-5.1-1.3-9.6,0-14.6c1.2-4.5,3.6-8.6,7-11.9
			c0.9-0.8,1.8-1.6,2.8-2.3l-18.8-8c-1,4.2-2.4,8.4-4.2,12.3c-1.6,3.6-3.2,7.1-4.9,10.6c-0.7,1.4-1.4,2.7-2.2,4
			c0.5,0.4,0.9,0.8,1.2,1.4c1.4,2.5,0.6,5.6-1.8,7c-2.1,1.4-4.5,2.2-7,2.5c-2.8,0-5.1-2.3-5.2-5.1c0.4-4.9,2.8-8.9,5.1-13.1
			c1.8-3.3,3.2-6.8,4.8-10.1c1-2.2,1.4-3.1,2.1-5c0.7-1.9,1.3-3.8,1.8-5.7c0.1-0.5,0.2-1,0.3-1.5c0,0,0-0.1,0-0.2
			c-1.3,0.8-2.6,1.6-4,2.3c-1.7,0.7-3.3,1.6-4.8,2.5c-0.7,0.4-1.3,0.8-2,1.2l-0.7,0.5c-0.3,0.2-0.5,0.5-0.8,0.7
			c-0.6,0.5-1.1,1-1.7,1.6c-0.4,0.4-0.7,0.8-1.1,1.2c-0.1,0.1-0.3,0.5-0.4,0.5c-1.2,1.6-2.1,3.3-2.9,5.2c-1.5,3.7-2.7,8.9-5.4,12.4
			c-2.2,2.8-5.5,4.4-8.8,5.5c-1.4,0.5-2.8,0.9-4.2,1.3c-0.3,0.1-0.7,0.2-1,0.3l0,0l-0.1,0.1c-0.7,0.3-1.3,0.6-1.9,1l-0.3,0.2l-0.9,1
			c-1.6,2-3.7,3.5-6,4.4c-1.8,1.7-3.6,3.4-5.4,5c-5,4.5-10.8,8.6-17.6,9.3c-1.5,0.2-2.9-0.1-4.3-0.6c-5,4.2-10.4,7.7-16.2,10.6
			c-2.3,1.1-4.9,2.2-7.6,1.5c-0.3-0.1-0.5-0.2-0.8-0.3c-0.7,1.1-1.5,2-2.6,2.8c0.6,1.3,0.9,2.7,1,4.1c0.2,5.2-4.6,9.7-9.7,9.7
			c-2.4,0-4.7-0.9-6.4-2.5l-237.5,558.7l156,66.4l239.5-563.1C1065.4,521.7,1065.3,521.6,1065.2,521.5z"/>
		<rect x="712.7" y="638.6" class="st3" width="458.9" height="173.4"/>
		<path class="st4" d="M1287.6,905.3c0.3-0.5,0.7-1.1,1-1.6c1.8-2.7,3.8-5.3,6-7.7c7-7.7,15.5-14.5,23.6-21.3
			c5.2-4.4,10.5-8.8,15.5-13.5c0.1-0.3,0.3-0.5,0.4-0.8s0.3-0.6,0.4-0.9c0.8-2.1,1.8-4.2,2.9-6.2c1.4-1.8,2.8-3.5,4.4-5.2
			c1.9-2.4,3.6-5,5.2-7.6c-0.6,0.7-1.4,1.2-2.2,1.6c-0.6,0.3-1.1-0.4-0.7-0.8s0.8-1,1.2-1.5v-0.1l0.1-0.2c0.1-0.1,0.2-0.2,0.3-0.2
			l0.4-0.4c1.3-1.3,2.6-2.6,3.9-3.9s2.7-2.7,4-4.1s2.3-2.8,3.6-4.1c0.3-0.3,0.7-0.7,1-1l0.1-0.2c0.3-0.8,0.7-1.5,1.2-2.1
			c-0.2,0.1-0.3,0.2-0.4,0.3c-0.1,0.2-0.4,0.3-0.6,0.2l0,0c-0.3,0-0.5-0.3-0.4-0.6c0-0.1,0.1-0.2,0.2-0.3c0.3-0.2,0.7-0.4,1-0.6
			c0.2-0.1,0.4-0.3,0.7-0.4c0-0.1,0-0.2,0-0.3c0-0.1,0.1-0.2,0.1-0.3c-0.3,0-0.5-0.3-0.5-0.6c0-0.2,0.1-0.3,0.3-0.4
			c0.3-0.2,0.7-0.5,1-0.8c0.4-0.3,0.8-0.5,1.1-0.8c0.7-0.5,1.4-1.1,2.1-1.7c0.4-0.3,0.7-0.6,1.1-1l-0.3,0.2
			c-0.5,0.3-0.9,0.8-1.4,1.1c-0.2,0.1-0.4-0.1-0.2-0.2c0.5-0.4,0.9-0.8,1.4-1.1c0.5-0.3,0.9-0.7,1.3-1.2l0.3-0.4l0.1-0.2
			c0.2-0.3,0.5-0.6,0.7-0.8c0,0,0.1-0.1,0.1-0.1c0.3-0.4,0.7-0.7,1.1-1.1c0,0,0-0.1,0-0.2h0.1l0,0l0,0c0,0,0.1-0.1,0.1-0.1l0,0
			c0,0,0,0,0-0.1c0,0,0,0,0,0l0,0h0.1h0.1l0,0l0,0l0,0H542.8l0,0h0l0,0l0,0l0,0l0,0c0,0,0,0,0,0.1l0,0l0,0l0,0
			c0.1,0.1,0.1,0.1,0.2,0.2l0,0l0,0l0,0l0,0l0,0l0.2,0.2c0,0.1,0,0.1,0,0.2l0.1,0.1c0,0.1,0.1,0.2,0.1,0.2c0,0,0.1,0.1,0.1,0.2
			c0,0.1,0,0.1,0,0.2c0,0.1,0.1,0.2,0.1,0.3c0.3,0.3,0.7,0.6,0.8,1.1c0,0,0,0.1-0.1,0.1c0.2,0.2,0.3,0.5,0.4,0.7
			c0.1,0.2,0.3,0.4,0.4,0.6c0.3,0.4,0.6,0.7,0.8,1.1c0.1,0.2,0.2,0.4,0.3,0.6c0.1,0.1,0.2,0.3,0.4,0.4c0.2,0.1,0.3,0.2,0.3,0.3l0,0
			c0,0.1,0,0.1,0,0.2c0.7,0.8,1.3,1.7,1.8,2.6c0.4,0.8,0.9,1.6,1.3,2.4c0,0,0.1,0.1,0.1,0.1c0,0,0.1,0.1,0.1,0.1l0,0l0.2,0.3
			c0.2,0.2,0.4,0.3,0.5,0.5c0.4,0.4,0.7,0.9,0.7,1.5c0,0,0,0.1,0,0.1l0.2,0.2c0.3,0.3,0.6,0.6,0.9,0.8c0.8,0.6,1.5,1.4,2,2.2
			c0.5,1.1,1,2.1,1.7,3.1c0.2,0.3,0.4,0.6,0.6,0.9c0.5-0.1,1,0.1,1.4,0.5c3.2,3.4,6.8,6.9,8.3,11.2c0.4,0,0.8,0.2,1.2,0.5
			c1.8,1.8,2.8,4.2,4.1,6.2c1,1.6,1.8,3.3,2.5,5l0.3,0.2c2.5,2.2,4.1,5,6.3,7.4c1,1.1,1.8,2.3,2.4,3.7c1,1.6,2.1,3.1,3.4,4.4
			c0.2,0.3,0.5,0.6,0.7,1c0.6-0.6,1.5-0.6,2.1,0c0,0,0,0,0,0c2.3,2.5,4.3,5.3,6,8.2c4.2,3.1,7.3,7,10.2,11c0.3,0.5,0.7,0.9,1,1.4
			l1,0.8c0.6-0.3,1.3-0.1,1.7,0.3c4.4,4.5,10,8.1,14.9,12.2c2.2,1.7,4.2,3.7,6,5.8c0.8,1,1.6,2,2.4,3c1.1-0.1,2.2,0.4,3,1.1
			c4.2,4.1,8.8,7.7,13.7,10.8c2.5,1.4,4.9,3,7.2,4.7c1.2,1,2.3,2.1,3.4,3.2c0.6,0.3,1.1,0.6,1.6,1c1-0.5,2-0.6,3.1-0.3
			c3.4,1,5.5,3.6,8.4,5.3c1.2,0.3,2.3,0.7,3.4,1c1.3,0.4,2.5,1,3.5,1.9c0.6,0.5,1.3,1.1,2,1.6c0.8-1.5,3.7-0.7,3.1,1
			c-0.1,0.4-0.3,0.7-0.5,1.1c2.2,1.3,4.3,2.9,6,4.7h538c1.6-1.2,3.2-2.4,4.7-3.7c14.1-11.3,28.1-22.7,41.9-34.3
			C1279.9,912.3,1283.8,908.8,1287.6,905.3z"/>
		<path d="M924,525.1c-0.1-0.1-0.2-0.3-0.2-0.5c-0.7-0.2-1.3-0.6-1.8-1.1c-2.5-2.5-1-6,1.5-7.2c-0.4-0.3-0.8-0.7-1.1-1
			c-4-4.1-6.2-9.6-6.3-15.3c-0.1-1.9,0.2-3.8,0.7-5.6c-3.9-3.7-6.2-9.9-6.2-15.2c0.1-5.2,2-10.3,5.3-14.3c-1.8-0.8-3.6-1.6-5.4-2.4
			c-2-1.2-3-3.5-2.5-5.8c0.5-2,2.8-4.1,5-3.9l0.6,0.1c-0.2-0.4-0.4-0.8-0.6-1.2c-1.5-3.3-2.9-6.7-4.1-10.2c-1.1-3.2-2.1-6.5-3.4-9.7
			l-0.2-0.4l-1.6-0.8c-3.3-1.6-3.2-5.4-1.3-7.8c-0.1-0.4-0.2-0.9-0.3-1.3c-1-5.1-1.3-9.6,0-14.7c1.2-4.5,3.6-8.6,7-11.9
			c0.9-0.8,1.8-1.6,2.8-2.3l-18.8-8c-1,4.2-2.4,8.4-4.2,12.3c-1.6,3.6-3.2,7.1-4.9,10.6c-0.7,1.4-1.4,2.7-2.2,4
			c0.5,0.4,0.9,0.8,1.2,1.4c1.4,2.5,0.6,5.6-1.8,7c-2.1,1.4-4.5,2.2-7,2.5c-2.8,0-5.1-2.3-5.2-5.1c0.4-4.9,2.8-8.9,5.1-13.1
			c1.8-3.3,3.2-6.8,4.8-10.1c1-2.2,1.4-3.1,2.1-5c0.7-1.9,1.3-3.8,1.8-5.7c0.1-0.5,0.2-1,0.3-1.5V382c-1.3,0.8-2.6,1.6-4,2.2
			c-1.7,0.7-3.3,1.6-4.8,2.5c-0.7,0.4-1.3,0.8-2,1.2l-0.7,0.5c-0.3,0.2-0.5,0.5-0.8,0.7c-0.6,0.5-1.1,1-1.7,1.6
			c-0.4,0.4-0.7,0.8-1.1,1.2c-0.1,0.1-0.3,0.5-0.4,0.5c-1.2,1.6-2.1,3.3-2.9,5.2c-1.6,3.7-2.7,8.9-5.5,12.4
			c-2.2,2.8-5.5,4.4-8.8,5.5c-1.4,0.5-2.8,0.9-4.2,1.3c-0.3,0.1-0.7,0.2-1,0.3l0,0l-0.1,0.1c-0.7,0.3-1.3,0.6-1.9,1l-0.3,0.2l-0.9,1
			c-1.6,2-3.7,3.5-6,4.4c-1.8,1.7-3.6,3.4-5.4,5c-5,4.5-10.8,8.6-17.6,9.3c-1.5,0.1-2.9-0.1-4.3-0.6c-5,4.2-10.4,7.7-16.2,10.6
			c-2.3,1.1-4.9,2.2-7.6,1.5c-0.3-0.1-0.5-0.2-0.8-0.3c-0.7,1.1-1.5,2-2.6,2.8c0.6,1.3,0.9,2.7,1,4.1c0.2,5.2-4.6,9.7-9.7,9.7
			c-2.4,0-4.7-0.9-6.4-2.5L529,1022l156,66.4l239.5-563.1C924.3,525.3,924.1,525.2,924,525.1z"/>
		<path d="M1118,463.7c-0.1,0.1-0.2,0.2-0.4,0.3l0,0c-0.4,0.2-0.9,0.2-1.3,0c-0.5,0.5-1.1,0.9-1.7,1.2c-2.4,1-5.1,0.1-6.4-2.1
			c-0.1-0.2-0.6-0.9-0.4-0.7l-0.1-0.1c-0.6-0.7-1.2-1.4-1.7-2.1c-0.9-1.4-1.4-3-1.6-4.6c-1.5-0.8-2.7-2-3.6-3.5
			c-0.4-0.6-0.7-1.3-1-2c-0.7-0.3-1.3-0.7-1.9-1.2c-2.3-1.7-4.1-4.1-5.2-6.8c-2.2-4.6-6-8.3-10-11.6c-4.5-3.8-8.9-7.4-10.6-13.4
			c-0.1-0.4-0.2-0.8-0.3-1.2V416c-0.1-0.1-0.2-0.5-0.3-0.6s-0.1-0.3-0.2-0.4l-0.8-0.2c-3.9-1.4-7.6-3.2-11.1-5.5l-0.2-0.1h-0.1
			l-1.4-0.5c-1-0.3-1.9-0.6-2.8-1c-1.3-0.5-2.5-1.1-3.7-1.7c-0.1,0.1-0.1,0.3-0.2,0.4c-1.5,2.4-4.5,3.2-7,1.9
			c-5.8-3.1-10.5-7.8-15.5-12c-0.8-0.4-1.6-0.8-2.5-1.1c-0.6,2.1-2.6,3.5-4.8,3.3c-3.8-0.4-7.5-1.6-10.8-3.5c-2.6-1.5-5-3.3-7.7-4.7
			c-0.4-0.2-0.8-0.4-1.2-0.6h0c-0.7-0.3-1.4-0.5-2.1-0.8c-0.1,0-1-0.1-0.9-0.2h-0.5c-0.4,0-0.8,0-1.1,0h-0.3c-0.4,0.1-1.2,0.5-0.2,0
			l-0.6,0.3l-0.3,0.2l-0.4,0.3c-1.1,1-2.2,1.9-3.4,2.8c-2.5,1.6-5.4,2.6-8.4,2.9c-1.4,0.1-2.8,0.4-4.2,0.7l-0.6,0.2h-0.1l-0.7,0.4
			c0,0-0.1,0-0.1,0.1c-0.2,0.2-0.4,0.5-0.7,0.7l0,0c2.3,2.8,4,6.1,4.9,9.6c1.3,5,1,9.6,0,14.7c-0.1,0.4-0.2,0.9-0.3,1.3
			c1.9,2.3,2,6.1-1.3,7.8l-1.6,0.8l-0.1,0.4c-1.3,3.2-2.3,6.4-3.4,9.7c-1.2,3.5-2.6,6.9-4.1,10.2c-0.2,0.4-0.4,0.8-0.6,1.2l0.6-0.1
			c2.2-0.3,4.5,1.8,5,3.9c0.6,2.3-0.4,4.6-2.5,5.8c-1.8,0.8-3.6,1.6-5.4,2.4c3.4,4,5.3,9,5.4,14.3c0,5.2-2.3,11.5-6.2,15.2
			c0.5,1.8,0.8,3.7,0.7,5.6c-0.1,5.7-2.4,11.2-6.3,15.3c-0.4,0.4-0.7,0.7-1.1,1c2.5,1.2,4,4.6,1.5,7.2c-0.5,0.5-1.1,0.9-1.8,1.1
			c0,0.2-0.1,0.4-0.2,0.5c-0.1,0.1-0.3,0.2-0.5,0.2l239.5,563.1l156-66.4L1118,463.7z"/>
		<path class="st4" d="M1273.9,1128l1-1.8c1.7-3.1,3.7-6,6-8.7c7-8.8,15.5-16.5,23.6-24.3c5.2-5,10.5-10,15.5-15.3
			c0.2-0.3,0.3-0.6,0.4-0.9s0.3-0.7,0.4-1c0.8-2.4,1.8-4.7,2.9-7c1.3-2,2.8-4,4.4-5.9c1.9-2.8,3.6-5.7,5.2-8.7
			c-0.6,0.8-1.4,1.4-2.2,1.9c-0.3,0.2-0.6,0.1-0.8-0.2c-0.1-0.2-0.1-0.5,0.1-0.7c0.4-0.5,0.8-1.1,1.2-1.7v-0.1l0.1-0.2
			c0.1-0.1,0.2-0.2,0.3-0.3l0.4-0.4c1.3-1.5,2.6-2.9,3.9-4.4s2.7-3.1,4-4.7s2.2-3.2,3.6-4.6l1-1.2c0-0.1,0.1-0.1,0.1-0.2
			c0.3-0.8,0.7-1.6,1.2-2.4c-0.2,0.1-0.3,0.2-0.4,0.3c-0.1,0.2-0.4,0.3-0.6,0.3l0,0c-0.3-0.1-0.5-0.4-0.4-0.7c0-0.1,0.1-0.2,0.2-0.3
			c0.3-0.3,0.6-0.5,1-0.7l0.7-0.5c0-0.1,0-0.3,0-0.4c0-0.1,0.1-0.2,0.1-0.4c-0.3-0.1-0.5-0.4-0.4-0.7c0-0.1,0.1-0.3,0.2-0.4
			c0.3-0.3,0.7-0.6,1-0.9c0.4-0.3,0.7-0.6,1.1-0.9c0.7-0.6,1.4-1.2,2.1-1.9c0.4-0.4,0.7-0.8,1.1-1.2l-0.3,0.2
			c-0.5,0.4-0.9,0.9-1.4,1.3c-0.2,0.1-0.4-0.1-0.2-0.2c0.5-0.4,0.9-0.9,1.4-1.3c0.5-0.4,1-0.8,1.3-1.3c0.1-0.1,0.2-0.3,0.3-0.4
			l0.1-0.2c0.2-0.4,0.5-0.7,0.7-1l0.1-0.1c0.3-0.4,0.7-0.8,1.1-1.3c0-0.1,0-0.1,0-0.2l0.1-0.1l0,0l0,0l0,0l0.1-0.2l0,0
			c0,0,0,0,0-0.1c0,0,0,0,0-0.1v-0.1l0,0l0,0l0,0l0,0l0,0H529l0,0h0.1l0,0l0,0l0,0l0,0v0.1l0,0c0,0,0,0.1,0,0.1l0,0l0,0l0,0
			c0.1,0.1,0.1,0.1,0.2,0.2l0,0l0,0l0,0l0,0h0c0.1,0.1,0.2,0.1,0.2,0.2c0,0.1,0,0.1,0,0.2c0,0,0,0,0.1,0.1c0,0.1,0.1,0.2,0.1,0.3
			l0.1,0.2c0,0.1,0,0.1,0,0.2c0,0.1,0.1,0.2,0.1,0.3c0.3,0.4,0.7,0.7,0.8,1.2c0,0,0,0.1-0.1,0.1c0.2,0.3,0.3,0.5,0.4,0.8
			c0.1,0.2,0.3,0.5,0.4,0.7c0.3,0.4,0.6,0.8,0.8,1.3c0.1,0.2,0.2,0.5,0.3,0.7c0.1,0.2,0.2,0.3,0.4,0.4c0.2,0.1,0.3,0.2,0.3,0.4l0,0
			c0,0.1,0,0.2,0,0.2c0.7,0.9,1.3,1.9,1.8,3c0.4,0.9,0.9,1.9,1.3,2.8c0,0,0.1,0.1,0.1,0.1l0.1,0.2v0.1c0.1,0.1,0.2,0.2,0.3,0.3
			c0.1,0.1,0.3,0.4,0.5,0.6c0.4,0.5,0.7,1.1,0.7,1.7c0,0,0,0.1,0,0.1l0.2,0.3c0.3,0.3,0.6,0.7,0.9,1c0.8,0.7,1.5,1.6,2,2.5
			c0.5,1.2,1,2.4,1.7,3.5c0.2,0.3,0.4,0.7,0.6,1c0.5-0.1,1.1,0.1,1.4,0.5c3.2,3.9,6.8,7.8,8.3,12.7c0.4,0,0.9,0.2,1.2,0.5
			c1.8,2,2.8,4.7,4.1,7.1c1,1.8,1.8,3.7,2.5,5.7c0.1,0.1,0.2,0.1,0.3,0.2c2.5,2.5,4.1,5.7,6.3,8.5c1,1.3,1.8,2.7,2.4,4.2
			c0.9,1.7,1.9,3.3,3.1,4.8c0.2,0.4,0.5,0.7,0.7,1.1c0.5-0.6,1.4-0.7,2-0.2c0.1,0.1,0.2,0.1,0.2,0.2c2.3,2.9,4.3,6,6,9.3
			c4.2,3.5,7.2,8,10.2,12.6l1,1.6c0.3,0.3,0.7,0.6,1,0.9c0.6-0.3,1.3-0.1,1.7,0.4c4.4,5.2,10,9.2,14.9,13.8c2.2,2,4.2,4.2,6,6.5
			c0.8,1.1,1.6,2.2,2.4,3.4c1.2-0.1,2.3,0.4,3.1,1.3c4.1,4.6,8.7,8.7,13.7,12.3c2.5,1.6,4.9,3.4,7.2,5.3c1.2,1.1,2.4,2.4,3.4,3.7
			c0.5,0.3,1.1,0.7,1.6,1.1c0.9-0.5,2-0.7,3.1-0.3c3.4,1.1,5.5,4,8.4,6c1.1,0.4,2.3,0.8,3.4,1.2c1.3,0.5,2.5,1.2,3.5,2.1
			c0.7,0.6,1.3,1.3,2,1.8c0.8-1.7,3.7-0.8,3.1,1.1c-0.1,0.4-0.3,0.8-0.5,1.2c2.3,1.5,4.3,3.3,6,5.4h538c1.6-1.4,3.2-2.8,4.7-4.2
			c14.1-12.9,28.1-25.8,41.9-39C1266.1,1136.1,1270,1132.1,1273.9,1128z"/>
	</g>
	<g id="EYE" class="st0">
		<circle class="st3" cx="942.2" cy="540.4" r="191.7"/>
		<circle cx="942.2" cy="540.4" r="92.9"/>
		<circle class="st3" cx="980.6" cy="501.8" r="38.5"/>
	</g>
</g>
</svg>
