<?xml version="1.0" encoding="utf-8"?>
<!-- Generator: Adobe Illustrator 25.2.0, SVG Export Plug-In . SVG Version: 6.00 Build 0)  -->
<svg version="1.1" id="Layer_4_copy_2_xA0_Image_1_"
	 xmlns="http://www.w3.org/2000/svg" xmlns:xlink="http://www.w3.org/1999/xlink" x="0px" y="0px" viewBox="0 0 395.7 395.7"
	 style="enable-background:new 0 0 395.7 395.7;" xml:space="preserve">
<style type="text/css">
	.st0{fill:#FFFFFF;}
</style>
<g>
	<path class="st0" d="M302.8,274.1c1.8,1.3,4,2.5,5.8,4.2c26.3,26.2,52.6,52.6,78.9,78.8c6.4,6.4,8.5,13.6,6.1,22.4
		c-3.5,13-19.9,19.2-31.9,11.6c-2.6-1.6-4.8-3.9-7-6.1c-25.4-25.3-50.7-50.6-76-76c-1.7-1.7-3.1-3.8-5-6
		c-47.6,34.4-99.1,44.5-154.7,27.5c-39.3-12-70-36.3-91.9-71c-42.9-68-31.5-156.7,25.8-211.3c65.2-62.1,160.8-59.8,223.6-9.2
		C338.9,89.2,364.8,190.9,302.8,274.1z M169.3,309.3c72.1,1.3,140.3-57.2,140.4-139.3c0.1-78.5-62.1-139.9-139.8-140.1
		C90.7,29.7,31.9,93.7,30,165.7C27.9,247.5,95.4,310.3,169.3,309.3z"/>
	<path class="st0" d="M142.1,225.4c-0.1-2.4-0.3-4.2-0.3-5.9c0-24.5,0.1-48.9-0.1-73.4c0-3.8,1.2-6.5,3.8-9.4
		c13.9-15.2,27.6-30.6,41.4-46c4.8-5.3,9.6-6.8,16-4.6c5.9,2,9.6,7,9.7,13.7c0.2,11.1,0,22.2,0.1,33.4c0,2.4,0,4.8,0,7.9
		c6.1,0,11.6-0.1,17.1,0c8.6,0.2,17.3,0.3,25.9,1.2c6.5,0.7,11.1,4.5,12.4,11.2c0.4,1.9,0.4,4-0.1,5.8c-5.3,19-10.6,38-16.1,57
		c-2,7-5.7,9.7-12.6,9.7c-31.1,0.1-62.3,0-93.4,0C144.8,225.9,143.7,225.6,142.1,225.4z"/>
	<path class="st0" d="M113.6,225.4c-14.2,0-27.9,0-41.8,0c0-28.2,0-55.9,0-84c14,0,27.7,0,41.4,0C114.4,146,114.9,215.5,113.6,225.4
		z"/>
</g>
</svg>
