<?xml version="1.0" encoding="utf-8"?>
<!-- Generator: Adobe Illustrator 25.2.0, SVG Export Plug-In . SVG Version: 6.00 Build 0)  -->
<svg version="1.1" id="Layer_1" xmlns="http://www.w3.org/2000/svg" xmlns:xlink="http://www.w3.org/1999/xlink" x="0px" y="0px"
	 viewBox="0 0 340 340" style="enable-background:new 0 0 340 340;" xml:space="preserve">
<style type="text/css">
	.st0{fill:#BA0913;}
	.st1{fill-rule:evenodd;clip-rule:evenodd;fill:#FFFFFF;}
</style>
<g id="Layer_1_1_">
</g>
<g id="Layer_2_1_">
</g>
<g id="Layer_3">
</g>
<g id="Layer_4">
</g>
<g id="Layer_5">
</g>
<g id="Layer_6">
</g>
<g id="Layer_7">
	<ellipse class="st0" cx="170" cy="170" rx="170" ry="170"/>
	<g>
		<path class="st1" d="M88.1,48.9c7.3-4.2,60.6,45.7,59.5,57.8c-1.1,11.9-30,33.8-30,38.5c0,4.6,1.6,21.3,26.4,45.7
			c24.8,24.4,46.8,34.4,52.6,33.8c5.8-0.5,31.7-31.2,37.4-31.8c5.8-0.5,50,28.7,57.4,60.8c1.5,6.3-26.3,37.4-63.7,37.4
			c-37.4,0-86.3-27.5-122.7-63.4C68.7,192,8.1,96.3,88.1,48.9L88.1,48.9z"/>
	</g>
</g>
<g id="Layer_8">
</g>
</svg>
