<?xml version="1.0" encoding="utf-8"?>
<!-- Generator: Adobe Illustrator 25.2.0, SVG Export Plug-In . SVG Version: 6.00 Build 0)  -->
<svg version="1.1" id="Layer_1" xmlns="http://www.w3.org/2000/svg" xmlns:xlink="http://www.w3.org/1999/xlink" x="0px" y="0px"
	 viewBox="0 0 222 196.3" style="enable-background:new 0 0 222 196.3;" xml:space="preserve">
<style type="text/css">
	.st0{fill:#E8EAEE;}
</style>
<g>
	<g>
		<g>
			<path class="st0" d="M70.4,57.3c-15.7-2.2-26.7-16.7-24.5-32.4c1-7.6,5-14.3,11.1-19s13.7-6.6,21.3-5.6l118,16.3l-0.8,5.9
				L77.5,6.2c-6.1-0.8-12.1,0.7-16.9,4.4c-4.8,3.6-8,9-8.8,15c-1.7,12.5,7.1,24,19.5,25.7l115.1,15.9l4.1-29.6l5.9,0.8l-4.9,35.4
				L70.4,57.3z"/>
			<path class="st0" d="M131.4,45.5L48.3,34.1l0.8-5.9l83.1,11.4c1.3,0.1,1.9-0.5,3.7-3.8c1.8-3.2,4.5-8.1,10.8-7.2l50.8,7
				c10,1.3,14.8-6.1,16.8-10.6L113.8,11.1l0.8-5.9L222,20l-0.8,3.2c-1.8,7.2-9.2,20.3-24.5,18.2l-50.8-7c-2-0.3-2.8,0.6-4.8,4.2
				c-1.5,2.8-3.8,6.9-8.5,6.9C132.2,45.5,131.8,45.5,131.4,45.5z"/>
			<path class="st0" d="M66,74.4L69.2,51l38.7,5.3l-3.2,23.4L66,74.4z M74.2,57.7l-1.6,11.6l27,3.7l1.6-11.6L74.2,57.7z"/>
			<path class="st0" d="M165.7,56.7c-4-0.6-6.9-4.3-6.3-8.4c0.6-3.9,4.3-6.9,8.4-6.3c4,0.6,6.9,4.3,6.3,8.4
				c-0.6,3.6-3.7,6.4-7.4,6.4C166.3,56.8,166,56.8,165.7,56.7z M161.3,48.8c-0.4,2.9,1.7,5.7,4.7,6.1s5.7-1.8,6.1-4.7
				c0.4-2.9-1.7-5.7-4.7-6.1c-0.3-0.1-0.6-0.1-0.8-0.1C163.9,44,161.6,46,161.3,48.8z"/>
		</g>
		<g>
			<path class="st0" d="M19.5,167.4v-25.8h55.4c0.1-0.6,0.1-1.2,0.1-2V72.9h5.9v66.7c0,2.5-0.2,4.4-0.6,5.8l-0.6,2l-2,0.2
				c-0.2,0-0.5,0-0.9,0H25.5v13.9h51.3c8.2,0,18-3.8,18-21.8v-64h5.9v64c0,25-16.7,27.7-23.9,27.7H19.5L19.5,167.4z"/>
		</g>
		<path class="st0" d="M0,196.3l0-82.7h25.4v82.7H0L0,196.3z M19.5,119.6H6v70.8h13.5V119.6z"/>
	</g>
</g>
</svg>
