<?xml version="1.0" encoding="utf-8"?>
<!-- Generator: Adobe Illustrator 25.2.0, SVG Export Plug-In . SVG Version: 6.00 Build 0)  -->
<svg version="1.1" id="Layer_1" xmlns="http://www.w3.org/2000/svg" xmlns:xlink="http://www.w3.org/1999/xlink" x="0px" y="0px"
	 viewBox="0 0 176.9 202.9" style="enable-background:new 0 0 176.9 202.9;" xml:space="preserve">
<style type="text/css">
	.st0{fill:#E8EAEE;}
</style>
<g>
	<g>
		<path class="st0" d="M42.4,62h92.1v50.5c0,25.4-20.7,46.1-46.1,46.1c-25.4,0-46.1-20.7-46.1-46.1L42.4,62L42.4,62z M128.6,68H48.4
			v44.6c0,22.1,18,40.1,40.1,40.1s40.1-18,40.1-40.1V68L128.6,68z"/>
		<path class="st0" d="M24.1,39h128.7v29H24.1V39z M146.9,44.9H30.1V62h116.8V44.9z"/>
		<path class="st0" d="M9.8,0h157.4v44.9H9.8V0z M161.3,6H15.7v33h145.5L161.3,6L161.3,6z"/>
		<g>
			<rect x="87.5" y="169.9" class="st0" width="2" height="33"/>
			<rect y="113.5" class="st0" width="33" height="2"/>
			<rect x="143.9" y="113.5" class="st0" width="33" height="2"/>
			
				<rect x="21.1" y="164.4" transform="matrix(0.7071 -0.7071 0.7071 0.7071 -105.9322 75.0436)" class="st0" width="33" height="2"/>
			
				<rect x="138.3" y="148.9" transform="matrix(0.7071 -0.7071 0.7071 0.7071 -76.1588 146.9505)" class="st0" width="2" height="33"/>
		</g>
	</g>
</g>
</svg>
