<svg version="1.2" baseProfile="tiny-ps" xmlns="http://www.w3.org/2000/svg" viewBox="0 0 6379 4341" width="6379" height="4341">
	<title>5</title>
	<style>
		tspan { white-space:pre }
		.shp0 { opacity: 0.102;fill: #000000 } 
	</style>
	<g id="Layer_1">
	</g>
	<g id="Layer_2">
	</g>
	<g id="Layer_3">
	</g>
	<g id="Layer_4">
	</g>
	<g id="Layer_5">
	</g>
	<g id="Layer_6">
	</g>
	<g id="Layer_7">
		<g id="Layer">
			<path id="Layer" class="shp0" d="M632.28 4178.56L2170.33 2423.84L3186.97 3059.54L4203.61 2423.84L5741.66 4178.56L632.28 4178.56L632.28 4178.56ZM353.71 4040.47C301.33 3978.56 268 3899.99 268 3814.28L268 961.98L1908.43 2216.71L353.71 4040.47L353.71 4040.47ZM6022.61 4040.47L4467.89 2214.33L6110.7 959.6L6110.7 3811.9C6110.7 3899.99 6072.61 3978.56 6022.61 4040.47L6022.61 4040.47ZM3189.35 2352.42L268 526.28C268 323.9 429.9 162 632.28 162L5744.04 162C5944.04 162 6108.32 323.9 6108.32 526.28L3189.35 2352.42L3189.35 2352.42Z" />
		</g>
	</g>
	<g id="Layer_8">
	</g>
</svg>