<?xml version="1.0" encoding="utf-8"?>
<!-- Generator: Adobe Illustrator 25.2.0, SVG Export Plug-In . SVG Version: 6.00 Build 0)  -->
<svg version="1.1" id="Layer_1" xmlns="http://www.w3.org/2000/svg" xmlns:xlink="http://www.w3.org/1999/xlink" x="0px" y="0px"
	 viewBox="0 0 245.4 168.7" style="enable-background:new 0 0 245.4 168.7;" xml:space="preserve">
<style type="text/css">
	.st0{fill:#B10A13;}
</style>
<g id="Layer_1_1_">
</g>
<g id="Layer_2_1_">
</g>
<g id="Layer_3">
</g>
<g id="Layer_4">
</g>
<g id="Layer_5">
</g>
<g id="Layer_6">
</g>
<g id="Layer_7">
	<g>
		<path class="st0" d="M15.3,168.7L79.9,95l42.7,26.7L165.3,95l64.6,73.7H15.3L15.3,168.7z M3.6,162.9C1.4,160.3,0,157,0,153.4V33.6
			l68.9,52.7L3.6,162.9L3.6,162.9z M241.7,162.9l-65.3-76.7l69-52.7v119.8C245.4,157,243.8,160.3,241.7,162.9L241.7,162.9z
			 M122.7,92L0,15.3C0,6.8,6.8,0,15.3,0H230c8.4,0,15.3,6.8,15.3,15.3L122.7,92L122.7,92z"/>
	</g>
</g>
<g id="Layer_8">
</g>
</svg>
