<?xml version="1.0" encoding="utf-8"?>
<!-- Generator: Adobe Illustrator 25.2.0, SVG Export Plug-In . SVG Version: 6.00 Build 0)  -->
<svg version="1.1" id="Layer_4_copy_2_xA0_Image_1_"
	 xmlns="http://www.w3.org/2000/svg" xmlns:xlink="http://www.w3.org/1999/xlink" x="0px" y="0px" viewBox="0 0 282.6 282.7"
	 style="enable-background:new 0 0 282.6 282.7;" xml:space="preserve">
<style type="text/css">
	.st0{fill:#FFFFFF;}
	.st1{fill:#BA0913;}
</style>
<g>
	<g>
		<rect x="31.2" y="35.3" class="st0" width="228" height="207"/>
		<path class="st1" d="M141.4,282.6c-31.5,0-62.9-0.4-94.4,0.1c-21.3,0.4-42.3-14.9-46.6-38.1c-0.4-1.9-0.2-4-0.2-6
			c0-64.1,0.3-128.2-0.2-192.2C-0.1,25.5,14.6,6.1,35.9,1.2c3-0.7,6.2-1.1,9.3-1.1C109,0,172.7,0,236.5,0.1
			c22.7,0,42,16.8,45.2,39.3c0.6,3.9,0.9,7.9,0.9,11.8c0.1,61.1,0,122.2,0,183.3c0,23.7-15.6,43-38.9,47.7c-1.8,0.4-3.6,0.2-5.5,0.2
			C206,282.6,173.7,282.6,141.4,282.6z M153.6,191.6c-1.9-1.2-3.9-2.3-5.7-3.7c-17.4-13.7-32.4-29.8-44.5-48.4
			c-3.6-5.6-3.2-8.1,2-12.1c4.1-3.1,8.1-6.2,12.2-9.3c2.9-2.2,3.2-5,1.3-7.9c-3.2-4.8-6.1-9.9-10.1-14c-6.9-6.9-14.3-13.3-21.8-19.5
			c-4.1-3.4-8.9-2.8-12.6,0.9c-12.6,12.2-17.9,26.9-14.2,44c7.3,33.8,23.6,62.1,51.7,82.9c22.1,16.4,46.7,26.1,74.7,26.5
			c10.9,0.2,24.2-9,27.5-18.6c0.9-2.6,0.8-6.7-0.7-8.8c-8.3-11.6-19.3-20.4-31.5-27.6c-3.8-2.3-8.1-2.3-11.6,0.7
			C164.7,181.4,159.5,186.3,153.6,191.6z M139.9,65.4c7.7,1,14.6,1.5,21.4,2.8c26.1,5.2,44,20.6,54.5,44.9
			c8.3,19.3,10.6,39.7,10.9,60.4c0.1,4.3,2.3,6.4,5.9,6.4c3.4-0.1,5.7-2.2,5.5-6.3c-0.4-6.8-0.7-13.5-1-20.3
			c-0.7-15.5-4.2-30.4-10.2-44.6c-9.9-23.5-26.5-40.4-51.1-48.8c-15.1-5.1-30.5-6.7-46.3-4.9c-6.5,0.7-13,1.8-19.5,3.1
			c-3.1,0.6-4.6,3.1-4.2,6.4c0.4,3.1,2.3,4.7,5.4,4.7c1.5,0,3-0.1,4.5-0.3C124,67.7,132.3,66.5,139.9,65.4z M141.2,92.9
			c-1.9,0-4.9,0-7.9,0c-0.6,0-1.3,0.3-1.9,0.5c-5.5,1.4-7.5,3.7-6.6,7.4c0.8,3.4,4.6,4.9,9.4,4.1c3.6-0.5,7.3-1.1,10.8-0.8
			c11,0.9,21,4.7,28.3,13.4c9.9,12,13.8,26.4,15.3,41.5c0.4,4,2.6,6.1,6.2,6.4s6.2-3.1,5.3-7.2c-1.9-9.5-3.3-19.2-6.4-28.3
			C185.8,106.8,167.2,91.7,141.2,92.9z"/>
	</g>
</g>
</svg>
