<?xml version="1.0" encoding="utf-8"?>
<!-- Generator: Adobe Illustrator 25.2.0, SVG Export Plug-In . SVG Version: 6.00 Build 0)  -->
<svg version="1.1" id="Layer_4_copy_2_xA0_Image_1_"
	 xmlns="http://www.w3.org/2000/svg" xmlns:xlink="http://www.w3.org/1999/xlink" x="0px" y="0px" viewBox="0 0 440.2 478.6"
	 style="enable-background:new 0 0 440.2 478.6;" xml:space="preserve">
<style type="text/css">
	.st0{opacity:0.1;}
</style>
<g>
	<path class="st0" d="M260,408.8c-5.5-2.2-7-6.2-5.8-11.4c0.2-0.8,0.1-1.6,0.1-2.6c-4.9-2.1-10.2-2.8-15-4.2
		c-0.6,0.2-0.9,0.1-1.2,0.3c-6.7,5.5-13.7,4.6-20.8,0.8c-2.7-1.5-5.3-3.1-8-4.6c-3.2-1.8-6.5-3.7-9.7-5.5c-2.3-1.3-4.2-3-5.8-5.1
		c-2.6-3.5-3.8-7.5-2.7-11.9c0.3-1.1,0.5-2.2,0.7-3.5c-2.9-2.9-5.8-5.9-8.8-8.9c-0.7,0.1-1.3,0.1-1.9,0.3c-7,2.1-12.3-0.6-16.6-5.9
		c-1-1.2-1.8-2.7-2.4-4.2c-2.9-6.3-5.7-12.7-8.6-19c-1.8-4-2.3-8.1-1.2-12.3c0.5-1.8,1.4-3.6,2.3-5.6c-2.3-3.6-4.7-7.2-7.1-10.9
		c-0.8,0-1.4-0.2-2-0.1c-5.3,0.4-9.8-1.5-13.7-5c-5.3-4.8-10.4-9.6-15.5-14.6c-5.5-5.3-7.5-11.5-4.6-18.9c0.1-0.3,0.1-0.6,0.1-1.4
		c-2.3-3.7-4.8-7.6-7.3-11.4c-0.8-0.1-1.2-0.3-1.7-0.3c-7-0.1-11.9-3.7-15.1-9.7c-3.3-6.3-6.5-12.7-9.6-19
		c-3.4-6.8-3.1-13.4,2.1-19.8c-0.5-2.4-1.1-5.1-1.7-7.7c-2.4-0.4-4.7-0.5-6.7-1.3c-2.2-0.8-3.2-3.1-4.3-5.4
		c-2.1,0.2-4.1,0.3-6.2,0.5c-4.5,0.4-9,0.9-13.5,1.3c-6.7,0.5-12.4-1.8-16.9-6.7c-3.2-3.4-4.7-7.6-5.2-12.3
		c-0.8-8.7-1.7-17.4-2.5-26c0-0.3-0.1-0.6-0.1-1c0-4.4-1.1-8.3-4.7-11.1C1,103.6-4.3,79.7,3.6,53.5c6.5-21.7,20.5-37.6,41.3-46.7
		c21.8-9.6,43.6-9.1,65,1.8c17.7,9,29.9,22.8,36.7,41.4c6,16.3,6.1,32.8,0.7,49.4c-1.8,5.6-4.4,10.8-7.4,15.7c-1.2,2-1.7,4-1.4,6.4
		c1.1,10.1,2,20.2,3,30.4c0.6,6.1-1.1,11.5-5.2,16.1c-3.5,3.9-7.9,6.1-13.1,6.6c-5.3,0.6-10.6,1-15.9,1.6c-1,0.1-1.9,0.2-3.1,0.3
		c-0.5,1.1-0.9,2.3-1.4,3.4c-1.2,2.5-3.1,4.1-5.9,4.4c-2.9,0.3-5.8,0.6-8.8,1c-0.4,2.1,0.2,3.9,1.1,5.7c0.8,0.2,1.5,0.5,2.3,0.7
		c5.1,1.1,8.9,4,11.3,8.4c3.7,7,7.3,14,10.7,21.2c2.7,5.6,2.2,11.3-1.1,16.8c1.9,4,4.6,7.4,6.8,11c0.5,0.1,0.9,0.3,1.1,0.2
		c6.2-1,11.4,1.1,15.9,5.3c4.9,4.7,9.9,9.2,14.8,13.9c1,1,2,2.1,2.8,3.3c3.7,5.4,4.4,11,1.3,16.8c1.4,3.5,4.5,8.4,7.7,12.3
		c1.9,0.3,3.9,0.4,5.7,0.9c4.9,1.5,8.4,4.7,10.6,9.3c3.2,6.7,6.2,13.5,9.2,20.3c1.9,4.3,2,8.8,0.6,13.5c2.9,3.8,6.6,6.9,9.9,10.2
		c11.5-1.2,11.8,0.3,18.6,4.1c4.4,2.4,8.8,4.7,13.1,7.3c7.8,4.5,9.3,6.6,11.6,15.5c4.2,1.1,8.5,2.2,12.6,3.2
		c1.6-1.1,1.3-2.6,1.4-3.8c0.4-4.5,2.3-7.7,7.1-8.5c0.3-0.1,0.6-0.3,1.2-0.7c0.2-1.5,0.5-3.2,0.7-4.9c0.6-5,1.1-10,1.9-14.9
		c1.4-8.6,7.6-15,16.1-16.6c2.5-0.5,5.2-0.4,7.7-0.1c9.3,1,18.6,2.1,27.9,3.4c3.4,0.5,6.1-0.1,9.2-1.7c19.6-10.8,40.2-12.7,61.3-5.5
		c36.3,12.4,58.2,50.3,48.8,89c-10.1,41.7-52.6,67-94.9,54.6c-11.3-3.3-21.5-9-29.9-17.3c-2.5-2.5-5.2-3.5-8.5-3.8
		c-8.7-0.9-17.3-2.1-26-3.1c-1.3-0.2-2.6-0.3-3.8-0.5c-11.3-2-18.3-11.2-17.2-22.6c0.4-4.3,1-8.7,1.5-13
		C259.5,413.2,259.7,411.3,260,408.8z M308.7,373.9c-16.7,32.5-2.5,69.9,26.9,85.2c27.7,14.4,66.9,7.5,84.9-26.5
		c17.1-32.3,3.7-69.5-26.5-85.3C361.7,330.5,324.5,344,308.7,373.9z M46.5,131.4c28.5,15.8,68,5.5,84.9-26.2
		c15.1-28.4,6.7-67.8-26.4-85.3C75.6,4.3,37,13.4,19.7,46.3C1.9,80.3,18.4,117.6,46.5,131.4z M107.7,230.6c0.7-2.6,0.1-5-1.1-7.4
		c-3.1-6.2-6.3-12.4-9.4-18.6c-1-1.9-2.3-3.5-4-4.8c-0.5-0.3-1.1-0.4-1.6-0.6c-0.2,0.3-0.4,0.5-0.4,0.6c0.1,0.9,0.2,1.9,0.3,2.8
		c0.4,3.9-2,6-6,5.1c-0.7-0.1-1.4-1-2.2,0.2c0.4,1.1,0.8,2.3,1.3,3.4c0.7,1.6,1.6,3.2,2.4,4.8c2.3,4.6,4.6,9.2,7,13.8
		c1.2,2.3,2.8,4.2,5.2,5c0.4-0.3,0.7-0.3,0.7-0.4c1.2-3.1,3.3-4.7,6.8-3.6C106.9,231.1,107.3,230.8,107.7,230.6z M149.3,281
		c0.1-0.7,0.4-1.3,0.3-1.8c-0.6-2.3-1.9-4.1-3.5-5.7c-5-4.7-10.1-9.5-15.2-14.2c-1.2-1.1-2.6-1.9-4-2.6c-0.6-0.3-1.4-0.2-2.7-0.3
		c0.7,1.8,1.4,3.1,1.6,4.5c0.5,3.1-1.8,5.2-4.9,4.7c-0.7-0.1-1.4-0.4-2.3-0.7c-0.1,2.2,1.1,3.4,2.2,4.4c5.5,5.2,11,10.4,16.5,15.5
		c1.2,1.1,2.7,2.1,4.8,2c0-1.2-0.1-2.1,0.1-3.1c0.6-3.2,2.3-4.2,5.5-3.4C148.1,280.6,148.6,280.8,149.3,281z M159.1,313.4
		c-0.6,2.9-0.1,5.1,0.9,7.2c2.9,6.3,5.7,12.6,8.6,18.9c0.5,1,1,2,1.7,2.9c1.3,1.7,2.9,3,5.4,3.2c-0.4-1.6-0.9-2.9-1-4.3
		c-0.2-2.3,1.6-4.1,3.8-3.9c1.2,0.1,2.4,0.4,3.8,0.7c0.5-1.8-0.3-3.3-0.9-4.7c-1.1-2.5-2.3-5-3.4-7.5c-1.7-3.7-3.3-7.3-5-11
		c-1-2.2-2.2-4.2-4.8-5.5c0,1.3,0.1,2.2-0.1,3.1c-0.6,3-3,4.2-5.8,3C161.4,315.1,160.6,314.3,159.1,313.4z M206.8,362.5
		c0.4,1.1,1,2.2,1.2,3.4c0.7,3.3-1.5,5.4-4.8,4.7c-1-0.2-2-0.9-3-1.4c-0.6-0.3-1-1.3-2.1-0.5c0.5,3.7,3.1,5.8,6.1,7.6
		c2.6,1.6,5.4,3,8,4.5c3.7,2,7.4,4.1,11.1,6c0.9,0.5,2,1.3,3.2,0.1c-0.3-0.5-0.6-1-0.8-1.6c-1.2-3.3,0.1-5.4,3.5-5.8
		c0.8-0.1,1.6,0,2.4,0c0.7,0,1.4,0,2.2-0.1c-0.8-2.5-2.2-4-4.1-5c-6.9-3.9-13.7-7.8-20.6-11.7C208.6,362.2,207.8,361.7,206.8,362.5z
		 M81.3,160.5c0.4,2,0.7,3.8,1.1,5.5c0.2,0.8,1.6,1.5,2.4,1.1c0.7-0.3,1.3-1,1.6-1.6c0.3-0.5,0.2-1.3,0.1-1.9
		c-0.6-2.5,0.3-4.1,2.1-5.9c2.9-3,2.2-7.7-1-10.3c-2.9-2.4-7.5-1.9-10,1c-2.5,2.9-2.2,7.3,0.7,10C79.1,159.2,80.2,159.8,81.3,160.5z
		 M280.4,390.3c-1.4-0.1-2.9-0.3-4.3-0.3c-1.6-0.1-2.6,0.8-2.7,2.1c-0.1,1.1,0.7,2.1,1.9,2.4c1.6,0.3,3.1,0.6,4.4,0.8
		c1.1,1.4,1.8,2.7,2.8,3.7c2.9,2.7,7.2,2.5,10-0.3c2.6-2.5,2.7-6.8,0.3-9.7c-2.4-2.9-6.4-3.4-9.6-1.2
		C282.3,388.5,281.4,389.5,280.4,390.3z"/>
</g>
</svg>
