<svg id="Layer_1" data-name="Layer 1" xmlns="http://www.w3.org/2000/svg" viewBox="0 0 4529 2332.01"><defs><style>.cls-1{fill:#fff;}.cls-2{fill:none;}</style></defs><rect class="cls-1" width="4529" height="2332.01"/><rect class="cls-1" width="4529" height="2332.01"/><path class="cls-2" d="M4070.64,283.55c151.6,41.89,304.5,80.12,458.36,113.58v-31q-211.91-46-421.08-103.36h0C3825,185.2,3546,95.83,3269.06,0h-88.87c293.9,103.28,590,199.91,890.45,283.55Z" transform="translate(0)"/><path class="cls-2" d="M3862.1,397.15c219.76,65.53,442.34,124.64,666.9,173.65v-31c-211.91-46.23-422-101.44-629.65-162.59h0C3523.2,265.67,3153.35,135.81,2785.55,0h-83.63c383.23,142.48,768.35,279.53,1160.19,397.14Z" transform="translate(0)"/><path class="cls-2" d="M3757.82,452.3C4011.52,530.48,4269,600.87,4529,657.73v-31c-247.37-54.06-492.35-120.36-733.93-194h0C3375.43,304.05,2963.27,154.1,2552.54,0h-82.45C2896,160.34,3323,317.49,3757.83,452.3Z" transform="translate(0)"/><path class="cls-2" d="M770.94,1880.38C517.33,1802.21,260,1731.82,0,1675v31c247.3,54,492.21,120.35,733.69,194h0c419.07,128.43,830.7,278.15,1240.87,432.05H2057c-425.32-160.13-851.75-317-1286-451.63Z" transform="translate(0)"/><path class="cls-2" d="M3966.36,340.92c185.74,53.41,373.47,101.8,562.64,143v-31c-176.54-38.43-351.83-83.13-525.39-132.36h0C3672.71,226,3346.91,116.36,3023.37,0h-85.71C3277.23,123.44,3619,240.32,3966.36,340.92Z" transform="translate(0)"/><path class="cls-2" d="M3809.94,424.84c236.74,71.82,476.75,136.51,719.06,189.44V583.22c-229.64-50.14-457.2-110.83-681.81-178.14h0C3449.11,285,3057.92,145.11,2668.54,0h-82.89c404.63,151.56,810.81,298.65,1224.29,424.84Z" transform="translate(0)"/><path class="cls-2" d="M3914.22,369.17C4117,428.57,4322.15,482.24,4529,527.34v-31C4334.78,454,4142.07,404.12,3951.47,349h0c-353.84-103-702-222.77-1047.91-349h-84.38c361.57,133.1,725.24,260.08,1095,369.17Z" transform="translate(0)"/><path class="cls-2" d="M4018.5,312.38c168.68,47.58,339,90.82,510.5,128.14v-31c-158.9-34.56-316.77-74.2-473.25-117.68h0C3748.46,205.76,3445.63,106.22,3145.05,0h-87.17c317,113.5,636.38,220.28,960.62,312.38Z" transform="translate(0)"/><path class="cls-2" d="M718.77,1907.82C482.13,1836,242.22,1771.37,0,1718.44v31.07c229.54,50.13,457,110.79,681.55,178.08h0C1079,2047.48,1469.6,2187.14,1858.39,2332h82.87c-404-151.31-809.63-298.15-1222.49-424.19Z" transform="translate(0)"/><path class="cls-2" d="M2350,1127.34c713.11,269.29,1432.94,540.6,2179,704v-31c-733-160.53-1441-425.5-2141.72-690h0C1604.48,814.86,819,508,0,327.66v31c806,177.2,1579.79,477.67,2350,768.67Z" transform="translate(0)"/><path class="cls-2" d="M3132.14,764.62c456.55,161.68,922.38,311.3,1396.86,415.32v-31.08c-461.64-101.22-915.14-245.6-1359.61-402.1h0C2488.09,506.14,1818.48,231.36,1133.94,0h-92.62c704.34,233.32,1391.74,516.27,2090.82,764.62Z" transform="translate(0)"/><path class="cls-2" d="M3236.42,714.43C3659.14,861.58,4090.42,996.74,4529,1093v-31.08c-425.79-93.41-844.71-223.5-1255.36-365.53h0C2639.69,476.35,2017.23,223.7,1384.64,0h-88.27C1947,226.76,2585.93,487.17,3236.42,714.43Z" transform="translate(0)"/><path class="cls-2" d="M2402.15,1103.58C3097.94,1366,3801.2,1628.7,4529,1788v-31c-714.78-156.39-1406.18-412.87-2089.58-670.41h0C1639.12,784.75,837.31,468.79,0,284.2v31c824.23,181.47,1614.4,491,2402.15,788.34Z" transform="translate(0)"/><path class="cls-2" d="M3184.28,739.6C3623.86,894,4072.46,1036.39,4529,1136.5v-31.1c-443.71-97.33-879.94-234.53-1307.47-383.76h0C2564.29,491.46,1918.66,227.9,1260.66,0h-90.2c676.82,230.47,1339.47,502,2013.82,739.6Z" transform="translate(0)"/><path class="cls-2" d="M2297.87,1151.07c730.5,276,1466.85,556.18,2231.13,723.74v-31c-751.24-164.63-1475.78-438.45-2193.88-709.66h0C1569.84,845,800.72,547.09,0,371.08v31c787.66,173,1545.09,464.44,2297.87,749Z" transform="translate(0)"/><path class="cls-2" d="M3340.68,663.57c388.9,132.85,785.55,254,1188.32,342.37V974.83C4139,889.27,3754.78,773,3377.92,645.24h0C2788.74,444.68,2210.53,213.37,1626,0h-85.35C2142,217.32,2735.74,456.17,3340.68,663.58Z" transform="translate(0)"/><path class="cls-2" d="M3288.54,689.08c405.78,140,819.77,268.1,1240.46,360.4v-31.12c-407.87-89.49-809.46-212.61-1203.19-347.47h0C2714.54,460.71,2114.52,218.8,1506.37,0h-86.8c625.54,222.36,1241.55,471.89,1869,689.08Z" transform="translate(0)"/><path class="cls-2" d="M301.65,2137.45Q151.56,2098.72,0,2065.68v31q132.73,28.82,264.43,62.26h0C466.84,2210.66,667.21,2269,866.1,2332h96.46c-218.37-70.92-438.41-136.65-660.91-194.56Z" transform="translate(0)"/><path class="cls-2" d="M197.39,2198Q99,2173.88,0,2152.33v31q80.27,17.44,160.15,36.64h0q211.46,51.28,420,112.09H685.36c-161.5-48.47-324-93.5-488-134Z" transform="translate(0)"/><path class="cls-2" d="M2975.72,838.84c507.39,183.61,1024.82,355.82,1553.28,471.55v-31.06C4013.39,1166.4,3508.21,999.67,3012.94,821.26h0C2252.51,546.69,1503.57,236.08,729.86,0H626.49c797.79,235.56,1567.83,555.43,2349.23,838.84Z" transform="translate(0)"/><path class="cls-2" d="M3027.84,814.22C3518.2,990.55,4018.51,1155.16,4529,1267v-31.07c-497.62-109.06-985.63-268.3-1463.92-439.36h0C2332.42,533.85,1611.42,235.61,869.34,0h-99c764.43,236.09,1505.22,543.07,2257.54,814.22Z" transform="translate(0)"/><path class="cls-2" d="M2506.43,1056c661.23,248.63,1331.18,494,2022.57,645.19v-31C3850.6,1521.77,3192.67,1282.48,2543.68,1039h0C1710,725.74,877.76,392,6,198.51c5.95-3.65,8.93-5.47,14.89-9.1C892.46,384.63,1724.65,719,2558.57,1032.14h0c644,241.58,1297.22,478.47,1970.43,625.66v-31c-660.24-144.36-1301.44-375.25-1933.18-611.72h0C1761.08,702.33,929.27,366.34,58.11,166.77c6-3.61,8.94-5.41,14.9-9,871,201.35,1702.63,537.87,2537.7,850.47h0c626.82,234.43,1263.23,463,1918.29,606.17v-31C3886.91,1443,3262.54,1220.45,2648,991.13h0C1812.13,678.94,980.73,340.93,110.25,135.39l14.9-8.89c870.27,207.22,1701.57,545.75,2537.7,857.78h0C3272.53,1211.58,3892.08,1431.73,4529,1571v-31c-624-136.43-1231.45-350.75-1828.87-572.87h0c-836.9-311.59-1668-651.45-2537.73-862.76l14.89-8.79C1046.82,308.39,1877.82,648.9,2715,960.26h0c592.58,220.08,1195.22,432,1814,567.28v-31c-605.86-132.49-1196.39-338.63-1776.73-553.51h0C1914.3,632.24,1083.51,290.63,214.54,73.72L229.43,65C1098.22,283.4,1928.85,625.71,2767.16,936.17h0c575.45,212.83,1161.15,416.64,1761.84,548v-31.06c-587.77-128.57-1161.32-326.58-1724.62-534.23h0C1965.27,609.12,1134.87,265.75,266.68,43.4l14.89-8.6c868,223.84,1698.3,567.67,2537.7,877.17h0C3377.73,1117.49,3946.4,1313.25,4529,1440.71v-31C3959.29,1285.06,3402.76,1095,2856.52,894.64h0C2016.32,586,1186.21,240.91,318.82,13.42c5.95-3.41,8.93-5.11,14.89-8.5,867.15,229,1697.21,574.41,2537.73,882.79h0c541.38,198.24,1093,386,1657.56,509.58v-31c-551.65-120.76-1091.09-303-1620.34-496h0c-822-300.41-1633-637.93-2478-870.29H0V228.28C860.87,418.43,1683.49,746.34,2506.43,1056Z" transform="translate(0)"/><path class="cls-2" d="M3080,789.48c473.44,169,956.54,326.09,1449,434v-31.07c-479.64-105.13-950.42-256.88-1411.75-420.68h0C2410.85,520.24,1716.13,234,1003.63,0H908.16C1641.6,235.28,2355,530,3080,789.48Z" transform="translate(0)"/><path class="cls-2" d="M2454.29,1079.8c678.47,255.59,1365.12,509.55,2074.71,664.79v-31c-696.57-152.39-1371.25-400.15-2037.43-650.75h0C1673.64,754.88,855.64,429.63,0,240.7v31.05C842.55,457.5,1649,776.24,2454.29,1079.8Z" transform="translate(0)"/><path class="cls-2" d="M2923.55,863.32C3448,1054.22,3982.5,1234.2,4529,1353.85v-31c-533.62-116.84-1056-291.28-1568.17-477h0C2170.81,558.77,1392,235.09,584.23,0H475.43c834,233.3,1635.56,566.83,2448.12,863.32Z" transform="translate(0)"/><path class="cls-2" d="M3549.26,559.66C3870.6,664.5,4197.72,759.19,4529,831.82V800.7c-318.52-69.81-633.2-160-942.49-259.94h0C3082.59,377.06,2588.17,186.81,2092.51,0h-82.43C2521.17,192.07,3030.3,389.59,3549.26,559.66Z" transform="translate(0)"/><path class="cls-2" d="M666.63,1935.52C447,1870,224.48,1810.9,0,1761.9V1793c211.82,46.2,421.87,101.39,629.41,162.51h0C1005,2066.81,1374.27,2196.42,1741.51,2332H1825c-382.63-142.26-767.15-279.07-1158.38-396.48Z" transform="translate(0)"/><path class="cls-2" d="M3705.68,479.49c270.62,84.7,545.48,161,823.32,221.78V670.2c-265.14-58-527.55-130.05-786.07-210.11h0C3302,322.8,2869.16,162.79,2437.25,0h-82.17c447,168.79,894.63,336,1350.6,479.49Z" transform="translate(0)"/><path class="cls-2" d="M614.51,1963.51C411.84,1904.11,206.77,1850.45,0,1805.36v31c194.13,42.31,386.75,92.17,577.27,147.26h0C930.48,2086.46,1278,2206,1623.33,2332h84.6c-361-132.87-724.17-259.61-1093.41-368.51Z" transform="translate(0)"/><path class="cls-2" d="M562.35,1991.75C376.71,1938.35,189.07,1890,0,1848.79v31c176.45,38.42,351.64,83.11,525.1,132.32h0c330.22,94.37,655.36,203.8,978.25,319.91h85.93c-339-123.21-680.21-239.86-1026.93-340.26Z" transform="translate(0)"/><path class="cls-2" d="M3601.41,533.17c304.44,98,614.15,186.44,927.59,255.12V757.2c-300.72-65.86-598-149.87-890.38-243.11h0c-483-154.77-956.9-334.92-1431.2-514.09h-82.1c489.56,184.67,978.13,372,1476.09,533.17Z" transform="translate(0)"/><path class="cls-2" d="M353.79,2107.68Q177.93,2061.23,0,2022.34v30.94q159,34.54,316.54,75.63h0c230.33,60.37,458,129,684,203.1h93.61c-244.5-81.87-490.9-157.87-740.35-224.33Z" transform="translate(0)"/><path class="cls-2" d="M3653.52,506.44C3941.07,597.76,4233.36,680,4529,744.77V713.68c-282.91-61.92-562.75-139.88-838.21-226.47h0c-462-146-915.48-316-1368.59-487.21h-81.95c468.22,176.9,936.29,354.16,1413.27,506.44Z" transform="translate(0)"/><path class="cls-2" d="M510.23,2020.29C341.64,1972.74,171.41,1929.52,0,1892.21v31c158.81,34.55,316.59,74.17,473,117.62h0C779.7,2126.72,1082,2226,1382,2332h87c-316.44-113.24-635.16-219.78-958.75-311.72Z" transform="translate(0)"/><path class="cls-2" d="M2037.17,1269.86c818,307.91,1636.08,633.31,2491.83,822.18V2061c-842.66-185.75-1649.11-504.6-2454.56-808.11h0C1396,997.29,709.49,743.43,0,588.16v31c696.48,152.34,1371.16,400.11,2037.17,650.73Z" transform="translate(0)"/><path class="cls-2" d="M2193.61,1198.55C2959,1487.7,3728.18,1785.66,4529,1961.65v-31c-787.75-173-1545.28-464.45-2298.14-749h0C1500.47,905.57,764.18,625.53,0,457.93v31c751.15,164.59,1475.61,438.5,2193.61,709.63Z" transform="translate(0)"/><path class="cls-2" d="M3392.82,637.89C3764.84,763.62,4144.13,878,4529,962.4V931.3c-372.08-81.63-738.95-191.18-1098.91-311.87h0C2862.61,428.33,2305.81,207.4,1744.2,0h-84.29c577.93,211.71,1150,440.06,1732.9,637.89Z" transform="translate(0)"/><path class="cls-2" d="M3445,612C3800.1,730.73,4162,838.38,4529,918.87V887.78c-354.22-77.69-703.71-180.65-1046.77-294.37h0C2936.1,411.61,2400.31,201,1861.07,0h-83.42C2332.83,205.61,2883.6,423.58,3445,612Z" transform="translate(0)"/><path class="cls-2" d="M2141.48,1222.31c782.89,295.48,1568.4,602.52,2387.52,782.77V1974C3723,1796.73,2949.09,1496.32,2178.7,1205.33h0C1465.69,936,745.92,664.81,0,501.36v31c732.91,160.51,1440.85,425.49,2141.48,689.95Z" transform="translate(0)"/><path class="cls-2" d="M2089.33,1246.08C2889.82,1547.78,3691.56,1864,4529,2048.54v-31c-824.33-181.42-1614.6-491-2402.42-788.41h0C1430.84,966.69,727.71,704.11,0,544.75v31c714.69,156.43,1406,412.82,2089.34,670.33Z" transform="translate(0)"/><path class="cls-2" d="M3497.13,585.94C3835.36,697.68,4179.88,798.79,4529,875.36V844.28C4192.62,770.53,3860.53,674,3534.37,567.19h0C3009.42,394.51,2494.4,194.1,1977.12,0h-82.79c532.91,199.06,1062.73,406.79,1602.8,585.94Z" transform="translate(0)"/><path class="cls-2" d="M2245.73,1174.81c747.92,282.6,1500.72,571.68,2283.27,743.42v-31c-769.49-168.79-1510.54-451.41-2246-729.33h0C1535.19,875.23,782.44,586.28,0,414.51v31c769.38,168.78,1510.39,451.33,2245.73,729.27Z" transform="translate(0)"/><path class="cls-2" d="M875.21,1826.23C587.73,1734.94,295.53,1652.7,0,1588v31.07c282.83,61.92,562.59,139.87,838,226.41h0c461.39,145.79,914.26,315.62,1366.76,486.55h81.87c-467.59-176.68-935-353.7-1411.38-505.78Z" transform="translate(0)"/><path class="cls-2" d="M93.11,2259.88q-46.48-10.76-93.11-21v31q27.95,6.1,55.84,12.41h0Q159,2305.94,261.36,2332h118.8q-142.86-38.3-287-72.13Z" transform="translate(0)"/><path class="cls-2" d="M249.53,2167.54Q125.27,2136.28,0,2109v31q106.47,23.13,212.29,49.28h0C385,2232.3,556.16,2280.3,726.2,2332H826.62c-190.81-59.77-383-115.18-577.09-164.47Z" transform="translate(0)"/><path class="cls-2" d="M4487.79,41.3q20.58,4.62,41.21,9.12v-31l-4-.87h0q-41-9.09-81.83-18.58H4314.14q86.56,21.51,173.65,41.3Z" transform="translate(0)"/><path class="cls-2" d="M927.35,1799.51c-304.37-98-614-186.4-927.35-255.07v31.12c300.61,65.85,597.78,149.82,890.08,243h0c482.38,154.62,955.76,334.5,1429.48,513.44h82.09c-489-184.46-976.95-371.56-1474.29-532.5Z" transform="translate(0)"/><path class="cls-2" d="M1605.18,1469.35C1080.89,1278.45,546.41,1098.5,0,978.87v31c533.52,116.85,1055.76,291.25,1567.91,476.91h0C2357.17,1773.64,3135.23,2097,3942.21,2332h108.73c-833.16-233.27-1634-566.42-2445.76-862.66Z" transform="translate(0)"/><path class="cls-2" d="M145.25,2228.75Q72.8,2211.48,0,2195.52v31q54.08,11.83,108,24.41h0q159.79,37.7,317.9,81.07H537q-194.7-55.53-391.75-103.26Z" transform="translate(0)"/><path class="cls-2" d="M4529,137.21v-31q-54.21-11.88-108.24-24.49h0q-161-38-320.4-81.73h-111q195.88,55.91,394.15,103.92Q4456.09,121.22,4529,137.21Z" transform="translate(0)"/><path class="cls-2" d="M0,2332H28.27q-14.13-3.18-28.27-6.29Z" transform="translate(0)"/><path class="cls-2" d="M4435.65,72.8q46.61,10.77,93.35,21v-31q-28.09-6.15-56.13-12.49h0Q4368.44,26.44,4264.74,0H4146.12q144.09,38.67,289.53,72.79Z" transform="translate(0)"/><path class="cls-2" d="M4529,0h-31.48q15.72,3.54,31.48,7Z" transform="translate(0)"/><path class="cls-2" d="M1292.31,1618.24C869.71,1471.06,438.5,1335.94,0,1239.76v31.14c425.67,93.41,844.48,223.47,1255.06,365.42h0c633.25,219.85,1255.09,472.19,1887,695.68h88.38c-650-226.62-1288.3-486.75-1938.18-713.77Z" transform="translate(0)"/><path class="cls-2" d="M1240.2,1643.59c-405.72-140-819.62-268-1240.2-360.31v31.09c407.79,89.48,809.3,212.58,1203,347.42h0c610.66,210,1210.09,451.58,1817.6,670.22h86.73C2482.39,2109.82,1867,1860.57,1240.2,1643.59Z" transform="translate(0)"/><path class="cls-2" d="M458.07,2049.11c-151.51-41.84-304.31-80-458.07-113.48v31q211.77,46,420.85,103.28h0c282.26,77.41,560.68,166.53,837,262.12h88.82c-293.28-103-588.78-199.44-888.55-282.9Z" transform="translate(0)"/><path class="cls-2" d="M1500.87,1518.44C1010.55,1342.18,510.37,1177.62,0,1065.79v31.07c497.51,109.06,985.39,268.26,1463.65,439.24h0c732,262.51,1452.39,560.36,2193.76,795.91h98.85c-763.68-236-1503.77-542.7-2255.39-813.57Z" transform="translate(0)"/><path class="cls-2" d="M1135.92,1694.78C764,1569,384.8,1454.71,0,1370.29v31.14c372,81.61,738.77,191.12,1098.64,311.81h0c566.88,190.9,1123.1,411.56,1684.1,618.77h84.38c-577.35-211.54-1148.85-439.57-1731.2-637.23Z" transform="translate(0)"/><path class="cls-2" d="M979.47,1773C658.22,1668.17,331.19,1573.51,0,1500.89V1532c318.44,69.79,633,160,942.22,259.89h0C1445.6,1955.4,1939.49,2145.39,2434.6,2332h82.28c-510.49-191.86-1019.05-389.1-1537.41-559Z" transform="translate(0)"/><path class="cls-2" d="M1188,1669.08C799.19,1536.29,402.65,1415.17,0,1326.82v31.08c389.88,85.57,774,201.84,1150.81,329.52h0c588.52,200.37,1166.09,431.43,1750,644.59h85.51C2385.57,2114.85,1792.38,1876.28,1188,1669.08Z" transform="translate(0)"/><path class="cls-2" d="M41,2291.37q-20.47-4.59-41-9.07v31l3.72.81h0q39.53,8.76,78.94,17.91H212q-85.26-21.15-171-40.64Z" transform="translate(0)"/><path class="cls-2" d="M1553,1493.83C1045.74,1310.2,528.38,1138,0,1022.34v31c515.52,113,1020.63,279.69,1515.79,458.05h0c759.73,274.31,1508,584.59,2280.94,820.6H3900c-797-235.49-1566.32-555-2347-838.18Z" transform="translate(0)"/><path class="cls-2" d="M1083.75,1720.65C728.71,1602,366.89,1494.36,0,1413.86V1445c354.13,77.68,703.53,180.62,1046.5,294.31h0C1592.08,1920.82,2127.32,2131.2,2666,2332h83.39c-554.59-205.45-1104.81-423.18-1665.62-611.36Z" transform="translate(0)"/><path class="cls-2" d="M1031.61,1746.73C693.46,1635,349,1534,0,1457.38v31.12c336.27,73.74,668.26,170.22,994.36,277h0c524.41,172.45,1038.87,372.61,1555.58,566.53h82.78c-532.34-198.87-1061.62-406.3-1601.11-585.28Z" transform="translate(0)"/><path class="cls-2" d="M4331.37,134.71q98.51,24.14,197.63,45.7V149.46q-80.39-17.47-160.38-36.7h0Q4156,61.17,3946.34,0H3841.22c162.21,48.72,325.49,94,490.15,134.7Z" transform="translate(0)"/><path class="cls-2" d="M823.07,1853.19C552.53,1768.51,277.75,1692.27,0,1631.48v31.09c265,58,527.34,130,785.8,210h0c440.27,137.12,872.56,296.88,1303.87,459.43h82.27c-446.46-168.57-893.48-335.51-1348.87-478.82Z" transform="translate(0)"/><path class="cls-2" d="M4122.78,254.42Q4324.5,309,4529,353.76v-31q-185.52-40.31-369-89.37h0C3902.48,164.34,3648.18,85.19,3395.84,0H3305c270,92.82,542,179.27,817.79,254.42Z" transform="translate(0)"/><path class="cls-2" d="M406,2078.25Q204.36,2023.76,0,1979v31q185.37,40.26,368.68,89.28h0C625.58,2168.15,879.26,2247.06,1131,2332h91c-269.37-92.58-540.84-178.8-816-253.76Z" transform="translate(0)"/><path class="cls-2" d="M1448.73,1543.18c-473.32-169-956.33-326-1448.73-434v31.13c479.53,105.13,950.21,256.83,1411.48,420.59h0c705.73,251.24,1399.79,537.2,2111.58,771.08h95.42c-732.72-235.17-1445.39-529.66-2169.76-788.83Z" transform="translate(0)"/><path class="cls-2" d="M4279.23,165.13q124.38,31.31,249.77,58.59V192.77q-106.6-23.15-212.55-49.35h0C4143,100.18,3971.08,52,3800.32,0h-100.4c191.54,60,384.47,115.67,579.31,165.13Z" transform="translate(0)"/><path class="cls-2" d="M4227.09,195.23Q4377.3,234,4529,267.06v-31q-132.87-28.84-264.69-62.33h0C4061.23,121.81,3860.21,63.23,3660.67,0h-96.56c219,71.17,439.78,137.13,663,195.22Z" transform="translate(0)"/><path class="cls-2" d="M4174.92,225q176,46.52,354.08,85.42v-31q-159.18-34.56-316.83-75.67h0C3981.14,143.21,3752.76,74.32,3526.12,0h-93.4c245.1,82.11,492.11,158.33,742.2,225Z" transform="translate(0)"/><path class="cls-2" d="M2022.3,1276.68h0C1361.15,1028.09,691.29,782.8,0,631.56v31c678.3,148.36,1336.18,387.62,1985,631.15h0c833.64,313.22,1665.93,647,2537.73,840.46-6,3.65-8.93,5.47-14.89,9.1-871.6-195.15-1703.81-529.58-2537.71-842.73h0C1326.24,1059,673.12,822.13,0,674.92v31c660.14,144.36,1301.24,375.18,1932.89,611.64h0c834.73,312.78,1666.57,648.7,2537.73,848.31-6,3.61-8.94,5.41-14.9,9C3584.75,1973.47,2753.09,1637,1918,1324.42h0C1291.28,1090,655,861.57,0,718.35v31c642,140.39,1266.23,362.9,1880.75,592.17h0c835.81,312.24,1667.26,650.21,2537.73,855.75l-14.89,8.89C3533.31,1999,2702,1660.38,1865.88,1348.39h0C1256.25,1121.16,636.82,901,0,761.75v31c623.87,136.43,1231.27,350.65,1828.61,572.78h0c836.9,311.57,1668,651.47,2537.73,862.76l-14.89,8.79C3481.9,2024.3,2650.89,1683.76,1813.71,1372.4h0C1221.25,1152.35,618.7,940.46,0,805.15v31c605.76,132.49,1196.2,338.59,1776.47,553.44h0C2614.48,1700.35,3445.21,2042,4314.2,2259c-6,3.49-8.93,5.22-14.89,8.69-868.79-218.41-1699.39-560.71-2537.73-871.14h0C1186.2,1183.68,600.6,980,0,848.58v31c587.67,128.57,1161.12,326.59,1724.33,534.18h0c839.08,309.85,1669.54,653.15,2537.73,875.5l-14.89,8.6c-868-223.83-1698.31-567.66-2537.71-877.18h0C1151.16,1215.17,582.53,1019.41,0,892v31c569.62,124.63,1126.09,314.67,1672.18,515h0c840.15,308.83,1670.37,653.63,2537.73,881.23l-14.89,8.51c-867.16-229.12-1697.17-574.49-2537.74-882.8h0C1116,1246.77,564.45,1059,0,935.42v31c551.57,120.74,1090.94,302.94,1620,495.94h0C2441.24,1762.52,3251.56,2099.68,4095.7,2332H4529V2104.45C3668,1914.29,2845.35,1586.34,2022.3,1276.68Z" transform="translate(0)"/><path class="cls-2" d="M1344.45,1593.07C904.93,1438.71,456.44,1296.37,0,1196.24v31.1c443.62,97.33,879.76,234.51,1307.23,383.7h0c656.58,229.89,1301.54,493.22,1958.85,721h90.18c-676.13-230.3-1338.14-501.57-2011.81-738.94Z" transform="translate(0)"/><path class="cls-2" d="M1396.62,1568.06C940.12,1406.43,474.39,1256.83,0,1152.8v31.06c461.56,101.24,915,245.62,1359.37,402.06h0C2040,1826.36,2709,2100.8,3392.82,2332h92.66c-703.64-233.22-1390.42-515.84-2088.86-764Z" transform="translate(0)"/><path d="M4487.76,41.3h0Q4400.7,21.55,4314.14,0h-49.4q103.71,26.39,208.13,50.33C4478.83,46.72,4481.81,44.92,4487.76,41.3Z" transform="translate(0)"/><path d="M4420.76,81.72h0c6-3.57,8.94-5.35,14.89-8.93h0Q4290.18,38.78,4146.12,0h-45.77q159.39,43.59,320.4,81.73Z" transform="translate(0)"/><path d="M4525,18.57h0l4-2.45V7q-15.75-3.46-31.48-7H4443.2q40.86,9.5,81.83,18.58Z" transform="translate(0)"/><polygon points="4368.62 112.76 4368.62 112.76 4368.6 112.75 4368.62 112.76"/><path d="M4383.48,103.92h0Q4185.16,56.21,3989.35,0h-43q209.79,60.81,422.25,112.75C4374.55,109.22,4377.53,107.46,4383.48,103.92Z" transform="translate(0)"/><path d="M4331.34,134.7h0C4166.71,94,4003.43,48.72,3841.22,0h-40.9C3971.08,52,4143,100.18,4316.45,143.42,4322.41,139.94,4325.38,138.19,4331.34,134.7Z" transform="translate(0)"/><path d="M4279.2,165.13h0C4084.39,115.67,3891.46,60,3699.92,0h-39.25c199.54,63.23,400.56,121.81,603.64,173.76Z" transform="translate(0)"/><path d="M4227.06,195.22h0c-223.2-58.09-443.93-124-663-195.22h-38c226.64,74.32,455,143.21,686.05,203.75C4218.13,200.35,4221.11,198.64,4227.06,195.22Z" transform="translate(0)"/><path d="M4174.92,225c-250.09-66.65-497.1-142.87-742.2-225h-36.88C3648.18,85.19,3902.48,164.34,4160,233.42Z" transform="translate(0)"/><path d="M4107.92,262.78h0l14.89-8.36C3847,179.27,3575,92.82,3305,0h-35.93c276.9,95.83,556,185.2,838.86,262.78Z" transform="translate(0)"/><path d="M4070.64,283.55C3770.22,199.91,3474.09,103.28,3180.19,0h-35.14c300.58,106.22,603.41,205.76,910.7,291.82C4061.71,288.52,4064.69,286.87,4070.64,283.55Z" transform="translate(0)"/><path d="M4018.5,312.38C3694.26,220.28,3374.93,113.5,3057.88,0h-34.51c323.54,116.36,649.34,226,980.24,320.56Z" transform="translate(0)"/><path d="M3899.35,377.19h0l14.89-8C3544.42,260.08,3180.75,133.1,2819.18,0h-33.63c367.8,135.81,737.65,265.67,1113.8,377.19Z" transform="translate(0)"/><path d="M3809.94,424.84C3396.46,298.65,2990.28,151.56,2585.65,0h-33.11c410.73,154.1,822.89,304.05,1242.51,432.71Z" transform="translate(0)"/><path d="M3795.07,432.72Z" transform="translate(0)"/><path d="M3690.79,487.21h0l14.89-7.73h0C3249.71,336,2802.12,168.79,2355.08,0H2322.2c453.11,171.16,906.58,341.24,1368.59,487.21Z" transform="translate(0)"/><path d="M3862.08,397.14h0C3470.27,279.53,3085.15,142.48,2701.92,0h-33.38c389.38,145.11,780.57,285,1178.65,405.08Z" transform="translate(0)"/><path d="M3966.36,340.92C3619,240.32,3277.23,123.44,2937.66,0h-34.1c345.94,126.24,694.07,246,1047.91,349Z" transform="translate(0)"/><path d="M3586.51,540.76h0l14.89-7.59h0C3103.45,372,2614.88,184.67,2125.32,0h-32.81c495.66,186.81,990.08,377.06,1494,540.76Z" transform="translate(0)"/><path d="M3169.39,746.76h0l14.9-7.16h0C2509.93,502,1847.28,230.47,1170.46,0h-36.52c684.54,231.36,1354.15,506.14,2035.45,746.76Z" transform="translate(0)"/><path d="M3325.81,670.89h0l14.9-7.3C2735.74,456.17,2142,217.32,1540.62,0h-34.25c608.15,218.8,1208.17,460.71,1819.44,670.89Z" transform="translate(0)"/><path d="M3392.81,637.89C2809.88,440.06,2237.84,211.71,1659.91,0H1626c584.56,213.37,1162.77,444.68,1752,645.24Z" transform="translate(0)"/><path d="M2871.44,887.71h0C2030.92,579.33,1200.86,234,333.71,4.92c-6,3.39-8.94,5.09-14.89,8.5C1186.21,240.91,2016.32,586,2856.52,894.64l14.89-6.94Z" transform="translate(0)"/><path d="M2923.55,863.32C2111,566.83,1309.44,233.3,475.43,0h-44.8c845,232.36,1656,569.88,2478,870.29Z" transform="translate(0)"/><path d="M281.57,34.8l-14.89,8.6c868.19,222.35,1698.59,565.72,2537.7,875.49l14.89-6.92C1979.87,602.47,1149.53,258.64,281.57,34.8Z" transform="translate(0)"/><path d="M2767.13,936.16h0C1928.85,625.71,1098.22,283.4,229.43,65l-14.89,8.7c869,216.91,1699.76,558.52,2537.73,869.34h0Z" transform="translate(0)"/><path d="M2715,960.26C1877.82,648.9,1046.82,308.39,177.29,95.59l-14.89,8.79c869.74,211.31,1700.83,551.17,2537.73,862.76h0Z" transform="translate(0)"/><path d="M125.15,126.5l-14.9,8.89C980.73,340.93,1812.13,678.94,2648,991.13l14.89-6.85C1826.72,672.25,995.42,333.72,125.15,126.5Z" transform="translate(0)"/><path d="M73,157.77c-6,3.59-8.94,5.39-14.9,9,871.16,199.57,1703,535.56,2537.71,848.3l14.89-6.83C1775.64,695.64,944,359.12,73,157.77Z" transform="translate(0)"/><path d="M20.87,189.41c-6,3.63-8.94,5.45-14.89,9.1C877.76,392,1710,725.74,2543.68,1039l14.89-6.82C1724.65,719,892.46,384.63,20.87,189.41Z" transform="translate(0)"/><path d="M2491.57,1062.8h0l14.89-6.8C1683.49,746.34,860.87,418.43,0,228.28V240.7c855.64,188.93,1673.64,514.18,2491.56,822.1Z" transform="translate(0)"/><path d="M2439.42,1086.6h0l14.89-6.79C1649,776.24,842.55,457.5,0,271.75V284.2c837.31,184.59,1639.12,500.55,2439.42,802.4Z" transform="translate(0)"/><path d="M2387.28,1110.37h0l14.89-6.78C1614.4,806.23,824.23,496.71,0,315.24v12.42C819,508,1604.48,814.86,2387.28,1110.37Z" transform="translate(0)"/><path d="M2230.86,1181.6h0c5.95-2.72,8.93-4.07,14.89-6.78C1510.39,896.87,769.38,614.32,0,445.54v12.39c764.18,167.6,1500.47,447.64,2230.86,723.67Z" transform="translate(0)"/><path d="M2074.44,1252.87h0l14.89-6.79h0C1406,988.57,714.69,732.18,0,575.75v12.41c709.49,155.27,1396,409.13,2074.44,664.71Z" transform="translate(0)"/><path d="M1970.16,1300.53h0l14.89-6.82C1336.18,1050.17,678.3,810.91,0,662.55v12.37C673.12,822.13,1326.24,1059,1970.16,1300.53Z" transform="translate(0)"/><path d="M1865.88,1348.39h0l14.89-6.85C1266.23,1112.26,642,889.75,0,749.36v12.39C636.82,901,1256.25,1121.16,1865.88,1348.39Z" transform="translate(0)"/><path d="M2350,1127.33h0C1579.79,836.34,806,535.87,0,358.67v12.41c800.72,176,1569.84,473.91,2335.12,763Z" transform="translate(0)"/><path d="M2283,1157.86h0l14.89-6.77C1545.09,866.56,787.66,575.11,0,402.12v12.39c782.44,171.77,1535.19,460.72,2283,743.35Z" transform="translate(0)"/><path d="M3653.52,506.44C3176.54,354.16,2708.47,176.9,2240.25,0h-32.83c474.3,179.17,948.23,359.32,1431.2,514.09Z" transform="translate(0)"/><path d="M3742.93,460.09h0l14.89-7.79h0C3323,317.49,2896,160.34,2470.09,0h-32.84C2869.16,162.79,3302,322.8,3742.93,460.09Z" transform="translate(0)"/><path d="M3430.09,619.43h0L3445,612C2883.6,423.58,2332.83,205.61,1777.65,0H1744.2c561.61,207.4,1118.41,428.33,1685.89,619.43Z" transform="translate(0)"/><path d="M3534.37,567.19h0l14.89-7.53h0C3030.3,389.59,2521.17,192.07,2010.08,0h-33c517.28,194.1,1032.3,394.51,1557.25,567.19Z" transform="translate(0)"/><path d="M3482.23,593.41h0l14.89-7.46h0C2957.06,406.79,2427.24,199.06,1894.33,0h-33.26c539.24,201,1075,411.61,1621.16,593.41Z" transform="translate(0)"/><path d="M2960.83,845.84h0l14.9-7h0C2194.32,555.43,1424.28,235.56,626.49,0H584.23C1392,235.09,2170.81,558.77,2960.83,845.84Z" transform="translate(0)"/><path d="M3117.25,771.74h0l14.9-7.12h0C2433.06,516.27,1745.66,233.32,1041.32,0h-37.69c712.5,234,1407.22,520.24,2113.62,771.74Z" transform="translate(0)"/><path d="M3221.53,721.64h0l14.9-7.21h0C2585.93,487.17,1947,226.76,1296.37,0h-35.71c658,227.9,1303.63,491.46,1960.87,721.64Z" transform="translate(0)"/><path d="M3288.54,689.08C2661.12,471.89,2045.11,222.36,1419.57,0h-34.93c632.59,223.7,1255.05,476.35,1889,696.34Z" transform="translate(0)"/><path d="M3080,789.48C2355,530,1641.6,235.28,908.16,0H869.34c742.08,235.61,1463.08,533.85,2195.74,796.56C3071,793.73,3074,792.32,3080,789.48Z" transform="translate(0)"/><path d="M3027.84,814.22C2275.52,543.07,1534.73,236.09,770.3,0H729.86c773.71,236.08,1522.65,546.69,2283.08,821.26Z" transform="translate(0)"/><path d="M2193.59,1198.54h0C1475.61,927.42,751.15,653.51,0,488.92v12.44c745.92,163.45,1465.69,434.66,2178.7,704Z" transform="translate(0)"/><path d="M2126.58,1229.09h0l14.89-6.78h0C1440.85,957.85,732.91,692.87,0,532.36v12.39c727.71,159.36,1430.84,421.94,2126.58,684.34Z" transform="translate(0)"/><path d="M2022.3,1276.68h0l14.89-6.81C1371.16,1019.24,696.48,771.47,0,619.13v12.43c691.29,151.24,1361.15,396.53,2022.3,645.12Z" transform="translate(0)"/><path d="M1932.89,1317.59C1301.24,1081.13,660.14,850.31,0,706v12.4C655,861.57,1291.28,1090,1918,1324.42Z" transform="translate(0)"/><path d="M1828.61,1365.53C1231.27,1143.4,623.87,929.18,0,792.75v12.4c618.7,135.31,1221.25,347.2,1813.71,567.25Z" transform="translate(0)"/><path d="M1776.47,1389.61C1196.2,1174.76,605.76,968.66,0,836.17v12.41C600.6,980,1186.2,1183.68,1761.58,1396.5Z" transform="translate(0)"/><path d="M1709.46,1420.69h0l14.9-6.91C1161.12,1206.18,587.67,1008.16,0,879.59V892c582.53,127.45,1151.16,323.21,1709.46,528.74Z" transform="translate(0)"/><path d="M1672.18,1438C1126.09,1237.66,569.62,1047.62,0,923v12.43C564.45,1059,1116,1246.77,1657.3,1445Z" transform="translate(0)"/><path d="M1567.91,1486.82C1055.76,1301.16,533.52,1126.76,0,1009.91v12.43C528.38,1138,1045.74,1310.2,1553,1493.83Z" transform="translate(0)"/><path d="M1463.63,1536.1h0C985.39,1365.12,497.51,1205.92,0,1096.86v12.35c492.4,107.93,975.41,265,1448.73,434Z" transform="translate(0)"/><path d="M1359.35,1585.91h0C915,1429.48,461.56,1285.1,0,1183.86v12.38c456.44,100.13,904.93,242.47,1344.45,396.83Z" transform="translate(0)"/><path d="M1515.77,1511.4h0C1020.63,1333.05,515.52,1166.31,0,1053.36v12.43c510.37,111.83,1010.55,276.39,1500.87,452.65Z" transform="translate(0)"/><path d="M1605.18,1469.35h0l14.89-7c-529.1-193-1068.47-375.2-1620-495.94v12.44c546.41,119.63,1080.89,299.58,1605.18,490.48Z" transform="translate(0)"/><path d="M1240.2,1643.59h0l14.89-7.26c-410.58-142-829.39-272-1255.06-365.42v12.38c420.58,92.28,834.48,220.34,1240.2,360.31Z" transform="translate(0)"/><path d="M1255.09,1636.33h0Z" transform="translate(0)"/><path d="M823.07,1853.19h0l14.89-7.72h0C562.59,1758.92,282.83,1681,0,1619.05v12.43c277.75,60.79,552.53,137,823.07,221.71Z" transform="translate(0)"/><path d="M994.36,1765.48C668.26,1658.72,336.27,1562.24,0,1488.5v12.39c331.19,72.62,658.22,167.28,979.47,272.12Z" transform="translate(0)"/><path d="M1046.5,1739.26C703.53,1625.57,354.13,1522.63,0,1445v12.43C349,1534,693.46,1635,1031.61,1746.73Z" transform="translate(0)"/><path d="M510.23,2020.29h0c5.95-3.28,8.93-4.91,14.89-8.18C351.64,1962.89,176.45,1918.2,0,1879.78v12.43c171.41,37.31,341.64,80.53,510.23,128.08Z" transform="translate(0)"/><path d="M577.24,1983.65h0C386.75,1928.57,194.13,1878.71,0,1836.4v12.39c189.07,41.19,376.71,89.56,562.35,143C568.31,1988.5,571.28,1986.88,577.24,1983.65Z" transform="translate(0)"/><path d="M473,2040.84h0c-156.4-43.45-314.18-83.07-473-117.62v12.4c153.76,33.44,306.56,71.64,458.07,113.48C464,2045.8,467,2044.14,473,2040.84Z" transform="translate(0)"/><path d="M406,2078.25h0c6-3.35,8.93-5,14.89-8.35h0Q211.92,2013.07,0,1966.61V1979q204.24,44.38,406,99.27Z" transform="translate(0)"/><path d="M368.68,2099.24Q185.47,2050.51,0,2010v12.38q177.86,38.64,353.79,85.34Z" transform="translate(0)"/><path d="M316.54,2128.91Q159.1,2088,0,2053.28v12.4q151.52,32.9,301.65,71.77Z" transform="translate(0)"/><path d="M249.53,2167.54h0c6-3.46,8.93-5.19,14.89-8.63h0Q132.77,2125.56,0,2096.65V2109q125.23,27.2,249.53,58.54Z" transform="translate(0)"/><path d="M197.39,2198h0c5.95-3.5,8.93-5.24,14.89-8.73h0Q106.49,2163.14,0,2140v12.37q99,21.49,197.39,45.64Z" transform="translate(0)"/><path d="M1307.2,1611h0C879.76,1461.85,443.62,1324.67,0,1227.34v12.42c438.5,96.18,869.71,231.3,1292.31,378.48Z" transform="translate(0)"/><path d="M1396.62,1568.06h0l14.89-7.12C950.21,1397.17,479.53,1245.47,0,1140.34v12.46c474.39,104,940.12,253.63,1396.62,415.26Z" transform="translate(0)"/><path d="M1098.64,1713.24C738.77,1592.55,372,1483,0,1401.43v12.43c366.89,80.5,728.71,188.13,1083.75,306.79Z" transform="translate(0)"/><path d="M1202.93,1661.78h0C809.3,1527,407.79,1403.85,0,1314.37v12.45c402.65,88.35,799.19,209.47,1188,342.26Z" transform="translate(0)"/><path d="M1135.92,1694.78h0l14.89-7.35h0C774,1559.74,389.88,1443.47,0,1357.9v12.39c384.8,84.42,764,198.75,1135.92,324.49Z" transform="translate(0)"/><path d="M614.52,1963.5h0c6-3.21,8.93-4.82,14.89-8h0C421.87,1894.37,211.82,1839.18,0,1793v12.38c206.77,45.09,411.84,98.75,614.51,158.15Z" transform="translate(0)"/><path d="M770.94,1880.38h0l14.89-7.79c-258.46-80-520.77-152-785.8-210V1675c260,56.86,517.33,127.25,770.94,205.42Z" transform="translate(0)"/><path d="M875.22,1826.23h0l14.89-7.65c-292.3-93.19-589.47-177.16-890.08-243V1588c295.53,64.72,587.73,147,875.21,238.25Z" transform="translate(0)"/><path d="M927.36,1799.51h0l14.89-7.59C633,1692,318.44,1601.81,0,1532v12.42c313.36,68.67,623,157,927.35,255.07Z" transform="translate(0)"/><path d="M733.66,1900h0C492.21,1826.36,247.3,1760.06,0,1706v12.43c242.22,52.93,482.13,117.6,718.77,189.38Z" transform="translate(0)"/><path d="M681.52,1927.58h0C457,1860.3,229.54,1799.64,0,1749.51v12.39c224.48,49,447,108.09,666.63,173.62Z" transform="translate(0)"/><path d="M3.72,2314.1h0L0,2313.29v3.07l3.7-2.26Z" transform="translate(0)"/><path d="M145.25,2228.75h0c6-3.54,8.93-5.3,14.89-8.82h0Q80.26,2200.74,0,2183.28v12.24q72.8,16,145.25,33.23Z" transform="translate(0)"/><path d="M41,2291.37h0l14.89-9Q27.94,2276,0,2269.92v12.38q20.51,4.48,41,9.07Z" transform="translate(0)"/><path d="M93.11,2259.88h0l14.89-8.93q-53.9-12.57-108-24.41v12.39q46.62,10.2,93.11,21Z" transform="translate(0)"/><path d="M4472.9,50.33h0q28,6.35,56.13,12.49V50.42q-20.62-4.5-41.21-9.12Z" transform="translate(0)"/><path d="M4487.79,41.3h0c-5.95,3.62-8.93,5.42-14.89,9h0Z" transform="translate(0)"/><path d="M4487.79,41.3h0c-5.95,3.62-8.93,5.42-14.89,9h0Z" transform="translate(0)"/><path d="M4420.76,81.72q54,12.61,108.24,24.49V93.81q-46.74-10.23-93.35-21Z" transform="translate(0)"/><path d="M4435.62,72.79c-5.95,3.58-8.93,5.36-14.89,8.93h0l14.89-8.92Z" transform="translate(0)"/><path d="M4435.62,72.79c-5.95,3.58-8.93,5.36-14.89,8.93h0l14.89-8.92Z" transform="translate(0)"/><path d="M4529,19.44V16.15l-4,2.42Z" transform="translate(0)"/><path d="M4525,18.57l4-2.42v0l-4,2.45Z" transform="translate(0)"/><path d="M4525,18.57l4-2.42v0l-4,2.45Z" transform="translate(0)"/><path d="M4368.59,112.75h0Z" transform="translate(0)"/><path d="M4383.51,103.93l-14.89,8.83q80,19.2,160.38,36.7V137.21q-72.91-16-145.5-33.29Z" transform="translate(0)"/><path d="M4383.5,103.92h0c-5.95,3.54-8.93,5.3-14.89,8.83h0l14.89-8.83Z" transform="translate(0)"/><path d="M4383.5,103.92h0c-5.95,3.54-8.93,5.3-14.89,8.83h0l14.89-8.83Z" transform="translate(0)"/><path d="M4316.47,143.43h0q105.92,26.16,212.55,49.35V180.41q-99.1-21.53-197.63-45.7Z" transform="translate(0)"/><path d="M4331.37,134.71h0c-6,3.49-8.93,5.24-14.89,8.72h0Z" transform="translate(0)"/><path d="M4331.37,134.71h0c-6,3.49-8.93,5.24-14.89,8.72h0Z" transform="translate(0)"/><path d="M4264.34,173.76h0Q4396.1,207.15,4529,236.09V223.72q-125.35-27.21-249.77-58.59Z" transform="translate(0)"/><path d="M4279.23,165.13h0l-14.89,8.63h0Z" transform="translate(0)"/><path d="M4279.23,165.13h0l-14.89,8.63h0Z" transform="translate(0)"/><path d="M4212.2,203.76h0q157.59,41,316.83,75.67V267.06q-151.65-32.94-301.91-71.83Z" transform="translate(0)"/><path d="M4227.09,195.23h0c-6,3.42-8.93,5.13-14.89,8.53h0Z" transform="translate(0)"/><path d="M4227.09,195.23h0c-6,3.42-8.93,5.13-14.89,8.53h0Z" transform="translate(0)"/><path d="M4174.92,225h0l-14.89,8.44h0q183.36,48.78,369,89.37V310.4Q4351,271.75,4174.92,225Z" transform="translate(0)"/><path d="M4175,225h0L4160,233.42h0Z" transform="translate(0)"/><path d="M4175,225h0L4160,233.42h0Z" transform="translate(0)"/><path d="M4122.78,254.42h0l-14.89,8.35Q4317,319.66,4529,366.14V353.76q-204.37-44.42-406.22-99.34Z" transform="translate(0)"/><path d="M4122.78,254.42l-14.89,8.36h0l14.89-8.35Z" transform="translate(0)"/><path d="M4122.78,254.42l-14.89,8.36h0l14.89-8.35Z" transform="translate(0)"/><path d="M4070.64,283.55h0l-14.9,8.27h0C4212.23,335.3,4370.1,374.94,4529,409.5V397.13c-153.86-33.46-306.76-71.69-458.36-113.58Z" transform="translate(0)"/><path d="M4070.67,283.56h0c-5.95,3.32-8.93,5-14.89,8.27h0Z" transform="translate(0)"/><path d="M4070.67,283.56h0c-5.95,3.32-8.93,5-14.89,8.27h0Z" transform="translate(0)"/><path d="M4018.5,312.38h0l-14.9,8.18h0c173.56,49.23,348.85,93.93,525.39,132.36v-12.4C4357.5,403.2,4187.18,360,4018.5,312.38Z" transform="translate(0)"/><path d="M4018.53,312.39h0l-14.89,8.18h0Z" transform="translate(0)"/><path d="M4018.53,312.39h0l-14.89,8.18h0Z" transform="translate(0)"/><path d="M3914.22,369.17h0l-14.9,8C4107,438.34,4317.09,493.55,4529,539.78V527.34c-206.85-45.1-412-98.77-614.78-158.17Z" transform="translate(0)"/><path d="M3914.22,369.17l-14.89,8h0l14.9-8Z" transform="translate(0)"/><path d="M3914.22,369.17l-14.89,8h0l14.9-8Z" transform="translate(0)"/><polygon points="3795.05 432.71 3795.05 432.71 3795.05 432.71 3795.05 432.71"/><path d="M3809.94,424.84h0l-14.9,7.87c241.58,73.62,486.56,139.92,733.93,194V614.28c-242.31-52.93-482.32-117.62-719.06-189.44Z" transform="translate(0)"/><path d="M3809.94,424.84l-14.89,7.87h0l14.9-7.87Z" transform="translate(0)"/><path d="M3809.94,424.84l-14.89,7.87h0l14.9-7.87Z" transform="translate(0)"/><path d="M3690.79,487.21c275.46,86.59,555.3,164.55,838.21,226.47V701.27c-277.84-60.81-552.7-137.08-823.32-221.78C3699.73,482.58,3696.75,484.13,3690.79,487.21Z" transform="translate(0)"/><path d="M3705.66,479.48l-14.89,7.73h0c6-3.08,8.94-4.63,14.89-7.72Z" transform="translate(0)"/><path d="M3705.66,479.48l-14.89,7.73h0c6-3.08,8.94-4.63,14.89-7.72Z" transform="translate(0)"/><path d="M3847.21,405.09h0c224.61,67.31,452.17,128,681.81,178.14V570.8c-224.56-49-447.14-108.12-666.9-173.65Z" transform="translate(0)"/><path d="M3862.1,397.15h0l-14.89,7.94h0Z" transform="translate(0)"/><path d="M3862.1,397.15h0l-14.89,7.94h0Z" transform="translate(0)"/><path d="M3966.36,340.92h0L3951.5,349h0c190.6,55.11,383.31,105,577.53,147.31V483.93c-189.17-41.21-376.9-89.6-562.64-143Z" transform="translate(0)"/><path d="M3966.39,340.92h0L3951.47,349h0Z" transform="translate(0)"/><path d="M3966.39,340.92h0L3951.47,349h0Z" transform="translate(0)"/><path d="M3586.51,540.76c309.29,100,624,190.13,942.49,259.94V788.29c-313.44-68.68-623.15-157.09-927.59-255.12Z" transform="translate(0)"/><path d="M3601.38,533.16l-14.89,7.59h0l14.9-7.59Z" transform="translate(0)"/><path d="M3601.38,533.16l-14.89,7.59h0l14.9-7.59Z" transform="translate(0)"/><path d="M3169.39,746.76c444.47,156.5,898,300.88,1359.61,402.1V1136.5C4072.46,1036.39,3623.86,894,3184.28,739.6Z" transform="translate(0)"/><path d="M3184.26,739.59l-14.9,7.16h0l14.89-7.16Z" transform="translate(0)"/><path d="M3184.26,739.59l-14.9,7.16h0l14.89-7.16Z" transform="translate(0)"/><path d="M3340.68,663.58h0l-14.89,7.31c393.73,134.86,795.32,258,1203.19,347.47v-12.42c-402.77-88.36-799.42-209.52-1188.32-342.37Z" transform="translate(0)"/><path d="M3340.68,663.58l-14.9,7.3h0l14.89-7.31Z" transform="translate(0)"/><path d="M3340.68,663.58l-14.9,7.3h0l14.89-7.31Z" transform="translate(0)"/><path d="M3392.81,637.89h0L3378,645.25h0C3754.78,773,4139,889.27,4529,974.83V962.4C4144.13,878,3764.84,763.62,3392.82,637.89Z" transform="translate(0)"/><path d="M3392.84,637.9h0l-14.89,7.35h0Z" transform="translate(0)"/><path d="M3392.84,637.9h0l-14.89,7.35h0Z" transform="translate(0)"/><path d="M2856.55,894.65h0C3402.76,1095,3959.29,1285.06,4529,1409.72v-12.43C3964.46,1273.75,3412.82,1086,2871.44,887.71Z" transform="translate(0)"/><path d="M2871.44,887.71h0l-14.89,6.94h0Z" transform="translate(0)"/><path d="M2871.44,887.71h0l-14.89,6.94h0Z" transform="translate(0)"/><path d="M2923.55,863.32h0l-14.9,7h0c529.25,193,1068.69,375.21,1620.34,496v-12.41c-546.5-119.65-1081-299.63-1605.45-490.53Z" transform="translate(0)"/><path d="M2923.58,863.33h0l-14.89,7h0Z" transform="translate(0)"/><path d="M2923.58,863.33h0l-14.89,7h0Z" transform="translate(0)"/><path d="M2819.27,912h0l-14.9,6.92h0c563.3,207.65,1136.85,405.66,1724.62,534.23v-12.41C3946.4,1313.25,3377.73,1117.49,2819.27,912Z" transform="translate(0)"/><path d="M2819.3,912h0l-14.89,6.92h0Z" transform="translate(0)"/><path d="M2819.3,912h0l-14.89,6.92h0Z" transform="translate(0)"/><path d="M2752.27,943.06c580.34,214.88,1170.87,421,1776.73,553.51v-12.39c-600.69-131.37-1186.39-335.18-1761.84-548Z" transform="translate(0)"/><path d="M2767.13,936.16l-14.89,6.89h0l14.89-6.89Z" transform="translate(0)"/><path d="M2767.13,936.16l-14.89,6.89h0l14.89-6.89Z" transform="translate(0)"/><path d="M2715,960.26h0l-14.89,6.87C3297.55,1189.26,3905,1403.58,4529,1540v-12.47c-618.79-135.3-1221.43-347.2-1814-567.28Z" transform="translate(0)"/><path d="M2715,960.26l-14.89,6.87h0l14.89-6.87Z" transform="translate(0)"/><path d="M2715,960.26l-14.89,6.87h0l14.89-6.87Z" transform="translate(0)"/><path d="M2662.85,984.28h0L2648,991.14h0c614.58,229.32,1238.95,451.87,1881,592.26V1571c-636.92-139.25-1256.47-359.4-1866.14-586.7Z" transform="translate(0)"/><path d="M2662.88,984.29h0L2648,991.13h0Z" transform="translate(0)"/><path d="M2662.88,984.29h0L2648,991.13h0Z" transform="translate(0)"/><path d="M2610.71,1008.24h0l-14.89,6.83h0c631.74,236.47,1272.94,467.36,1933.18,611.72v-12.38c-655.06-143.21-1291.47-371.74-1918.29-606.17Z" transform="translate(0)"/><path d="M2610.74,1008.25h0l-14.89,6.83h0Z" transform="translate(0)"/><path d="M2610.74,1008.25h0l-14.89,6.83h0Z" transform="translate(0)"/><path d="M2558.57,1032.14h0l-14.9,6.82h0c649,243.52,1306.92,482.81,1985.32,631.19V1657.8c-673.21-147.19-1326.44-384.08-1970.43-625.66Z" transform="translate(0)"/><path d="M2558.6,1032.15h0l-14.89,6.82h0Z" transform="translate(0)"/><path d="M2558.6,1032.15h0l-14.89,6.82h0Z" transform="translate(0)"/><path d="M2506.43,1056h0l-14.89,6.8c666.18,250.6,1340.86,498.36,2037.43,650.75v-12.37C3837.61,1550,3167.66,1304.62,2506.43,1056Z" transform="translate(0)"/><path d="M2506.43,1056l-14.89,6.8h0l14.89-6.8Z" transform="translate(0)"/><path d="M2506.43,1056l-14.89,6.8h0l14.89-6.8Z" transform="translate(0)"/><path d="M2454.29,1079.8h0l-14.9,6.79c683.4,257.54,1374.8,514,2089.58,670.41v-12.42c-709.59-155.24-1396.24-409.2-2074.71-664.79Z" transform="translate(0)"/><path d="M2454.29,1079.8l-14.89,6.79h0l14.9-6.79Z" transform="translate(0)"/><path d="M2454.29,1079.8l-14.89,6.79h0l14.9-6.79Z" transform="translate(0)"/><path d="M2402.15,1103.58h0l-14.9,6.78C3088,1374.85,3796,1639.82,4529,1800.35V1788c-727.8-159.31-1431.06-422-2126.85-684.43Z" transform="translate(0)"/><path d="M2402.15,1103.58l-14.89,6.78h0l14.9-6.78Z" transform="translate(0)"/><path d="M2402.15,1103.58l-14.89,6.78h0l14.9-6.78Z" transform="translate(0)"/><path d="M2245.73,1174.81h0l-14.9,6.78c752.86,284.56,1510.39,576,2298.14,749v-12.38c-782.55-171.74-1535.35-460.82-2283.27-743.42Z" transform="translate(0)"/><path d="M2245.73,1174.81c-6,2.71-8.94,4.06-14.89,6.78h0l14.9-6.78Z" transform="translate(0)"/><path d="M2245.73,1174.81c-6,2.71-8.94,4.06-14.89,6.78h0l14.9-6.78Z" transform="translate(0)"/><path d="M2074.44,1252.87C2879.89,1556.38,3686.34,1875.23,4529,2061v-12.44C3691.56,1864,2889.82,1547.78,2089.33,1246.08Z" transform="translate(0)"/><path d="M2089.31,1246.07l-14.89,6.79h0l14.89-6.79Z" transform="translate(0)"/><path d="M2089.31,1246.07l-14.89,6.79h0l14.89-6.79Z" transform="translate(0)"/><path d="M1970.16,1300.53c833.9,313.15,1666.11,647.58,2537.71,842.73,6-3.63,8.93-5.45,14.89-9.1C3651,1940.71,2818.67,1606.92,1985,1293.7h0Z" transform="translate(0)"/><path d="M1970.16,1300.53l14.89-6.82h0l-14.89,6.82Z" transform="translate(0)"/><path d="M1970.16,1300.53l14.89-6.82h0l-14.89,6.82Z" transform="translate(0)"/><path d="M1865.88,1348.39c836.15,312,1667.43,650.61,2537.71,857.78l14.89-8.89C3548,1991.74,2716.56,1653.77,1880.75,1341.53h0Z" transform="translate(0)"/><path d="M1865.88,1348.39l14.89-6.85h0l-14.89,6.85Z" transform="translate(0)"/><path d="M1865.88,1348.39l14.89-6.85h0l-14.89,6.85Z" transform="translate(0)"/><path d="M2335.14,1134.12h0c718.1,271.21,1442.64,545,2193.88,709.66v-12.39c-746-163.44-1465.85-434.75-2179-704Z" transform="translate(0)"/><path d="M2350,1127.34h0l-14.89,6.78h0Z" transform="translate(0)"/><path d="M2350,1127.34h0l-14.89,6.78h0Z" transform="translate(0)"/><path d="M2297.87,1151.08h0l-14.9,6.78c735.46,277.92,1476.51,560.54,2246,729.33v-12.38c-764.28-167.56-1500.63-447.75-2231.13-723.74Z" transform="translate(0)"/><path d="M2297.87,1151.08l-14.89,6.77h0l14.9-6.78Z" transform="translate(0)"/><path d="M2297.87,1151.08l-14.89,6.77h0l14.9-6.78Z" transform="translate(0)"/><path d="M3653.52,506.44h0l-14.89,7.66h0C3931,607.33,4228.28,691.34,4529,757.2V744.77c-295.64-64.74-587.93-147-875.48-238.33Z" transform="translate(0)"/><path d="M3653.54,506.44h0l-14.9,7.65h0Z" transform="translate(0)"/><path d="M3653.54,506.44h0l-14.9,7.65h0Z" transform="translate(0)"/><path d="M3742.93,460.09C4001.45,540.15,4263.86,612.21,4529,670.2V657.73C4269,600.87,4011.52,530.48,3757.82,452.3Z" transform="translate(0)"/><path d="M3757.8,452.29l-14.89,7.79h0l14.89-7.79Z" transform="translate(0)"/><path d="M3757.8,452.29l-14.89,7.79h0l14.89-7.79Z" transform="translate(0)"/><path d="M3445,612h0l-14.89,7.41c360,120.69,726.83,230.24,1098.91,311.87V918.87C4162,838.38,3800.1,730.73,3445,612Z" transform="translate(0)"/><path d="M3445,612l-14.89,7.41h0L3445,612Z" transform="translate(0)"/><path d="M3445,612l-14.89,7.41h0L3445,612Z" transform="translate(0)"/><path d="M3534.37,567.19C3860.53,674,4192.62,770.53,4529,844.28V831.82c-331.28-72.63-658.4-167.32-979.74-272.16Z" transform="translate(0)"/><path d="M3549.24,559.65l-14.89,7.53h0l14.89-7.53Z" transform="translate(0)"/><path d="M3549.24,559.65l-14.89,7.53h0l14.89-7.53Z" transform="translate(0)"/><path d="M3482.23,593.41C3825.29,707.13,4174.78,810.09,4529,887.78V875.36c-349.12-76.57-693.64-177.68-1031.87-289.42C3491.17,588.94,3488.19,590.43,3482.23,593.41Z" transform="translate(0)"/><path d="M3497.1,585.94l-14.89,7.46h0c6-3,8.94-4.47,14.9-7.47Z" transform="translate(0)"/><path d="M3497.1,585.94l-14.89,7.46h0c6-3,8.94-4.47,14.9-7.47Z" transform="translate(0)"/><path d="M2960.83,845.84C3473,1031.56,3995.38,1206,4529,1322.84v-12.45c-528.46-115.73-1045.89-287.94-1553.28-471.55Z" transform="translate(0)"/><path d="M2975.7,838.83l-14.9,7h0l14.89-7Z" transform="translate(0)"/><path d="M2975.7,838.83l-14.9,7h0l14.89-7Z" transform="translate(0)"/><path d="M3117.25,771.74c461.33,163.8,932.11,315.55,1411.75,420.68v-12.48c-474.48-104-940.31-253.64-1396.86-415.32Z" transform="translate(0)"/><path d="M3132.12,764.61l-14.9,7.12h0l14.89-7.12Z" transform="translate(0)"/><path d="M3132.12,764.61l-14.9,7.12h0l14.89-7.12Z" transform="translate(0)"/><path d="M3221.53,721.64C3649.06,870.87,4085.29,1008.07,4529,1105.4V1093c-438.58-96.21-869.86-231.37-1292.58-378.52Z" transform="translate(0)"/><path d="M3236.4,714.42l-14.9,7.21h0l14.89-7.21Z" transform="translate(0)"/><path d="M3236.4,714.42l-14.9,7.21h0l14.89-7.21Z" transform="translate(0)"/><path d="M3288.54,689.08h0l-14.89,7.25h0c410.65,142,829.57,272.12,1255.36,365.53v-12.39c-420.69-92.3-834.68-220.4-1240.46-360.4Z" transform="translate(0)"/><path d="M3288.56,689.09h0l-14.9,7.26h0Z" transform="translate(0)"/><path d="M3288.56,689.09h0l-14.9,7.26h0Z" transform="translate(0)"/><path d="M3080,789.48h0l-14.89,7.08h0c478.29,171.06,966.3,330.3,1463.92,439.36v-12.43c-492.49-107.92-975.59-265-1449-434Z" transform="translate(0)"/><path d="M3080,789.49h0c-5.95,2.84-8.93,4.25-14.89,7.08h0Z" transform="translate(0)"/><path d="M3080,789.49h0c-5.95,2.84-8.93,4.25-14.89,7.08h0Z" transform="translate(0)"/><path d="M3027.84,814.22h0l-14.89,7h0C3508.21,999.67,4013.39,1166.4,4529,1279.33V1267c-510.49-111.83-1010.8-276.44-1501.16-452.77Z" transform="translate(0)"/><path d="M3027.86,814.23h0l-14.9,7h0Z" transform="translate(0)"/><path d="M3027.86,814.23h0l-14.9,7h0Z" transform="translate(0)"/><path d="M2178.72,1205.34h0C2949.09,1496.32,3723,1796.73,4529,1974v-12.36c-800.82-176-1570-473.95-2335.39-763.1Z" transform="translate(0)"/><path d="M2193.61,1198.55h0l-14.89,6.79h0Z" transform="translate(0)"/><path d="M2193.61,1198.55h0l-14.89,6.79h0Z" transform="translate(0)"/><path d="M2126.58,1229.09c787.82,297.38,1578.09,607,2402.42,788.41v-12.42c-819.12-180.25-1604.63-487.29-2387.52-782.77Z" transform="translate(0)"/><path d="M2141.45,1222.3l-14.89,6.78h0l14.9-6.78Z" transform="translate(0)"/><path d="M2141.45,1222.3l-14.89,6.78h0l14.9-6.78Z" transform="translate(0)"/><path d="M2037.17,1269.86h0l-14.89,6.81C2845.35,1586.34,3668,1914.29,4529,2104.45V2092c-855.75-188.87-1673.81-514.27-2491.83-822.18Z" transform="translate(0)"/><path d="M2037.17,1269.86l-14.89,6.81h0l14.89-6.81Z" transform="translate(0)"/><path d="M2037.17,1269.86l-14.89,6.81h0l14.89-6.81Z" transform="translate(0)"/><path d="M1918,1324.43h0c835.09,312.6,1666.75,649.05,2537.72,850.48,6-3.59,8.94-5.39,14.9-9-871.16-199.61-1703-535.53-2537.73-848.31h0Z" transform="translate(0)"/><path d="M1918,1324.43l14.89-6.83h0l-14.89,6.83Z" transform="translate(0)"/><path d="M1918,1324.43l14.89-6.83h0l-14.89,6.83Z" transform="translate(0)"/><path d="M1813.74,1372.41h0c837.18,311.36,1668.19,651.9,2537.74,864.68l14.89-8.79C3496.59,2017,2665.51,1677.1,1828.61,1365.53h0Z" transform="translate(0)"/><path d="M1813.74,1372.41l14.89-6.87h0l-14.9,6.87Z" transform="translate(0)"/><path d="M1813.74,1372.41l14.89-6.87h0l-14.9,6.87Z" transform="translate(0)"/><path d="M1761.6,1396.51h0c838.34,310.43,1668.94,652.73,2537.73,871.14,6-3.47,8.93-5.2,14.89-8.69-869-216.92-1699.72-558.6-2537.73-869.34h0Z" transform="translate(0)"/><path d="M1761.6,1396.51l14.89-6.89h0l-14.89,6.89Z" transform="translate(0)"/><path d="M1761.6,1396.51l14.89-6.89h0l-14.89,6.89Z" transform="translate(0)"/><path d="M1709.46,1420.69c839.4,309.52,1669.74,653.35,2537.71,877.18l14.89-8.6c-868.19-222.35-1698.65-565.65-2537.73-875.5h0Z" transform="translate(0)"/><path d="M1709.46,1420.69l14.89-6.91h0l-14.9,6.91Z" transform="translate(0)"/><path d="M1709.46,1420.69l14.89-6.91h0l-14.9,6.91Z" transform="translate(0)"/><path d="M1657.32,1445h0c840.57,308.31,1670.58,653.68,2537.74,882.8l14.89-8.51c-867.36-227.6-1697.58-572.4-2537.73-881.23h0Z" transform="translate(0)"/><path d="M1657.32,1445l14.89-6.94h0L1657.3,1445Z" transform="translate(0)"/><path d="M1657.32,1445l14.89-6.94h0L1657.3,1445Z" transform="translate(0)"/><path d="M1567.91,1486.82h0l-14.89,7h0C2333.66,1777,3103,2096.52,3900,2332h42.23c-807-235-1585-558.37-2374.3-845.19Z" transform="translate(0)"/><path d="M1553,1493.84l14.89-7h0l-14.89,7Z" transform="translate(0)"/><path d="M1553,1493.84l14.89-7h0l-14.89,7Z" transform="translate(0)"/><path d="M1448.76,1543.19h0c724.37,259.17,1437,553.66,2169.76,788.83h38.92C2916,2096.46,2195.65,1798.61,1463.65,1536.1Z" transform="translate(0)"/><path d="M1448.73,1543.18h0l14.89-7.09h0Z" transform="translate(0)"/><path d="M1448.73,1543.18h0l14.89-7.09h0Z" transform="translate(0)"/><path d="M1344.48,1593.08h0c673.67,237.37,1335.68,508.64,2011.81,738.94h36.56C2709,2100.8,2040,1826.36,1359.37,1585.92Z" transform="translate(0)"/><path d="M1344.45,1593.07h0l14.89-7.16h0Z" transform="translate(0)"/><path d="M1344.45,1593.07h0l14.89-7.16h0Z" transform="translate(0)"/><path d="M1500.9,1518.45h0C2252.49,1789.31,2992.58,2096,3756.26,2332h40.47c-772.95-236-1521.21-546.29-2280.94-820.6Z" transform="translate(0)"/><path d="M1500.87,1518.44h0l14.89-7h0Z" transform="translate(0)"/><path d="M1500.87,1518.44h0l14.89-7h0Z" transform="translate(0)"/><path d="M1620,1462.37h0l-14.89,7C2417,1765.59,3217.78,2098.74,4050.94,2332h44.76c-844.14-232.33-1654.46-569.49-2475.65-869.64Z" transform="translate(0)"/><path d="M1605.18,1469.35l14.89-7h0l-14.89,7Z" transform="translate(0)"/><path d="M1605.18,1469.35l14.89-7h0l-14.89,7Z" transform="translate(0)"/><path d="M1240.2,1643.59c626.78,217,1242.19,466.23,1867.08,688.42h34.83c-631.93-223.49-1253.77-475.83-1887-695.68Z" transform="translate(0)"/><polygon points="1255.06 1636.32 1255.06 1636.32 1255.07 1636.32 1255.06 1636.32"/><path d="M1240.2,1643.59l14.89-7.26h0l-14.89,7.26Z" transform="translate(0)"/><path d="M1240.2,1643.59l14.89-7.26h0l-14.89,7.26Z" transform="translate(0)"/><path d="M823.07,1853.19c455.39,143.31,902.41,310.25,1348.87,478.82h32.79c-452.5-170.93-905.37-340.76-1366.76-486.55Z" transform="translate(0)"/><path d="M823.05,1853.18h0l14.9-7.73h0Z" transform="translate(0)"/><path d="M823.05,1853.18h0l14.9-7.73h0Z" transform="translate(0)"/><path d="M994.36,1765.48h0c-6,3-8.94,4.51-14.89,7.52h0c518.36,169.9,1026.92,367.14,1537.41,559h33.06c-516.71-193.92-1031.17-394.08-1555.58-566.53Z" transform="translate(0)"/><path d="M979.5,1773c6-3,8.93-4.52,14.89-7.52h0L979.47,1773Z" transform="translate(0)"/><path d="M979.5,1773c6-3,8.93-4.52,14.89-7.52h0L979.47,1773Z" transform="translate(0)"/><path d="M1046.5,1739.26h0l-14.89,7.46h0c539.49,179,1068.77,386.41,1601.11,585.28H2666c-538.66-200.81-1073.9-411.19-1619.48-592.75Z" transform="translate(0)"/><path d="M1031.64,1746.73l14.89-7.46h0l-14.89,7.47Z" transform="translate(0)"/><path d="M1031.64,1746.73l14.89-7.46h0l-14.89,7.47Z" transform="translate(0)"/><path d="M525.1,2012.1h0l-14.9,8.18C833.82,2112.23,1152.54,2218.77,1469,2332h34.37c-322.89-116.11-648-225.54-978.25-319.91Z" transform="translate(0)"/><path d="M510.23,2020.29l14.9-8.18h0c-6,3.27-8.94,4.9-14.89,8.18Z" transform="translate(0)"/><path d="M510.23,2020.29l14.9-8.18h0c-6,3.27-8.94,4.9-14.89,8.18Z" transform="translate(0)"/><path d="M562.37,1991.75h0c346.72,100.4,687.94,217.05,1026.93,340.26h34C1278,2206,930.48,2086.46,577.26,1983.66Z" transform="translate(0)"/><path d="M562.35,1991.75h0l14.89-8.09h0C571.28,1986.88,568.31,1988.5,562.35,1991.75Z" transform="translate(0)"/><path d="M562.35,1991.75h0l14.89-8.09h0C571.28,1986.88,568.31,1988.5,562.35,1991.75Z" transform="translate(0)"/><path d="M458.09,2049.12h0c299.77,83.46,595.27,179.86,888.55,282.9H1382c-300-106-602.32-205.29-909-291.16Z" transform="translate(0)"/><path d="M458.07,2049.11h0l14.89-8.27h0C467,2044.14,464,2045.8,458.07,2049.11Z" transform="translate(0)"/><path d="M458.07,2049.11h0l14.89-8.27h0C467,2044.14,464,2045.8,458.07,2049.11Z" transform="translate(0)"/><path d="M406,2078.25c275.13,75,546.6,161.18,816,253.76h35.87c-276.28-95.59-554.7-184.71-837-262.12Z" transform="translate(0)"/><path d="M405.93,2078.24h0l14.88-8.36h0C414.86,2073.22,411.89,2074.89,405.93,2078.24Z" transform="translate(0)"/><path d="M405.93,2078.24h0l14.88-8.36h0C414.86,2073.22,411.89,2074.89,405.93,2078.24Z" transform="translate(0)"/><path d="M368.68,2099.24h0l-14.9,8.44h0c249.45,66.46,495.85,142.46,740.35,224.33H1131c-251.71-85-505.39-163.86-762.29-232.77Z" transform="translate(0)"/><path d="M353.81,2107.69l14.9-8.44h0l-14.89,8.44Z" transform="translate(0)"/><path d="M353.81,2107.69l14.9-8.44h0l-14.89,8.44Z" transform="translate(0)"/><path d="M316.54,2128.91h0l-14.89,8.53h0c222.5,57.91,442.54,123.64,660.91,194.56h38c-226-74.07-453.66-142.73-684-203.1Z" transform="translate(0)"/><path d="M301.67,2137.45l14.89-8.53h0l-14.89,8.54Z" transform="translate(0)"/><path d="M301.67,2137.45l14.89-8.53h0l-14.89,8.54Z" transform="translate(0)"/><path d="M249.53,2167.54c194.09,49.29,386.28,104.7,577.09,164.47H866.1c-198.89-63-399.26-121.35-601.68-173.1Z" transform="translate(0)"/><path d="M249.51,2167.54h0l14.89-8.63h0C258.44,2162.35,255.46,2164.08,249.51,2167.54Z" transform="translate(0)"/><path d="M249.51,2167.54h0l14.89-8.63h0C258.44,2162.35,255.46,2164.08,249.51,2167.54Z" transform="translate(0)"/><path d="M197.39,2198c163.92,40.54,326.47,85.57,488,134H726.2c-170-51.71-341.22-99.71-513.92-142.76Z" transform="translate(0)"/><path d="M197.37,2198h0l14.89-8.72h0C206.3,2192.73,203.32,2194.47,197.37,2198Z" transform="translate(0)"/><path d="M197.37,2198h0l14.89-8.72h0C206.3,2192.73,203.32,2194.47,197.37,2198Z" transform="translate(0)"/><path d="M1292.34,1618.25h0c649.88,227,1288.2,487.15,1938.18,713.77h35.59c-657.31-227.75-1302.27-491.08-1958.85-721Z" transform="translate(0)"/><path d="M1292.31,1618.24h0l14.89-7.21h0Z" transform="translate(0)"/><path d="M1292.31,1618.24h0l14.89-7.21h0Z" transform="translate(0)"/><path d="M1411.48,1560.93h0l-14.89,7.12c698.44,248.11,1385.22,530.73,2088.86,764h37.59c-711.79-233.88-1405.85-519.84-2111.58-771.08Z" transform="translate(0)"/><path d="M1396.62,1568.06l14.89-7.12h0l-14.89,7.12Z" transform="translate(0)"/><path d="M1396.62,1568.06l14.89-7.12h0l-14.89,7.12Z" transform="translate(0)"/><path d="M1098.64,1713.24h0l-14.89,7.41h0c560.81,188.18,1111,405.91,1665.62,611.36h33.37c-561-207.21-1117.22-427.87-1684.1-618.77Z" transform="translate(0)"/><path d="M1083.78,1720.66l14.89-7.41h0l-14.89,7.41Z" transform="translate(0)"/><path d="M1083.78,1720.66l14.89-7.41h0l-14.89,7.41Z" transform="translate(0)"/><path d="M1188.06,1669.09h0c604.35,207.2,1197.54,445.77,1798.29,662.93h34.23C2413,2113.37,1813.61,1871.74,1203,1661.79Z" transform="translate(0)"/><path d="M1188,1669.08h0l14.89-7.3h0Z" transform="translate(0)"/><path d="M1188,1669.08h0l14.89-7.3h0Z" transform="translate(0)"/><path d="M1135.92,1694.78c582.35,197.66,1153.85,425.69,1731.2,637.23h33.69c-583.91-213.16-1161.48-444.22-1750-644.59Z" transform="translate(0)"/><path d="M1135.89,1694.77h0l14.89-7.36h0Z" transform="translate(0)"/><path d="M1135.89,1694.77h0l14.89-7.36h0Z" transform="translate(0)"/><path d="M614.52,1963.5C983.76,2072.4,1346.9,2199.14,1707.93,2332h33.58C1374.27,2196.42,1005,2066.81,629.4,1955.49Z" transform="translate(0)"/><path d="M614.49,1963.5h0l14.88-8h0C623.42,1958.68,620.45,1960.29,614.49,1963.5Z" transform="translate(0)"/><path d="M614.49,1963.5h0l14.88-8h0C623.42,1958.68,620.45,1960.29,614.49,1963.5Z" transform="translate(0)"/><path d="M785.8,1872.58h0l-14.89,7.79c434.27,134.6,860.7,291.5,1286,451.63h32.71c-431.31-162.55-863.6-322.31-1303.87-459.43Z" transform="translate(0)"/><path d="M770.94,1880.38l14.89-7.79h0l-14.89,7.79Z" transform="translate(0)"/><path d="M770.94,1880.38l14.89-7.79h0l-14.89,7.79Z" transform="translate(0)"/><path d="M890.08,1818.57h0c-6,3.05-8.94,4.59-14.89,7.65C1351.56,1978.31,1819,2155.33,2286.6,2332h33c-473.72-178.94-947.1-358.82-1429.48-513.44Z" transform="translate(0)"/><path d="M875.22,1826.23c5.95-3.06,8.93-4.6,14.89-7.65h0l-14.89,7.65Z" transform="translate(0)"/><path d="M875.22,1826.23c5.95-3.06,8.93-4.6,14.89-7.65h0l-14.89,7.65Z" transform="translate(0)"/><path d="M942.22,1791.91h0l-14.89,7.59c497.34,160.94,985.33,348,1474.29,532.5h32.95c-495.11-186.62-989-376.61-1492.38-540.1Z" transform="translate(0)"/><path d="M927.36,1799.51l14.89-7.59h0l-14.89,7.59Z" transform="translate(0)"/><path d="M927.36,1799.51l14.89-7.59h0l-14.89,7.59Z" transform="translate(0)"/><path d="M718.79,1907.82h0c412.86,126,818.45,272.88,1222.49,424.19h33.3c-410.17-153.9-821.8-303.62-1240.87-432.05Z" transform="translate(0)"/><path d="M718.77,1907.82h0l14.9-7.86h0Z" transform="translate(0)"/><path d="M718.77,1907.82h0l14.9-7.86h0Z" transform="translate(0)"/><path d="M666.65,1935.53h0C1057.86,2052.94,1442.38,2189.75,1825,2332h33.38C1469.6,2187.14,1079,2047.48,681.55,1927.59Z" transform="translate(0)"/><path d="M666.63,1935.52h0l14.9-7.94h0Z" transform="translate(0)"/><path d="M666.63,1935.52h0l14.9-7.94h0Z" transform="translate(0)"/><path d="M0,2316.38v9.34q14.15,3.14,28.27,6.29H82.66q-39.42-9.14-78.94-17.91Z" transform="translate(0)"/><path d="M3.7,2314.1,0,2316.36v0l3.72-2.28Z" transform="translate(0)"/><path d="M3.7,2314.1,0,2316.36v0l3.72-2.28Z" transform="translate(0)"/><path d="M145.25,2228.75Q342.38,2276.2,537,2332h43.17q-208.68-60.45-420-112.09Z" transform="translate(0)"/><path d="M145.23,2228.74h0l14.89-8.83h0C154.16,2223.44,151.18,2225.2,145.23,2228.74Z" transform="translate(0)"/><path d="M145.23,2228.74h0l14.89-8.83h0C154.16,2223.44,151.18,2225.2,145.23,2228.74Z" transform="translate(0)"/><path d="M55.84,2282.33h0l-14.89,9q85.76,19.46,171,40.64h49.39q-102.42-26-205.52-49.68Z" transform="translate(0)"/><path d="M41,2291.37l14.89-9h0l-14.89,9Z" transform="translate(0)"/><path d="M41,2291.37l14.89-9h0l-14.89,9Z" transform="translate(0)"/><path d="M108,2250.94h0l-14.89,8.93Q237.33,2293.6,380.16,2332h45.72q-158.16-43.22-317.9-81.07Z" transform="translate(0)"/><path d="M93.11,2259.88,108,2251h0l-14.89,8.93Z" transform="translate(0)"/><path d="M93.11,2259.88,108,2251h0l-14.89,8.93Z" transform="translate(0)"/></svg>