<?xml version="1.0" encoding="utf-8"?>
<!-- Generator: Adobe Illustrator 25.2.0, SVG Export Plug-In . SVG Version: 6.00 Build 0)  -->
<svg version="1.1" id="Layer_1" xmlns="http://www.w3.org/2000/svg" xmlns:xlink="http://www.w3.org/1999/xlink" x="0px" y="0px"
	 viewBox="0 0 125.2 116.3" style="enable-background:new 0 0 125.2 116.3;" xml:space="preserve">
<style type="text/css">
	.st0{fill:#B61F24;}
</style>
<g>
	<path class="st0" d="M72.8,0c17.5,0,34.9,0,52.4,0c-0.1,1.2-0.2,2.3-0.2,3.5c-0.3,3.5-0.5,7-0.8,10.5c-0.4,4.8-0.8,9.6-1.1,14.4
		c-0.4,4.6-0.7,9.1-1,13.7c-0.4,4.9-0.8,9.9-1.2,14.8c-0.3,4.5-0.7,9-1,13.5c-0.4,4.8-0.8,9.5-1.1,14.3c-0.4,4.6-0.7,9.2-1,13.8
		c-0.5,5.9-0.9,11.8-1.4,17.7c-11.5,0-23.1,0-34.6,0c0-0.7,0-1.4-0.1-2.1c-0.3-4.1-0.6-8.2-0.9-12.2c-0.3-3.5-0.5-7-0.8-10.4
		c-0.4-4.9-0.8-9.9-1.1-14.8c-0.3-3.6-0.5-7.3-0.8-10.9c-0.4-4.8-0.8-9.6-1.1-14.4c-0.3-3.7-0.5-7.4-0.8-11.2
		c-0.4-4.9-0.8-9.8-1.1-14.7c-0.3-3.7-0.5-7.4-0.8-11C73.6,9.7,73.2,4.8,72.8,0z"/>
	<path class="st0" d="M43.1,116.3c-11.5,0-23.1,0-34.6,0c0-0.2,0-0.4,0-0.6c-0.3-5.1-0.7-10.1-1.1-15.2C7.2,97.1,7,93.8,6.7,90.4
		c-0.4-5-0.8-10-1.1-15C5.3,71.7,5.1,68,4.8,64.2c-0.4-5-0.8-10-1.1-15c-0.3-3.7-0.5-7.4-0.8-11.2C2.5,33,2.1,28,1.7,22.9
		C1.4,19,1.1,15.2,0.8,11.3C0.5,7.5,0.3,3.8,0,0c17.5,0,34.9,0,52.4,0c-0.3,3.9-0.6,7.8-0.9,11.8C51,17.4,50.6,23,50.1,28.6
		c-0.6,7.6-1.3,15.3-1.9,22.9c-0.5,6.7-1,13.3-1.5,20c-0.6,7.6-1.3,15.3-1.9,22.9C44.3,101.7,43.7,109,43.1,116.3z"/>
</g>
</svg>
