<?xml version="1.0" encoding="utf-8"?>
<!-- Generator: Adobe Illustrator 25.2.0, SVG Export Plug-In . SVG Version: 6.00 Build 0)  -->
<svg version="1.1" id="Layer_1" xmlns="http://www.w3.org/2000/svg" xmlns:xlink="http://www.w3.org/1999/xlink" x="0px" y="0px"
	 viewBox="0 0 157.6 146.6" style="enable-background:new 0 0 157.6 146.6;" xml:space="preserve">
<style type="text/css">
	.st0{fill:#B90913;}
</style>
<g>
	<g>
		<path class="st0" d="M50.6,146.6l-35.4,0c-2,0-3.7-1.4-3.9-3.2C9.1,127,0,62.7,0,62.7c0,0,0,0,0,0C0,43,0,23.3,0,3.6
			C0,1.6,1.8,0,3.9,0c19.3,0,38.6,0,57.9,0c2.2,0,3.9,1.6,3.9,3.6c0,18.4,0,36.8,0,55.2c0,0.7-9.1,68.3-11.3,84.5
			C54.3,145.2,52.6,146.6,50.6,146.6z"/>
		<path class="st0" d="M142.4,146.6l-35.4,0c-2,0-3.7-1.4-3.9-3.2c-2.2-16.3-11.3-80.7-11.3-80.7c0,0,0,0,0,0c0-19.7,0-39.3,0-59
			c0-2,1.8-3.7,3.9-3.6c19.3,0,38.6,0,57.9,0c2.2,0,3.9,1.6,3.9,3.6c0,18.4,0,36.8,0,55.2c0,0.7-9.1,68.3-11.3,84.5
			C146.1,145.2,144.4,146.6,142.4,146.6z"/>
	</g>
</g>
</svg>
