<?xml version="1.0" encoding="utf-8"?>
<!-- Generator: Adobe Illustrator 25.2.0, SVG Export Plug-In . SVG Version: 6.00 Build 0)  -->
<svg version="1.1" id="Layer_1" xmlns="http://www.w3.org/2000/svg" xmlns:xlink="http://www.w3.org/1999/xlink" x="0px" y="0px"
	 viewBox="0 0 125.85 84.07" style="enable-background:new 0 0 125.85 84.07;" xml:space="preserve">
<style type="text/css">
	.st0{fill:#F6F6F6;}
	.st1{fill:#E3E3E3;}
	.st2{fill:#B41F1C;}
	.st3{fill:#FFFFFF;}
	.st4{fill:none;stroke:#FFFFFF;stroke-width:3.685;stroke-linecap:round;stroke-linejoin:round;}
	.st5{fill:#C0C0C0;}
	.st6{enable-background:new    ;}
	.st7{fill:#9D9D9C;}
	.st8{fill:#C6C6C6;}
	.st9{fill:#A8A8A7;}
</style>
<g id="Group_2330" transform="translate(-445.852 -1982.476)">
	<path id="Path_635" class="st0" d="M452.2,1982.48h113.15c3.5,0,6.35,2.84,6.35,6.34l0,0v71.38c0,3.5-2.84,6.34-6.35,6.34l0,0
		H452.2c-3.5,0-6.35-2.84-6.35-6.34c0,0,0,0,0,0v-71.38C445.85,1985.32,448.69,1982.48,452.2,1982.48
		C452.2,1982.48,452.2,1982.48,452.2,1982.48z"/>
	<path id="Path_648" class="st1" d="M452.2,2066.55c-3.5,0-6.35-2.84-6.35-6.34l0,0v-71.38c0-3.5,2.84-6.34,6.35-6.34l0,0h113.15
		c3.5,0,6.35,2.84,6.35,6.34l0,0L452.2,2066.55z"/>
	<path id="Path_636" class="st2" d="M560.28,2062.14H457.27c-3.7,0.07-6.76-2.88-6.83-6.58v-62.1c0.08-3.7,3.13-6.64,6.83-6.58
		h103.01c3.7-0.06,6.76,2.88,6.83,6.58v62.1C567.04,2059.26,563.98,2062.2,560.28,2062.14z M457.27,1989
		c-2.53-0.07-4.64,1.93-4.72,4.46v62.1c0.07,2.53,2.18,4.53,4.72,4.46h103.01c2.53,0.07,4.64-1.93,4.72-4.46v-62.1
		c-0.07-2.53-2.18-4.53-4.72-4.46H457.27z"/>
	<path id="Path_649" class="st3" d="M557.95,1989.65c0,2.14-1.73,3.87-3.87,3.87s-3.87-1.73-3.87-3.87s1.73-3.87,3.87-3.87l0,0
		C556.22,1985.78,557.95,1987.51,557.95,1989.65z"/>
	<path id="Path_651" class="st3" d="M468.28,1989.65c0,2.14-1.73,3.87-3.87,3.87s-3.87-1.73-3.87-3.87s1.73-3.87,3.87-3.87
		c0,0,0,0,0,0C466.55,1985.78,468.28,1987.51,468.28,1989.65z"/>
	<line id="Line_1" class="st4" x1="465.4" y1="1987.3" x2="465.4" y2="1987.3"/>
	<path id="Path_652" class="st5" d="M463.83,1986.96c2.13,0,3.86,1.73,3.86,3.86c0,0.37-0.05,0.75-0.16,1.11
		c1.26-1.72,0.9-4.14-0.82-5.4c-1.72-1.26-4.14-0.9-5.4,0.82c-0.26,0.36-0.46,0.76-0.59,1.19
		C461.44,1987.55,462.59,1986.96,463.83,1986.96z"/>
	<line id="Line_4" class="st4" x1="551.92" y1="1987.3" x2="551.92" y2="1987.3"/>
	<path id="Path_650" class="st5" d="M553.49,1986.96c2.13,0,3.86,1.73,3.86,3.86c0,0.37-0.05,0.75-0.16,1.11
		c1.26-1.72,0.9-4.14-0.82-5.4c-1.72-1.26-4.14-0.9-5.4,0.82c-0.26,0.36-0.46,0.76-0.59,1.19
		C551.1,1987.55,552.25,1986.96,553.49,1986.96L553.49,1986.96z"/>
	<g class="st6">
		<path class="st2" d="M479.84,2015.69v2.82c0,3.99-2.13,5.91-6.33,5.91c-3.3,0-6.27-1.35-6.27-6.24v-9.72
			c0-4.89,2.97-6.24,6.27-6.24c3.63,0,6.33,1.08,6.33,5.7v2.34h-4.98v-2.94c0-0.87-0.27-1.68-1.35-1.68c-1.02,0-1.29,0.81-1.29,1.68
			v12c0,0.87,0.27,1.68,1.29,1.68c1.08,0,1.35-0.81,1.35-1.68l0.03-3.63H479.84z"/>
		<path class="st2" d="M491.3,2002.64l2.76,21.36h-4.95l-0.57-5.25h-2.7l-0.81,5.25h-4.2l3.63-21.36H491.3z M488.18,2015.51
			l-0.87-9.51h-0.06l-0.87,9.51H488.18z"/>
		<path class="st2" d="M495.02,2024v-21.36H500v18.12h5.4v3.24H495.02z"/>
		<path class="st2" d="M506.12,2024v-21.36h4.98v18.12h5.4v3.24H506.12z"/>
		<path class="st2" d="M536.84,2017.91c-0.12,4.53-1.68,6.51-6.33,6.51c-6.15,0-6.27-4.29-6.27-6.99v-14.79h4.98v15.39
			c0,1.71,0,2.97,1.29,2.97c1.35,0,1.35-1.26,1.35-2.97v-15.39h4.98V2017.91z"/>
		<path class="st2" d="M545.78,2010.29v-3c0-1.05-0.33-1.65-1.32-1.65c-1.08,0-1.32,0.6-1.32,1.65c0,3.6,7.62,4.65,7.62,11.25
			c0,4.02-2.16,5.88-6.33,5.88c-3.18,0-6.27-1.08-6.27-4.77v-3.96h4.98v3.69c0,1.26,0.39,1.62,1.32,1.62c0.81,0,1.32-0.36,1.32-1.62
			c0-4.83-7.62-4.92-7.62-11.82c0-3.87,2.55-5.34,6.39-5.34c3.36,0,6.21,1.14,6.21,4.71v3.36H545.78z"/>
	</g>
	<g class="st6">
		<path class="st2" d="M484.46,2027.64h6.9l3.18,15.54h0.06v-15.54h3.9V2049h-6.39l-3.69-17.85h-0.06V2049h-3.9V2027.64z"/>
		<path class="st2" d="M512.24,2043.18c0,4.89-3,6.24-6.3,6.24c-3.3,0-6.3-1.35-6.3-6.24v-9.72c0-4.89,3-6.24,6.3-6.24
			c3.3,0,6.3,1.35,6.3,6.24V2043.18z M504.62,2044.32c0,0.87,0.27,1.68,1.32,1.68c1.05,0,1.32-0.81,1.32-1.68v-12
			c0-0.87-0.27-1.68-1.32-1.68c-1.05,0-1.32,0.81-1.32,1.68V2044.32z"/>
		<path class="st2" d="M512.99,2027.64h5.1l1.05,15.21h0.06l1.92-15.21h5.4l1.35,15.21h0.06l1.56-15.21h4.41l-2.79,21.36h-5.82
			l-1.92-16.47h-0.06l-1.77,16.47h-5.73L512.99,2027.64z"/>
	</g>
	<line id="Line_11" class="st4" x1="463.17" y1="1988.76" x2="463.17" y2="1988.76"/>
	<line id="Line_13" class="st4" x1="553.86" y1="1988.76" x2="553.86" y2="1988.76"/>
	<line id="Line_12" class="st4" x1="463.17" y1="1988.76" x2="463.17" y2="1988.76"/>
	<line id="Line_14" class="st4" x1="553.86" y1="1988.76" x2="553.86" y2="1988.76"/>
	<path id="Path_1401" class="st7" d="M467.81,1992.89c-2.08,2.65-6.65,1.77-8.29-0.6c-1.6-2.31-1.36-3.66,0.42-5.83
		c1.78-2.17,4.58-2.85,6.88-1.24C469.13,1987.12,469.56,1990.47,467.81,1992.89z"/>
	<path id="Path_1403" class="st7" d="M558.5,1992.89c-2.08,2.65-6.65,1.77-8.29-0.6c-1.6-2.31-1.36-3.66,0.42-5.83
		c1.78-2.17,4.58-2.85,6.88-1.24C559.81,1987.12,560.24,1990.47,558.5,1992.89z"/>
	<path id="Path_1402" class="st8" d="M467.08,1991.94c-1.77,2.17-4.98,2.5-7.15,0.72c-2.17-1.78-2.5-4.98-0.72-7.15
		s4.98-2.5,7.15-0.72c0,0,0,0,0,0C468.53,1986.57,468.86,1989.77,467.08,1991.94z"/>
	<path id="Path_1404" class="st8" d="M557.77,1991.94c-1.77,2.17-4.98,2.5-7.15,0.72c-2.17-1.78-2.5-4.98-0.72-7.15
		s4.98-2.5,7.15-0.72c0,0,0,0,0,0C559.22,1986.57,559.54,1989.77,557.77,1991.94z"/>
	
		<rect id="Rectangle_1509" x="459" y="1987.64" transform="matrix(0.6328 -0.7743 0.7743 0.6328 -1369.8212 1088.7798)" class="st9" width="8.24" height="2.23"/>
	
		<rect id="Rectangle_1510" x="549.69" y="1987.64" transform="matrix(0.6328 -0.7743 0.7743 0.6328 -1336.526 1158.994)" class="st9" width="8.24" height="2.23"/>
</g>
</svg>
