<svg id="Capa_1" data-name="Capa 1" xmlns="http://www.w3.org/2000/svg" width="127.296" height="128.531" viewBox="0 0 127.296 128.531">
  <path id="Path_634" data-name="Path 634" d="M193.7,228.119a6.345,6.345,0,0,1-6.345,6.345H74.206c-3.5,0-7.8-3.7-7.8-7.2l1.454-70.522a6.345,6.345,0,0,1,6.345-6.345l112.4-1.718c3.5,0,7.094,4.559,7.094,8.064Z" transform="translate(-66.407 -105.933)" fill="#c6c6c6"/>
  <path id="Path_635" data-name="Path 635" d="M6.345,99.306H119.5a6.345,6.345,0,0,1,6.345,6.345v71.381a6.345,6.345,0,0,1-6.345,6.345H6.345A6.345,6.345,0,0,1,0,177.032V105.651a6.345,6.345,0,0,1,6.345-6.345Z" transform="translate(0 -56.564)" fill="#f6f6f6"/>
  <path id="Path_648" data-name="Path 648" d="M72.752,232.746a6.345,6.345,0,0,1-6.345-6.345V155.02a6.345,6.345,0,0,1,6.345-6.345H185.9a6.345,6.345,0,0,1,6.345,6.345Z" transform="translate(-66.407 -105.933)" fill="#e3e3e3"/>
  <path id="Path_636" data-name="Path 636" d="M186.9,234.17H83.887a6.717,6.717,0,0,1-6.834-6.577v-62.1a6.717,6.717,0,0,1,6.834-6.578H186.9a6.717,6.717,0,0,1,6.833,6.578v62.1A6.717,6.717,0,0,1,186.9,234.17ZM83.887,161.027a4.6,4.6,0,0,0-4.719,4.463v62.1a4.6,4.6,0,0,0,4.719,4.463H186.9a4.6,4.6,0,0,0,4.718-4.463v-62.1a4.6,4.6,0,0,0-4.718-4.463Z" transform="translate(-72.471 -111.764)" fill="#b41f1c"/>
  <path id="Path_637" data-name="Path 637" d="M151.961,182.03l-3.005,25.954h-8.426q-1.157-5.981-2.043-13.61-.4,3.271-1.882,13.61h-8.378L125.2,182.03h6.557l.713,9.056.69,8.755q.373-6.8,1.866-17.81h7.008q.14,1.138.736,8.561l.745,9.875q.576-9.424,1.884-18.436Z" transform="translate(-99.898 -124.932)" fill="#b41f1c"/>
  <path id="Path_638" data-name="Path 638" d="M190.461,182.03h11.254v5.194h-4.5v4.921h4.216v4.938H197.21v5.707h4.954v5.194h-11.7Z" transform="translate(-137.068 -124.932)" fill="#b41f1c"/>
  <path id="Path_639" data-name="Path 639" d="M224.714,182.03v2.324a8.78,8.78,0,0,1-.433,2.99,4.349,4.349,0,0,1-1.5,1.988,6.023,6.023,0,0,1-2.413,1.1v-1.876a1.93,1.93,0,0,0,1.09-1.443h-1.09V182.03Z" transform="translate(-154.104 -124.932)" fill="#b41f1c"/>
  <path id="Path_640" data-name="Path 640" d="M234.971,182.03h4.777a36.536,36.536,0,0,1,6.469.369,4.453,4.453,0,0,1,2.757,1.884,8.551,8.551,0,0,1,1.066,4.833q0,3.03-.753,4.072a3.956,3.956,0,0,1-2.966,1.25,5.073,5.073,0,0,1,2.693,1.331,3.975,3.975,0,0,1,.858,1.531,24.186,24.186,0,0,1,.168,3.839v6.845h-6.268V199.36a5.95,5.95,0,0,0-.329-2.581q-.329-.5-1.723-.5v11.7h-6.749Zm6.749,4.441v5.771a2.97,2.97,0,0,0,1.6-.313q.457-.312.457-2.028v-1.427a2.164,2.164,0,0,0-.441-1.619,2.51,2.51,0,0,0-1.611-.384Z" transform="translate(-162.421 -124.932)" fill="#b41f1c"/>
  <path id="Path_641" data-name="Path 641" d="M276.054,182.03h11.254v5.194h-4.5v4.921h4.216v4.938H282.8v5.707h4.954v5.194h-11.7Z" transform="translate(-185.822 -124.932)" fill="#b41f1c"/>
  <path id="Path_642" data-name="Path 642" d="M128.19,247.069v25.954h-6.749v-10.9h-2.02v10.9h-6.749V247.069h6.749v9.282h2.02v-9.282Z" transform="translate(-92.76 -161.978)" fill="#b41f1c"/>
  <path id="Path_643" data-name="Path 643" d="M161.771,247.069v25.954h-6.749V247.069Z" transform="translate(-116.882 -161.978)" fill="#b41f1c"/>
  <path id="Path_644" data-name="Path 644" d="M177,247.069h4.777a36.54,36.54,0,0,1,6.469.369A4.454,4.454,0,0,1,191,249.321a8.55,8.55,0,0,1,1.066,4.833q0,3.03-.753,4.072a3.956,3.956,0,0,1-2.966,1.25,5.072,5.072,0,0,1,2.693,1.331,3.973,3.973,0,0,1,.858,1.531,24.175,24.175,0,0,1,.168,3.839v6.845H185.8V264.4a5.949,5.949,0,0,0-.329-2.581q-.329-.5-1.723-.5v11.7H177Zm6.749,4.441v5.771a2.97,2.97,0,0,0,1.6-.313q.457-.312.457-2.028v-1.427a2.164,2.164,0,0,0-.441-1.619,2.507,2.507,0,0,0-1.611-.385Z" transform="translate(-129.399 -161.978)" fill="#b41f1c"/>
  <path id="Path_645" data-name="Path 645" d="M224.83,247.069v25.954h-6.749V247.069Z" transform="translate(-152.8 -161.978)" fill="#b41f1c"/>
  <path id="Path_646" data-name="Path 646" d="M255.125,247.069v25.954H249.21l-3.511-11.8v11.8h-5.643V247.069H245.7l3.783,11.687V247.069Z" transform="translate(-165.317 -161.978)" fill="#b41f1c"/>
  <path id="Path_647" data-name="Path 647" d="M296.578,255.893h-6.749v-2.356a11.688,11.688,0,0,0-.192-2.789,1.009,1.009,0,0,0-1.763-.08,7.817,7.817,0,0,0-.224,2.469v12.456a7.41,7.41,0,0,0,.224,2.3.874.874,0,0,0,.9.553.99.99,0,0,0,1-.625,7.313,7.313,0,0,0,.265-2.437v-3.078h-1.363v-3.944h7.9v13.931h-4.241l-.624-1.86a4.717,4.717,0,0,1-1.741,1.8,4.907,4.907,0,0,1-2.478.6,6.447,6.447,0,0,1-3.185-.826,6.092,6.092,0,0,1-2.254-2.044,6.47,6.47,0,0,1-.963-2.557,30.679,30.679,0,0,1-.193-4.016v-7.711a25.837,25.837,0,0,1,.4-5.4,5.541,5.541,0,0,1,2.3-3.086,8.062,8.062,0,0,1,4.913-1.4,9.157,9.157,0,0,1,4.921,1.218,5.754,5.754,0,0,1,2.549,2.894,15.333,15.333,0,0,1,.593,4.866Z" transform="translate(-188.574 -161.248)" fill="#b41f1c"/>
  <path id="Path_649" data-name="Path 649" d="M316.616,160.218a3.866,3.866,0,1,1-3.866-3.866,3.866,3.866,0,0,1,3.866,3.866Z" transform="translate(-204.521 -110.306)" fill="#fff"/>
  <path id="Path_650" data-name="Path 650" d="M312.374,157.534a3.863,3.863,0,0,1,3.7,4.97,3.864,3.864,0,1,0-6.817-3.389,3.855,3.855,0,0,1,3.113-1.581Z" transform="translate(-204.736 -110.306)" fill="silver"/>
  <path id="Path_651" data-name="Path 651" d="M108.293,160.218a3.866,3.866,0,1,1-3.866-3.866,3.866,3.866,0,0,1,3.866,3.866Z" transform="translate(-85.861 -110.306)" fill="#fff"/>
  <path id="Path_652" data-name="Path 652" d="M104.051,157.534a3.863,3.863,0,0,1,3.7,4.97,3.864,3.864,0,1,0-6.817-3.389A3.855,3.855,0,0,1,104.051,157.534Z" transform="translate(-86.076 -110.307)" fill="silver"/>
  <line id="Line_1" data-name="Line 1" transform="translate(19.554 47.566)" fill="none" stroke="#fff" stroke-linecap="round" stroke-linejoin="round" stroke-width="3.685"/>
  <line id="Line_2" data-name="Line 2" y1="42.253" x2="41.208" transform="translate(20.653 4.187)" fill="none" stroke="#fff" stroke-linecap="round" stroke-linejoin="round" stroke-width="3.685" stroke-dasharray="0 3.657"/>
  <line id="Line_3" data-name="Line 3" transform="translate(62.41 3.623)" fill="none" stroke="#fff" stroke-linecap="round" stroke-linejoin="round" stroke-width="3.685"/>
  <line id="Line_4" data-name="Line 4" transform="translate(106.071 47.566)" fill="none" stroke="#fff" stroke-linecap="round" stroke-linejoin="round" stroke-width="3.685"/>
  <line id="Line_5" data-name="Line 5" x1="41.982" y1="42.253" transform="translate(62.97 4.187)" fill="none" stroke="#fff" stroke-linecap="round" stroke-linejoin="round" stroke-width="3.685" stroke-dasharray="0 3.69"/>
  <line id="Line_6" data-name="Line 6" transform="translate(62.41 3.623)" fill="none" stroke="#fff" stroke-linecap="round" stroke-linejoin="round" stroke-width="3.685"/>
  <path id="Path_653" data-name="Path 653" d="M210.276,56.563c-1.475,1.88-4.713,1.253-5.874-.423-1.133-1.635-.962-2.593.3-4.134a3.531,3.531,0,0,1,4.876-.877A4,4,0,0,1,210.276,56.563Z" transform="translate(-144.577 -50.012)" fill="#9d9d9c"/>
  <path id="Path_654" data-name="Path 654" d="M209.391,55.248a3.6,3.6,0,1,1-.511-5.067A3.6,3.6,0,0,1,209.391,55.248Z" transform="translate(-144.21 -49.369)" fill="#c6c6c6"/>
  <rect id="Rectangle_530" data-name="Rectangle 530" width="5.839" height="1.582" transform="translate(59.914 5.383) rotate(-50.74)" fill="#a8a8a7"/>
</svg>
