<svg xmlns="http://www.w3.org/2000/svg" width="20.878" height="17.169" viewBox="0 0 20.878 17.169">
  <g id="check-mark" transform="translate(0 -0.001)">
    <path id="Path_632" data-name="Path 632" d="M.753,10.812A2.45,2.45,0,0,1,4.147,7.277l4.211,4.052L16.743.678l.3.229-.3-.23A.386.386,0,0,1,16.824.6,2.444,2.444,0,0,1,18.561,0h0l.03,0a2.451,2.451,0,0,1,2.283,2.579h0l0,.03a2.44,2.44,0,0,1-.783,1.637L10.026,16.5h0a.366.366,0,0,1-.063.063,2.453,2.453,0,0,1-3.313-.076l-5.9-5.676Z" transform="translate(0 0)" fill="#fdfdfe"/>
  </g>
</svg>
