<svg id="contract" xmlns="http://www.w3.org/2000/svg" width="55.914" height="55.528" viewBox="0 0 55.914 55.528">
  <g id="Group_219" data-name="Group 219">
    <g id="Group_218" data-name="Group 218">
      <path id="Path_569" data-name="Path 569" d="M54.491,17.475a4.945,4.945,0,0,0-6.951,0l-4.929,4.9V9.482a4.831,4.831,0,0,0-1.44-3.451l-4.633-4.6A4.9,4.9,0,0,0,33.063,0H4.933A4.9,4.9,0,0,0,.018,4.88V50.648a4.9,4.9,0,0,0,4.915,4.88H37.7a4.9,4.9,0,0,0,4.915-4.88V36.184L54.491,24.377A4.854,4.854,0,0,0,54.491,17.475ZM32.782,3.254a1.8,1.8,0,0,1,1.439.476l4.634,4.6a1.767,1.767,0,0,1,.48,1.429H32.782Zm6.553,47.394A1.634,1.634,0,0,1,37.7,52.275H4.933a1.634,1.634,0,0,1-1.638-1.627V4.88A1.634,1.634,0,0,1,4.933,3.254H29.506v8.134a1.633,1.633,0,0,0,1.638,1.627h8.191V25.63l-4.833,4.8-2.316,2.3a1.625,1.625,0,0,0-.4.636l-2.317,6.9a1.619,1.619,0,0,0,.4,1.665,1.646,1.646,0,0,0,1.676.393l6.95-2.3a1.639,1.639,0,0,0,.64-.393l.2-.2v11.21ZM35.661,33.884l2.317,2.3-.885.879-3.475,1.15,1.158-3.451Zm4.633,0-2.317-2.3,7.875-7.827,2.317,2.3Zm11.88-11.807-1.689,1.678-2.317-2.3,1.689-1.679a1.648,1.648,0,0,1,2.317,0A1.618,1.618,0,0,1,52.174,22.077Z" transform="translate(-0.018 0)" fill="#ba0812"/>
    </g>
  </g>
  <g id="Group_221" data-name="Group 221" transform="translate(6.553 16.268)">
    <g id="Group_220" data-name="Group 220">
      <path id="Path_570" data-name="Path 570" d="M84.591,150H61.656a1.627,1.627,0,1,0,0,3.254H84.591a1.627,1.627,0,1,0,0-3.254Z" transform="translate(-60.018 -150)" fill="#ba0812"/>
    </g>
  </g>
  <g id="Group_223" data-name="Group 223" transform="translate(6.553 22.775)">
    <g id="Group_222" data-name="Group 222">
      <path id="Path_571" data-name="Path 571" d="M78.038,210H61.656a1.627,1.627,0,1,0,0,3.254H78.038a1.627,1.627,0,1,0,0-3.254Z" transform="translate(-60.018 -210)" fill="#ba0812"/>
    </g>
  </g>
  <g id="Group_225" data-name="Group 225" transform="translate(6.553 29.282)">
    <g id="Group_224" data-name="Group 224">
      <path id="Path_572" data-name="Path 572" d="M78.038,270H61.656a1.627,1.627,0,1,0,0,3.254H78.038a1.627,1.627,0,1,0,0-3.254Z" transform="translate(-60.018 -270)" fill="#ba0812"/>
    </g>
  </g>
  <g id="Group_227" data-name="Group 227" transform="translate(6.553 35.79)">
    <g id="Group_226" data-name="Group 226">
      <path id="Path_573" data-name="Path 573" d="M78.038,330H61.656a1.627,1.627,0,1,0,0,3.254H78.038a1.627,1.627,0,1,0,0-3.254Z" transform="translate(-60.018 -330)" fill="#ba0812"/>
    </g>
  </g>
  <g id="Group_229" data-name="Group 229" transform="translate(19.659 45.767)">
    <g id="Group_228" data-name="Group 228">
      <path id="Path_574" data-name="Path 574" d="M191.485,422h-9.829a1.627,1.627,0,1,0,0,3.254h9.829a1.627,1.627,0,1,0,0-3.254Z" transform="translate(-180.018 -422)" fill="#ba0812"/>
    </g>
  </g>
</svg>
