<svg xmlns="http://www.w3.org/2000/svg" width="1019" height="45" viewBox="0 0 1019 45">
  <g id="Group_1461" data-name="Group 1461" transform="translate(-363 -375)">
    <g id="Group_1453" data-name="Group 1453" transform="translate(363 374.912)">
      <g id="Rectangle_553" data-name="Rectangle 553" transform="translate(0 0.088)" fill="#fff" stroke="#e8eaee" stroke-width="2">
        <rect width="434" height="45" rx="10" stroke="none"/>
        <rect x="1" y="1" width="432" height="43" rx="9" fill="none"/>
      </g>
      <text id="Introduction_to_The_Security_Industry" data-name="Introduction to The Security Industry" transform="translate(218 28.088)" fill="#707070" font-size="15" font-family="ArialMT, Arial"><tspan x="-120.341" y="0">Introduction to The Security Industry</tspan></text>
    </g>
    <g id="Group_1456" data-name="Group 1456" transform="translate(800.27 376)">
      <rect id="Rectangle_553-2" data-name="Rectangle 553" width="143" height="44" rx="10" transform="translate(-0.27)" fill="#fff"/>
      <text id="_60" data-name="60" transform="translate(68.73 28)" fill="#707070" font-size="15" font-family="ArialMT, Arial"><tspan x="-8.342" y="0">60</tspan></text>
    </g>
    <g id="Group_1457" data-name="Group 1457" transform="translate(946.36 376)">
      <rect id="Rectangle_553-3" data-name="Rectangle 553" width="144" height="44" rx="10" transform="translate(-0.36)" fill="#fff"/>
      <text id="_60-2" data-name="60" transform="translate(67.64 28)" fill="#707070" font-size="15" font-family="ArialMT, Arial"><tspan x="-8.342" y="0">60</tspan></text>
    </g>
    <g id="Group_1458" data-name="Group 1458" transform="translate(1093.45 376)">
      <rect id="Rectangle_553-4" data-name="Rectangle 553" width="144" height="44" rx="10" transform="translate(-0.45)" fill="#fff"/>
      <text id="Failed" transform="translate(68.55 28)" fill="#ba0913" font-size="15" font-family="ArialMT, Arial"><tspan x="-20.427" y="0">Failed</tspan></text>
    </g>
    <g id="Group_1459" data-name="Group 1459" transform="translate(1239.628 376)">
      <rect id="Rectangle_553-5" data-name="Rectangle 553" width="142" height="44" rx="10" transform="translate(0.372)" fill="#fff"/>
      <text id="Incomplete" transform="translate(68.372 28)" fill="#ba0913" font-size="15" font-family="ArialMT, Arial"><tspan x="-36.687" y="0">Incomplete</tspan></text>
    </g>
  </g>
</svg>
