<svg xmlns="http://www.w3.org/2000/svg" width="96.5" height="25.175" viewBox="0 0 96.5 25.175">
  <g id="Group_357" data-name="Group 357" transform="translate(-54.5 -356)">
    <text id="Contact" transform="translate(102 374)" fill="#fff" font-size="14" font-family="ArialMT, Arial"><tspan x="0" y="0">Contact</tspan></text>
    <g id="Communicate" transform="translate(54.5 356)">
      <path id="Path_620" data-name="Path 620" d="M0,0,.47.021l.1,2.351L.1,2.351Z" transform="translate(8.118 6.83) rotate(-45)" fill="#fff"/>
      <path id="Path_621" data-name="Path 621" d="M0,0,.471.021l.1,2.351L.1,2.351Z" transform="translate(2.791 1.953) rotate(-45)" fill="#fff"/>
      <path id="Path_622" data-name="Path 622" d="M9.768,15.409a3.683,3.683,0,0,0,4.489.3l-1.746-1.6a2.634,2.634,0,0,1-3.09-.286L9.3,13.71a2.111,2.111,0,0,1-.313-2.829l-1.746-1.6a2.957,2.957,0,0,0,.323,4.11Z" transform="translate(-5.121 -6.672)" fill="#fff"/>
      <path id="Path_623" data-name="Path 623" d="M4.277,15.474h10.8a.472.472,0,0,0,.491-.45V4.235a.472.472,0,0,0-.491-.45H4.277a.472.472,0,0,0-.491.45V15.025A.472.472,0,0,0,4.277,15.474ZM5.536,5.42l1.042-.954a.524.524,0,0,1,.694,0L9.7,6.692a.423.423,0,0,1,0,.636l-1.042.954a1.27,1.27,0,0,0,0,1.907l.119.109a1.571,1.571,0,0,0,2.084,0l1.042-.954a.524.524,0,0,1,.694,0l2.43,2.225a.423.423,0,0,1,0,.636l-1.042.954a4.718,4.718,0,0,1-6.25,0l-2.2-2.016a3.813,3.813,0,0,1,0-5.722Z" transform="translate(-3.786 -3.786)" fill="#fff"/>
      <path id="Path_624" data-name="Path 624" d="M20.774,45.252v-3.4l-2.092,1.7Z" transform="translate(-10.953 -23.772)" fill="#fff"/>
      <path id="Path_625" data-name="Path 625" d="M15.369,40.7H9.116l3.125,2.54Z" transform="translate(-6.35 -23.164)" fill="#fff"/>
      <path id="Path_626" data-name="Path 626" d="M12.9,47.06a1.047,1.047,0,0,1-1.312,0l-.442-.36L9.123,48.343H15.37L13.343,46.7Z" transform="translate(-6.354 -26.314)" fill="#fff"/>
      <path id="Path_627" data-name="Path 627" d="M7.571,41.856v3.4l2.092-1.7Z" transform="translate(-5.607 -23.772)" fill="#fff"/>
      <path id="Path_628" data-name="Path 628" d="M4.277,44.861h10.8a.472.472,0,0,0,.491-.45v-9.89a.472.472,0,0,0-.491-.45H4.277a.472.472,0,0,0-.491.45v9.89A.472.472,0,0,0,4.277,44.861Zm.491-8.092a.472.472,0,0,1,.491-.45H14.1a.472.472,0,0,1,.491.45v5.395a.472.472,0,0,1-.491.45H5.259a.472.472,0,0,1-.491-.45Z" transform="translate(-3.786 -19.686)" fill="#fff"/>
      <ellipse id="Ellipse_68" data-name="Ellipse 68" cx="0.982" cy="0.899" rx="0.982" ry="0.899" transform="translate(20.624 4.496)" fill="#fff"/>
      <path id="Path_629" data-name="Path 629" d="M45.365,15.474a.472.472,0,0,0,.491-.45V4.235a.472.472,0,0,0-.491-.45h-10.8a.472.472,0,0,0-.491.45V15.025a.472.472,0,0,0,.491.45h2.455v-.4a1.432,1.432,0,0,1,1.345-1.394,1.535,1.535,0,0,1,1.172.4,1.262,1.262,0,0,1,.429.947v.45ZM36.036,9.18a3.944,3.944,0,0,1,7.857,0v.45a1.354,1.354,0,0,1-.966,1.268,1.555,1.555,0,0,1-1.63-.4,2.1,2.1,0,0,1-2.465.14,1.7,1.7,0,0,1-.653-2.181,2.007,2.007,0,0,1,2.2-1.031A1.837,1.837,0,0,1,41.928,9.18v.45a.493.493,0,0,0,.982,0V9.18a2.958,2.958,0,0,0-5.893,0,2.83,2.83,0,0,0,2.946,2.7h1.964a.451.451,0,1,1,0,.9H39.964A3.778,3.778,0,0,1,36.036,9.18Z" transform="translate(-18.358 -3.786)" fill="#fff"/>
      <path id="Path_630" data-name="Path 630" d="M38.209,39.741a.428.428,0,0,1,.116.281l.021.864h5.9v-.9a.426.426,0,0,1,.082-.25l.9-1.234V32.794a.413.413,0,0,0-.141-.312.5.5,0,0,0-.35-.138.472.472,0,0,0-.491.45v1.349a.493.493,0,0,1-.982,0V31.9a.413.413,0,0,0-.141-.312.5.5,0,0,0-.35-.138.472.472,0,0,0-.491.45v2.248a.493.493,0,0,1-.982,0V31a.413.413,0,0,0-.141-.312.5.5,0,0,0-.35-.138.472.472,0,0,0-.491.45v3.147a.493.493,0,0,1-.982,0V26.95a.413.413,0,0,0-.141-.312.5.5,0,0,0-.841.362v8.941a.461.461,0,0,1-.383.435.506.506,0,0,1-.55-.243s-1.551-3.012-1.558-3.04a.448.448,0,0,0-.227-.27.541.541,0,0,0-.377-.045l-.449.111,2.013,5.36Z" transform="translate(-18.715 -15.711)" fill="#fff"/>
    </g>
  </g>
</svg>
