<svg xmlns="http://www.w3.org/2000/svg" width="287.999" height="176.427" viewBox="0 0 287.999 176.427">
  <g id="Group_104" data-name="Group 104" transform="translate(-4922.63 -1787.71)" opacity="0.05">
    <path id="Path_451" data-name="Path 451" d="M4940.646,1964.136l75.823-77.059,50.13,27.914,50.166-27.914,75.87,77.059Zm-13.756-6.1a14.531,14.531,0,0,1-4.26-9.957v-125.3l80.894,55.086-76.633,80.176Zm279.431,0-76.657-80.176,80.953-55.086v125.3a14.726,14.726,0,0,1-4.3,9.957ZM5066.6,1883.908l-143.958-80.165c0-8.869,8.017-16.033,18-16.033h251.989c9.907,0,17.994,7.164,17.994,16.033L5066.6,1883.908Z" fill="#1c1c1c"/>
  </g>
</svg>
