<svg xmlns="http://www.w3.org/2000/svg" width="53" height="54" viewBox="0 0 53 54">
  <g id="Group_1560" data-name="Group 1560" transform="translate(-1368.5 -44)">
    <rect id="Rectangle_17" data-name="Rectangle 17" width="53" height="54" rx="12" transform="translate(1368.5 44)" fill="#e5e9fa"/>
    <g id="fi-rr-search_1" data-name="fi-rr-search 1" transform="translate(1386.5 62)">
      <rect id="fi-rr-search_1_Background_Mask_" data-name="fi-rr-search 1 (Background/Mask)" width="18" height="18" fill="none"/>
      <g id="Group_166" data-name="Group 166" transform="translate(-4 -3)">
        <path id="Path_493" data-name="Path 493" d="M120.249,258.778a.562.562,0,0,0-.586-.536H117.62a.562.562,0,0,0-.585.536v1.87a.562.562,0,0,0,.585.536h2.043a.562.562,0,0,0,.586-.536v-1.87Z" transform="translate(-111.136 -245.748)" fill="#111026"/>
        <path id="Path_494" data-name="Path 494" d="M216.884,258.778a.562.562,0,0,0-.585-.536h-2.044a.562.562,0,0,0-.585.536v1.87a.562.562,0,0,0,.585.536H216.3a.562.562,0,0,0,.585-.536Z" transform="translate(-202.664 -245.748)" fill="#111026"/>
        <path id="Path_495" data-name="Path 495" d="M313.512,258.778a.562.562,0,0,0-.585-.536h-2.043a.562.562,0,0,0-.586.536v1.87a.562.562,0,0,0,.586.536h2.043a.562.562,0,0,0,.585-.536Z" transform="translate(-294.186 -245.748)" fill="#111026"/>
        <path id="Path_496" data-name="Path 496" d="M120.249,355.411a.562.562,0,0,0-.586-.536H117.62a.562.562,0,0,0-.585.536v1.87a.562.562,0,0,0,.585.536h2.043a.562.562,0,0,0,.586-.536v-1.87Z" transform="translate(-111.136 -337.706)" fill="#111026"/>
        <path id="Path_497" data-name="Path 497" d="M216.884,355.411a.562.562,0,0,0-.585-.536h-2.044a.562.562,0,0,0-.585.536v1.87a.562.562,0,0,0,.585.536H216.3a.562.562,0,0,0,.585-.536Z" transform="translate(-202.664 -337.706)" fill="#111026"/>
        <path id="Path_498" data-name="Path 498" d="M313.512,355.411a.562.562,0,0,0-.585-.536h-2.044a.562.562,0,0,0-.586.536v1.87a.562.562,0,0,0,.586.536h2.044a.562.562,0,0,0,.585-.536v-1.87Z" transform="translate(-294.186 -337.706)" fill="#111026"/>
        <path id="Path_499" data-name="Path 499" d="M28.39,54.152v2.857a2.449,2.449,0,0,1-2.554,2.332H24.225a2.463,2.463,0,0,1-2.57-2.332V54.142H14.392v2.867a2.463,2.463,0,0,1-2.569,2.332H10.211a2.449,2.449,0,0,1-2.554-2.332V54.152a2.225,2.225,0,0,0-2.245,2.115V73.01A2.231,2.231,0,0,0,7.723,75.14h20.6a2.233,2.233,0,0,0,2.312-2.129V56.268A2.225,2.225,0,0,0,28.39,54.152Zm-.748,17.815a.96.96,0,0,1-1,.915H9.36a.96.96,0,0,1-1-.915V63.32a.96.96,0,0,1,1-.915H26.642a.96.96,0,0,1,1,.915v8.648Z" transform="translate(-5.411 -51.523)" fill="#111026"/>
        <path id="Path_500" data-name="Path 500" d="M80.426,6.287H82.02a.841.841,0,0,0,.876-.8V.8A.841.841,0,0,0,82.02,0H80.426a.841.841,0,0,0-.876.8V5.485A.841.841,0,0,0,80.426,6.287Z" transform="translate(-75.632 0)" fill="#111026"/>
        <path id="Path_501" data-name="Path 501" d="M345.334,6.287h1.594a.841.841,0,0,0,.876-.8V.8a.841.841,0,0,0-.876-.8h-1.594a.841.841,0,0,0-.876.8V5.485A.841.841,0,0,0,345.334,6.287Z" transform="translate(-326.541 0)" fill="#111026"/>
      </g>
    </g>
  </g>
</svg>
