<svg id="Group_238" data-name="Group 238" xmlns="http://www.w3.org/2000/svg" width="26" height="27.908" viewBox="0 0 26 27.908">
  <path id="Path_579" data-name="Path 579" d="M25.818,16.185a.516.516,0,0,0-.494-.419,8.6,8.6,0,0,1-2.981-.859V12.542a1.584,1.584,0,0,0-1.523-1.635H19.8V1.1A1.056,1.056,0,0,0,18.789,0H3.555A1.056,1.056,0,0,0,2.539,1.1V7.636H1.016A1.056,1.056,0,0,0,0,8.726V24.533a1.584,1.584,0,0,0,1.523,1.635H18.018a11.733,11.733,0,0,0,2.144,1.672.478.478,0,0,0,.5,0A10.761,10.761,0,0,0,25.8,20.456a11.716,11.716,0,0,0,.021-4.271ZM3.555,1.1H18.789v9.812h-8.8L9.141,8.623a1.432,1.432,0,0,0-1.314-.986H3.555ZM1.016,24.533v-.545h2.64a.546.546,0,0,0,0-1.09H1.016V8.726H7.827a.429.429,0,0,1,.371.3l.979,2.627A.509.509,0,0,0,9.648,12H20.82a.528.528,0,0,1,.508.545v1.807a3.228,3.228,0,0,1-.557-.451.483.483,0,0,0-.714,0A8.856,8.856,0,0,1,15.5,15.766a.517.517,0,0,0-.494.419,11.715,11.715,0,0,0,.021,4.271,10.8,10.8,0,0,0,2.028,4.623H1.523A.528.528,0,0,1,1.016,24.533ZM24.8,20.245a9.544,9.544,0,0,1-4.387,6.491,9.544,9.544,0,0,1-4.379-6.448,11.2,11.2,0,0,1-.1-3.46A10.617,10.617,0,0,0,20.414,15a10.616,10.616,0,0,0,4.481,1.83A11.136,11.136,0,0,1,24.8,20.245Z" transform="translate(0 -0.005)" fill="#ba0812"/>
  <path id="Path_580" data-name="Path 580" d="M97.009,41.1h11.527a.546.546,0,0,0,0-1.09H97.009a.546.546,0,0,0,0,1.09Z" transform="translate(-91.601 -37.826)" fill="#ba0812"/>
  <path id="Path_581" data-name="Path 581" d="M109.044,80.551a.527.527,0,0,0-.508-.545H97.009a.546.546,0,0,0,0,1.09h11.527A.527.527,0,0,0,109.044,80.551Z" transform="translate(-91.601 -75.645)" fill="#ba0812"/>
  <path id="Path_582" data-name="Path 582" d="M216.271,120.006h-5.764a.546.546,0,0,0,0,1.09h5.764a.546.546,0,0,0,0-1.09Z" transform="translate(-199.336 -113.465)" fill="#ba0812"/>
  <path id="Path_583" data-name="Path 583" d="M268,160.006h-3a.546.546,0,0,0,0,1.09h3a.546.546,0,0,0,0-1.09Z" transform="translate(-251.069 -151.285)" fill="#ba0812"/>
  <path id="Path_584" data-name="Path 584" d="M339.963,327.6a1.463,1.463,0,0,0-1.077.479l-1.4,1.5-.238-.256a1.451,1.451,0,0,0-2.154,0,1.721,1.721,0,0,0,0,2.312l1.315,1.412a1.452,1.452,0,0,0,2.154,0l2.479-2.661a1.723,1.723,0,0,0,0-2.312,1.462,1.462,0,0,0-1.077-.479Zm.359,2.02-2.479,2.661a.484.484,0,0,1-.718,0l-1.315-1.412a.574.574,0,0,1,0-.771.484.484,0,0,1,.718,0l.6.641a.484.484,0,0,0,.718,0l1.761-1.89a.483.483,0,0,1,.718,0A.574.574,0,0,1,340.322,329.623Z" transform="translate(-317.653 -309.747)" fill="#ba0812"/>
  <path id="Path_585" data-name="Path 585" d="M107.5,420.01a.546.546,0,0,0,0,1.09h0a.546.546,0,0,0,0-1.09Z" transform="translate(-101.56 -397.117)" fill="#ba0812"/>
</svg>
