<svg xmlns="http://www.w3.org/2000/svg" width="53" height="149" viewBox="0 0 53 149">
  <g id="Group_1561" data-name="Group 1561" transform="translate(-1478 -461)">
    <rect id="Rectangle_11" data-name="Rectangle 11" width="53" height="54" rx="12" transform="translate(1478 461)" fill="#3f3f3f"/>
    <rect id="Rectangle_12" data-name="Rectangle 12" width="53" height="54" rx="12" transform="translate(1478 556)" fill="#3f3f3f"/>
    <g id="shopping-cart" transform="translate(1492 476)">
      <path id="Path_502" data-name="Path 502" d="M210.167,22.842a.984.984,0,0,0-.384,1.674l2.922,2.677a2.133,2.133,0,0,0,2.83,0l2.922-2.677a1.013,1.013,0,0,0-.789-1.743h-1.233c0-.352,0-3.978,0-4.33A1.516,1.516,0,0,0,214.858,17h-1.477a1.516,1.516,0,0,0-1.576,1.443c0,3.08,0-1.98,0,4.33-1.3,0-1.379-.023-1.638.069Z" transform="translate(-199.137 -16.233)" fill="#fff"/>
      <path id="Path_503" data-name="Path 503" d="M24.486,18.117c-20.479,0-19.566,0-19.568-.006a11.645,11.645,0,0,1-.2-1.542c9.827-.047-13.671,0,18.134,0a2.188,2.188,0,0,0,2.324-2.138V5.266a1.7,1.7,0,0,0-1.76-1.614l-4.64-.007V5.2a2.338,2.338,0,0,1,1.59,4.042l-2.922,2.677a3.707,3.707,0,0,1-4.921,0L9.6,9.24A2.338,2.338,0,0,1,11.19,5.2V3.632L6.105,3.624l-.492-2.48A1.49,1.49,0,0,0,4.117,0H.739A.71.71,0,0,0,0,.677a.71.71,0,0,0,.739.677H4.117c.162,0,1.71,9.31,2.485,13.853l-1.891.009a1.409,1.409,0,0,0-1.469,1.529l.209,1.534A1.449,1.449,0,0,0,4.926,19.47H6.237a2.5,2.5,0,0,0,2.417,3.623,2.5,2.5,0,0,0,2.417-3.623H18.11a2.5,2.5,0,0,0,2.417,3.623,2.5,2.5,0,0,0,2.417-3.623h1.54a.679.679,0,1,0,0-1.353Z" transform="translate(0 0)" fill="#fff"/>
    </g>
    <g id="online-course_1_" data-name="online-course (1)" transform="translate(1492 572)">
      <path id="Path_484" data-name="Path 484" d="M11.817,8.563,6.987,7.015a6.2,6.2,0,0,0,.035,1.537.7.7,0,0,0,.438.425c5.262,1.853,4.893,1.744,5.089,1.744s-.18.112,5.088-1.744a.68.68,0,0,0,.474-.632V7.089L13.251,8.573a2.41,2.41,0,0,1-1.434-.01Z" transform="translate(0.063 -1.214)" fill="#fff"/>
      <path id="Path_485" data-name="Path 485" d="M4.725,4.342c.178.108-.417-.106,7.6,2.464a.8.8,0,0,0,.478,0l6.819-2.081V8.545a.647.647,0,0,0,.217.479A.751.751,0,0,0,21.1,8.545c0-4.614,0-4.719,0-4.718a.679.679,0,0,0-.5-.68C12.707.74,12.748.736,12.573.736s-.129,0-7.665,2.415a.655.655,0,0,0-.183,1.191Z" transform="translate(0.04 -0.736)" fill="#fff"/>
      <path id="Path_486" data-name="Path 486" d="M4.407,16.172H5.9v1.364H4.407Z" transform="translate(0.04 -1.913)" fill="#fff"/>
      <path id="Path_487" data-name="Path 487" d="M24.485,4.042H22.622V8.8a2.132,2.132,0,0,1-2.218,2.03,2.272,2.272,0,0,1-1.873-.944c-.2.106.135-.023-5.122,1.828a2.409,2.409,0,0,1-1.593,0l-4.823-1.7A2.042,2.042,0,0,1,5.571,8.118v-1.8L4.459,5.958A2.052,2.052,0,0,1,2.974,4.042H.739A.71.71,0,0,0,0,4.719v14.61a.71.71,0,0,0,.739.677H7.421v1.364H5.191a.679.679,0,1,0,0,1.353H20.033a.679.679,0,1,0,0-1.353H17.8V20.005h6.682a.71.71,0,0,0,.739-.677V4.719a.71.71,0,0,0-.739-.677ZM7.415,17.287a.71.71,0,0,1-.739.677H3.707a.71.71,0,0,1-.739-.677V14.57a.71.71,0,0,1,.739-.677H6.676a.71.71,0,0,1,.739.677Zm14.1.677H9.644a.679.679,0,1,1,0-1.353H21.517a.679.679,0,1,1,0,1.353Zm0-2.717H9.644a.679.679,0,1,1,0-1.353H21.517a.679.679,0,1,1,0,1.353Z" transform="translate(0 -0.988)" fill="#fff"/>
    </g>
  </g>
</svg>
