<svg id="Group_233" data-name="Group 233" xmlns="http://www.w3.org/2000/svg" width="51.727" height="55.528" viewBox="0 0 51.727 55.528">
  <g id="Group_232" data-name="Group 232">
    <path id="Path_576" data-name="Path 576" d="M50.9,47.45l-2.128-2.284a.962.962,0,0,0-1.429,0,1.142,1.142,0,0,0,0,1.534l2.128,2.284a.984.984,0,0,1,0,1.322l-2.59,2.78a.83.83,0,0,1-1.232,0L36.31,43.059l3.822-4.1L42.1,41.064a.962.962,0,0,0,1.429,0,1.142,1.142,0,0,0,0-1.534l-2.678-2.875a.962.962,0,0,0-1.429,0l-.443.475-2.794-3a22.422,22.422,0,0,0,3.855-12.657C40.036,9.633,31.061,0,20.03,0S.024,9.633.024,21.474,9,42.949,20.03,42.949a19.006,19.006,0,0,0,11.785-4.133l2.8,3-.443.475a1.142,1.142,0,0,0,0,1.534L44.224,54.621a2.757,2.757,0,0,0,4.09,0l2.59-2.78a3.267,3.267,0,0,0,0-4.39ZM20.03,40.779c-9.917,0-17.985-8.66-17.985-19.305S10.113,2.169,20.03,2.169s17.985,8.66,17.985,19.305S29.947,40.779,20.03,40.779Zm13.362-3.338A21.012,21.012,0,0,0,34.9,35.824l2.646,2.84-1.507,1.618Z" transform="translate(-0.024)" fill="#ba0812"/>
  </g>
</svg>
