<svg xmlns="http://www.w3.org/2000/svg" width="164" height="23.094" viewBox="0 0 164 23.094">
  <g id="Group_356" data-name="Group 356" transform="translate(-52 -306)">
    <text id="Purchase_Courses" data-name="Purchase Courses" transform="translate(100 322)" fill="#fff" font-size="14" font-family="ArialMT, Arial"><tspan x="0" y="0">Purchase Courses</tspan></text>
    <g id="shopping-cart" transform="translate(52 306)">
      <path id="Path_502" data-name="Path 502" d="M210.167,22.842a.984.984,0,0,0-.384,1.674l2.922,2.677a2.133,2.133,0,0,0,2.83,0l2.922-2.677a1.013,1.013,0,0,0-.789-1.743h-1.233c0-.352,0-3.978,0-4.33A1.516,1.516,0,0,0,214.858,17h-1.477a1.516,1.516,0,0,0-1.576,1.443c0,3.08,0-1.98,0,4.33-1.3,0-1.379-.023-1.638.069Z" transform="translate(-199.137 -16.233)" fill="#fff"/>
      <path id="Path_503" data-name="Path 503" d="M24.486,18.117c-20.479,0-19.566,0-19.568-.006a11.645,11.645,0,0,1-.2-1.542c9.827-.047-13.671,0,18.134,0a2.188,2.188,0,0,0,2.324-2.138V5.266a1.7,1.7,0,0,0-1.76-1.614l-4.64-.007V5.2a2.338,2.338,0,0,1,1.59,4.042l-2.922,2.677a3.707,3.707,0,0,1-4.921,0L9.6,9.24A2.338,2.338,0,0,1,11.19,5.2V3.632L6.105,3.624l-.492-2.48A1.49,1.49,0,0,0,4.117,0H.739A.71.71,0,0,0,0,.677a.71.71,0,0,0,.739.677H4.117c.162,0,1.71,9.31,2.485,13.853l-1.891.009a1.409,1.409,0,0,0-1.469,1.529l.209,1.534A1.449,1.449,0,0,0,4.926,19.47H6.237a2.5,2.5,0,0,0,2.417,3.623,2.5,2.5,0,0,0,2.417-3.623H18.11a2.5,2.5,0,0,0,2.417,3.623,2.5,2.5,0,0,0,2.417-3.623h1.54a.679.679,0,1,0,0-1.353Z" transform="translate(0 0)" fill="#fff"/>
    </g>
  </g>
</svg>
