<svg xmlns="http://www.w3.org/2000/svg" width="99" height="23.094" viewBox="0 0 99 23.094">
  <g id="Group_358" data-name="Group 358" transform="translate(-52 -410.504)">
    <text id="Training" transform="translate(100 427.504)" fill="#fff" font-size="14" font-family="ArialMT, Arial"><tspan x="0" y="0">Training</tspan></text>
    <g id="presentation" transform="translate(52 410.504)">
      <path id="Path_517" data-name="Path 517" d="M31,2.075a2.226,2.226,0,0,0,4.434,0,2.222,2.222,0,0,0-4.434,0Z" transform="translate(-29.473)" fill="#fff"/>
      <path id="Path_518" data-name="Path 518" d="M211,4.1h2.956V9.517H211V10.87h14.829V0H211Zm5.912,1.353h1.478V6.811h1.478V4.1h1.478V6.811h1.478V2.751H224.3V8.164h-7.39Z" transform="translate(-200.605)" fill="#fff"/>
      <path id="Path_519" data-name="Path 519" d="M91,396.458h5.912v-2.751a2.968,2.968,0,0,0-5.912,0Z" transform="translate(-86.517 -373.364)" fill="#fff"/>
      <ellipse id="Ellipse_64" data-name="Ellipse 64" cx="2.442" cy="1.917" rx="2.442" ry="1.917" transform="translate(4.885 12.138)" fill="#fff"/>
      <path id="Path_520" data-name="Path 520" d="M241,396.458h5.912v-2.751a2.968,2.968,0,0,0-5.912,0Z" transform="translate(-229.127 -373.364)" fill="#fff"/>
      <ellipse id="Ellipse_65" data-name="Ellipse 65" cx="2.093" cy="1.917" rx="2.093" ry="1.917" transform="translate(12.561 12.138)" fill="#fff"/>
      <path id="Path_521" data-name="Path 521" d="M393.956,391A2.839,2.839,0,0,0,391,393.706v2.751h5.961v-2.751A2.885,2.885,0,0,0,393.956,391Z" transform="translate(-371.737 -373.364)" fill="#fff"/>
      <ellipse id="Ellipse_66" data-name="Ellipse 66" cx="2.093" cy="1.917" rx="2.093" ry="1.917" transform="translate(20.236 12.138)" fill="#fff"/>
      <path id="Path_522" data-name="Path 522" d="M3.744,129.8a3.391,3.391,0,0,1,2.217-3.1v-2.993h5.912V121H3.005A2.888,2.888,0,0,0,0,123.706v6.766H3.819A3.107,3.107,0,0,1,3.744,129.8Z" transform="translate(0 -115.542)" fill="#fff"/>
    </g>
  </g>
</svg>
