<svg xmlns="http://www.w3.org/2000/svg" width="1209.071" height="952.804" viewBox="0 0 1209.071 952.804">
  <g id="Hancuffs" transform="matrix(1, 0.017, -0.017, 1, 9.751, -3.743)" opacity="0.1">
    <path id="Path_300" data-name="Path 300" d="M59.3,748.116C58.17,737,63.459,730.919,73.4,728.268a28.773,28.773,0,0,0,4.5-2.136c-.852-10.164-4.281-19.678-6.269-28.981-.764-.824-1.086-1.454-1.583-1.666-15.139-6.476-19.9-18.955-19.7-34.228.078-5.818.5-11.632.7-17.445q.359-10.571.6-21.151a34.278,34.278,0,0,1,3.48-14.182c3.627-7.549,9.192-12.921,17.5-15.075,2.053-.529,4.078-1.16,6.614-1.887,2.343-7.429,4.727-14.983,7.181-22.753a24.791,24.791,0,0,0-2.131-2.95c-9.694-9.892-9.8-21.229-4.824-33.179a35.9,35.9,0,0,1,4.824-7.793c8.019-10.472,16.189-20.824,24.249-31.259a33.884,33.884,0,0,1,19.572-12.875c3.531-.81,7.264-.75,11.425-1.137q5.882-10.578,11.963-21.515a30.228,30.228,0,0,0-1.611-3.526c-5.427-8.6-6.127-17.9-3.646-27.462,3.388-13.054,6.923-26.072,10.716-39.011,4.065-13.873,12.7-22.859,27.71-24.474a12.2,12.2,0,0,0,2.4-.985c4.074-7.139,8.451-14.822,12.7-22.265a26.26,26.26,0,0,0-1.036-3.1c-5.989-11.894-4.405-23.259,2.849-33.911,7.595-11.149,15.535-22.067,23.439-33,8.5-11.765,19.747-17.036,35.061-13.915,3.563-3.052,7.471-6.4,11.328-9.708-1.4-4.387-3.268-8.29-3.8-12.368-.575-4.424,2.325-8.069,5.289-11.954-2.09-3.351-4.115-6.734-6.265-10.039-4.681-7.195-9.547-14.279-14.117-21.542-6.808-10.822-7.917-22.412-3.705-34.417,2.951-8.405,8.621-14.721,16.023-19.572q20.762-13.616,41.487-27.287a17.72,17.72,0,0,1,1.547-1c7.4-3.811,12.888-9.169,14.444-17.74C342.632,42.956,377.956,12.893,428.98,2.9c42.279-8.281,81.239,1.211,115,27.991,35.4,28.078,53.8,65.216,54.468,110.79.557,37.644-11.871,70.454-36.976,98.27-22.118,24.507-49.763,39.3-82.316,44.953a143.718,143.718,0,0,1-32.98,1.551,18.377,18.377,0,0,0-12.009,3.291c-16.019,10.785-32.24,21.271-48.36,31.9a38.518,38.518,0,0,1-31.6,5.519,37.436,37.436,0,0,1-22.711-16.1c-5.662-8.387-11.148-16.893-16.714-25.344-1-1.528-2.016-3.052-3.3-4.99-2.3.2-4.658.47-7.029.612-5.3.322-9.611-1.537-12.654-5.984-3.1-4.534-6.15-9.109-9.376-13.887-3.927,1.243-6.338,3.82-8.663,6.854.295,1.533.47,3.047.888,4.5a30.507,30.507,0,0,1-4.156,26.389q-12.58,18.691-26.1,36.741c-7.112,9.487-17.086,13.639-29.146,12.953-5.008,6.762-8.368,14.32-12.465,21.109a7.973,7.973,0,0,0,.645,2.127c7.158,9.588,8.322,20.129,5.174,31.434-3.452,12.4-6.753,24.847-10.232,37.239a41.391,41.391,0,0,1-3.01,7.682c-5.671,11.024-14.5,17.169-27,17.008-4.677,5.547-10.076,14.964-13.726,23.848,1.2,3.448,2.836,6.813,3.512,10.361a32.015,32.015,0,0,1-6.246,26.062c-8.492,11.264-17.2,22.366-25.952,33.432-5.542,7.01-12.944,11.139-22.044,12.948-3.738,8.285-5.731,17.225-8.405,25.648,12.124,18.242,9.85,20.056,9.583,34.8-.175,9.505-.156,19.02-.561,28.516-.732,17.128-2.9,21.551-15.775,33.2,1.9,7.922,3.876,16.175,5.745,23.991,3.277,1.634,5.436-.092,7.572-.98,7.931-3.3,14.932-2.918,20.566,4.368.345.451.994.663,2.131,1.386,2.679-.957,5.818-2.039,8.925-3.2,8.893-3.333,17.676-6.987,26.679-9.984a37.733,37.733,0,0,1,42.2,12.391,50.334,50.334,0,0,1,6.987,12.824c6.518,16.543,12.9,33.146,18.914,49.874a26.149,26.149,0,0,0,11.015,13.869c35.517,23.31,56.907,56.3,63.434,98.155,11.213,71.9-32.93,142.22-106.279,160.766C117.65,1077.744,37.585,1028.781,20.931,946.8c-4.465-21.979-3.931-44,2.518-65.547,1.91-6.38,1.275-11.733-1.073-17.639-6.113-15.383-11.834-30.923-17.708-46.4-.87-2.292-1.8-4.566-2.546-6.9-6.633-20.741,2.633-40.686,22.8-48.9,7.66-3.116,15.434-5.947,23.153-8.921C51.5,751.187,54.915,749.833,59.3,748.116ZM161,798.971c-69.451.76-119.642,57.745-119.352,120.572.272,59.278,46.7,119.007,119.706,119.149,69.442.134,120-55.292,119.771-119.983C280.883,849.632,225.278,799.044,161,798.971ZM336.119,143.955c-1.266,61.736,50.84,119.048,119.2,119.393,61.022.313,119.739-48.682,119.96-119.831.2-63.14-49.326-119.863-119.932-119.789C382.439,23.8,334.489,84.631,336.119,143.955ZM223.649,334.571c5.017-1.059,8.53-4.35,11.434-8.405,7.664-10.707,15.259-21.459,22.9-32.184a25.522,25.522,0,0,0,4.529-10.928,11.043,11.043,0,0,0-.405-3.222c-.76-.12-1.16-.318-1.349-.193-1.505.994-2.946,2.085-4.451,3.075-6.223,4.087-11.811,1.855-13.864-5.533-.364-1.3.368-3.185-2.371-3.526-1.432,1.588-3.157,3.291-4.631,5.192-2.057,2.661-3.926,5.473-5.878,8.216-5.671,7.991-11.374,15.959-16.995,23.982-2.849,4.069-4.589,8.46-3.724,13.192.833.52,1.1.833,1.326.81,6.329-.672,10.739,1.409,12.037,8.189C222.3,333.7,223.05,334.042,223.649,334.571ZM175.993,449.062c1.192-.4,2.472-.474,3.227-1.146a21.918,21.918,0,0,0,6.375-10.923c3.5-12.654,7.056-25.294,10.371-38a35.956,35.956,0,0,0,.8-9.045c0-1.284-.971-2.569-1.9-4.833-2.44,2.743-3.963,5.128-6.081,6.711-4.787,3.572-10.384,1.574-12.281-4.143a36.315,36.315,0,0,1-.861-4.5c-3.714,1.777-4.69,4.778-5.5,7.59q-5.917,20.693-11.457,41.5c-.819,3.089-1.22,6.435.856,9.781a41.257,41.257,0,0,1,5.229-2.532c5.85-1.832,8.994.106,10.541,6.315C175.533,446.719,175.69,447.612,175.993,449.062Zm-45.8,45.179a20.761,20.761,0,0,0-11.232,7.834q-12.111,15.584-24.189,31.19a28.855,28.855,0,0,0-3.351,5.45c-1.68,3.646-2.495,7.434-.6,11.977,2.32-2.007,4.143-4.009,6.352-5.4a6.759,6.759,0,0,1,10.025,2.969,57.7,57.7,0,0,1,2.2,6.909c3.466-.842,5.266-3.333,7.13-5.712,3.208-4.1,6.384-8.212,9.574-12.322q7.035-9.059,14.076-18.127c2.8-3.623,5.04-7.466,4.925-12.847a38.3,38.3,0,0,1-5.353,2.559c-5.606,1.616-9.726-1.243-10.191-7.135C129.4,499.562,129.894,497.481,130.2,494.241ZM89.921,617.7a43.465,43.465,0,0,1-4.631,5.077c-4.884,3.982-10.338,2.228-12.051-3.922-.548-1.961-.184-4.175-.216-6.274-.018-1.294,1.307-2.849-.976-3.894C66.2,612.82,65.005,619.08,64.66,625.6c-.3,5.809-.276,11.641-.364,17.459-.115,7.963-.3,15.931-.23,23.89.018,1.938-.373,4.437,2.674,5.547a27.57,27.57,0,0,1,1.993-2.789c4.442-4.833,9.137-4.6,12.907.681a35.555,35.555,0,0,1,2.126,4.046c.617,1.151,1.27,2.283,2.081,3.728a15.859,15.859,0,0,0,4.847-11.36q.773-22.488,1.307-44.985C92.039,620.433,92.14,618.693,89.921,617.7Zm228.122-389.55c-3.052,2.495-5.726,4.52-8.2,6.766-1.2,1.086-1.091,4.1.235,5.04a7.461,7.461,0,0,0,4.11,1.289,5.57,5.57,0,0,0,3.264-1.51c3.618-3.181,7.208-3.052,11.807-1.712,7.549,2.2,14.831-3.07,16.405-10.762,1.418-6.928-3.466-14.279-10.6-15.959a13.734,13.734,0,0,0-16.2,10.09A48.78,48.78,0,0,0,318.043,228.154ZM108.3,765.925c-1.1-2.518-2.108-5.068-3.3-7.531-1.307-2.711-3.65-3.673-5.915-2.605a4.429,4.429,0,0,0-2.315,5.386c.81,2.923,1.841,5.781,2.591,8.11-1.422,3.061-2.964,5.432-3.655,8.032-1.947,7.342,2.1,14.26,9.353,16.571,6.532,2.081,13.745-1.464,16.474-8.092a13.359,13.359,0,0,0-6.371-17.165A65.869,65.869,0,0,0,108.3,765.925Z" transform="translate(0 558.714) rotate(-69)"/>
  </g>
</svg>
