<svg xmlns="http://www.w3.org/2000/svg" width="26.356" height="29.328" viewBox="0 0 26.356 29.328">
  <g id="hourglass" transform="translate(0 0.023)">
    <path id="Path_1110" data-name="Path 1110" d="M82.322,466.936l.208.089a1.142,1.142,0,0,1-.411,2.2c-.456.011-.912,0-1.4,0,0,.564,0,1.1,0,1.646a10.485,10.485,0,0,1-5.89,9.564c-.32.169-.659.3-.977.475a.49.49,0,0,0-.232.28,2.812,2.812,0,0,0-.05.68.671.671,0,0,0,.429.635,12.483,12.483,0,0,1,4.786,3.947,1.154,1.154,0,0,1,.013,1.387,1.1,1.1,0,0,1-1.275.39,1.412,1.412,0,0,1-.581-.436,10.2,10.2,0,0,0-3.949-3.23,2.854,2.854,0,0,1-1.712-2.536,4.02,4.02,0,0,1,.191-1.694,2.4,2.4,0,0,1,1.389-1.5,9.248,9.248,0,0,0,4.03-3.059,8.039,8.039,0,0,0,1.533-4.624c.016-.628,0-1.257,0-1.9h-16.6v2.275H74.8a1.147,1.147,0,0,1,.171,2.287c-.114.008-.229,0-.344,0H62.305c.19.386.344.743.535,1.078a9.354,9.354,0,0,0,4.252,3.784,2.828,2.828,0,0,1,1.7,1.767,3.926,3.926,0,0,1-.234,2.976,2.359,2.359,0,0,1-1.135,1.049,10.522,10.522,0,0,0-3.71,2.814,7.859,7.859,0,0,0-1.907,5.234c.008.475,0,.95,0,1.441H78.426V493c0-.258-.006-.516,0-.773a1.143,1.143,0,1,1,2.286,0c.012.57,0,1.141,0,1.744.441,0,.858,0,1.275,0a1.15,1.15,0,1,1-.009,2.29H58.123a1.146,1.146,0,0,1-1.2-.861,1.1,1.1,0,0,1,.539-1.268,1.576,1.576,0,0,1,.627-.154c.465-.022.931-.007,1.429-.007,0-.516,0-1.009,0-1.5a9.94,9.94,0,0,1,1.627-5.547,12.394,12.394,0,0,1,5.021-4.4c.18-.091.4-.128.457-.384a1.688,1.688,0,0,0-.069-1.119c-.049-.1-.21-.152-.328-.209a12.657,12.657,0,0,1-4.421-3.38,10,10,0,0,1-2.281-6.192c-.018-.657,0-1.316,0-2.017-.5,0-.98,0-1.463,0a1.119,1.119,0,0,1-1.049-.625,1.136,1.136,0,0,1,.529-1.552c.085-.041.174-.075.261-.113Z" transform="translate(-56.883 -466.957)" fill="#fefefe"/>
    <path id="Path_1111" data-name="Path 1111" d="M217.206,716.656a1.145,1.145,0,1,1-1.154-1.135A1.145,1.145,0,0,1,217.206,716.656Z" transform="translate(-202.825 -696.524)" fill="#fefefe"/>
    <path id="Path_1112" data-name="Path 1112" d="M217.206,769.075a1.145,1.145,0,1,1-1.142-1.147A1.145,1.145,0,0,1,217.206,769.075Z" transform="translate(-202.825 -744.922)" fill="#fefefe"/>
  </g>
</svg>
