<?xml version="1.0" encoding="utf-8"?>
<!-- Generator: Adobe Illustrator 25.2.0, SVG Export Plug-In . SVG Version: 6.00 Build 0)  -->
<svg version="1.1" id="Layer_1" xmlns="http://www.w3.org/2000/svg" xmlns:xlink="http://www.w3.org/1999/xlink" x="0px" y="0px"
	 viewBox="0 0 25.2 21.2" style="enable-background:new 0 0 25.2 21.2;" xml:space="preserve">
<style type="text/css">
	.st0{fill:#FFFFFF;}
</style>
<g id="Group_354" transform="translate(-52 -208.998)">
	<g id="Group_353" transform="translate(0 -0.461)">
		<path id="Path_460" class="st0" d="M75.4,209.5H53.8c-1,0-1.8,0.7-1.8,1.7v2.4c0,1,0.9,1.7,1.8,1.7h21.5c1,0,1.8-0.7,1.8-1.7v-2.4
			C77.2,210.2,76.4,209.4,75.4,209.5z"/>
		<path id="Path_461" class="st0" d="M52.8,219.1h6.8c0.4,0,0.7-0.3,0.8-0.7c0-0.4-0.3-0.7-0.7-0.8c0,0-0.1,0-0.1,0h-6.8
			c-0.4,0-0.7,0.3-0.8,0.7c0,0.4,0.3,0.7,0.7,0.8C52.7,219.1,52.7,219.1,52.8,219.1z"/>
		<path id="Path_462" class="st0" d="M52.8,222h6.8c0.4,0,0.7-0.3,0.8-0.7c0-0.4-0.3-0.7-0.7-0.8c0,0-0.1,0-0.1,0h-6.8
			c-0.4,0-0.7,0.3-0.8,0.7s0.3,0.7,0.7,0.8C52.7,222,52.7,222,52.8,222z"/>
		<path id="Path_463" class="st0" d="M52.8,224.9h6.8c0.4,0,0.7-0.3,0.8-0.7c0-0.4-0.3-0.7-0.7-0.8c0,0-0.1,0-0.1,0h-6.8
			c-0.4,0-0.7,0.3-0.8,0.7s0.3,0.7,0.7,0.8C52.7,224.9,52.7,224.9,52.8,224.9z"/>
		<path id="Path_464" class="st0" d="M52.8,227.7h6.8c0.4,0,0.7-0.3,0.8-0.7c0-0.4-0.3-0.7-0.7-0.8c0,0-0.1,0-0.1,0h-6.8
			c-0.4,0-0.7,0.3-0.8,0.7s0.3,0.7,0.7,0.8C52.7,227.7,52.7,227.7,52.8,227.7z"/>
		<path id="Path_465" class="st0" d="M52.8,230.6h6.8c0.4,0,0.7-0.3,0.8-0.7c0-0.4-0.3-0.7-0.7-0.8c0,0-0.1,0-0.1,0h-6.8
			c-0.4,0-0.7,0.3-0.8,0.7s0.3,0.7,0.7,0.8C52.7,230.6,52.7,230.6,52.8,230.6z"/>
		<path id="Path_466" class="st0" d="M75.4,217.6h-11c-1,0-1.8,0.7-1.8,1.7v9.6c0,1,0.9,1.7,1.8,1.7h11c1,0,1.8-0.7,1.8-1.7v-9.6
			C77.2,218.4,76.4,217.6,75.4,217.6z M69.9,221c0.8,0.1,1.4,0.8,1.3,1.6s-0.8,1.4-1.6,1.3c-0.7-0.1-1.3-0.7-1.3-1.4
			C68.3,221.6,69,221,69.9,221L69.9,221z M73,227c0,0.4-0.4,0.7-0.8,0.7h-4.7c-0.4,0-0.8-0.3-0.8-0.7v-0.4c0.1-1.1,1.1-1.9,2.2-1.8
			h1.9c1.1-0.1,2.1,0.7,2.2,1.8L73,227z"/>
	</g>
</g>
</svg>
