<svg xmlns="http://www.w3.org/2000/svg" viewBox="0 0 1438.82 1438.82"><defs><style>.cls-1{fill:none;stroke:#fff;stroke-miterlimit:10;stroke-width:10px;}.cls-2{fill:#ed1c24;}.cls-3{fill:#fff;}.cls-4{fill:#ed1f24;}</style></defs><g id="Background"><circle cx="719.41" cy="719.41" r="719.41"/><circle class="cls-1" cx="714.94" cy="719.41" r="666.05"/><circle class="cls-2" cx="714.94" cy="719.41" r="463.4"/><path class="cls-3" d="M469.18,602l-21.45,32.68,9.69,12.54-13.15,20-67.94-87.58,14-21.3,107.39,27.47-13.15,20Zm-35,15.17,13.57-20.67-37-9.51Z" transform="translate(-180.59 -180.59)"/><path class="cls-3" d="M420.56,515,456.5,476.8Q477,455,498.85,475.52l5.45,5.13q17.9,16.85,7.3,34.54l43.18,10.19L537,544.25l-42.11-9.9-8.83,9.38,27.27,25.67-16.43,17.45Zm31.7-3.08,18.55,17.45,19.51-20.72q4.1-4.36-2.44-10.52L482.42,493q-6.54-6.15-10.65-1.79Z" transform="translate(-180.59 -180.59)"/><path class="cls-3" d="M577.76,454.74,563.4,465.55,549.59,449.7l34.71-26.13,19.82,26.34q18,23.94-5.93,41.95l-18,13.51q-23.94,18-42-5.92l-27-35.91q-18-23.94,5.93-42l17.95-13.51q23.94-18,42,5.92l1.35,1.79L560.2,431.4l-2.26-3q-5.4-7.19-10.19-3.58l-18,13.51q-4.8,3.62.61,10.79l27,35.91q5.4,7.18,10.19,3.58l18-13.52q4.8-3.6-.61-10.78Z" transform="translate(-180.59 -180.59)"/><path class="cls-3" d="M613.45,443.3l-33.94-66.77,21.37-10.86,33.94,66.77q4.08,8,9.41,5.3l20-10.19q5.34-2.71,1.26-10.73l-33.94-66.76L653,339.19,686.9,406q13.58,26.71-13.13,40.29l-20,10.18Q627,470,613.45,443.3Z" transform="translate(-180.59 -180.59)"/><path class="cls-3" d="M763,334.18l.65,2.15-22.5,8.39-1.09-3.59q-2.6-8.6-8.34-6.86l-21.5,6.52q-5.75,1.74-3.13,10.34L708,354q2.61,8.6,8.34,6.86l21.51-6.52q28.67-8.68,37.36,20l.87,2.87q8.68,28.67-20,37.36l-21.51,6.52q-28.67,8.69-37.36-20l-.65-2.15,22.5-8.39,1.09,3.59q2.61,8.6,8.34,6.86l21.5-6.52q5.75-1.74,3.13-10.34l-.87-2.87q-2.61-8.59-8.34-6.86l-21.5,6.52q-28.68,8.69-37.37-20l-.87-2.87q-8.69-28.66,20-37.36l21.51-6.52Q754.35,305.52,763,334.18Z" transform="translate(-180.59 -180.59)"/><path class="cls-3" d="M895,319l.14,2.24-23.82,3-.24-3.74q-.58-9-6.56-8.59l-22.42,1.45q-6,.38-5.4,9.35l.19,3q.57,9,6.56,8.59l22.42-1.45q29.9-1.92,31.82,28l.19,3q1.94,29.89-28,31.82l-22.42,1.44q-29.91,1.94-31.83-28l-.14-2.24,23.82-3,.24,3.74q.58,9,6.56,8.58l22.42-1.44q6-.37,5.41-9.35l-.2-3q-.57-9-6.55-8.59l-22.43,1.44q-29.9,1.94-31.82-28l-.19-3q-1.93-29.9,28-31.82l22.43-1.44Q893.11,289.13,895,319Z" transform="translate(-180.59 -180.59)"/><path class="cls-3" d="M932.46,375.17l50.67,5.18L981,401.21l-74.51-7.62,10.66-104.31,74.52,7.61-2.14,20.86-50.66-5.17-2.14,20.86,43.22,4.42-2.13,20.86-43.22-4.42Z" transform="translate(-180.59 -180.59)"/><path class="cls-3" d="M1047.78,387l2.33-8.68,22.76,7.66-1.94,7.24q-7.77,28.92-36.71,21.16l-21.7-5.83q-28.93-7.78-21.16-36.71l11.66-43.4q7.77-28.93,36.7-21.16l21.71,5.83q28.92,7.77,21.16,36.7l-1.95,7.24-23.53-4.77,2.33-8.68q2.32-8.68-3.46-10.24l-21.7-5.83q-5.79-1.56-8.12,7.13L1014.5,378q-2.32,8.67,3.46,10.23l21.7,5.83Q1045.45,395.66,1047.78,387Z" transform="translate(-180.59 -180.59)"/><path class="cls-3" d="M1081.87,396.5l31.82-67.81,21.7,10.19-31.82,67.8q-3.83,8.13,1.6,10.68l20.34,9.55q5.43,2.55,9.25-5.59l31.82-67.81,21.7,10.19-31.83,67.8q-12.72,27.12-39.85,14.39l-20.34-9.54Q1069.14,423.62,1081.87,396.5Z" transform="translate(-180.59 -180.59)"/><path class="cls-3" d="M1209.81,375.47l42.85,30.21q24.48,17.26,7.22,41.75l-4.32,6.12q-14.16,20.08-33.17,12.08l-4,44.18-21.18-14.93,3.89-43.09-10.53-7.42L1169,475l-19.59-13.82Zm7.5,30.95-14.67,20.81,23.26,16.4q4.89,3.47,10.07-3.89l4.32-6.12q5.18-7.35.28-10.8Z" transform="translate(-180.59 -180.59)"/><path class="cls-3" d="M1240,530.82l-17.78-16.07L1292.56,437,1310.34,453Z" transform="translate(-180.59 -180.59)"/><path class="cls-3" d="M1345.52,520.23l-63.33,55-15.72-18.09,63.33-55-19.16-22.05,15.83-13.75,54,62.19-15.83,13.76Z" transform="translate(-180.59 -180.59)"/><path class="cls-3" d="M1361.36,596.72l29.85-54.93,13.55,22.1-16.51,30.4,34.59-.9,13.54,22.1-62.49,1.66-43.24,26.5-12.52-20.44Z" transform="translate(-180.59 -180.59)"/><path class="cls-3" d="M368.68,1000.08l-2.23.27-4.27-23.64,3.72-.43q8.93-1,8.23-7L371.51,947q-.69-5.94-9.62-4.9l-3,.35q-8.93,1-8.23,7l2.62,22.32q3.48,29.76-26.28,33.24l-3,.35q-29.76,3.48-33.24-26.27l-2.62-22.32q-3.48-29.76,26.28-33.24l2.23-.26L321,946.85l-3.72.43q-8.92,1.05-8.23,7l2.62,22.32q.69,6,9.62,4.9l3-.34q8.92-1,8.23-7l-2.62-22.32q-3.48-29.76,26.28-33.24l3-.35q29.76-3.48,33.24,26.28L395,966.84Q398.44,996.6,368.68,1000.08Z" transform="translate(-180.59 -180.59)"/><path class="cls-3" d="M325.68,1049.66,340,1098.52l-20.12,5.91-21.11-71.86L399.41,1003l21.11,71.87-20.12,5.91L386,1031.93l-20.12,5.91,12.24,41.68L358,1085.43l-12.24-41.68Z" transform="translate(-180.59 -180.59)"/><path class="cls-3" d="M422,1081.23l23,47.1q13.17,26.91-13.74,40.08l-6.73,3.29q-22.07,10.8-34.89-5.36l-24.77,36.8-11.39-23.28,24.12-35.9L372,1132.39l-33.64,16.46-10.53-21.53ZM413.66,1112l-22.87,11.19,12.51,25.57q2.63,5.38,10.71,1.43l6.72-3.29q8.08-4,5.44-9.34Z" transform="translate(-180.59 -180.59)"/><path class="cls-3" d="M425.08,1234.1,498,1212l14,19.44-106.08,32.17L391,1243l64-90.5,14,19.44Z" transform="translate(-180.59 -180.59)"/><path class="cls-3" d="M454.75,1321.41l-16.33-17.54,76.75-71.45L531.5,1250Z" transform="translate(-180.59 -180.59)"/><path class="cls-3" d="M532.26,1352.12l5.8-6.88,17.35,16.6-4.83,5.73q-19.3,22.9-42.21,3.59l-17.18-14.49q-22.9-19.32-3.59-42.22l29-34.35q19.32-22.9,42.22-3.59L576,1291q22.9,19.32,3.59,42.22l-4.83,5.73-19.29-14.31,5.79-6.87q5.81-6.87,1.22-10.73l-17.18-14.49q-4.57-3.87-10.38,3l-29,34.35q-5.79,6.87-1.21,10.74l17.18,14.48Q526.47,1359,532.26,1352.12Z" transform="translate(-180.59 -180.59)"/><path class="cls-3" d="M582.05,1398.78l43.88,25.87-10.66,18.07-64.52-38L604,1314.35l64.52,38-10.65,18.06L614,1344.58l-10.66,18.07,37.43,22.07-10.66,18.06-37.42-22.06Z" transform="translate(-180.59 -180.59)"/><path class="cls-3" d="M736.23,1412.12l-.82,2.1-22.87-7.31,1.36-3.49q3.26-8.37-2.32-10.55l-20.94-8.16q-5.58-2.18-8.84,6.19l-1.09,2.8q-3.27,8.37,2.32,10.55l20.93,8.16q27.91,10.88,17,38.79l-1.08,2.8q-10.89,27.91-38.8,17l-20.94-8.16q-27.92-10.89-17-38.8L644,1422l22.87,7.31-1.36,3.49q-3.26,8.37,2.32,10.55l20.94,8.16q5.58,2.17,8.85-6.2l1.08-2.79q3.27-8.37-2.31-10.55l-20.94-8.16q-27.92-10.89-17-38.8l1.09-2.79q10.88-27.92,38.79-17l20.94,8.16Q747.11,1384.21,736.23,1412.12Z" transform="translate(-180.59 -180.59)"/><path class="cls-3" d="M826.61,1475.9l1.26-8.9,23.52,4.86-1.06,7.41q-4.2,29.67-33.87,25.45l-22.25-3.16q-29.65-4.21-25.45-33.88l6.33-44.49q4.21-29.65,33.87-25.45l22.25,3.16q29.65,4.21,25.45,33.88l-1.06,7.42-23.94-1.89,1.27-8.9q1.26-8.9-4.67-9.74L806,1418.5q-5.93-.84-7.19,8.06l-6.33,44.49c-.84,5.94.72,9.18,4.67,9.75l22.25,3.16Q825.34,1484.8,826.61,1475.9Z" transform="translate(-180.59 -180.59)"/><path class="cls-3" d="M869.52,1480.94,868.08,1436q-1-29.94,29-30.91l22.46-.72q29.94-1,30.9,29l1.44,44.92q1,29.94-29,30.9l-22.46.72Q870.48,1510.88,869.52,1480.94ZM892,1435.25l1.44,44.92q.28,9,6.27,8.79l22.46-.72q6-.2,5.71-9.18l-1.45-44.91q-.29-9-6.27-8.79l-22.46.72Q891.76,1426.26,892,1435.25Z" transform="translate(-180.59 -180.59)"/><path class="cls-3" d="M955.71,1403.37l51.32-10.76q29.31-6.13,35.47,23.18l1.53,7.33q5,24-13.77,32.5l29.58,33.06-25.36,5.32-28.87-32.21L993,1464.43l7.68,36.65L977.22,1506ZM983.47,1419l5.23,24.92,27.85-5.83q5.87-1.23,4-10l-1.53-7.33q-1.85-8.81-7.71-7.57Z" transform="translate(-180.59 -180.59)"/><path class="cls-3" d="M1042.39,1385.33l48.63-19.59q27.8-11.21,39,16.59l2.8,7q11.21,27.79-16.59,39l-26.4,10.64,14,34.74-22.23,8.95Zm30.07,10.49,9.51,23.63,26.4-10.64q5.57-2.24,2.2-10.58l-2.8-6.94q-3.36-8.34-8.91-6.1Z" transform="translate(-180.59 -180.59)"/><path class="cls-3" d="M1162.69,1416.67l-23.7-38.18q-15.79-25.46,9.65-41.26l19.1-11.85q25.46-15.8,41.25,9.66l23.7,38.18q15.8,25.47-9.66,41.26l-19.09,11.85Q1178.49,1442.13,1162.69,1416.67Zm-3.34-50.82,23.7,38.18q4.74,7.63,9.83,4.48l19.09-11.85q5.1-3.17.36-10.8l-23.7-38.18q-4.74-7.64-9.83-4.48l-19.1,11.85Q1154.61,1358.22,1159.35,1365.85Z" transform="translate(-180.59 -180.59)"/><path class="cls-3" d="M1198.55,1306.38l39.08-35q22.32-20,42.3,2.35l5,5.58q16.39,18.32,4.32,35l42.14,13.85-19.31,17.28L1271,1332l-9.6,8.59,25,27.91-17.86,16Zm31.85-.36,17,19,21.21-19q4.47-4-1.53-10.7l-5-5.58q-6-6.7-10.46-2.7Z" transform="translate(-180.59 -180.59)"/><path class="cls-3" d="M1372.9,1255.21l-24.19,30.72,8.58,13.32-14.83,18.84L1282.31,1225l15.75-20,104.63,36.62-14.82,18.83Zm-36.22,12.09,15.29-19.42-36.07-12.66Z" transform="translate(-180.59 -180.59)"/><path class="cls-3" d="M1356.41,1153.59l72.81,41.66-11.9,20.81-72.82-41.66-14.5,25.35-18.21-10.41,40.92-71.52,18.2,10.42Z" transform="translate(-180.59 -180.59)"/><path class="cls-3" d="M1461.06,1128.54l-9.29,22.09L1355.1,1110l9.29-22.1Z" transform="translate(-180.59 -180.59)"/><path class="cls-3" d="M1441.25,1101.42,1398,1089.19q-28.82-8.16-20.67-37l6.12-21.62q8.16-28.83,37-20.67l43.24,12.23q28.83,8.16,20.67,37l-6.12,21.62Q1470.07,1109.58,1441.25,1101.42Zm-36.72-35.3,43.24,12.24q8.65,2.45,10.28-3.32l6.12-21.62q1.63-5.76-7-8.21L1413.91,1033q-8.65-2.45-10.28,3.32l-6.12,21.62Q1395.88,1063.67,1404.53,1066.12Z" transform="translate(-180.59 -180.59)"/><path class="cls-3" d="M1440.57,976.45l59.55,6-2.39,23.85-104.34-10.47,2.39-23.78,63-28.38-59.55-6,2.4-23.85L1506,924.3l-2.39,23.77Z" transform="translate(-180.59 -180.59)"/><polygon class="cls-3" points="162.94 533.01 176.16 573.68 218.92 573.68 184.33 598.82 197.54 639.49 162.94 614.35 128.35 639.49 141.56 598.82 106.97 573.68 149.73 573.68 162.94 533.01"/><polygon class="cls-3" points="1258.27 533.01 1271.49 573.68 1314.25 573.68 1279.65 598.82 1292.87 639.49 1258.27 614.35 1223.68 639.49 1236.89 598.82 1202.3 573.68 1245.06 573.68 1258.27 533.01"/><path d="M940.36,572.13a1.59,1.59,0,0,1-.36.32h0a1.32,1.32,0,0,1-1.29,0,5,5,0,0,1-1.72,1.19,5.11,5.11,0,0,1-6.43-2.11c-.11-.2-.61-.9-.37-.64l-.12-.14a20.23,20.23,0,0,1-1.7-2.12,10,10,0,0,1-1.57-4.64,10.2,10.2,0,0,1-3.59-3.44,12.51,12.51,0,0,1-1-2,17.18,17.18,0,0,1-1.88-1.15,15.65,15.65,0,0,1-5.19-6.75c-2.18-4.64-6-8.27-10-11.64-4.51-3.84-8.91-7.44-10.56-13.38-.1-.39-.21-.78-.3-1.17a.27.27,0,0,0,0-.08l-.27-.59-.19-.38-.81-.22c-3.92-1.19-7.62-3.4-11.11-5.51l-.17-.1-.08,0-1.38-.47c-1-.31-1.9-.61-2.84-1a25.19,25.19,0,0,1-3.72-1.74l-.21.45a5.25,5.25,0,0,1-7.06,1.85c-5.78-3.15-10.49-7.77-15.46-12a19.67,19.67,0,0,0-2.46-1.09,4.7,4.7,0,0,1-4.77,3.34A26.44,26.44,0,0,1,833,503.37c-2.59-1.51-5-3.3-7.66-4.68-.38-.2-.77-.39-1.16-.57l-.05,0a18.1,18.1,0,0,0-2.17-.66c-.1,0-.94-.15-.88-.16a4.9,4.9,0,0,0-.54,0c-.38,0-.76,0-1.14,0h-.28c-.37.11-1.24.53-.16-.05-.2.11-.41.2-.62.32l-.26.17a3.09,3.09,0,0,1-.4.27,36.56,36.56,0,0,1-3.44,2.77,19.13,19.13,0,0,1-8.42,2.9,30.53,30.53,0,0,0-4.15.73l-.62.19-.05,0-.67.39-.08.08a7.25,7.25,0,0,1-.67.68l0,0a25.77,25.77,0,0,1,4.91,9.58c1.33,5,1,9.57,0,14.65-.08.45-.17.89-.28,1.33,1.87,2.32,2,6.11-1.28,7.75l-1.61.81c-.05.12-.1.25-.14.37-1.26,3.2-2.29,6.43-3.39,9.69a103.09,103.09,0,0,1-4.11,10.18c-.19.41-.38.82-.58,1.22l.57-.07c2.23-.29,4.47,1.84,5,3.86a5.21,5.21,0,0,1-2.45,5.8q-2.67,1.25-5.39,2.4a22.41,22.41,0,0,1,5.35,14.28c0,5.24-2.31,11.51-6.21,15.16a17.44,17.44,0,0,1,.69,5.59,22.36,22.36,0,0,1-6.32,15.26c-.36.37-.74.71-1.13,1,2.48,1.2,4,4.61,1.47,7.15a4.38,4.38,0,0,1-1.75,1.11.67.67,0,0,1-.22.53.65.65,0,0,1-.48.21l239.46,563.06,156-66.36Z" transform="translate(-180.59 -180.59)"/><path d="M1018.52,609.46a.72.72,0,0,1-.21-.54,4.28,4.28,0,0,1-1.75-1.1c-2.54-2.54-1-6,1.47-7.15-.4-.34-.77-.69-1.14-1a22.43,22.43,0,0,1-6.32-15.27,17.42,17.42,0,0,1,.7-5.58c-3.91-3.65-6.22-9.92-6.22-15.17a22.4,22.4,0,0,1,5.35-14.27c-1.81-.77-3.61-1.57-5.38-2.4a5.21,5.21,0,0,1-2.45-5.81c.52-2,2.77-4.14,5-3.85l.56.07c-.19-.4-.39-.81-.58-1.22a105.78,105.78,0,0,1-4.11-10.19c-1.1-3.25-2.12-6.48-3.38-9.68l-.15-.37-1.6-.81c-3.28-1.64-3.16-5.43-1.29-7.75-.1-.44-.2-.88-.28-1.33-1-5.08-1.32-9.6,0-14.65a25.7,25.7,0,0,1,7-11.86,26.49,26.49,0,0,1,2.76-2.3l-18.8-8a62,62,0,0,1-4.21,12.3c-1.56,3.57-3.24,7.12-4.92,10.64-.65,1.37-1.41,2.68-2.15,4a5.33,5.33,0,0,1,1.18,1.36,5.24,5.24,0,0,1-1.85,7.05,15.29,15.29,0,0,1-6.95,2.48,5.18,5.18,0,0,1-5.16-5.15c.36-4.88,2.8-8.9,5.08-13.1,1.77-3.27,3.25-6.75,4.81-10.13,1-2.19,1.4-3.06,2.13-5a46.15,46.15,0,0,0,1.77-5.68c.11-.49.22-1,.31-1.48,0,0,0-.1,0-.16a32.65,32.65,0,0,1-4,2.26,53.78,53.78,0,0,0-4.84,2.48c-.67.4-1.32.81-2,1.25l-.66.48c-.28.22-.55.45-.81.68-.58.51-1.13,1-1.66,1.59-.38.4-.74.82-1.09,1.24-.09.1-.35.46-.43.55a27.22,27.22,0,0,0-2.9,5.16c-1.55,3.73-2.65,8.88-5.44,12.36-2.23,2.79-5.5,4.36-8.79,5.54-1.4.5-2.83.91-4.25,1.34a9.9,9.9,0,0,1-1,.33h0l-.14.07c-.65.33-1.3.64-1.93,1l-.29.17-.87,1a14.3,14.3,0,0,1-6,4.37c-1.81,1.67-3.58,3.39-5.42,5-5,4.45-10.76,8.59-17.61,9.26a8.86,8.86,0,0,1-4.31-.62,80.39,80.39,0,0,1-16.24,10.58c-2.35,1.12-4.93,2.24-7.58,1.5a4.78,4.78,0,0,1-.75-.27,10.15,10.15,0,0,1-2.56,2.75,10.56,10.56,0,0,1,1,4.07c.24,5.25-4.63,9.72-9.72,9.72a9.35,9.35,0,0,1-6.43-2.52L623.5,1106.37l156,66.36L1019,609.67A.67.67,0,0,1,1018.52,609.46Z" transform="translate(-180.59 -180.59)"/><rect class="cls-3" x="485.51" y="546" width="458.86" height="173.41"/><path class="cls-4" d="M1241,993.26c.33-.52.65-1.06,1-1.6a51.77,51.77,0,0,1,6-7.69c7-7.74,15.52-14.47,23.55-21.33,5.17-4.41,10.52-8.82,15.53-13.47.14-.26.29-.53.42-.81s.26-.58.41-.87a39,39,0,0,1,2.9-6.18,60.84,60.84,0,0,1,4.36-5.17,82,82,0,0,0,5.2-7.62,7.11,7.11,0,0,1-2.19,1.64c-.59.28-1.13-.36-.7-.79s.81-1,1.22-1.47l0-.06.12-.19a.47.47,0,0,1,.31-.25l.38-.36c1.32-1.28,2.63-2.58,3.92-3.88s2.7-2.72,4-4.09,2.26-2.8,3.57-4.07c.35-.33.69-.67,1-1l.09-.17a7,7,0,0,1,1.2-2.08,2.72,2.72,0,0,0-.44.27.58.58,0,0,1-.62.22h0a.49.49,0,0,1-.26-.85,7,7,0,0,1,1-.61c.22-.14.45-.28.66-.43a.46.46,0,0,1,0-.33,1.3,1.3,0,0,1,.14-.32.51.51,0,0,1-.2-.95,10.66,10.66,0,0,0,1-.76c.37-.26.75-.5,1.11-.76a24.51,24.51,0,0,0,2.12-1.65,13.47,13.47,0,0,0,1.09-1l-.3.22c-.5.35-.94.76-1.43,1.11-.17.12-.41-.09-.24-.2.49-.36.94-.77,1.44-1.12a6.85,6.85,0,0,0,1.33-1.18l.31-.38.11-.21a7.51,7.51,0,0,1,.74-.85.43.43,0,0,1,.1-.09c.35-.38.72-.74,1.06-1.13a.13.13,0,0,1,0-.15l.07,0h0l0,0a1.13,1.13,0,0,1,.1-.13v0a.06.06,0,0,1,0-.06.06.06,0,0,1,0-.05l0,0,.06,0h.05l0,0h0l0,0H496.16l0,0h.05v0l0,0,0,0v0a.11.11,0,0,1,0,.07v0h0l0,0a.6.6,0,0,1,.18.21l0,0h0l0,0h0l0,0,.23.17a.14.14,0,0,1,0,.19l.06.06a2.56,2.56,0,0,1,.11.24,1.3,1.3,0,0,1,.1.15.61.61,0,0,1,.05.18.52.52,0,0,0,.12.26c.26.35.74.64.8,1.08,0,0,0,.08-.06.11a4.19,4.19,0,0,1,.42.7c.11.22.29.4.42.62a7.39,7.39,0,0,1,.81,1.14,3.45,3.45,0,0,0,.3.61,2.1,2.1,0,0,0,.36.37.46.46,0,0,1,.3.33v0a.67.67,0,0,1,0,.2,12.69,12.69,0,0,1,1.78,2.61c.44.81.88,1.62,1.3,2.44a.52.52,0,0,1,.1.11,1.71,1.71,0,0,0,.11.14l0,0,.25.26c.18.17.36.33.52.51a2.06,2.06,0,0,1,.68,1.51.29.29,0,0,1,0,.09l.21.23c.29.29.61.57.93.84a8.71,8.71,0,0,1,2,2.23,28.58,28.58,0,0,0,1.66,3.08c.21.29.42.59.61.89a1.46,1.46,0,0,1,1.38.46c3.23,3.41,6.82,6.89,8.33,11.18a1.56,1.56,0,0,1,1.15.46c1.85,1.77,2.79,4.15,4.14,6.22a29,29,0,0,1,2.48,5l.3.21c2.53,2.21,4.09,5,6.3,7.44a14.75,14.75,0,0,1,2.44,3.65A26.54,26.54,0,0,0,540.5,961c.25.32.49.64.73,1a1.51,1.51,0,0,1,2.18,0,52.5,52.5,0,0,1,6,8.2c4.24,3.07,7.26,7,10.25,11.05.33.46.67.92,1,1.37l1,.83a1.48,1.48,0,0,1,1.68.35c4.44,4.55,10,8.09,14.94,12.16a47.83,47.83,0,0,1,6,5.75c.83,1,1.61,2,2.39,3a4.07,4.07,0,0,1,3.05,1.14,86.61,86.61,0,0,0,13.66,10.81,71.17,71.17,0,0,1,7.22,4.66,28,28,0,0,1,3.37,3.24c.56.3,1.1.62,1.64,1a4.36,4.36,0,0,1,3.06-.29c3.44,1,5.51,3.56,8.39,5.27,1.15.33,2.29.66,3.42,1a11.57,11.57,0,0,1,3.55,1.86c.64.5,1.27,1.13,2,1.62.84-1.49,3.73-.72,3.07,1a6.75,6.75,0,0,1-.52,1.08,25.22,25.22,0,0,1,6,4.73h538c1.61-1.19,3.18-2.44,4.73-3.69,14.07-11.34,28.07-22.73,41.88-34.31C1233.23,1000.32,1237.14,996.8,1241,993.26Z" transform="translate(-180.59 -180.59)"/><path d="M877.34,613.05a.68.68,0,0,1-.21-.53,4.39,4.39,0,0,1-1.75-1.1c-2.54-2.54-1-6,1.47-7.16-.39-.33-.77-.68-1.14-1A22.5,22.5,0,0,1,869.39,588a17.49,17.49,0,0,1,.7-5.59c-3.91-3.65-6.22-9.91-6.22-15.16a22.51,22.51,0,0,1,5.35-14.28c-1.81-.77-3.61-1.56-5.38-2.39a5.21,5.21,0,0,1-2.45-5.81c.53-2,2.77-4.14,5-3.86l.56.08c-.19-.41-.39-.81-.58-1.22a104.19,104.19,0,0,1-4.1-10.19c-1.11-3.25-2.13-6.49-3.39-9.69l-.15-.36-1.6-.81c-3.28-1.64-3.16-5.43-1.29-7.75-.1-.44-.2-.89-.28-1.33-.95-5.08-1.32-9.61,0-14.66a25.75,25.75,0,0,1,7-11.86,26.4,26.4,0,0,1,2.76-2.29l-18.8-8a62.17,62.17,0,0,1-4.21,12.3c-1.56,3.57-3.23,7.12-4.92,10.64-.65,1.36-1.41,2.68-2.15,4a4.85,4.85,0,0,1,1.18,1.36,5.24,5.24,0,0,1-1.85,7.05,15.53,15.53,0,0,1-7,2.48,5.18,5.18,0,0,1-5.16-5.15c.37-4.88,2.8-8.9,5.08-13.1,1.77-3.28,3.25-6.75,4.81-10.13,1-2.2,1.4-3.06,2.13-5a47.25,47.25,0,0,0,1.77-5.68c.11-.49.22-1,.31-1.48l0-.16a30.66,30.66,0,0,1-4,2.25,53.87,53.87,0,0,0-4.84,2.49c-.67.39-1.32.81-2,1.25l-.66.47c-.28.23-.55.45-.81.69-.58.5-1.13,1-1.66,1.59-.38.4-.74.81-1.09,1.24-.09.1-.35.45-.43.55a26.64,26.64,0,0,0-2.89,5.16c-1.56,3.72-2.66,8.88-5.45,12.36-2.23,2.79-5.5,4.36-8.79,5.54-1.4.5-2.83.91-4.25,1.34a9.9,9.9,0,0,1-1,.33h0l-.14.07c-.65.32-1.3.64-1.93,1l-.29.18-.87,1a14.3,14.3,0,0,1-6,4.37c-1.81,1.67-3.58,3.39-5.41,5-5,4.45-10.77,8.58-17.62,9.26a9,9,0,0,1-4.31-.62,80.82,80.82,0,0,1-16.24,10.58c-2.34,1.11-4.93,2.24-7.58,1.5a6.06,6.06,0,0,1-.75-.27,10.15,10.15,0,0,1-2.56,2.75,10.51,10.51,0,0,1,1,4.07c.24,5.24-4.63,9.71-9.72,9.71a9.4,9.4,0,0,1-6.43-2.51L482.32,1110l156,66.37L877.82,613.27A.73.73,0,0,1,877.34,613.05Z" transform="translate(-180.59 -180.59)"/><path d="M1071.33,551.72a1.42,1.42,0,0,1-.36.33h0a1.27,1.27,0,0,1-1.28,0,5.4,5.4,0,0,1-1.72,1.19,5.15,5.15,0,0,1-6.44-2.11c-.11-.21-.61-.91-.37-.65l-.12-.14a19.24,19.24,0,0,1-1.7-2.12,10.07,10.07,0,0,1-1.57-4.63,10.23,10.23,0,0,1-3.59-3.45,13.3,13.3,0,0,1-1-2,17.18,17.18,0,0,1-1.88-1.15,15.67,15.67,0,0,1-5.19-6.76c-2.18-4.64-6-8.27-10-11.64-4.51-3.83-8.9-7.44-10.55-13.38-.11-.39-.22-.78-.31-1.17l0-.08c-.07-.14-.23-.5-.27-.58s-.13-.26-.2-.38l-.81-.23a50.65,50.65,0,0,1-11.11-5.5l-.17-.11-.08,0-1.37-.47c-1-.32-1.91-.62-2.84-1a25.25,25.25,0,0,1-3.73-1.73c-.06.14-.13.29-.21.44a5.23,5.23,0,0,1-7,1.85c-5.79-3.15-10.5-7.77-15.47-12a21.25,21.25,0,0,0-2.46-1.09,4.69,4.69,0,0,1-4.77,3.34A26.25,26.25,0,0,1,964,483c-2.59-1.5-5-3.29-7.67-4.68-.38-.2-.77-.38-1.16-.56l-.05,0A18.57,18.57,0,0,0,953,477c-.11,0-1-.15-.89-.16l-.54,0c-.38,0-.76,0-1.14,0h-.27c-.38.12-1.25.53-.17-.05l-.61.32-.27.18-.4.27a35.31,35.31,0,0,1-3.44,2.77,19.26,19.26,0,0,1-8.42,2.9,32.14,32.14,0,0,0-4.15.72l-.61.2-.06,0-.66.4a.24.24,0,0,0-.09.08,7,7,0,0,1-.67.67l0,0a25.85,25.85,0,0,1,4.91,9.58c1.34,5.05,1,9.58,0,14.66-.09.44-.18.89-.28,1.32,1.86,2.33,2,6.12-1.29,7.76l-1.61.81-.14.36c-1.26,3.2-2.28,6.44-3.39,9.69a101.82,101.82,0,0,1-4.11,10.19c-.19.41-.38.81-.58,1.22l.57-.08c2.23-.28,4.47,1.85,5,3.86a5.21,5.21,0,0,1-2.45,5.81c-1.78.83-3.57,1.62-5.39,2.39a22.46,22.46,0,0,1,5.36,14.28c0,5.25-2.31,11.51-6.22,15.16a17.49,17.49,0,0,1,.7,5.59,22.46,22.46,0,0,1-6.33,15.27c-.36.36-.74.71-1.13,1,2.49,1.2,4,4.62,1.47,7.16a4.46,4.46,0,0,1-1.75,1.1.66.66,0,0,1-.22.53.69.69,0,0,1-.47.22l239.45,563.06,156-66.37Z" transform="translate(-180.59 -180.59)"/><path class="cls-4" d="M1227.25,1216l1-1.82a57.85,57.85,0,0,1,6-8.74c7-8.82,15.52-16.47,23.56-24.27,5.17-5,10.51-10,15.52-15.31.15-.31.29-.61.43-.93s.26-.66.4-1a48.72,48.72,0,0,1,2.91-7,67.18,67.18,0,0,1,4.36-5.88,95.87,95.87,0,0,0,5.2-8.66,7.34,7.34,0,0,1-2.2,1.86.57.57,0,0,1-.69-.9c.45-.51.8-1.11,1.21-1.67l0-.07.11-.22a.49.49,0,0,1,.32-.27l.37-.41c1.33-1.46,2.64-2.94,3.93-4.42s2.7-3.09,4-4.66,2.25-3.18,3.57-4.62l1-1.15a1.54,1.54,0,0,0,.08-.19,8.81,8.81,0,0,1,1.2-2.37,3.41,3.41,0,0,0-.44.3.54.54,0,0,1-.62.26h0a.59.59,0,0,1-.25-1,5.74,5.74,0,0,1,1-.69l.66-.49a.7.7,0,0,1,0-.38,1.42,1.42,0,0,1,.14-.36.6.6,0,0,1-.19-1.08,11.88,11.88,0,0,0,1-.87c.36-.29.74-.57,1.11-.86a26.87,26.87,0,0,0,2.12-1.88c.38-.37.74-.77,1.09-1.18l-.3.25c-.5.4-.94.86-1.44,1.26-.16.14-.4-.1-.23-.23.49-.41.93-.87,1.43-1.27a7.72,7.72,0,0,0,1.34-1.34c.11-.14.2-.29.3-.43l.12-.24a6.37,6.37,0,0,1,.74-1l.09-.11c.35-.43.73-.83,1.07-1.27a.17.17,0,0,1,0-.17l.08-.06v0h0l0,0,.09-.15v0a.17.17,0,0,1,0-.07.14.14,0,0,1,0-.06l0-.05,0,0h0l0,0h0l0,0H482.32v0h.08l0,0h0l0,0,0,0,0,.05v0a.15.15,0,0,1,0,.09v0h0l0,0a.84.84,0,0,1,.18.24l0,0h0l0,0h0l.05,0c.08.06.15.14.22.2a.17.17,0,0,1,0,.21.16.16,0,0,1,.06.08c.05.08.07.18.12.26l.1.18a.65.65,0,0,1,0,.2.6.6,0,0,0,.12.3c.26.39.74.73.8,1.23a.14.14,0,0,1-.06.12,4.94,4.94,0,0,1,.41.79c.12.25.3.47.43.71a9.72,9.72,0,0,1,.81,1.3,5.28,5.28,0,0,0,.29.69,2.48,2.48,0,0,0,.37.43.46.46,0,0,1,.29.37v0a.45.45,0,0,1,0,.23,14.08,14.08,0,0,1,1.79,3c.44.93.87,1.86,1.29,2.78a.69.69,0,0,1,.11.13l.11.16,0,.06c.09.09.17.19.26.29s.35.38.52.58a2.57,2.57,0,0,1,.68,1.72s0,.07,0,.1l.21.26c.29.34.61.65.92,1a9.4,9.4,0,0,1,2,2.54,32.89,32.89,0,0,0,1.66,3.5c.21.33.41.67.61,1a1.34,1.34,0,0,1,1.37.52c3.24,3.89,6.82,7.83,8.34,12.72a1.49,1.49,0,0,1,1.15.52c1.85,2,2.79,4.72,4.13,7.08a33.75,33.75,0,0,1,2.48,5.72,1.38,1.38,0,0,1,.3.24c2.53,2.51,4.1,5.71,6.31,8.46a17.15,17.15,0,0,1,2.44,4.15,30,30,0,0,0,3.07,4.82c.24.37.49.73.72,1.1a1.4,1.4,0,0,1,2.19,0,60.49,60.49,0,0,1,6,9.33c4.24,3.49,7.25,8,10.24,12.57l1,1.56c.33.32.68.63,1,.94a1.33,1.33,0,0,1,1.67.4c4.44,5.17,10,9.19,14.94,13.83a51.35,51.35,0,0,1,6,6.53c.83,1.1,1.61,2.23,2.38,3.36a3.8,3.8,0,0,1,3.06,1.3,89.23,89.23,0,0,0,13.65,12.29,73.54,73.54,0,0,1,7.22,5.3,30.25,30.25,0,0,1,3.38,3.69c.55.35,1.1.71,1.64,1.08a3.85,3.85,0,0,1,3.06-.33c3.44,1.14,5.51,4,8.39,6,1.14.37,2.29.75,3.42,1.19a11.17,11.17,0,0,1,3.54,2.11c.65.57,1.27,1.29,2,1.85.83-1.69,3.73-.83,3.07,1.1a9.88,9.88,0,0,1-.52,1.23,25.75,25.75,0,0,1,6,5.38h537.95c1.62-1.36,3.19-2.78,4.74-4.2,14.06-12.9,28.07-25.85,41.88-39C1219.44,1224.06,1223.36,1220.06,1227.25,1216Z" transform="translate(-180.59 -180.59)"/></g><g id="EYE"><circle class="cls-3" cx="714.94" cy="447.75" r="191.74"/><circle cx="714.94" cy="447.75" r="92.92"/><circle class="cls-3" cx="753.42" cy="409.23" r="38.46"/></g></svg>