<svg id="Medal" xmlns="http://www.w3.org/2000/svg" width="217.77" height="291.167" viewBox="0 0 217.77 291.167">
  <path id="Path_384" data-name="Path 384" d="M697.009,473.39a63.139,63.139,0,1,0,63.139,63.139A63.215,63.215,0,0,0,697.009,473.39Z" transform="translate(-588.124 -350.036)" fill="#f1f1f1" opacity="0.51"/>
  <path id="Path_385" data-name="Path 385" d="M721.435,518.766a76.5,76.5,0,1,0,76.5,76.5A76.581,76.581,0,0,0,721.435,518.766Zm0,147.17a70.672,70.672,0,1,1,70.672-70.672A70.756,70.756,0,0,1,721.435,665.936Zm101.5-91.123a60.026,60.026,0,0,1-5.305-10.808,63.628,63.628,0,0,1-2.2-12.349c-.824-7.151-1.667-14.554-5.915-20.4-4.3-5.9-11.095-9-17.673-11.973a61.935,61.935,0,0,1-10.969-5.843,35.147,35.147,0,0,1-3.782-3.262l45.364-97.271a2.929,2.929,0,0,0-.179-2.8,2.894,2.894,0,0,0-2.456-1.344H748.93a2.924,2.924,0,0,0-2.635,1.685l-24.86,53.3-24.86-53.3a2.925,2.925,0,0,0-2.635-1.685H623.053a2.917,2.917,0,0,0-2.456,1.344,2.878,2.878,0,0,0-.179,2.8l45.364,97.271A35.135,35.135,0,0,1,662,513.443a63.113,63.113,0,0,1-10.969,5.843c-6.578,2.993-13.389,6.076-17.673,11.973-4.248,5.843-5.09,13.245-5.915,20.4a63.884,63.884,0,0,1-2.2,12.349,61.2,61.2,0,0,1-5.305,10.808c-3.621,6.345-7.384,12.9-7.384,20.451s3.746,14.106,7.384,20.451a60.479,60.479,0,0,1,5.305,10.79,63.633,63.633,0,0,1,2.2,12.349c.825,7.151,1.667,14.554,5.915,20.4,4.3,5.9,11.095,9,17.69,11.973a61.919,61.919,0,0,1,10.969,5.843,61.114,61.114,0,0,1,8.8,8.532c4.893,5.377,9.947,10.933,16.991,13.228a24.251,24.251,0,0,0,7.6,1.111,69.9,69.9,0,0,0,13.371-1.81,46.587,46.587,0,0,1,25.344,0,68.5,68.5,0,0,0,13.371,1.81,24.252,24.252,0,0,0,7.6-1.111c7.044-2.294,12.1-7.851,16.991-13.228a62.1,62.1,0,0,1,8.8-8.532,63.119,63.119,0,0,1,10.969-5.843c6.578-2.993,13.389-6.076,17.673-11.973,4.248-5.843,5.09-13.245,5.915-20.4a63.638,63.638,0,0,1,2.2-12.349,61.214,61.214,0,0,1,5.305-10.808c3.621-6.345,7.366-12.9,7.366-20.451C830.3,587.718,826.556,581.158,822.935,574.813ZM750.794,414.6h64.471l-42.479,91.087-.7-.753C767.194,499.552,762.139,494,755.1,491.7a24.25,24.25,0,0,0-7.6-1.111,64.768,64.768,0,0,0-12.743,1.7L724.661,470.66Zm-123.17,0h64.471l36.743,78.81a44.506,44.506,0,0,1-7.4.753,66.054,66.054,0,0,1-12.672-1.757,68.5,68.5,0,0,0-13.371-1.81,24.251,24.251,0,0,0-7.6,1.111c-7.044,2.294-12.1,7.85-16.991,13.228l-.7.753ZM817.881,612.829a66.725,66.725,0,0,0-5.789,11.883,68.126,68.126,0,0,0-2.438,13.478c-.771,6.7-1.488,13.03-4.839,17.637-3.388,4.66-9.213,7.313-15.378,10.109a68.148,68.148,0,0,0-11.991,6.435,66.908,66.908,0,0,0-9.679,9.32c-4.588,5.036-8.908,9.8-14.482,11.614a18.7,18.7,0,0,1-5.807.825,62.927,62.927,0,0,1-12.206-1.7,52.292,52.292,0,0,0-27.674,0,63.3,63.3,0,0,1-12.206,1.7,18.7,18.7,0,0,1-5.807-.825c-5.574-1.81-9.912-6.578-14.482-11.614a49.5,49.5,0,0,0-21.67-15.755c-6.166-2.8-11.991-5.449-15.378-10.109-3.352-4.606-4.069-10.933-4.839-17.637a69.47,69.47,0,0,0-2.438-13.478,64.958,64.958,0,0,0-5.789-11.883c-3.406-5.951-6.614-11.561-6.614-17.565s3.208-11.632,6.614-17.565a66.729,66.729,0,0,0,5.789-11.883,68.135,68.135,0,0,0,2.438-13.478c.771-6.7,1.488-13.03,4.839-17.637,3.388-4.66,9.213-7.313,15.378-10.109a68.157,68.157,0,0,0,11.991-6.434,66.91,66.91,0,0,0,9.679-9.32c4.588-5.037,8.908-9.8,14.482-11.614a18.7,18.7,0,0,1,5.807-.824,62.928,62.928,0,0,1,12.206,1.7,52.287,52.287,0,0,0,27.674,0,63.122,63.122,0,0,1,12.206-1.7,18.7,18.7,0,0,1,5.807.824c5.574,1.81,9.894,6.578,14.482,11.614a49.5,49.5,0,0,0,21.669,15.755c6.166,2.8,11.991,5.449,15.378,10.109,3.352,4.606,4.069,10.933,4.839,17.637a70.846,70.846,0,0,0,2.438,13.478,65.676,65.676,0,0,0,5.789,11.9c3.406,5.951,6.614,11.561,6.614,17.565C824.495,601.268,821.287,606.878,817.881,612.829Z" transform="translate(-612.55 -408.77)" fill="#f1f1f1"/>
</svg>
