<svg xmlns="http://www.w3.org/2000/svg" width="85.04" height="85.003" viewBox="0 0 85.04 85.003">
  <g id="Phone_logo" data-name="Phone logo" transform="translate(-36.779 -122.722)">
    <g id="Group_7" data-name="Group 7" transform="translate(36.779 122.722)">
      <path id="Path_220" data-name="Path 220" d="M79.314,207.685c-9.468,0-18.936-.114-28.4.039A14.16,14.16,0,0,1,36.9,196.274a9.917,9.917,0,0,1-.072-1.8c0-19.279.081-38.557-.051-57.835a14,14,0,0,1,10.785-13.589,12.738,12.738,0,0,1,2.8-.316q28.778-.027,57.553-.012a13.774,13.774,0,0,1,13.6,11.835,25.224,25.224,0,0,1,.283,3.559q.027,27.564.012,55.131a14.357,14.357,0,0,1-11.7,14.357,8.32,8.32,0,0,1-1.646.075Q93.888,207.691,79.314,207.685ZM83,180.3c-.566-.361-1.185-.683-1.724-1.107A60.382,60.382,0,0,1,67.9,164.642c-1.1-1.685-.969-2.452.6-3.643,1.224-.927,2.44-1.871,3.664-2.8a1.574,1.574,0,0,0,.379-2.365,27.928,27.928,0,0,0-3.054-4.206,85.954,85.954,0,0,0-6.559-5.858,2.692,2.692,0,0,0-3.8.274c-3.761,3.634-5.355,8.042-4.242,13.207,2.184,10.163,7.1,18.683,15.545,24.956A37.953,37.953,0,0,0,92.9,192.191c3.288.054,7.287-2.72,8.267-5.6a3.33,3.33,0,0,0-.223-2.635,30.807,30.807,0,0,0-9.465-8.319,2.876,2.876,0,0,0-3.5.2C86.338,177.218,84.78,178.695,83,180.3Zm-4.134-37.973c2.323.3,4.407.445,6.441.848,7.867,1.552,13.24,6.2,16.384,13.5,2.5,5.794,3.18,11.932,3.264,18.159.018,1.282.692,1.938,1.781,1.91a1.6,1.6,0,0,0,1.643-1.892c-.129-2.034-.2-4.074-.3-6.11a38.941,38.941,0,0,0-3.075-13.406c-2.99-7.07-7.964-12.16-15.358-14.666a31.836,31.836,0,0,0-13.92-1.489c-1.965.22-3.923.539-5.861.939a1.577,1.577,0,0,0-1.258,1.925,1.476,1.476,0,0,0,1.622,1.4,9.98,9.98,0,0,0,1.342-.081C74.076,143.017,76.573,142.653,78.871,142.325Zm.4,8.273c-.563,0-1.462-.009-2.365.006a2.7,2.7,0,0,0-.575.15c-1.643.412-2.262,1.107-1.995,2.232.241,1.011,1.393,1.465,2.84,1.249A13.993,13.993,0,0,1,80.436,154a11.8,11.8,0,0,1,8.505,4.037c2.975,3.607,4.158,7.93,4.609,12.488a1.874,1.874,0,0,0,1.862,1.916,1.66,1.66,0,0,0,1.607-2.172,64.193,64.193,0,0,0-1.934-8.514C92.668,154.783,87.087,150.253,79.271,150.6Z" transform="translate(-36.779 -122.722)" fill="#ba0913"/>
    </g>
  </g>
</svg>
